<?xml version="1.0" standalone="no"?>
<!DOCTYPE svg PUBLIC "-//W3C//DTD SVG 1.1//EN" "http://www.w3.org/Graphics/SVG/1.1/DTD/svg11.dtd">
<svg width="307mm" height="188mm" viewBox="-4 -184 307 188" xmlns="http://www.w3.org/2000/svg" version="1.1">
<title>OpenSCAD Model</title>
<path d="
M 0.324036,-176.917 L 0.644516,-176.968 L 0.957947,-177.052 L 1.26088,-177.168 L 1.54999,-177.315 L 1.82213,-177.492
 L 2.0743,-177.696 L 2.30374,-177.926 L 2.50795,-178.178 L 2.68468,-178.45 L 2.83199,-178.739 L 2.94827,-179.042
 L 3.03226,-179.355 L 3.08301,-179.676 L 3.09999,-180 L 3.08301,-180.324 L 3.03226,-180.645 L 2.94827,-180.958
 L 2.83199,-181.261 L 2.68468,-181.55 L 2.50795,-181.822 L 2.30374,-182.074 L 2.0743,-182.304 L 1.82213,-182.508
 L 1.54999,-182.685 L 1.26088,-182.832 L 0.957947,-182.948 L 0.644516,-183.032 L 0.324036,-183.083 L 0,-183.1
 L -0.324036,-183.083 L -0.644516,-183.032 L -0.957947,-182.948 L -1.26088,-182.832 L -1.54999,-182.685 L -1.82213,-182.508
 L -2.0743,-182.304 L -2.30374,-182.074 L -2.50795,-181.822 L -2.68468,-181.55 L -2.83199,-181.261 L -2.94827,-180.958
 L -3.03226,-180.645 L -3.08301,-180.324 L -3.09999,-180 L -3.08301,-179.676 L -3.03226,-179.355 L -2.94827,-179.042
 L -2.83199,-178.739 L -2.68468,-178.45 L -2.50795,-178.178 L -2.30374,-177.926 L -2.0743,-177.696 L -1.82213,-177.492
 L -1.54999,-177.315 L -1.26088,-177.168 L -0.957947,-177.052 L -0.644516,-176.968 L -0.324036,-176.917 L 0,-176.9
 z
M 80.324,-176.917 L 80.6445,-176.968 L 80.9579,-177.052 L 81.2609,-177.168 L 81.55,-177.315 L 81.8221,-177.492
 L 82.0743,-177.696 L 82.3037,-177.926 L 82.5079,-178.178 L 82.6847,-178.45 L 82.832,-178.739 L 82.9483,-179.042
 L 83.0323,-179.355 L 83.083,-179.676 L 83.1,-180 L 83.083,-180.324 L 83.0323,-180.645 L 82.9483,-180.958
 L 82.832,-181.261 L 82.6847,-181.55 L 82.5079,-181.822 L 82.3037,-182.074 L 82.0743,-182.304 L 81.8221,-182.508
 L 81.55,-182.685 L 81.2609,-182.832 L 80.9579,-182.948 L 80.6445,-183.032 L 80.324,-183.083 L 80,-183.1
 L 79.6759,-183.083 L 79.3555,-183.032 L 79.042,-182.948 L 78.7391,-182.832 L 78.45,-182.685 L 78.1779,-182.508
 L 77.9257,-182.304 L 77.6962,-182.074 L 77.492,-181.822 L 77.3153,-181.55 L 77.168,-181.261 L 77.0517,-180.958
 L 76.9677,-180.645 L 76.917,-180.324 L 76.9,-180 L 76.917,-179.676 L 76.9677,-179.355 L 77.0517,-179.042
 L 77.168,-178.739 L 77.3153,-178.45 L 77.492,-178.178 L 77.6962,-177.926 L 77.9257,-177.696 L 78.1779,-177.492
 L 78.45,-177.315 L 78.7391,-177.168 L 79.042,-177.052 L 79.3555,-176.968 L 79.6759,-176.917 L 80,-176.9
 z
M 299.324,-76.917 L 299.645,-76.9677 L 299.958,-77.0517 L 300.261,-77.168 L 300.55,-77.3153 L 300.822,-77.492
 L 301.074,-77.6962 L 301.304,-77.9257 L 301.508,-78.1779 L 301.685,-78.45 L 301.832,-78.7391 L 301.948,-79.042
 L 302.032,-79.3555 L 302.083,-79.6759 L 302.1,-80 L 302.083,-80.324 L 302.032,-80.6445 L 301.948,-80.9579
 L 301.832,-81.2609 L 301.685,-81.55 L 301.508,-81.8221 L 301.304,-82.0743 L 301.074,-82.3037 L 300.822,-82.5079
 L 300.55,-82.6847 L 300.261,-82.832 L 299.958,-82.9483 L 299.645,-83.0323 L 299.324,-83.083 L 299,-83.1
 L 298.676,-83.083 L 298.355,-83.0323 L 298.042,-82.9483 L 297.739,-82.832 L 297.45,-82.6847 L 297.178,-82.5079
 L 296.926,-82.3037 L 296.696,-82.0743 L 296.492,-81.8221 L 296.315,-81.55 L 296.168,-81.2609 L 296.052,-80.9579
 L 295.968,-80.6445 L 295.917,-80.324 L 295.9,-80 L 295.917,-79.6759 L 295.968,-79.3555 L 296.052,-79.042
 L 296.168,-78.7391 L 296.315,-78.45 L 296.492,-78.1779 L 296.696,-77.9257 L 296.926,-77.6962 L 297.178,-77.492
 L 297.45,-77.3153 L 297.739,-77.168 L 298.042,-77.0517 L 298.355,-76.9677 L 298.676,-76.917 L 299,-76.9
 z
M 266.324,-76.917 L 266.645,-76.9677 L 266.958,-77.0517 L 267.261,-77.168 L 267.55,-77.3153 L 267.822,-77.492
 L 268.074,-77.6962 L 268.304,-77.9257 L 268.508,-78.1779 L 268.685,-78.45 L 268.832,-78.7391 L 268.948,-79.042
 L 269.032,-79.3555 L 269.083,-79.6759 L 269.1,-80 L 269.083,-80.324 L 269.032,-80.6445 L 268.948,-80.9579
 L 268.832,-81.2609 L 268.685,-81.55 L 268.508,-81.8221 L 268.304,-82.0743 L 268.074,-82.3037 L 267.822,-82.5079
 L 267.55,-82.6847 L 267.261,-82.832 L 266.958,-82.9483 L 266.645,-83.0323 L 266.324,-83.083 L 266,-83.1
 L 265.676,-83.083 L 265.355,-83.0323 L 265.042,-82.9483 L 264.739,-82.832 L 264.45,-82.6847 L 264.178,-82.5079
 L 263.926,-82.3037 L 263.696,-82.0743 L 263.492,-81.8221 L 263.315,-81.55 L 263.168,-81.2609 L 263.052,-80.9579
 L 262.968,-80.6445 L 262.917,-80.324 L 262.9,-80 L 262.917,-79.6759 L 262.968,-79.3555 L 263.052,-79.042
 L 263.168,-78.7391 L 263.315,-78.45 L 263.492,-78.1779 L 263.696,-77.9257 L 263.926,-77.6962 L 264.178,-77.492
 L 264.45,-77.3153 L 264.739,-77.168 L 265.042,-77.0517 L 265.355,-76.9677 L 265.676,-76.917 L 266,-76.9
 z
M 21.9337,-29.9084 L 22.0697,-29.9184 L 22.1998,-29.9351 L 22.3241,-29.9585 L 22.4425,-29.9885 L 22.555,-30.0252
 L 22.6617,-30.0686 L 22.7625,-30.1186 L 22.858,-30.1764 L 22.9487,-30.243 L 23.0346,-30.3183 L 23.1156,-30.4023
 L 23.1918,-30.4951 L 23.2632,-30.5966 L 23.3298,-30.7069 L 23.3915,-30.8259 L 23.4105,-30.8259 L 23.4108,-30.7749
 L 23.4115,-30.7215 L 23.4128,-30.6657 L 23.4147,-30.6076 L 23.417,-30.5471 L 23.4198,-30.4842 L 23.4232,-30.4189
 L 23.4271,-30.3513 L 23.4312,-30.2855 L 23.4353,-30.2261 L 23.4393,-30.1728 L 23.4431,-30.1258 L 23.447,-30.085
 L 23.4507,-30.0504 L 23.4544,-30.0221 L 23.458,-30 L 24.2744,-30 L 24.2678,-30.0726 L 24.262,-30.1623
 L 24.2571,-30.269 L 24.2531,-30.3928 L 24.25,-30.5336 L 24.2477,-30.6915 L 24.2464,-30.8665 L 24.246,-31.0585
 L 24.246,-37.0444 L 23.3915,-37.0444 L 23.3915,-34.913 L 23.4011,-34.3387 L 23.3915,-34.3387 L 23.3298,-34.451
 L 23.2634,-34.5555 L 23.1922,-34.6521 L 23.1162,-34.7409 L 23.0355,-34.8218 L 22.95,-34.8949 L 22.8598,-34.9601
 L 22.7649,-35.0174 L 22.6646,-35.0675 L 22.5581,-35.1109 L 22.4456,-35.1476 L 22.327,-35.1776 L 22.2024,-35.201
 L 22.0716,-35.2177 L 21.9348,-35.2277 L 21.7918,-35.231 L 21.349,-35.189 L 20.9653,-35.0631 L 20.6406,-34.8532
 L 20.3749,-34.5594 L 20.1683,-34.1815 L 20.0207,-33.7198 L 19.9321,-33.174 L 19.9026,-32.5444 L 19.9098,-32.2226
 L 19.9312,-31.9219 L 19.967,-31.6423 L 20.0171,-31.3837 L 20.0815,-31.1462 L 20.1603,-30.9298 L 20.2533,-30.7344
 L 20.3607,-30.5601 L 20.4832,-30.4066 L 20.6219,-30.2735 L 20.7767,-30.1609 L 20.9475,-30.0688 L 21.1344,-29.9972
 L 21.3375,-29.946 L 21.5566,-29.9153 L 21.7918,-29.9051 z
M 21.8556,-30.5722 L 21.7121,-30.594 L 21.5797,-30.6303 L 21.4584,-30.6812 L 21.3482,-30.7466 L 21.2492,-30.8265
 L 21.1613,-30.921 L 21.0845,-31.03 L 21.0178,-31.1559 L 20.9599,-31.3009 L 20.911,-31.4651 L 20.8709,-31.6483
 L 20.8398,-31.8507 L 20.8175,-32.0723 L 20.8042,-32.313 L 20.7997,-32.5728 L 20.8042,-32.8317 L 20.8177,-33.0719
 L 20.8401,-33.2936 L 20.8715,-33.4966 L 20.9119,-33.6811 L 20.9613,-33.8469 L 21.0196,-33.9941 L 21.0869,-34.1226
 L 21.1643,-34.2345 L 21.2529,-34.3313 L 21.3527,-34.4133 L 21.4637,-34.4804 L 21.5859,-34.5326 L 21.7193,-34.5699
 L 21.8639,-34.5922 L 22.0197,-34.5997 L 22.1928,-34.5923 L 22.3537,-34.57 L 22.5025,-34.5329 L 22.6392,-34.481
 L 22.7636,-34.4143 L 22.8759,-34.3327 L 22.976,-34.2363 L 23.064,-34.125 L 23.1408,-33.9978 L 23.2073,-33.8536
 L 23.2636,-33.6922 L 23.3097,-33.5139 L 23.3455,-33.3184 L 23.3711,-33.1059 L 23.3864,-32.8764 L 23.3915,-32.6297
 L 23.3864,-32.3738 L 23.3711,-32.1352 L 23.3455,-31.9139 L 23.3097,-31.7101 L 23.2636,-31.5235 L 23.2073,-31.3543
 L 23.1408,-31.2025 L 23.064,-31.0681 L 22.9759,-30.9501 L 22.8753,-30.8479 L 22.7623,-30.7614 L 22.6368,-30.6907
 L 22.4988,-30.6357 L 22.3484,-30.5963 L 22.1856,-30.5728 L 22.0102,-30.5649 z
M 31.5597,-37.0444 L 30.7052,-37.0444 L 30.7052,-36.2279 L 31.5597,-36.2279 z
M 11.7279,-31.9557 L 14.7753,-31.9557 L 15.5396,-30 L 16.4653,-30 L 13.7785,-36.6884 L 12.7484,-36.6884
 L 10.019,-30 L 10.9588,-30 z
M 12.0032,-32.663 L 12.8576,-34.8608 L 12.914,-35.0116 L 12.9668,-35.1554 L 13.016,-35.2923 L 13.0617,-35.4221
 L 13.1039,-35.545 L 13.1424,-35.6609 L 13.1774,-35.7699 L 13.2089,-35.8719 L 13.2516,-36.0048 L 13.3798,-35.6108
 L 13.413,-35.5089 L 13.4462,-35.4096 L 13.4795,-35.3131 L 13.5127,-35.2192 L 13.5459,-35.128 L 13.5791,-35.0394
 L 13.6124,-34.9535 L 13.6456,-34.8703 L 14.5048,-32.663 z
M 48.9003,-30.0064 L 49.1317,-30.0258 L 49.356,-30.0581 L 49.5732,-30.1032 L 49.7832,-30.1613 L 49.9861,-30.2323
 L 50.182,-30.3161 L 50.3707,-30.4129 L 50.5505,-30.5219 L 50.7198,-30.6421 L 50.8786,-30.7737 L 51.0269,-30.9167
 L 51.1646,-31.071 L 51.2919,-31.2367 L 51.4085,-31.4137 L 51.5147,-31.602 L 51.6092,-31.8001 L 51.6912,-32.0063
 L 51.7605,-32.2205 L 51.8173,-32.4428 L 51.8614,-32.6732 L 51.8929,-32.9117 L 51.9118,-33.1583 L 51.9181,-33.413
 L 51.9037,-33.7946 L 51.8604,-34.1536 L 51.7883,-34.4903 L 51.6873,-34.8044 L 51.5575,-35.0961 L 51.3988,-35.3653
 L 51.2112,-35.612 L 50.9948,-35.8362 L 50.7519,-36.0359 L 50.4847,-36.209 L 50.1933,-36.3555 L 49.8776,-36.4753
 L 49.5376,-36.5685 L 49.1734,-36.6351 L 48.7849,-36.675 L 48.3722,-36.6884 L 46.1602,-36.6884 L 46.1602,-30
 L 48.6618,-30 z
M 47.0669,-30.7262 L 47.0669,-35.9621 L 48.3532,-35.9621 L 48.6665,-35.9519 L 48.9607,-35.9213 L 49.2358,-35.8703
 L 49.4919,-35.7989 L 49.7289,-35.7071 L 49.9469,-35.5949 L 50.1457,-35.4623 L 50.3256,-35.3094 L 50.4852,-35.1369
 L 50.6236,-34.9461 L 50.7407,-34.7367 L 50.8364,-34.5089 L 50.9109,-34.2626 L 50.9642,-33.9979 L 50.9961,-33.7147
 L 51.0067,-33.413 L 51.0021,-33.2099 L 50.9881,-33.0137 L 50.9647,-32.8242 L 50.932,-32.6416 L 50.8899,-32.4659
 L 50.8385,-32.2969 L 50.7778,-32.1348 L 50.7077,-31.9794 L 50.6289,-31.832 L 50.542,-31.6935 L 50.447,-31.5638
 L 50.344,-31.443 L 50.2328,-31.3312 L 50.1136,-31.2282 L 49.9863,-31.1342 L 49.8509,-31.049 L 49.7087,-30.9734
 L 49.5609,-30.9078 L 49.4075,-30.8523 L 49.2486,-30.8069 L 49.0842,-30.7716 L 48.9141,-30.7464 L 48.7385,-30.7313
 L 48.5574,-30.7262 z
M 55.8993,-29.9099 L 56.1023,-29.9245 L 56.2983,-29.9488 L 56.4872,-29.9828 L 56.6691,-30.0265 L 56.844,-30.0799
 L 57.0118,-30.1431 L 57.1726,-30.2159 L 57.3254,-30.298 L 57.4693,-30.3888 L 57.6043,-30.4882 L 57.7304,-30.5963
 L 57.8475,-30.7131 L 57.9558,-30.8385 L 58.0552,-30.9727 L 58.1457,-31.1155 L 58.2263,-31.2662 L 58.2962,-31.4238
 L 58.3554,-31.5884 L 58.4038,-31.7599 L 58.4414,-31.9384 L 58.4683,-32.1239 L 58.4845,-32.3164 L 58.4898,-32.5159
 L 58.4898,-36.6884 L 57.5879,-36.6884 L 57.5879,-32.5681 L 57.5801,-32.339 L 57.5566,-32.1241 L 57.5175,-31.9233
 L 57.4628,-31.7368 L 57.3923,-31.5643 L 57.3063,-31.4061 L 57.2045,-31.262 L 57.0872,-31.1321 L 56.9557,-31.017
 L 56.8117,-30.9172 L 56.6552,-30.8327 L 56.4861,-30.7637 L 56.3045,-30.7099 L 56.1103,-30.6715 L 55.9037,-30.6485
 L 55.6844,-30.6408 L 55.4713,-30.6483 L 55.2712,-30.6705 L 55.0839,-30.7076 L 54.9095,-30.7595 L 54.748,-30.8263
 L 54.5995,-30.9078 L 54.4638,-31.0043 L 54.3411,-31.1155 L 54.232,-31.2411 L 54.1376,-31.3804 L 54.0576,-31.5336
 L 53.9922,-31.7006 L 53.9413,-31.8813 L 53.905,-32.0759 L 53.8832,-32.2842 L 53.8759,-32.5063 L 53.8759,-36.6884
 L 52.9692,-36.6884 L 52.9692,-32.4304 L 52.9745,-32.2368 L 52.9903,-32.05 L 53.0166,-31.8701 L 53.0535,-31.697
 L 53.1009,-31.5307 L 53.1588,-31.3712 L 53.2272,-31.2186 L 53.3062,-31.0727 L 53.3948,-30.9346 L 53.492,-30.8049
 L 53.5977,-30.6836 L 53.7121,-30.5708 L 53.8351,-30.4664 L 53.9666,-30.3705 L 54.1068,-30.2831 L 54.2556,-30.2041
 L 54.4119,-30.134 L 54.5748,-30.0733 L 54.7442,-30.0219 L 54.9202,-29.9798 L 55.1026,-29.9471 L 55.2916,-29.9238
 L 55.4872,-29.9098 L 55.6892,-29.9051 z
M 65.1422,-30.7405 L 60.7799,-30.7405 L 60.7799,-33.0712 L 64.6628,-33.0712 L 64.6628,-33.8022 L 60.7799,-33.8022
 L 60.7799,-35.9478 L 64.9476,-35.9478 L 64.9476,-36.6884 L 59.8732,-36.6884 L 59.8732,-30 L 65.1422,-30
 z
M 40.4006,-29.9154 L 40.6579,-29.9463 L 40.8984,-29.9979 L 41.1222,-30.07 L 41.3292,-30.1628 L 41.5195,-30.2762
 L 41.6929,-30.4102 L 41.8497,-30.5649 L 41.9888,-30.7406 L 42.1093,-30.9378 L 42.2113,-31.1565 L 42.2947,-31.3968
 L 42.3596,-31.6585 L 42.406,-31.9418 L 42.4338,-32.2465 L 42.4431,-32.5728 L 42.4344,-32.9022 L 42.4083,-33.2093
 L 42.365,-33.4941 L 42.3042,-33.7566 L 42.2261,-33.9967 L 42.1306,-34.2145 L 42.0178,-34.41 L 41.8876,-34.5831
 L 41.739,-34.735 L 41.5711,-34.8666 L 41.3836,-34.9779 L 41.1768,-35.069 L 40.9505,-35.1399 L 40.7048,-35.1905
 L 40.4396,-35.2209 L 40.155,-35.231 L 39.6155,-35.1895 L 39.1478,-35.0649 L 38.7521,-34.8572 L 38.4284,-34.5665
 L 38.1766,-34.1926 L 37.9967,-33.7358 L 37.8888,-33.1958 L 37.8528,-32.5728 L 37.8618,-32.2583 L 37.8887,-31.963
 L 37.9336,-31.6867 L 37.9964,-31.4294 L 38.0772,-31.1912 L 38.1759,-30.9721 L 38.2926,-30.772 L 38.4272,-30.591
 L 38.5794,-30.4302 L 38.7488,-30.2909 L 38.9354,-30.173 L 39.1392,-30.0766 L 39.3602,-30.0015 L 39.5985,-29.948
 L 39.8539,-29.9158 L 40.1266,-29.9051 z
M 39.9461,-30.5444 L 39.787,-30.5683 L 39.6396,-30.6082 L 39.5041,-30.664 L 39.3803,-30.7357 L 39.2684,-30.8234
 L 39.1682,-30.9271 L 39.0798,-31.0467 L 39.0025,-31.1822 L 38.9355,-31.3335 L 38.8788,-31.5005 L 38.8324,-31.6834
 L 38.7963,-31.882 L 38.7706,-32.0965 L 38.7551,-32.3267 L 38.7499,-32.5728 L 38.7552,-32.8252 L 38.7708,-33.0604
 L 38.797,-33.2782 L 38.8336,-33.4788 L 38.8807,-33.6621 L 38.9382,-33.8282 L 39.0062,-33.9769 L 39.0846,-34.1084
 L 39.1748,-34.2235 L 39.2779,-34.3233 L 39.394,-34.4078 L 39.5231,-34.4769 L 39.6652,-34.5306 L 39.8202,-34.569
 L 39.9883,-34.592 L 40.1693,-34.5997 L 40.3489,-34.5922 L 40.515,-34.5696 L 40.6678,-34.5319 L 40.8071,-34.4792
 L 40.933,-34.4115 L 41.0455,-34.3287 L 41.1445,-34.2308 L 41.2302,-34.1179 L 41.3042,-33.9883 L 41.3683,-33.8406
 L 41.4225,-33.6748 L 41.4669,-33.4907 L 41.5015,-33.2885 L 41.5261,-33.0681 L 41.5409,-32.8295 L 41.5459,-32.5728
 L 41.5407,-32.3192 L 41.5253,-32.083 L 41.4995,-31.8641 L 41.4634,-31.6626 L 41.417,-31.4784 L 41.3603,-31.3116
 L 41.2933,-31.1621 L 41.216,-31.03 L 41.1266,-30.9144 L 41.0236,-30.8141 L 40.9068,-30.7292 L 40.7763,-30.6598
 L 40.632,-30.6058 L 40.4741,-30.5673 L 40.3024,-30.5441 L 40.117,-30.5364 z
M 33.6928,-32.9763 L 33.6984,-33.1586 L 33.7151,-33.3308 L 33.7429,-33.4927 L 33.7818,-33.6444 L 33.8319,-33.7858
 L 33.8931,-33.9171 L 33.9654,-34.038 L 34.0488,-34.1488 L 34.1419,-34.2478 L 34.2431,-34.3336 L 34.3526,-34.4062
 L 34.4701,-34.4656 L 34.5958,-34.5118 L 34.7297,-34.5448 L 34.8717,-34.5646 L 35.0219,-34.5712 L 35.1243,-34.5693
 L 35.2204,-34.5635 L 35.31,-34.5538 L 35.3933,-34.5403 L 35.4702,-34.523 L 35.5408,-34.5018 L 35.6049,-34.4767
 L 35.6627,-34.4478 L 35.7154,-34.4145 L 35.7645,-34.3763 L 35.8098,-34.3332 L 35.8514,-34.2852 L 35.8893,-34.2323
 L 35.9235,-34.1746 L 35.954,-34.1119 L 35.9808,-34.0443 L 36.0041,-33.9707 L 36.0244,-33.89 L 36.0415,-33.8022
 L 36.0555,-33.7073 L 36.0664,-33.6052 L 36.0742,-33.496 L 36.0789,-33.3797 L 36.0804,-33.2563 L 36.0804,-30
 L 36.9396,-30 L 36.9396,-33.4225 L 36.9335,-33.656 L 36.9151,-33.8724 L 36.8845,-34.0717 L 36.8417,-34.2538
 L 36.7866,-34.4188 L 36.7193,-34.5667 L 36.6398,-34.6974 L 36.548,-34.811 L 36.443,-34.9094 L 36.3239,-34.9947
 L 36.1905,-35.0669 L 36.0431,-35.126 L 35.8814,-35.172 L 35.7056,-35.2048 L 35.5156,-35.2245 L 35.3115,-35.231
 L 35.1708,-35.2276 L 35.036,-35.2172 L 34.907,-35.2 L 34.784,-35.1758 L 34.6667,-35.1448 L 34.5553,-35.1069
 L 34.4498,-35.062 L 34.3502,-35.0103 L 34.2549,-34.9503 L 34.1626,-34.8805 L 34.0731,-34.8011 L 33.9865,-34.7119
 L 33.9028,-34.613 L 33.822,-34.5043 L 33.7441,-34.386 L 33.6691,-34.2579 L 33.6548,-34.2579 L 33.6525,-34.3479
 L 33.6502,-34.4305 L 33.648,-34.5055 L 33.6459,-34.573 L 33.6439,-34.633 L 33.6419,-34.6856 L 33.64,-34.7306
 L 33.6382,-34.7682 L 33.6348,-34.8339 L 33.6317,-34.8958 L 33.6275,-34.9813 L 33.6263,-35.0079 L 33.6251,-35.0328
 L 33.6239,-35.0551 L 33.6227,-35.0749 L 33.6216,-35.0922 L 33.6204,-35.1069 L 33.6192,-35.1192 L 33.618,-35.1289
 L 33.6169,-35.1361 L 32.8099,-35.1361 L 32.8166,-35.0754 L 32.8223,-34.9928 L 32.8272,-34.8884 L 32.8312,-34.7623
 L 32.8343,-34.6143 L 32.8365,-34.4445 L 32.8379,-34.2529 L 32.8383,-34.0396 L 32.8383,-30 L 33.6928,-30
 z
M 17.8612,-32.6772 L 17.8656,-32.8846 L 17.8787,-33.0797 L 17.9006,-33.2623 L 17.9312,-33.4326 L 17.9706,-33.5905
 L 18.0187,-33.7359 L 18.0756,-33.869 L 18.1413,-33.9897 L 18.2152,-34.0971 L 18.297,-34.1901 L 18.3867,-34.2689
 L 18.4842,-34.3333 L 18.5896,-34.3834 L 18.7029,-34.4192 L 18.824,-34.4406 L 18.953,-34.4478 L 19.0224,-34.4471
 L 19.0882,-34.4448 L 19.1505,-34.4411 L 19.2093,-34.4359 L 19.2645,-34.4293 L 19.3161,-34.4211 L 19.3642,-34.4115
 L 19.4087,-34.4003 L 19.4087,-35.1836 L 19.3648,-35.1947 L 19.3211,-35.2043 L 19.2776,-35.2125 L 19.2342,-35.2192
 L 19.1909,-35.2243 L 19.1478,-35.2281 L 19.1049,-35.2303 L 19.0621,-35.231 L 18.9445,-35.2272 L 18.8337,-35.2159
 L 18.7297,-35.197 L 18.6325,-35.1705 L 18.5422,-35.1365 L 18.4586,-35.0949 L 18.3819,-35.0457 L 18.3121,-34.989
 L 18.2466,-34.9219 L 18.183,-34.8418 L 18.1214,-34.7487 L 18.0617,-34.6425 L 18.0039,-34.5232 L 17.9481,-34.3909
 L 17.8941,-34.2455 L 17.8421,-34.0871 L 17.8232,-34.0871 L 17.8226,-34.1419 L 17.8208,-34.2185 L 17.8178,-34.3169
 L 17.8137,-34.4371 L 17.8084,-34.5792 L 17.8018,-34.743 L 17.7941,-34.9286 L 17.7852,-35.1361 L 16.9783,-35.1361
 L 16.9849,-34.9741 L 16.9907,-34.8157 L 16.9956,-34.6608 L 16.9996,-34.5095 L 17.0027,-34.3618 L 17.0049,-34.2176
 L 17.0063,-34.077 L 17.0067,-33.9399 L 17.0067,-30 L 17.8612,-30 z
M 27.1748,-29.9085 L 27.3096,-29.9189 L 27.4386,-29.9361 L 27.5617,-29.9603 L 27.6789,-29.9913 L 27.7903,-30.0292
 L 27.8958,-30.0741 L 27.9954,-30.1258 L 28.0907,-30.1858 L 28.1831,-30.2556 L 28.2726,-30.335 L 28.3591,-30.4242
 L 28.4428,-30.5231 L 28.5237,-30.6317 L 28.6016,-30.7501 L 28.6766,-30.8781 L 28.6908,-30.8781 L 28.6931,-30.7881
 L 28.6954,-30.7056 L 28.6976,-30.6306 L 28.6997,-30.5631 L 28.7017,-30.503 L 28.7037,-30.4505 L 28.7056,-30.4054
 L 28.7074,-30.3678 L 28.7108,-30.3022 L 28.7139,-30.2403 L 28.7168,-30.1823 L 28.7205,-30.1033 L 28.7217,-30.081
 L 28.7229,-30.0612 L 28.724,-30.0439 L 28.7252,-30.0291 L 28.7264,-30.0169 L 28.7276,-30.0072 L 28.7288,-30
 L 29.5358,-30 L 29.5291,-30.0607 L 29.5233,-30.1433 L 29.5184,-30.2477 L 29.5144,-30.3738 L 29.5113,-30.5218
 L 29.509,-30.6916 L 29.5077,-30.8831 L 29.5073,-31.0965 L 29.5073,-35.1361 L 28.6528,-35.1361 L 28.6528,-32.1598
 L 28.6473,-31.9774 L 28.6306,-31.8053 L 28.6028,-31.6434 L 28.5638,-31.4917 L 28.5138,-31.3503 L 28.4526,-31.219
 L 28.3803,-31.0981 L 28.2968,-30.9873 L 28.2038,-30.8883 L 28.1025,-30.8025 L 27.9931,-30.7299 L 27.8755,-30.6705
 L 27.7498,-30.6243 L 27.6159,-30.5913 L 27.4739,-30.5715 L 27.3237,-30.5649 L 27.2213,-30.5668 L 27.1252,-30.5726
 L 27.0356,-30.5822 L 26.9523,-30.5957 L 26.8753,-30.6131 L 26.8048,-30.6343 L 26.7406,-30.6594 L 26.6828,-30.6883
 L 26.6301,-30.7216 L 26.5811,-30.7598 L 26.5358,-30.8029 L 26.4942,-30.8509 L 26.4563,-30.9038 L 26.4221,-30.9615
 L 26.3916,-31.0242 L 26.3648,-31.0918 L 26.3415,-31.1654 L 26.3212,-31.2461 L 26.3041,-31.3339 L 26.2901,-31.4288
 L 26.2792,-31.5309 L 26.2714,-31.6401 L 26.2667,-31.7563 L 26.2652,-31.8798 L 26.2652,-35.1361 L 25.406,-35.1361
 L 25.406,-31.7136 L 25.4121,-31.4801 L 25.4305,-31.2637 L 25.461,-31.0645 L 25.5039,-30.8823 L 25.5589,-30.7173
 L 25.6262,-30.5695 L 25.7058,-30.4387 L 25.7975,-30.3251 L 25.9025,-30.2267 L 26.0217,-30.1414 L 26.155,-30.0692
 L 26.3025,-30.0101 L 26.4642,-29.9642 L 26.64,-29.9313 L 26.83,-29.9117 L 27.0342,-29.9051 z
M 31.5597,-35.1361 L 30.7052,-35.1361 L 30.7052,-30 L 31.5597,-30 z
M 25.7271,-19.913 L 26.0281,-19.9368 L 26.3106,-19.9765 L 26.5747,-20.0321 L 26.8203,-20.1035 L 27.0475,-20.1908
 L 27.2561,-20.2939 L 27.4463,-20.413 L 27.616,-20.5465 L 27.763,-20.6931 L 27.8875,-20.8527 L 27.9893,-21.0253
 L 28.0685,-21.2111 L 28.125,-21.4098 L 28.159,-21.6216 L 28.1703,-21.8465 L 28.1687,-21.9364 L 28.1639,-22.0234
 L 28.1559,-22.1073 L 28.1448,-22.1883 L 28.1304,-22.2663 L 28.1129,-22.3414 L 28.0921,-22.4135 L 28.0682,-22.4826
 L 28.0415,-22.5491 L 28.0123,-22.6134 L 27.9807,-22.6755 L 27.9466,-22.7354 L 27.91,-22.793 L 27.8711,-22.8484
 L 27.8296,-22.9016 L 27.7858,-22.9525 L 27.7397,-23.0014 L 27.6916,-23.0484 L 27.6414,-23.0934 L 27.5893,-23.1365
 L 27.5352,-23.1777 L 27.4791,-23.2169 L 27.421,-23.2542 L 27.3609,-23.2896 L 27.2992,-23.3234 L 27.2364,-23.3562
 L 27.1725,-23.3878 L 27.1075,-23.4184 L 27.0414,-23.4478 L 26.9742,-23.4761 L 26.9058,-23.5033 L 26.8363,-23.5293
 L 26.7659,-23.5544 L 26.6947,-23.5786 L 26.6226,-23.6019 L 26.5498,-23.6243 L 26.4761,-23.6458 L 26.4016,-23.6664
 L 26.3262,-23.6861 L 26.2501,-23.705 L 26.1735,-23.7233 L 26.0969,-23.7416 L 26.0201,-23.7598 L 25.9433,-23.7779
 L 25.8665,-23.796 L 25.7895,-23.814 L 25.7125,-23.8319 L 25.6354,-23.8497 L 25.4148,-23.8997 L 25.2132,-23.9478
 L 25.0309,-23.9938 L 24.8676,-24.0378 L 24.7235,-24.0798 L 24.5985,-24.1198 L 24.4927,-24.1578 L 24.4059,-24.1938
 L 24.3311,-24.2298 L 24.2607,-24.2677 L 24.1949,-24.3076 L 24.1336,-24.3493 L 24.0768,-24.393 L 24.0245,-24.4386
 L 23.9768,-24.4862 L 23.9336,-24.5356 L 23.8952,-24.5878 L 23.862,-24.6432 L 23.8338,-24.702 L 23.8108,-24.7641
 L 23.7929,-24.8295 L 23.7801,-24.8983 L 23.7724,-24.9705 L 23.7699,-25.0459 L 23.7765,-25.1736 L 23.7963,-25.2931
 L 23.8293,-25.4044 L 23.8755,-25.5076 L 23.9349,-25.6026 L 24.0075,-25.6894 L 24.0933,-25.7681 L 24.1923,-25.8386
 L 24.3039,-25.9009 L 24.4273,-25.9549 L 24.5626,-26.0006 L 24.7097,-26.038 L 24.8688,-26.0671 L 25.0397,-26.0879
 L 25.2224,-26.1003 L 25.417,-26.1045 L 25.5948,-26.1007 L 25.7627,-26.0895 L 25.9206,-26.0708 L 26.0685,-26.0445
 L 26.2066,-26.0108 L 26.3347,-25.9696 L 26.4528,-25.9209 L 26.561,-25.8647 L 26.6601,-25.8002 L 26.7509,-25.7266
 L 26.8334,-25.6439 L 26.9076,-25.5521 L 26.9734,-25.4511 L 27.031,-25.341 L 27.0802,-25.2218 L 27.1212,-25.0934
 L 28.0136,-25.2501 L 27.9474,-25.4524 L 27.87,-25.6394 L 27.7813,-25.8111 L 27.6813,-25.9674 L 27.57,-26.1083
 L 27.4475,-26.2339 L 27.3137,-26.3442 L 27.1686,-26.4391 L 27.0096,-26.5209 L 26.8337,-26.5918 L 26.6411,-26.6517
 L 26.4317,-26.7008 L 26.2056,-26.739 L 25.9626,-26.7662 L 25.703,-26.7826 L 25.4265,-26.788 L 25.1292,-26.7808
 L 24.8496,-26.759 L 24.5878,-26.7226 L 24.3436,-26.6717 L 24.1172,-26.6063 L 23.9086,-26.5264 L 23.7176,-26.4319
 L 23.5444,-26.3228 L 23.3903,-26.2004 L 23.2568,-26.0656 L 23.1438,-25.9185 L 23.0513,-25.7592 L 22.9794,-25.5875
 L 22.928,-25.4034 L 22.8972,-25.2071 L 22.8869,-24.9985 L 22.8889,-24.9061 L 22.8948,-24.8163 L 22.9046,-24.7292
 L 22.9184,-24.6448 L 22.9361,-24.563 L 22.9577,-24.484 L 22.9833,-24.4076 L 23.0127,-24.3338 L 23.0459,-24.2626
 L 23.0826,-24.1937 L 23.1228,-24.127 L 23.1664,-24.0627 L 23.2136,-24.0006 L 23.2642,-23.9409 L 23.3183,-23.8835
 L 23.3759,-23.8283 L 23.4379,-23.7749 L 23.5054,-23.7228 L 23.5783,-23.672 L 23.6566,-23.6224 L 23.7403,-23.5741
 L 23.8294,-23.5271 L 23.9239,-23.4812 L 24.0238,-23.4367 L 24.1324,-23.3928 L 24.253,-23.3489 L 24.3855,-23.305
 L 24.53,-23.2611 L 24.6864,-23.2172 L 24.8547,-23.1733 L 25.035,-23.1294 L 25.2272,-23.0854 L 25.3399,-23.0596
 L 25.45,-23.0341 L 25.5576,-23.0091 L 25.6627,-22.9846 L 25.7653,-22.9604 L 25.8653,-22.9368 L 25.9629,-22.9136
 L 26.0579,-22.8908 L 26.15,-22.8676 L 26.2388,-22.843 L 26.3244,-22.8172 L 26.4068,-22.7899 L 26.4858,-22.7614
 L 26.5616,-22.7315 L 26.6342,-22.7003 L 26.7034,-22.6677 L 26.7692,-22.6334 L 26.8312,-22.5968 L 26.8894,-22.558
 L 26.9438,-22.517 L 26.9944,-22.4738 L 27.0412,-22.4283 L 27.0843,-22.3806 L 27.1236,-22.3307 L 27.1586,-22.2778
 L 27.189,-22.2209 L 27.2147,-22.1603 L 27.2357,-22.0957 L 27.2521,-22.0274 L 27.2637,-21.9551 L 27.2707,-21.879
 L 27.2731,-21.7991 L 27.2656,-21.6575 L 27.2433,-21.5248 L 27.206,-21.4009 L 27.1538,-21.2858 L 27.0867,-21.1796
 L 27.0047,-21.0821 L 26.9078,-20.9935 L 26.796,-20.9138 L 26.6705,-20.8431 L 26.5324,-20.7819 L 26.3818,-20.7301
 L 26.2187,-20.6877 L 26.043,-20.6547 L 25.8548,-20.6312 L 25.6541,-20.6171 L 25.4408,-20.6124 L 25.2339,-20.6168
 L 25.0382,-20.63 L 24.8536,-20.6521 L 24.6801,-20.683 L 24.5177,-20.7227 L 24.3665,-20.7712 L 24.2264,-20.8286
 L 24.0974,-20.8948 L 23.9793,-20.9704 L 23.8719,-21.056 L 23.7752,-21.1517 L 23.6892,-21.2574 L 23.6138,-21.373
 L 23.5492,-21.4987 L 23.4952,-21.6344 L 23.4518,-21.7801 L 22.5737,-21.6045 L 22.7031,-21.2062 L 22.8968,-20.861
 L 23.1546,-20.5689 L 23.4768,-20.3299 L 23.8631,-20.144 L 24.3137,-20.0113 L 24.8285,-19.9316 L 25.4076,-19.9051
 z
M 18.9557,-19.9099 L 19.1588,-19.9245 L 19.3548,-19.9488 L 19.5437,-19.9828 L 19.7256,-20.0265 L 19.9005,-20.0799
 L 20.0683,-20.1431 L 20.229,-20.2159 L 20.3818,-20.298 L 20.5257,-20.3888 L 20.6607,-20.4882 L 20.7868,-20.5963
 L 20.904,-20.7131 L 21.0123,-20.8385 L 21.1117,-20.9727 L 21.2022,-21.1155 L 21.2828,-21.2662 L 21.3527,-21.4238
 L 21.4119,-21.5884 L 21.4603,-21.7599 L 21.4979,-21.9384 L 21.5248,-22.1239 L 21.5409,-22.3164 L 21.5463,-22.5159
 L 21.5463,-26.6884 L 20.6444,-26.6884 L 20.6444,-22.5681 L 20.6366,-22.339 L 20.6131,-22.1241 L 20.574,-21.9233
 L 20.5192,-21.7368 L 20.4488,-21.5643 L 20.3627,-21.4061 L 20.261,-21.262 L 20.1436,-21.1321 L 20.0122,-21.017
 L 19.8682,-20.9172 L 19.7116,-20.8327 L 19.5426,-20.7637 L 19.3609,-20.7099 L 19.1668,-20.6715 L 18.9601,-20.6485
 L 18.7409,-20.6408 L 18.5278,-20.6483 L 18.3276,-20.6705 L 18.1404,-20.7076 L 17.966,-20.7595 L 17.8045,-20.8263
 L 17.656,-20.9078 L 17.5203,-21.0043 L 17.3975,-21.1155 L 17.2885,-21.2411 L 17.194,-21.3804 L 17.1141,-21.5336
 L 17.0487,-21.7006 L 16.9978,-21.8813 L 16.9615,-22.0759 L 16.9397,-22.2842 L 16.9324,-22.5063 L 16.9324,-26.6884
 L 16.0257,-26.6884 L 16.0257,-22.4304 L 16.0309,-22.2368 L 16.0467,-22.05 L 16.0731,-21.8701 L 16.1099,-21.697
 L 16.1573,-21.5307 L 16.2153,-21.3712 L 16.2837,-21.2186 L 16.3627,-21.0727 L 16.4513,-20.9346 L 16.5484,-20.8049
 L 16.6542,-20.6836 L 16.7686,-20.5708 L 16.8916,-20.4664 L 17.0231,-20.3705 L 17.1633,-20.2831 L 17.3121,-20.2041
 L 17.4684,-20.134 L 17.6313,-20.0733 L 17.8007,-20.0219 L 17.9766,-19.9798 L 18.1591,-19.9471 L 18.3481,-19.9238
 L 18.5436,-19.9098 L 18.7457,-19.9051 z
M 32.2592,-20.0077 L 32.5249,-20.031 L 32.7748,-20.0697 L 33.0089,-20.124 L 33.227,-20.1938 L 33.4292,-20.279
 L 33.6156,-20.3798 L 33.7861,-20.496 L 33.9386,-20.6262 L 34.0706,-20.7688 L 34.1824,-20.9238 L 34.2739,-21.0912
 L 34.345,-21.271 L 34.3958,-21.4631 L 34.4263,-21.6676 L 34.4364,-21.8845 L 34.4297,-22.0482 L 34.4095,-22.2048
 L 34.3757,-22.3541 L 34.3284,-22.4962 L 34.2677,-22.6312 L 34.1935,-22.7589 L 34.1057,-22.8795 L 34.0045,-22.9928
 L 33.8908,-23.0972 L 33.7657,-23.1909 L 33.6291,-23.2738 L 33.4811,-23.3459 L 33.3217,-23.4073 L 33.1509,-23.4579
 L 32.9687,-23.4978 L 32.7751,-23.5269 L 32.9227,-23.5655 L 33.0617,-23.6124 L 33.192,-23.6675 L 33.3138,-23.731
 L 33.427,-23.8028 L 33.5316,-23.8829 L 33.6276,-23.9713 L 33.715,-24.068 L 33.7928,-24.1719 L 33.8603,-24.2816
 L 33.9174,-24.3974 L 33.9642,-24.519 L 34.0005,-24.6466 L 34.0265,-24.7801 L 34.0421,-24.9195 L 34.0472,-25.0649
 L 34.0105,-25.4454 L 33.9001,-25.7752 L 33.7162,-26.0542 L 33.4586,-26.2825 L 33.1275,-26.4601 L 32.7229,-26.5869
 L 32.2446,-26.663 L 31.6928,-26.6884 L 29.2624,-26.6884 L 29.2624,-20 L 31.9776,-20 z
M 30.169,-23.845 L 30.169,-25.9621 L 31.6928,-25.9621 L 31.8632,-25.9585 L 32.0233,-25.9476 L 32.173,-25.9294
 L 32.3122,-25.9039 L 32.4411,-25.8712 L 32.5597,-25.8313 L 32.6678,-25.784 L 32.7655,-25.7295 L 32.8523,-25.6665
 L 32.9276,-25.5939 L 32.9912,-25.5116 L 33.0433,-25.4197 L 33.0838,-25.3182 L 33.1127,-25.207 L 33.1301,-25.0862
 L 33.1358,-24.9557 L 33.1302,-24.8191 L 33.1134,-24.6915 L 33.0854,-24.5731 L 33.0462,-24.4638 L 32.9958,-24.3637
 L 32.9342,-24.2726 L 32.8615,-24.1907 L 32.7775,-24.1179 L 32.6821,-24.0539 L 32.5753,-23.9985 L 32.4569,-23.9516
 L 32.3271,-23.9132 L 32.1858,-23.8833 L 32.0329,-23.862 L 31.8686,-23.8492 L 31.6928,-23.845 z
M 30.169,-20.7262 L 30.169,-23.1377 L 31.8589,-23.1377 L 32.2483,-23.1192 L 32.5858,-23.0638 L 32.8713,-22.9715
 L 33.1049,-22.8422 L 33.2867,-22.676 L 33.4164,-22.4728 L 33.4943,-22.2327 L 33.5203,-21.9557 L 33.5144,-21.8074
 L 33.4966,-21.6685 L 33.4669,-21.5392 L 33.4254,-21.4193 L 33.3719,-21.3089 L 33.3067,-21.2081 L 33.2295,-21.1167
 L 33.1405,-21.0348 L 33.0386,-20.9625 L 32.9225,-20.8998 L 32.7923,-20.8468 L 32.6481,-20.8034 L 32.4897,-20.7696
 L 32.3173,-20.7455 L 32.1307,-20.7311 L 31.9301,-20.7262 z
M 39.1396,-23.0997 L 42.7567,-23.0997 L 42.7567,-20 L 43.6633,-20 L 43.6633,-26.6884 L 42.7567,-26.6884
 L 42.7567,-23.8592 L 39.1396,-23.8592 L 39.1396,-26.6884 L 38.2329,-26.6884 L 38.2329,-20 L 39.1396,-20
 z
M 56.1953,-19.9258 L 56.3048,-19.9312 L 56.4137,-19.9401 L 56.522,-19.9525 L 56.6297,-19.9686 L 56.7368,-19.9882
 L 56.8433,-20.0113 L 56.9492,-20.038 L 56.9492,-20.6693 L 56.8709,-20.6537 L 56.7973,-20.6402 L 56.7285,-20.6288
 L 56.6644,-20.6195 L 56.6051,-20.6122 L 56.5505,-20.607 L 56.5006,-20.6039 L 56.4556,-20.6028 L 56.3835,-20.6052
 L 56.3171,-20.6122 L 56.2563,-20.6239 L 56.201,-20.6402 L 56.1512,-20.6612 L 56.1071,-20.6869 L 56.0685,-20.7173
 L 56.0354,-20.7523 L 56.007,-20.7932 L 55.9825,-20.8409 L 55.9617,-20.8955 L 55.9446,-20.9571 L 55.9314,-21.0255
 L 55.9219,-21.1008 L 55.9163,-21.183 L 55.9144,-21.2722 L 55.9144,-24.5143 L 56.8638,-24.5143 L 56.8638,-25.1361
 L 55.9144,-25.1361 L 55.9144,-26.2849 L 55.3448,-26.2849 L 55.0931,-25.1361 L 54.4666,-25.1361 L 54.4666,-24.5143
 L 55.06,-24.5143 L 55.06,-21.087 L 55.076,-20.8145 L 55.124,-20.5782 L 55.2041,-20.3783 L 55.3163,-20.2148
 L 55.4605,-20.0876 L 55.6367,-19.9967 L 55.8449,-19.9422 L 56.0853,-19.9241 z
M 47.248,-19.9154 L 47.5052,-19.9463 L 47.7458,-19.9979 L 47.9695,-20.07 L 48.1766,-20.1628 L 48.3668,-20.2762
 L 48.5403,-20.4102 L 48.697,-20.5649 L 48.8361,-20.7406 L 48.9566,-20.9378 L 49.0586,-21.1565 L 49.1421,-21.3968
 L 49.207,-21.6585 L 49.2533,-21.9418 L 49.2811,-22.2465 L 49.2904,-22.5728 L 49.2817,-22.9022 L 49.2557,-23.2093
 L 49.2123,-23.4941 L 49.1516,-23.7566 L 49.0734,-23.9967 L 48.978,-24.2145 L 48.8651,-24.41 L 48.735,-24.5831
 L 48.5864,-24.735 L 48.4184,-24.8666 L 48.231,-24.9779 L 48.0241,-25.069 L 47.7979,-25.1399 L 47.5521,-25.1905
 L 47.287,-25.2209 L 47.0024,-25.231 L 46.4628,-25.1895 L 45.9952,-25.0649 L 45.5995,-24.8572 L 45.2757,-24.5665
 L 45.0239,-24.1926 L 44.8441,-23.7358 L 44.7361,-23.1958 L 44.7002,-22.5728 L 44.7091,-22.2583 L 44.7361,-21.963
 L 44.7809,-21.6867 L 44.8438,-21.4294 L 44.9245,-21.1912 L 45.0232,-20.9721 L 45.1399,-20.772 L 45.2745,-20.591
 L 45.4267,-20.4302 L 45.5961,-20.2909 L 45.7827,-20.173 L 45.9866,-20.0766 L 46.2076,-20.0015 L 46.4458,-19.948
 L 46.7013,-19.9158 L 46.9739,-19.9051 z
M 46.7935,-20.5444 L 46.6343,-20.5683 L 46.487,-20.6082 L 46.3515,-20.664 L 46.2277,-20.7357 L 46.1157,-20.8234
 L 46.0156,-20.9271 L 45.9272,-21.0467 L 45.8499,-21.1822 L 45.7829,-21.3335 L 45.7262,-21.5005 L 45.6798,-21.6834
 L 45.6437,-21.882 L 45.6179,-22.0965 L 45.6024,-22.3267 L 45.5973,-22.5728 L 45.6025,-22.8252 L 45.6182,-23.0604
 L 45.6443,-23.2782 L 45.681,-23.4788 L 45.728,-23.6621 L 45.7855,-23.8282 L 45.8535,-23.9769 L 45.932,-24.1084
 L 46.0221,-24.2235 L 46.1252,-24.3233 L 46.2414,-24.4078 L 46.3705,-24.4769 L 46.5125,-24.5306 L 46.6676,-24.569
 L 46.8356,-24.592 L 47.0166,-24.5997 L 47.1962,-24.5922 L 47.3624,-24.5696 L 47.5152,-24.5319 L 47.6545,-24.4792
 L 47.7804,-24.4115 L 47.8929,-24.3287 L 47.9919,-24.2308 L 48.0775,-24.1179 L 48.1515,-23.9883 L 48.2156,-23.8406
 L 48.2699,-23.6748 L 48.3143,-23.4907 L 48.3488,-23.2885 L 48.3735,-23.0681 L 48.3883,-22.8295 L 48.3932,-22.5728
 L 48.3881,-22.3192 L 48.3726,-22.083 L 48.3468,-21.8641 L 48.3107,-21.6626 L 48.2644,-21.4784 L 48.2077,-21.3116
 L 48.1406,-21.1621 L 48.0633,-21.03 L 47.974,-20.9144 L 47.8709,-20.8141 L 47.7541,-20.7292 L 47.6236,-20.6598
 L 47.4794,-20.6058 L 47.3215,-20.5673 L 47.1498,-20.5441 L 46.9644,-20.5364 z
M 52.2378,-19.9112 L 52.4641,-19.9297 L 52.6766,-19.9605 L 52.8754,-20.0036 L 53.0605,-20.059 L 53.2319,-20.1267
 L 53.3895,-20.2067 L 53.5334,-20.299 L 53.662,-20.4027 L 53.7733,-20.5168 L 53.8676,-20.6413 L 53.9447,-20.7761
 L 54.0046,-20.9213 L 54.0475,-21.077 L 54.0732,-21.2429 L 54.0818,-21.4193 L 54.0803,-21.4919 L 54.0758,-21.5625
 L 54.0684,-21.631 L 54.058,-21.6976 L 54.0446,-21.7621 L 54.0283,-21.8247 L 54.009,-21.8853 L 53.9868,-21.9438
 L 53.9618,-22.0005 L 53.9344,-22.0555 L 53.9046,-22.1088 L 53.8723,-22.1604 L 53.8375,-22.2103 L 53.8003,-22.2585
 L 53.7607,-22.3049 L 53.7186,-22.3497 L 53.6733,-22.3931 L 53.6241,-22.4356 L 53.571,-22.4771 L 53.5139,-22.5176
 L 53.4529,-22.5572 L 53.388,-22.5958 L 53.3191,-22.6334 L 53.2463,-22.6701 L 53.1656,-22.7067 L 53.073,-22.7441
 L 52.9686,-22.7824 L 52.8523,-22.8214 L 52.7242,-22.8613 L 52.5841,-22.902 L 52.4322,-22.9435 L 52.2685,-22.9858
 L 52.097,-23.0285 L 51.9409,-23.0688 L 51.8003,-23.1068 L 51.6751,-23.1424 L 51.5653,-23.1756 L 51.4709,-23.2065
 L 51.392,-23.235 L 51.3285,-23.2611 L 51.2744,-23.2867 L 51.2238,-23.3136 L 51.1765,-23.3418 L 51.1327,-23.3714
 L 51.0923,-23.4024 L 51.0553,-23.4346 L 51.0217,-23.4682 L 50.9915,-23.5031 L 50.9648,-23.5399 L 50.9416,-23.5791
 L 50.9221,-23.6207 L 50.906,-23.6646 L 50.8936,-23.7108 L 50.8847,-23.7595 L 50.8793,-23.8105 L 50.8776,-23.8639
 L 50.8819,-23.9501 L 50.8948,-24.0307 L 50.9163,-24.1056 L 50.9464,-24.1749 L 50.9851,-24.2385 L 51.0324,-24.2965
 L 51.0883,-24.3488 L 51.1529,-24.3956 L 51.2265,-24.4367 L 51.3096,-24.4724 L 51.4021,-24.5026 L 51.5042,-24.5273
 L 51.6158,-24.5465 L 51.7368,-24.5602 L 51.8673,-24.5685 L 52.0074,-24.5712 L 52.1346,-24.5683 L 52.2552,-24.5598
 L 52.3693,-24.5455 L 52.4767,-24.5255 L 52.5775,-24.4998 L 52.6718,-24.4684 L 52.7594,-24.4313 L 52.8404,-24.3884
 L 52.9144,-24.3403 L 52.9809,-24.2871 L 53.0399,-24.229 L 53.0914,-24.166 L 53.1355,-24.0979 L 53.172,-24.0249
 L 53.201,-23.9469 L 53.2226,-23.8639 L 53.9915,-23.9589 L 53.9526,-24.1182 L 53.9021,-24.2663 L 53.8401,-24.403
 L 53.7667,-24.5285 L 53.6817,-24.6428 L 53.5852,-24.7457 L 53.4773,-24.8374 L 53.3578,-24.9178 L 53.2272,-24.9879
 L 53.0856,-25.0486 L 52.9332,-25.1 L 52.7698,-25.1421 L 52.5956,-25.1748 L 52.4104,-25.1981 L 52.2143,-25.2121
 L 52.0074,-25.2168 L 51.7748,-25.2111 L 51.5566,-25.1938 L 51.3526,-25.1651 L 51.163,-25.1248 L 50.9877,-25.0731
 L 50.8267,-25.0099 L 50.68,-24.9351 L 50.5477,-24.8489 L 50.4303,-24.7517 L 50.3286,-24.644 L 50.2425,-24.5259
 L 50.1721,-24.3974 L 50.1173,-24.2583 L 50.0782,-24.1089 L 50.0547,-23.9489 L 50.0469,-23.7785 L 50.0496,-23.6854
 L 50.0579,-23.5961 L 50.0716,-23.5104 L 50.0908,-23.4284 L 50.1155,-23.3502 L 50.1457,-23.2756 L 50.1814,-23.2048
 L 50.2225,-23.1377 L 50.2685,-23.0736 L 50.3188,-23.012 L 50.3733,-22.9529 L 50.432,-22.8961 L 50.4949,-22.8419
 L 50.5621,-22.7901 L 50.6335,-22.7407 L 50.7091,-22.6938 L 50.7935,-22.648 L 50.8911,-22.602 L 51.002,-22.5558
 L 51.1262,-22.5093 L 51.2637,-22.4626 L 51.4145,-22.4157 L 51.5785,-22.3686 L 51.7558,-22.3212 L 52.3681,-22.1598
 L 52.4804,-22.1279 L 52.5847,-22.094 L 52.681,-22.0579 L 52.7692,-22.0198 L 52.8495,-21.9796 L 52.9217,-21.9373
 L 52.986,-21.893 L 53.0422,-21.8465 L 53.0911,-21.7973 L 53.1336,-21.7445 L 53.1695,-21.6881 L 53.1988,-21.6282
 L 53.2217,-21.5647 L 53.238,-21.4977 L 53.2478,-21.427 L 53.2511,-21.3529 L 53.2464,-21.2563 L 53.2322,-21.166
 L 53.2087,-21.0818 L 53.1757,-21.004 L 53.1333,-20.9323 L 53.0815,-20.8669 L 53.0203,-20.8077 L 52.9496,-20.7547
 L 52.8688,-20.708 L 52.7771,-20.6675 L 52.6745,-20.6332 L 52.561,-20.6052 L 52.4366,-20.5834 L 52.3012,-20.5678
 L 52.155,-20.5585 L 51.9978,-20.5554 L 51.8501,-20.5584 L 51.7107,-20.5674 L 51.5795,-20.5824 L 51.4567,-20.6034
 L 51.3422,-20.6305 L 51.236,-20.6635 L 51.138,-20.7025 L 51.0484,-20.7476 L 50.9666,-20.7991 L 50.8921,-20.8575
 L 50.8248,-20.9229 L 50.7648,-20.9951 L 50.7121,-21.0742 L 50.6667,-21.1602 L 50.6285,-21.2531 L 50.5976,-21.3529
 L 49.8428,-21.2057 L 49.8876,-21.0439 L 49.9438,-20.8931 L 50.0113,-20.7534 L 50.0902,-20.6248 L 50.1804,-20.5072
 L 50.282,-20.4007 L 50.3949,-20.3051 L 50.5192,-20.2207 L 50.656,-20.1467 L 50.8065,-20.0826 L 50.9708,-20.0284
 L 51.1487,-19.984 L 51.3404,-19.9495 L 51.5459,-19.9248 L 51.765,-19.91 L 51.9978,-19.9051 z
M 272.387,-21.2455 L 272.598,-21.2647 L 272.795,-21.2967 L 272.979,-21.3416 L 273.149,-21.3993 L 273.306,-21.4698
 L 273.449,-21.5531 L 273.578,-21.6493 L 273.693,-21.758 L 273.792,-21.879 L 273.876,-22.0123 L 273.945,-22.1579
 L 273.999,-22.3158 L 274.037,-22.486 L 274.06,-22.6684 L 274.068,-22.8632 L 274.06,-23.0589 L 274.038,-23.2427
 L 274.002,-23.4145 L 273.95,-23.5743 L 273.884,-23.7222 L 273.803,-23.8581 L 273.707,-23.982 L 273.597,-24.0939
 L 273.471,-24.1933 L 273.33,-24.2794 L 273.174,-24.3522 L 273.002,-24.4118 L 272.815,-24.4582 L 272.613,-24.4913
 L 272.395,-24.5112 L 272.162,-24.5178 L 271.927,-24.5116 L 271.708,-24.493 L 271.504,-24.462 L 271.317,-24.4186
 L 271.145,-24.3628 L 270.99,-24.2946 L 270.85,-24.214 L 270.726,-24.121 L 270.618,-24.0149 L 270.524,-23.8949
 L 270.444,-23.7611 L 270.379,-23.6133 L 270.329,-23.4517 L 270.292,-23.2762 L 270.271,-23.0868 L 270.264,-22.8835
 L 270.293,-22.4981 L 270.382,-22.1641 L 270.531,-21.8814 L 270.738,-21.6502 L 271.005,-21.4703 L 271.332,-21.3418
 L 271.717,-21.2648 L 272.162,-21.2391 z
M 271.982,-21.8836 L 271.814,-21.8948 L 271.658,-21.9135 L 271.515,-21.9396 L 271.384,-21.9732 L 271.266,-22.0143
 L 271.159,-22.0629 L 271.065,-22.1189 L 270.983,-22.1833 L 270.912,-22.257 L 270.852,-22.3399 L 270.802,-22.4321
 L 270.764,-22.5336 L 270.736,-22.6443 L 270.72,-22.7644 L 270.715,-22.8936 L 270.72,-23.0219 L 270.736,-23.1406
 L 270.763,-23.2498 L 270.801,-23.3493 L 270.849,-23.4392 L 270.908,-23.5195 L 270.978,-23.5903 L 271.059,-23.6515
 L 271.151,-23.7043 L 271.257,-23.7501 L 271.375,-23.7889 L 271.507,-23.8206 L 271.651,-23.8452 L 271.809,-23.8629
 L 271.979,-23.8734 L 272.162,-23.877 L 272.343,-23.8733 L 272.512,-23.8622 L 272.669,-23.8438 L 272.812,-23.818
 L 272.944,-23.7849 L 273.063,-23.7444 L 273.17,-23.6965 L 273.264,-23.6413 L 273.347,-23.5775 L 273.419,-23.5039
 L 273.479,-23.4205 L 273.529,-23.3272 L 273.567,-23.2242 L 273.595,-23.1114 L 273.611,-22.9888 L 273.617,-22.8564
 L 273.611,-22.7343 L 273.594,-22.6206 L 273.566,-22.5154 L 273.526,-22.4185 L 273.474,-22.3301 L 273.412,-22.2502
 L 273.338,-22.1786 L 273.252,-22.1155 L 273.156,-22.0603 L 273.048,-22.0124 L 272.928,-21.9719 L 272.798,-21.9388
 L 272.656,-21.913 L 272.503,-21.8946 L 272.338,-21.8835 L 272.162,-21.8799 z
M 269.552,-20.5156 L 268.968,-20.5156 L 268.968,-19.9053 L 269.552,-19.9053 z
M 274,-20.5156 L 270.331,-20.5156 L 270.331,-19.9053 L 274,-19.9053 z
M 272.412,-15.9659 L 272.627,-15.9812 L 272.827,-16.0067 L 273.012,-16.0425 L 273.181,-16.0885 L 273.336,-16.1448
 L 273.475,-16.2112 L 273.6,-16.2879 L 273.71,-16.3755 L 273.805,-16.4745 L 273.885,-16.5851 L 273.951,-16.7071
 L 274.002,-16.8406 L 274.039,-16.9856 L 274.06,-17.1422 L 274.068,-17.3102 L 274.065,-17.4115 L 274.058,-17.5086
 L 274.046,-17.6016 L 274.03,-17.6903 L 274.008,-17.7749 L 273.982,-17.8553 L 273.951,-17.9315 L 273.915,-18.0035
 L 273.874,-18.0717 L 273.826,-18.1365 L 273.773,-18.1978 L 273.713,-18.2557 L 273.646,-18.3102 L 273.574,-18.3612
 L 273.495,-18.4087 L 273.41,-18.4528 L 273.41,-18.4664 L 273.447,-18.4666 L 273.485,-18.4671 L 273.524,-18.468
 L 273.566,-18.4693 L 273.609,-18.471 L 273.654,-18.4731 L 273.701,-18.4754 L 273.749,-18.4782 L 273.796,-18.4812
 L 273.839,-18.4841 L 273.877,-18.4869 L 273.91,-18.4897 L 273.939,-18.4924 L 273.964,-18.4951 L 273.984,-18.4977
 L 274,-18.5003 L 274,-19.0835 L 273.948,-19.0787 L 273.884,-19.0746 L 273.808,-19.0711 L 273.719,-19.0682
 L 273.619,-19.066 L 273.506,-19.0644 L 273.381,-19.0634 L 273.244,-19.0631 L 268.968,-19.0631 L 268.968,-18.4528
 L 270.491,-18.4528 L 270.901,-18.4596 L 270.901,-18.4528 L 270.821,-18.4088 L 270.746,-18.3613 L 270.677,-18.3104
 L 270.614,-18.2562 L 270.556,-18.1985 L 270.504,-18.1375 L 270.457,-18.073 L 270.416,-18.0052 L 270.38,-17.9336
 L 270.349,-17.8575 L 270.323,-17.7772 L 270.302,-17.6925 L 270.285,-17.6034 L 270.273,-17.51 L 270.266,-17.4123
 L 270.264,-17.3102 L 270.294,-16.9939 L 270.383,-16.7198 L 270.533,-16.4879 L 270.743,-16.2981 L 271.013,-16.1505
 L 271.343,-16.0451 L 271.733,-15.9818 L 272.183,-15.9607 z
M 271.977,-16.6047 L 271.806,-16.6143 L 271.647,-16.6304 L 271.502,-16.6528 L 271.371,-16.6817 L 271.252,-16.7169
 L 271.147,-16.7586 L 271.055,-16.8067 L 270.975,-16.862 L 270.906,-16.9253 L 270.848,-16.9965 L 270.8,-17.0758
 L 270.762,-17.1631 L 270.736,-17.2584 L 270.72,-17.3617 L 270.715,-17.4729 L 270.72,-17.5966 L 270.736,-17.7115
 L 270.762,-17.8178 L 270.799,-17.9154 L 270.847,-18.0043 L 270.905,-18.0845 L 270.974,-18.1561 L 271.054,-18.2189
 L 271.144,-18.2737 L 271.247,-18.3212 L 271.363,-18.3615 L 271.49,-18.3943 L 271.63,-18.4199 L 271.781,-18.4382
 L 271.945,-18.4492 L 272.122,-18.4528 L 272.304,-18.4492 L 272.475,-18.4382 L 272.633,-18.4199 L 272.779,-18.3943
 L 272.912,-18.3615 L 273.033,-18.3212 L 273.141,-18.2737 L 273.237,-18.2189 L 273.321,-18.1559 L 273.394,-18.0841
 L 273.456,-18.0034 L 273.507,-17.9137 L 273.546,-17.8152 L 273.574,-17.7078 L 273.591,-17.5914 L 273.597,-17.4662
 L 273.591,-17.3557 L 273.576,-17.2532 L 273.55,-17.1586 L 273.513,-17.072 L 273.467,-16.9933 L 273.41,-16.9226
 L 273.342,-16.8598 L 273.264,-16.805 L 273.174,-16.7573 L 273.071,-16.716 L 272.954,-16.681 L 272.823,-16.6524
 L 272.678,-16.6301 L 272.52,-16.6142 L 272.348,-16.6047 L 272.162,-16.6015 z
M 273.1,-12.1968 L 273.217,-12.2099 L 273.327,-12.2316 L 273.43,-12.262 L 273.527,-12.3011 L 273.617,-12.3489
 L 273.7,-12.4053 L 273.776,-12.4705 L 273.845,-12.5443 L 273.904,-12.6267 L 273.954,-12.7177 L 273.995,-12.8172
 L 274.027,-12.9253 L 274.05,-13.042 L 274.063,-13.1673 L 274.068,-13.3012 L 274.065,-13.4102 L 274.057,-13.5149
 L 274.043,-13.6155 L 274.024,-13.7119 L 274,-13.8041 L 273.97,-13.8922 L 273.934,-13.976 L 273.893,-14.0556
 L 273.846,-14.132 L 273.791,-14.206 L 273.728,-14.2776 L 273.657,-14.3468 L 273.579,-14.4137 L 273.493,-14.4781
 L 273.399,-14.5402 L 273.298,-14.5999 L 273.298,-14.6201 L 273.39,-14.6273 L 273.475,-14.6387 L 273.555,-14.6543
 L 273.627,-14.674 L 273.694,-14.6979 L 273.754,-14.726 L 273.808,-14.7583 L 273.856,-14.7948 L 273.898,-14.8362
 L 273.934,-14.8835 L 273.964,-14.9365 L 273.989,-14.9953 L 274.009,-15.0598 L 274.023,-15.1302 L 274.031,-15.2063
 L 274.034,-15.2881 L 274.033,-15.3482 L 274.031,-15.4079 L 274.026,-15.4673 L 274.02,-15.5263 L 274.013,-15.5851
 L 274.003,-15.6435 L 273.992,-15.7016 L 273.98,-15.7594 L 273.6,-15.7594 L 273.605,-15.7318 L 273.61,-15.705
 L 273.614,-15.6788 L 273.618,-15.6535 L 273.62,-15.6288 L 273.622,-15.605 L 273.623,-15.5818 L 273.624,-15.5594
 L 273.622,-15.5114 L 273.615,-15.4674 L 273.604,-15.4275 L 273.589,-15.3916 L 273.57,-15.3596 L 273.546,-15.3318
 L 273.519,-15.3079 L 273.486,-15.2881 L 273.45,-15.2714 L 273.409,-15.257 L 273.365,-15.2447 L 273.316,-15.2347
 L 273.262,-15.2269 L 273.205,-15.2214 L 273.143,-15.218 L 273.078,-15.2169 L 271.498,-15.2169 L 271.352,-15.2114
 L 271.215,-15.1951 L 271.087,-15.1678 L 270.968,-15.1296 L 270.858,-15.0805 L 270.757,-15.0204 L 270.664,-14.9495
 L 270.581,-14.8676 L 270.506,-14.775 L 270.442,-14.6716 L 270.387,-14.5576 L 270.343,-14.4328 L 270.308,-14.2974
 L 270.283,-14.1512 L 270.269,-13.9943 L 270.264,-13.8268 L 270.279,-13.516 L 270.325,-13.2415 L 270.403,-13.0032
 L 270.511,-12.8011 L 270.65,-12.6353 L 270.82,-12.5057 L 271.022,-12.4124 L 271.254,-12.3553 L 271.311,-12.9926
 L 271.238,-13.0043 L 271.169,-13.0206 L 271.106,-13.0416 L 271.048,-13.0672 L 270.995,-13.0976 L 270.947,-13.1325
 L 270.904,-13.1722 L 270.867,-13.2164 L 270.835,-13.2666 L 270.806,-13.3237 L 270.782,-13.3878 L 270.763,-13.4589
 L 270.748,-13.537 L 270.737,-13.6221 L 270.73,-13.7141 L 270.728,-13.8132 L 270.731,-13.9115 L 270.74,-14.0031
 L 270.755,-14.0879 L 270.776,-14.1658 L 270.804,-14.237 L 270.837,-14.3015 L 270.876,-14.3591 L 270.921,-14.41
 L 270.974,-14.4545 L 271.034,-14.493 L 271.102,-14.5257 L 271.178,-14.5524 L 271.262,-14.5732 L 271.354,-14.588
 L 271.454,-14.5969 L 271.562,-14.5999 L 271.762,-14.5999 L 271.776,-13.7759 L 271.785,-13.5746 L 271.804,-13.3876
 L 271.831,-13.2149 L 271.867,-13.0567 L 271.912,-12.9128 L 271.966,-12.7832 L 272.029,-12.668 L 272.101,-12.5672
 L 272.182,-12.4793 L 272.27,-12.4032 L 272.367,-12.3389 L 272.473,-12.2862 L 272.586,-12.2452 L 272.708,-12.2159
 L 272.838,-12.1983 L 272.976,-12.1925 z
M 272.919,-12.8216 L 272.855,-12.8272 L 272.795,-12.8364 L 272.738,-12.8494 L 272.684,-12.8661 L 272.633,-12.8865
 L 272.586,-12.9106 L 272.542,-12.9384 L 272.501,-12.9697 L 272.463,-13.0042 L 272.427,-13.042 L 272.395,-13.0829
 L 272.365,-13.1272 L 272.337,-13.1746 L 272.313,-13.2253 L 272.291,-13.2792 L 272.272,-13.3379 L 272.255,-13.4032
 L 272.241,-13.4751 L 272.228,-13.5534 L 272.219,-13.6382 L 272.211,-13.7296 L 272.206,-13.8275 L 272.203,-13.9319
 L 272.189,-14.5999 L 272.491,-14.5999 L 272.561,-14.5975 L 272.631,-14.5904 L 272.7,-14.5786 L 272.769,-14.5621
 L 272.837,-14.5409 L 272.905,-14.515 L 272.972,-14.4843 L 273.039,-14.449 L 273.104,-14.4095 L 273.165,-14.3666
 L 273.222,-14.3203 L 273.277,-14.2705 L 273.327,-14.2173 L 273.374,-14.1606 L 273.418,-14.1005 L 273.458,-14.037
 L 273.493,-13.9705 L 273.524,-13.9018 L 273.55,-13.8307 L 273.572,-13.7572 L 273.589,-13.6815 L 273.601,-13.6034
 L 273.608,-13.523 L 273.61,-13.4402 L 273.608,-13.3678 L 273.6,-13.2996 L 273.587,-13.2358 L 273.569,-13.1762
 L 273.547,-13.1209 L 273.519,-13.0699 L 273.486,-13.0232 L 273.447,-12.9808 L 273.405,-12.9431 L 273.357,-12.9103
 L 273.306,-12.8827 L 273.251,-12.86 L 273.191,-12.8424 L 273.127,-12.8298 L 273.059,-12.8223 L 272.986,-12.8197
 z
M 274,-8.21724 L 272.017,-8.21724 L 272.017,-9.70569 L 274,-10.9467 L 274,-11.6926 L 271.942,-10.3364
 L 271.914,-10.4692 L 271.878,-10.5946 L 271.833,-10.7126 L 271.78,-10.8233 L 271.719,-10.9267 L 271.649,-11.0226
 L 271.571,-11.1113 L 271.484,-11.1925 L 271.391,-11.2652 L 271.292,-11.3282 L 271.188,-11.3815 L 271.079,-11.4252
 L 270.964,-11.4591 L 270.845,-11.4834 L 270.719,-11.4979 L 270.589,-11.5027 L 270.432,-11.4959 L 270.285,-11.4753
 L 270.146,-11.441 L 270.016,-11.393 L 269.894,-11.3312 L 269.782,-11.2558 L 269.678,-11.1665 L 269.584,-11.0636
 L 269.499,-10.9481 L 269.426,-10.8211 L 269.364,-10.6826 L 269.313,-10.5326 L 269.273,-10.3711 L 269.245,-10.1981
 L 269.228,-10.0136 L 269.223,-9.8176 L 269.223,-7.56964 L 274,-7.56964 z
M 269.741,-8.21724 L 269.741,-9.75319 L 269.745,-9.88237 L 269.755,-10.0038 L 269.772,-10.1174 L 269.796,-10.2232
 L 269.827,-10.3212 L 269.864,-10.4115 L 269.909,-10.4939 L 269.96,-10.5686 L 270.018,-10.6349 L 270.082,-10.6925
 L 270.152,-10.7411 L 270.228,-10.781 L 270.311,-10.8119 L 270.4,-10.834 L 270.495,-10.8473 L 270.596,-10.8517
 L 270.7,-10.8474 L 270.799,-10.8343 L 270.892,-10.8124 L 270.979,-10.7818 L 271.059,-10.7425 L 271.134,-10.6944
 L 271.203,-10.6376 L 271.265,-10.572 L 271.321,-10.4984 L 271.37,-10.4176 L 271.411,-10.3295 L 271.445,-10.2342
 L 271.471,-10.1316 L 271.49,-10.0218 L 271.501,-9.90466 L 271.505,-9.78029 L 271.505,-8.21724 z
M 0.324036,3.08301 L 0.644516,3.03226 L 0.957947,2.94827 L 1.26088,2.83199 L 1.54999,2.68468 L 1.82213,2.50795
 L 2.0743,2.30374 L 2.30374,2.0743 L 2.50795,1.82213 L 2.68468,1.54999 L 2.83199,1.26088 L 2.94827,0.957947
 L 3.03226,0.644516 L 3.08301,0.324036 L 3.09999,-0 L 3.08301,-0.324036 L 3.03226,-0.644516 L 2.94827,-0.957947
 L 2.83199,-1.26088 L 2.68468,-1.54999 L 2.50795,-1.82213 L 2.30374,-2.0743 L 2.0743,-2.30374 L 1.82213,-2.50795
 L 1.54999,-2.68468 L 1.26088,-2.83199 L 0.957947,-2.94827 L 0.644516,-3.03226 L 0.324036,-3.08301 L 0,-3.09999
 L -0.324036,-3.08301 L -0.644516,-3.03226 L -0.957947,-2.94827 L -1.26088,-2.83199 L -1.54999,-2.68468 L -1.82213,-2.50795
 L -2.0743,-2.30374 L -2.30374,-2.0743 L -2.50795,-1.82213 L -2.68468,-1.54999 L -2.83199,-1.26088 L -2.94827,-0.957947
 L -3.03226,-0.644516 L -3.08301,-0.324036 L -3.09999,-0 L -3.08301,0.324036 L -3.03226,0.644516 L -2.94827,0.957947
 L -2.83199,1.26088 L -2.68468,1.54999 L -2.50795,1.82213 L -2.30374,2.0743 L -2.0743,2.30374 L -1.82213,2.50795
 L -1.54999,2.68468 L -1.26088,2.83199 L -0.957947,2.94827 L -0.644516,3.03226 L -0.324036,3.08301 L 0,3.09999
 z
M 80.324,3.08301 L 80.6445,3.03226 L 80.9579,2.94827 L 81.2609,2.83199 L 81.55,2.68468 L 81.8221,2.50795
 L 82.0743,2.30374 L 82.3037,2.0743 L 82.5079,1.82213 L 82.6847,1.54999 L 82.832,1.26088 L 82.9483,0.957947
 L 83.0323,0.644516 L 83.083,0.324036 L 83.1,-0 L 83.083,-0.324036 L 83.0323,-0.644516 L 82.9483,-0.957947
 L 82.832,-1.26088 L 82.6847,-1.54999 L 82.5079,-1.82213 L 82.3037,-2.0743 L 82.0743,-2.30374 L 81.8221,-2.50795
 L 81.55,-2.68468 L 81.2609,-2.83199 L 80.9579,-2.94827 L 80.6445,-3.03226 L 80.324,-3.08301 L 80,-3.09999
 L 79.6759,-3.08301 L 79.3555,-3.03226 L 79.042,-2.94827 L 78.7391,-2.83199 L 78.45,-2.68468 L 78.1779,-2.50795
 L 77.9257,-2.30374 L 77.6962,-2.0743 L 77.492,-1.82213 L 77.3153,-1.54999 L 77.168,-1.26088 L 77.0517,-0.957947
 L 76.9677,-0.644516 L 76.917,-0.324036 L 76.9,-0 L 76.917,0.324036 L 76.9677,0.644516 L 77.0517,0.957947
 L 77.168,1.26088 L 77.3153,1.54999 L 77.492,1.82213 L 77.6962,2.0743 L 77.9257,2.30374 L 78.1779,2.50795
 L 78.45,2.68468 L 78.7391,2.83199 L 79.042,2.94827 L 79.3555,3.03226 L 79.6759,3.08301 L 80,3.09999
 z
M 299.324,3.08301 L 299.645,3.03226 L 299.958,2.94827 L 300.261,2.83199 L 300.55,2.68468 L 300.822,2.50795
 L 301.074,2.30374 L 301.304,2.0743 L 301.508,1.82213 L 301.685,1.54999 L 301.832,1.26088 L 301.948,0.957947
 L 302.032,0.644516 L 302.083,0.324036 L 302.1,-0 L 302.083,-0.324036 L 302.032,-0.644516 L 301.948,-0.957947
 L 301.832,-1.26088 L 301.685,-1.54999 L 301.508,-1.82213 L 301.304,-2.0743 L 301.074,-2.30374 L 300.822,-2.50795
 L 300.55,-2.68468 L 300.261,-2.83199 L 299.958,-2.94827 L 299.645,-3.03226 L 299.324,-3.08301 L 299,-3.09999
 L 298.676,-3.08301 L 298.355,-3.03226 L 298.042,-2.94827 L 297.739,-2.83199 L 297.45,-2.68468 L 297.178,-2.50795
 L 296.926,-2.30374 L 296.696,-2.0743 L 296.492,-1.82213 L 296.315,-1.54999 L 296.168,-1.26088 L 296.052,-0.957947
 L 295.968,-0.644516 L 295.917,-0.324036 L 295.9,-0 L 295.917,0.324036 L 295.968,0.644516 L 296.052,0.957947
 L 296.168,1.26088 L 296.315,1.54999 L 296.492,1.82213 L 296.696,2.0743 L 296.926,2.30374 L 297.178,2.50795
 L 297.45,2.68468 L 297.739,2.83199 L 298.042,2.94827 L 298.355,3.03226 L 298.676,3.08301 L 299,3.09999
 z
M 266.324,3.08301 L 266.645,3.03226 L 266.958,2.94827 L 267.261,2.83199 L 267.55,2.68468 L 267.822,2.50795
 L 268.074,2.30374 L 268.304,2.0743 L 268.508,1.82213 L 268.685,1.54999 L 268.832,1.26088 L 268.948,0.957947
 L 269.032,0.644516 L 269.083,0.324036 L 269.1,-0 L 269.083,-0.324036 L 269.032,-0.644516 L 268.948,-0.957947
 L 268.832,-1.26088 L 268.685,-1.54999 L 268.508,-1.82213 L 268.304,-2.0743 L 268.074,-2.30374 L 267.822,-2.50795
 L 267.55,-2.68468 L 267.261,-2.83199 L 266.958,-2.94827 L 266.645,-3.03226 L 266.324,-3.08301 L 266,-3.09999
 L 265.676,-3.08301 L 265.355,-3.03226 L 265.042,-2.94827 L 264.739,-2.83199 L 264.45,-2.68468 L 264.178,-2.50795
 L 263.926,-2.30374 L 263.696,-2.0743 L 263.492,-1.82213 L 263.315,-1.54999 L 263.168,-1.26088 L 263.052,-0.957947
 L 262.968,-0.644516 L 262.917,-0.324036 L 262.9,-0 L 262.917,0.324036 L 262.968,0.644516 L 263.052,0.957947
 L 263.168,1.26088 L 263.315,1.54999 L 263.492,1.82213 L 263.696,2.0743 L 263.926,2.30374 L 264.178,2.50795
 L 264.45,2.68468 L 264.739,2.83199 L 265.042,2.94827 L 265.355,3.03226 L 265.676,3.08301 L 266,3.09999
 z
" stroke="black" fill="lightgray" stroke-width="0.5"/>
</svg>
