G75*
%MOIN*%
%OFA0B0*%
%FSLAX25Y25*%
%IPPOS*%
%LPD*%
%AMOC8*
5,1,8,0,0,1.08239X$1,22.5*
%
%ADD10OC8,0.05200*%
%ADD11C,0.06000*%
%ADD12R,0.05900X0.05900*%
%ADD13C,0.05900*%
%ADD14OC8,0.06300*%
%ADD15C,0.06300*%
%ADD16C,0.01600*%
%ADD17C,0.00600*%
D10*
X0033050Y0021800D03*
X0033050Y0031800D03*
X0044300Y0035550D03*
X0044300Y0025550D03*
X0055550Y0021800D03*
X0055550Y0031800D03*
X0041800Y0045550D03*
X0036800Y0053050D03*
X0031800Y0045550D03*
X0019300Y0045550D03*
X0014300Y0053050D03*
X0009300Y0045550D03*
X0010550Y0033050D03*
X0020550Y0033050D03*
D11*
X0038050Y0016050D02*
X0038050Y0010050D01*
X0048050Y0010050D02*
X0048050Y0016050D01*
X0058050Y0016050D02*
X0058050Y0010050D01*
D12*
X0019300Y0025550D03*
D13*
X0009300Y0025550D03*
X0014300Y0015550D03*
D14*
X0053050Y0048050D03*
D15*
X0063050Y0048050D03*
D16*
X0006850Y0021467D02*
X0006850Y0006850D01*
X0034462Y0006850D01*
X0034389Y0006923D01*
X0033945Y0007534D01*
X0033602Y0008207D01*
X0033368Y0008926D01*
X0033250Y0009672D01*
X0033250Y0012850D01*
X0037850Y0012850D01*
X0037850Y0013250D01*
X0037850Y0020850D01*
X0037672Y0020850D01*
X0037250Y0020783D01*
X0037250Y0021450D01*
X0040063Y0021450D01*
X0043772Y0017741D01*
X0043450Y0016965D01*
X0043450Y0009135D01*
X0044150Y0007444D01*
X0044745Y0006850D01*
X0041638Y0006850D01*
X0041711Y0006923D01*
X0042155Y0007534D01*
X0042498Y0008207D01*
X0042732Y0008926D01*
X0042850Y0009672D01*
X0042850Y0012850D01*
X0038250Y0012850D01*
X0038250Y0013250D01*
X0037850Y0013250D01*
X0033250Y0013250D01*
X0033250Y0016428D01*
X0033368Y0017174D01*
X0033507Y0017600D01*
X0031310Y0017600D01*
X0028850Y0020060D01*
X0028850Y0020563D01*
X0024837Y0016550D01*
X0019937Y0016550D01*
X0018850Y0015463D01*
X0018850Y0014645D01*
X0018157Y0012973D01*
X0016877Y0011693D01*
X0015205Y0011000D01*
X0013395Y0011000D01*
X0011723Y0011693D01*
X0010443Y0012973D01*
X0009750Y0014645D01*
X0009750Y0016455D01*
X0010443Y0018127D01*
X0011723Y0019407D01*
X0013395Y0020100D01*
X0015205Y0020100D01*
X0016877Y0019407D01*
X0017149Y0019136D01*
X0017950Y0019937D01*
X0019013Y0021000D01*
X0015687Y0021000D01*
X0014750Y0021937D01*
X0014750Y0029163D01*
X0015687Y0030100D01*
X0017560Y0030100D01*
X0016350Y0031310D01*
X0016350Y0034790D01*
X0018810Y0037250D01*
X0022290Y0037250D01*
X0024750Y0034790D01*
X0024750Y0031310D01*
X0023226Y0029787D01*
X0023850Y0029163D01*
X0023850Y0021937D01*
X0022913Y0021000D01*
X0020687Y0021000D01*
X0021337Y0020350D01*
X0023263Y0020350D01*
X0029850Y0026937D01*
X0030912Y0027999D01*
X0028850Y0030060D01*
X0028850Y0033540D01*
X0031310Y0036000D01*
X0034790Y0036000D01*
X0037250Y0033540D01*
X0037250Y0030060D01*
X0035240Y0028050D01*
X0035337Y0028050D01*
X0038137Y0025250D01*
X0039900Y0025250D01*
X0039900Y0025550D01*
X0044300Y0025550D01*
X0044300Y0025550D01*
X0044300Y0029950D01*
X0046123Y0029950D01*
X0048700Y0027373D01*
X0048700Y0025550D01*
X0044300Y0025550D01*
X0044300Y0025550D01*
X0044300Y0025550D01*
X0044300Y0029950D01*
X0042477Y0029950D01*
X0039900Y0027373D01*
X0039900Y0025550D01*
X0044300Y0025550D01*
X0048700Y0025550D01*
X0048700Y0023727D01*
X0046123Y0021150D01*
X0045737Y0021150D01*
X0046500Y0020387D01*
X0047135Y0020650D01*
X0048965Y0020650D01*
X0050656Y0019950D01*
X0051950Y0018656D01*
X0052650Y0016965D01*
X0052650Y0009135D01*
X0051950Y0007444D01*
X0051355Y0006850D01*
X0054745Y0006850D01*
X0054150Y0007444D01*
X0053450Y0009135D01*
X0053450Y0016965D01*
X0053742Y0017669D01*
X0051350Y0020060D01*
X0051350Y0023540D01*
X0053810Y0026000D01*
X0057290Y0026000D01*
X0059750Y0023540D01*
X0059750Y0020325D01*
X0060656Y0019950D01*
X0061950Y0018656D01*
X0062650Y0016965D01*
X0062650Y0009135D01*
X0061950Y0007444D01*
X0061355Y0006850D01*
X0067921Y0006850D01*
X0067921Y0055500D01*
X0040290Y0055500D01*
X0041000Y0054790D01*
X0041000Y0051310D01*
X0038540Y0048850D01*
X0035060Y0048850D01*
X0032600Y0051310D01*
X0032600Y0054790D01*
X0033310Y0055500D01*
X0017790Y0055500D01*
X0018500Y0054790D01*
X0018500Y0051310D01*
X0016040Y0048850D01*
X0012560Y0048850D01*
X0010100Y0051310D01*
X0010100Y0054790D01*
X0010810Y0055500D01*
X0006850Y0055500D01*
X0006850Y0049040D01*
X0007560Y0049750D01*
X0011040Y0049750D01*
X0013500Y0047290D01*
X0013500Y0043810D01*
X0011040Y0041350D01*
X0007560Y0041350D01*
X0006850Y0042060D01*
X0006850Y0035573D01*
X0008727Y0037450D01*
X0010550Y0037450D01*
X0010550Y0033050D01*
X0010550Y0033050D01*
X0014950Y0033050D01*
X0014950Y0034873D01*
X0012373Y0037450D01*
X0010550Y0037450D01*
X0010550Y0033050D01*
X0010550Y0033050D01*
X0014950Y0033050D01*
X0014950Y0031227D01*
X0012645Y0028922D01*
X0012923Y0028644D01*
X0013363Y0028040D01*
X0013702Y0027373D01*
X0013933Y0026662D01*
X0014050Y0025924D01*
X0014050Y0025725D01*
X0009475Y0025725D01*
X0009475Y0025375D01*
X0014050Y0025375D01*
X0014050Y0025176D01*
X0013933Y0024438D01*
X0013702Y0023727D01*
X0013363Y0023060D01*
X0012923Y0022456D01*
X0012394Y0021927D01*
X0011790Y0021487D01*
X0011123Y0021148D01*
X0010412Y0020917D01*
X0009674Y0020800D01*
X0009475Y0020800D01*
X0009475Y0025375D01*
X0009125Y0025375D01*
X0009125Y0020800D01*
X0008926Y0020800D01*
X0008188Y0020917D01*
X0007477Y0021148D01*
X0006850Y0021467D01*
X0006850Y0020634D02*
X0018647Y0020634D01*
X0021053Y0020634D02*
X0023547Y0020634D01*
X0023850Y0022232D02*
X0025145Y0022232D01*
X0023850Y0023831D02*
X0026744Y0023831D01*
X0028342Y0025429D02*
X0023850Y0025429D01*
X0023850Y0027028D02*
X0029941Y0027028D01*
X0030284Y0028626D02*
X0023850Y0028626D01*
X0023664Y0030225D02*
X0028850Y0030225D01*
X0028850Y0031823D02*
X0024750Y0031823D01*
X0024750Y0033422D02*
X0028850Y0033422D01*
X0030331Y0035020D02*
X0024519Y0035020D01*
X0022921Y0036619D02*
X0040100Y0036619D01*
X0040100Y0037290D02*
X0040100Y0033810D01*
X0042560Y0031350D01*
X0046040Y0031350D01*
X0048500Y0033810D01*
X0048500Y0037290D01*
X0046040Y0039750D01*
X0042560Y0039750D01*
X0040100Y0037290D01*
X0041028Y0038217D02*
X0006850Y0038217D01*
X0006850Y0039816D02*
X0067921Y0039816D01*
X0067921Y0041414D02*
X0043887Y0041414D01*
X0043623Y0041150D02*
X0046200Y0043727D01*
X0046200Y0045550D01*
X0046200Y0047373D01*
X0043623Y0049950D01*
X0041800Y0049950D01*
X0041800Y0045550D01*
X0046200Y0045550D01*
X0041800Y0045550D01*
X0041800Y0045550D01*
X0041800Y0045550D01*
X0041800Y0041150D01*
X0043623Y0041150D01*
X0041800Y0041150D02*
X0041800Y0045550D01*
X0041800Y0045550D01*
X0041800Y0045550D01*
X0037400Y0045550D01*
X0037400Y0047373D01*
X0039977Y0049950D01*
X0041800Y0049950D01*
X0041800Y0045550D01*
X0037400Y0045550D01*
X0037400Y0043727D01*
X0039977Y0041150D01*
X0041800Y0041150D01*
X0041800Y0041414D02*
X0041800Y0041414D01*
X0041800Y0043013D02*
X0041800Y0043013D01*
X0041800Y0044611D02*
X0041800Y0044611D01*
X0041800Y0046210D02*
X0041800Y0046210D01*
X0041800Y0047808D02*
X0041800Y0047808D01*
X0041800Y0049407D02*
X0041800Y0049407D01*
X0040695Y0051005D02*
X0049005Y0051005D01*
X0048100Y0050100D02*
X0048100Y0048050D01*
X0053050Y0048050D01*
X0058000Y0048050D01*
X0058000Y0050100D01*
X0055100Y0053000D01*
X0053050Y0053000D01*
X0053050Y0048050D01*
X0053050Y0048050D01*
X0053050Y0048050D01*
X0058000Y0048050D01*
X0058000Y0046000D01*
X0055100Y0043100D01*
X0053050Y0043100D01*
X0053050Y0048050D01*
X0053050Y0048050D01*
X0053050Y0048050D01*
X0053050Y0053000D01*
X0051000Y0053000D01*
X0048100Y0050100D01*
X0048100Y0049407D02*
X0044166Y0049407D01*
X0045764Y0047808D02*
X0048100Y0047808D01*
X0048100Y0048050D02*
X0048100Y0046000D01*
X0051000Y0043100D01*
X0053050Y0043100D01*
X0053050Y0048050D01*
X0048100Y0048050D01*
X0048100Y0046210D02*
X0046200Y0046210D01*
X0046200Y0044611D02*
X0049488Y0044611D01*
X0053050Y0044611D02*
X0053050Y0044611D01*
X0053050Y0046210D02*
X0053050Y0046210D01*
X0053050Y0047808D02*
X0053050Y0047808D01*
X0053050Y0049407D02*
X0053050Y0049407D01*
X0053050Y0051005D02*
X0053050Y0051005D01*
X0053050Y0052604D02*
X0053050Y0052604D01*
X0055496Y0052604D02*
X0061632Y0052604D01*
X0062105Y0052800D02*
X0060359Y0052077D01*
X0059023Y0050741D01*
X0058300Y0048995D01*
X0058300Y0047105D01*
X0059023Y0045359D01*
X0060359Y0044023D01*
X0062105Y0043300D01*
X0063995Y0043300D01*
X0065741Y0044023D01*
X0067077Y0045359D01*
X0067800Y0047105D01*
X0067800Y0048995D01*
X0067077Y0050741D01*
X0065741Y0052077D01*
X0063995Y0052800D01*
X0062105Y0052800D01*
X0064468Y0052604D02*
X0067921Y0052604D01*
X0067921Y0054202D02*
X0041000Y0054202D01*
X0041000Y0052604D02*
X0050604Y0052604D01*
X0057095Y0051005D02*
X0059288Y0051005D01*
X0058471Y0049407D02*
X0058000Y0049407D01*
X0058000Y0047808D02*
X0058300Y0047808D01*
X0058000Y0046210D02*
X0058671Y0046210D01*
X0059771Y0044611D02*
X0056612Y0044611D01*
X0066329Y0044611D02*
X0067921Y0044611D01*
X0067921Y0046210D02*
X0067429Y0046210D01*
X0067800Y0047808D02*
X0067921Y0047808D01*
X0067921Y0049407D02*
X0067629Y0049407D01*
X0067921Y0051005D02*
X0066812Y0051005D01*
X0067921Y0043013D02*
X0045485Y0043013D01*
X0047572Y0038217D02*
X0067921Y0038217D01*
X0067921Y0036619D02*
X0048500Y0036619D01*
X0048500Y0035020D02*
X0052831Y0035020D01*
X0053810Y0036000D02*
X0051350Y0033540D01*
X0051350Y0030060D01*
X0053810Y0027600D01*
X0057290Y0027600D01*
X0059750Y0030060D01*
X0059750Y0033540D01*
X0057290Y0036000D01*
X0053810Y0036000D01*
X0051350Y0033422D02*
X0048111Y0033422D01*
X0046513Y0031823D02*
X0051350Y0031823D01*
X0051350Y0030225D02*
X0037250Y0030225D01*
X0035816Y0028626D02*
X0041154Y0028626D01*
X0039900Y0027028D02*
X0036359Y0027028D01*
X0037958Y0025429D02*
X0039900Y0025429D01*
X0044300Y0027028D02*
X0044300Y0027028D01*
X0044300Y0028626D02*
X0044300Y0028626D01*
X0047446Y0028626D02*
X0052784Y0028626D01*
X0053239Y0025429D02*
X0048700Y0025429D01*
X0048700Y0023831D02*
X0051641Y0023831D01*
X0051350Y0022232D02*
X0047205Y0022232D01*
X0047095Y0020634D02*
X0046253Y0020634D01*
X0049005Y0020634D02*
X0051350Y0020634D01*
X0051570Y0019035D02*
X0052375Y0019035D01*
X0052455Y0017437D02*
X0053645Y0017437D01*
X0053450Y0015838D02*
X0052650Y0015838D01*
X0052650Y0014240D02*
X0053450Y0014240D01*
X0053450Y0012641D02*
X0052650Y0012641D01*
X0052650Y0011043D02*
X0053450Y0011043D01*
X0053450Y0009444D02*
X0052650Y0009444D01*
X0052116Y0007846D02*
X0053984Y0007846D01*
X0062116Y0007846D02*
X0067921Y0007846D01*
X0067921Y0009444D02*
X0062650Y0009444D01*
X0062650Y0011043D02*
X0067921Y0011043D01*
X0067921Y0012641D02*
X0062650Y0012641D01*
X0062650Y0014240D02*
X0067921Y0014240D01*
X0067921Y0015838D02*
X0062650Y0015838D01*
X0062455Y0017437D02*
X0067921Y0017437D01*
X0067921Y0019035D02*
X0061570Y0019035D01*
X0059750Y0020634D02*
X0067921Y0020634D01*
X0067921Y0022232D02*
X0059750Y0022232D01*
X0059459Y0023831D02*
X0067921Y0023831D01*
X0067921Y0025429D02*
X0057861Y0025429D01*
X0058316Y0028626D02*
X0067921Y0028626D01*
X0067921Y0027028D02*
X0048700Y0027028D01*
X0042087Y0031823D02*
X0037250Y0031823D01*
X0037250Y0033422D02*
X0040489Y0033422D01*
X0040100Y0035020D02*
X0035769Y0035020D01*
X0033540Y0041350D02*
X0030060Y0041350D01*
X0027600Y0043810D01*
X0027600Y0047290D01*
X0030060Y0049750D01*
X0033540Y0049750D01*
X0036000Y0047290D01*
X0036000Y0043810D01*
X0033540Y0041350D01*
X0033604Y0041414D02*
X0039713Y0041414D01*
X0038115Y0043013D02*
X0035202Y0043013D01*
X0036000Y0044611D02*
X0037400Y0044611D01*
X0037400Y0046210D02*
X0036000Y0046210D01*
X0035481Y0047808D02*
X0037836Y0047808D01*
X0039097Y0049407D02*
X0039434Y0049407D01*
X0034503Y0049407D02*
X0033883Y0049407D01*
X0032905Y0051005D02*
X0018195Y0051005D01*
X0017560Y0049750D02*
X0015100Y0047290D01*
X0015100Y0043810D01*
X0017560Y0041350D01*
X0021040Y0041350D01*
X0023500Y0043810D01*
X0023500Y0047290D01*
X0021040Y0049750D01*
X0017560Y0049750D01*
X0017217Y0049407D02*
X0016597Y0049407D01*
X0015619Y0047808D02*
X0012981Y0047808D01*
X0013500Y0046210D02*
X0015100Y0046210D01*
X0015100Y0044611D02*
X0013500Y0044611D01*
X0012702Y0043013D02*
X0015898Y0043013D01*
X0017496Y0041414D02*
X0011104Y0041414D01*
X0007496Y0041414D02*
X0006850Y0041414D01*
X0006850Y0036619D02*
X0007896Y0036619D01*
X0010550Y0036619D02*
X0010550Y0036619D01*
X0010550Y0035020D02*
X0010550Y0035020D01*
X0010550Y0033422D02*
X0010550Y0033422D01*
X0013204Y0036619D02*
X0018179Y0036619D01*
X0016581Y0035020D02*
X0014802Y0035020D01*
X0014950Y0033422D02*
X0016350Y0033422D01*
X0016350Y0031823D02*
X0014950Y0031823D01*
X0013947Y0030225D02*
X0017436Y0030225D01*
X0014750Y0028626D02*
X0012936Y0028626D01*
X0013814Y0027028D02*
X0014750Y0027028D01*
X0014750Y0025429D02*
X0009475Y0025429D01*
X0009475Y0023831D02*
X0009125Y0023831D01*
X0009125Y0022232D02*
X0009475Y0022232D01*
X0012700Y0022232D02*
X0014750Y0022232D01*
X0014750Y0023831D02*
X0013736Y0023831D01*
X0011350Y0019035D02*
X0006850Y0019035D01*
X0006850Y0017437D02*
X0010157Y0017437D01*
X0009750Y0015838D02*
X0006850Y0015838D01*
X0006850Y0014240D02*
X0009918Y0014240D01*
X0010774Y0012641D02*
X0006850Y0012641D01*
X0006850Y0011043D02*
X0013292Y0011043D01*
X0015308Y0011043D02*
X0033250Y0011043D01*
X0033250Y0012641D02*
X0017826Y0012641D01*
X0018682Y0014240D02*
X0033250Y0014240D01*
X0033250Y0015838D02*
X0019225Y0015838D01*
X0025724Y0017437D02*
X0033454Y0017437D01*
X0029875Y0019035D02*
X0027322Y0019035D01*
X0037850Y0019035D02*
X0038250Y0019035D01*
X0038250Y0017437D02*
X0037850Y0017437D01*
X0037850Y0015838D02*
X0038250Y0015838D01*
X0038250Y0014240D02*
X0037850Y0014240D01*
X0038250Y0013250D02*
X0038250Y0020850D01*
X0038428Y0020850D01*
X0039174Y0020732D01*
X0039893Y0020498D01*
X0040566Y0020155D01*
X0041177Y0019711D01*
X0041711Y0019177D01*
X0042155Y0018566D01*
X0042498Y0017893D01*
X0042732Y0017174D01*
X0042850Y0016428D01*
X0042850Y0013250D01*
X0038250Y0013250D01*
X0042850Y0012641D02*
X0043450Y0012641D01*
X0043450Y0011043D02*
X0042850Y0011043D01*
X0042814Y0009444D02*
X0043450Y0009444D01*
X0043984Y0007846D02*
X0042314Y0007846D01*
X0042850Y0014240D02*
X0043450Y0014240D01*
X0043450Y0015838D02*
X0042850Y0015838D01*
X0042646Y0017437D02*
X0043645Y0017437D01*
X0042478Y0019035D02*
X0041814Y0019035D01*
X0040879Y0020634D02*
X0039476Y0020634D01*
X0038250Y0020634D02*
X0037850Y0020634D01*
X0033286Y0009444D02*
X0006850Y0009444D01*
X0006850Y0007846D02*
X0033786Y0007846D01*
X0059750Y0030225D02*
X0067921Y0030225D01*
X0067921Y0031823D02*
X0059750Y0031823D01*
X0059750Y0033422D02*
X0067921Y0033422D01*
X0067921Y0035020D02*
X0058269Y0035020D01*
X0032600Y0052604D02*
X0018500Y0052604D01*
X0018500Y0054202D02*
X0032600Y0054202D01*
X0029717Y0049407D02*
X0021383Y0049407D01*
X0022981Y0047808D02*
X0028119Y0047808D01*
X0027600Y0046210D02*
X0023500Y0046210D01*
X0023500Y0044611D02*
X0027600Y0044611D01*
X0028398Y0043013D02*
X0022702Y0043013D01*
X0021104Y0041414D02*
X0029996Y0041414D01*
X0012003Y0049407D02*
X0011383Y0049407D01*
X0010405Y0051005D02*
X0006850Y0051005D01*
X0006850Y0052604D02*
X0010100Y0052604D01*
X0010100Y0054202D02*
X0006850Y0054202D01*
X0006850Y0049407D02*
X0007217Y0049407D01*
D17*
X0031750Y0026150D02*
X0034550Y0026150D01*
X0037350Y0023350D01*
X0040850Y0023350D01*
X0047850Y0016350D01*
X0047850Y0013550D01*
X0048050Y0013050D01*
X0031750Y0026150D02*
X0024050Y0018450D01*
X0020550Y0018450D01*
X0019850Y0019150D01*
X0016350Y0015650D01*
X0014950Y0015650D01*
X0014300Y0015550D01*
M02*
