%
M48
M72
T01C0.0320
T02C0.0390
T03C0.0400
%
T01
X3305Y2180
X3305Y3180
X4430Y3555
X4430Y2555
X5555Y2180
X5555Y3180
X4180Y4555
X3680Y5305
X3180Y4555
X1930Y4555
X1430Y5305
X930Y4555
X1055Y3305
X2055Y3305
X5305Y4805
X6305Y4805
T02
X1430Y1555
X930Y2555
X1930Y2555
T03
X3805Y1305
X4805Y1305
X5805Y1305
M30
