G75*
%MOIN*%
%OFA0B0*%
%FSLAX25Y25*%
%IPPOS*%
%LPD*%
%AMOC8*
5,1,8,0,0,1.08239X$1,22.5*
%
%ADD10R,0.07600X0.07600*%
%ADD11C,0.07600*%
%ADD12C,0.01600*%
D10*
X0097000Y0018000D03*
D11*
X0037000Y0018000D03*
X0047000Y0018000D03*
X0057000Y0018000D03*
X0067000Y0018000D03*
X0077000Y0018000D03*
X0087000Y0018000D03*
D12*
X0079000Y0023016D02*
X0078074Y0023400D01*
X0075926Y0023400D01*
X0074960Y0023000D01*
X0069040Y0023000D01*
X0068074Y0023400D01*
X0065926Y0023400D01*
X0064960Y0023000D01*
X0059040Y0023000D01*
X0058074Y0023400D01*
X0056000Y0023400D01*
X0056000Y0061200D01*
X0079000Y0061200D01*
X0079000Y0023016D01*
X0079000Y0023985D02*
X0056000Y0023985D01*
X0056000Y0025584D02*
X0079000Y0025584D01*
X0079000Y0027182D02*
X0056000Y0027182D01*
X0056000Y0028781D02*
X0079000Y0028781D01*
X0079000Y0030379D02*
X0056000Y0030379D01*
X0056000Y0031978D02*
X0079000Y0031978D01*
X0079000Y0033576D02*
X0056000Y0033576D01*
X0056000Y0035175D02*
X0079000Y0035175D01*
X0079000Y0036773D02*
X0056000Y0036773D01*
X0056000Y0038372D02*
X0079000Y0038372D01*
X0079000Y0039970D02*
X0056000Y0039970D01*
X0056000Y0041569D02*
X0079000Y0041569D01*
X0079000Y0043167D02*
X0056000Y0043167D01*
X0056000Y0044766D02*
X0079000Y0044766D01*
X0079000Y0046364D02*
X0056000Y0046364D01*
X0056000Y0047963D02*
X0079000Y0047963D01*
X0079000Y0049561D02*
X0056000Y0049561D01*
X0056000Y0051160D02*
X0079000Y0051160D01*
X0079000Y0052758D02*
X0056000Y0052758D01*
X0056000Y0054357D02*
X0079000Y0054357D01*
X0079000Y0055955D02*
X0056000Y0055955D01*
X0056000Y0057554D02*
X0079000Y0057554D01*
X0079000Y0059152D02*
X0056000Y0059152D01*
X0056000Y0060751D02*
X0079000Y0060751D01*
M02*
