G75*
%MOIN*%
%OFA0B0*%
%FSLAX25Y25*%
%IPPOS*%
%LPD*%
%AMOC8*
5,1,8,0,0,1.08239X$1,22.5*
%
%ADD10C,0.00600*%
%ADD11C,0.00800*%
%ADD12C,0.00400*%
D10*
X0035458Y0009867D02*
X0036026Y0009300D01*
X0037160Y0009300D01*
X0037727Y0009867D01*
X0037727Y0012136D01*
X0035458Y0009867D01*
X0035458Y0012136D01*
X0036026Y0012703D01*
X0037160Y0012703D01*
X0037727Y0012136D01*
X0055458Y0012136D02*
X0056026Y0012703D01*
X0057160Y0012703D01*
X0057727Y0012136D01*
X0057727Y0011569D01*
X0055458Y0009300D01*
X0057727Y0009300D01*
X0071775Y0009867D02*
X0072342Y0009300D01*
X0073477Y0009300D01*
X0074044Y0009867D01*
X0074044Y0010434D01*
X0073477Y0011001D01*
X0072342Y0011001D01*
X0071775Y0011569D01*
X0071775Y0012136D01*
X0072342Y0012703D01*
X0073477Y0012703D01*
X0074044Y0012136D01*
X0075458Y0012703D02*
X0077160Y0012703D01*
X0077727Y0012136D01*
X0077727Y0009867D01*
X0077160Y0009300D01*
X0075458Y0009300D01*
X0075458Y0012703D01*
X0079142Y0011569D02*
X0080276Y0012703D01*
X0081410Y0011569D01*
X0081410Y0009300D01*
X0079142Y0009300D02*
X0079142Y0011569D01*
X0079142Y0011001D02*
X0081410Y0011001D01*
X0092389Y0010434D02*
X0093523Y0009300D01*
X0094658Y0010434D01*
X0094658Y0012703D01*
X0096072Y0012703D02*
X0097207Y0012703D01*
X0096639Y0012703D02*
X0096639Y0009300D01*
X0096072Y0009300D02*
X0097207Y0009300D01*
X0098528Y0009300D02*
X0098528Y0012703D01*
X0100796Y0009300D01*
X0100796Y0012703D01*
X0092389Y0012703D02*
X0092389Y0010434D01*
X0090843Y0023300D02*
X0089142Y0023300D01*
X0089142Y0026703D01*
X0090843Y0026703D01*
X0091410Y0026136D01*
X0091410Y0023867D01*
X0090843Y0023300D01*
X0087727Y0023300D02*
X0087727Y0026703D01*
X0085458Y0026703D02*
X0087727Y0023300D01*
X0085458Y0023300D02*
X0085458Y0026703D01*
X0084044Y0026136D02*
X0083477Y0026703D01*
X0082342Y0026703D01*
X0081775Y0026136D01*
X0081775Y0023867D01*
X0082342Y0023300D01*
X0083477Y0023300D01*
X0084044Y0023867D01*
X0084044Y0025001D01*
X0082910Y0025001D01*
X0071410Y0023300D02*
X0069142Y0023300D01*
X0069142Y0026703D01*
X0067727Y0026136D02*
X0067160Y0026703D01*
X0066026Y0026703D01*
X0065458Y0026136D01*
X0065458Y0023867D01*
X0066026Y0023300D01*
X0067160Y0023300D01*
X0067727Y0023867D01*
X0064044Y0023867D02*
X0063477Y0023300D01*
X0062342Y0023300D01*
X0061775Y0023867D01*
X0063477Y0025001D02*
X0064044Y0024434D01*
X0064044Y0023867D01*
X0063477Y0025001D02*
X0062342Y0025001D01*
X0061775Y0025569D01*
X0061775Y0026136D01*
X0062342Y0026703D01*
X0063477Y0026703D01*
X0064044Y0026136D01*
X0047727Y0023300D02*
X0045458Y0023300D01*
X0046593Y0023300D02*
X0046593Y0026703D01*
X0045458Y0025569D01*
X0003500Y0018000D02*
X0003504Y0018331D01*
X0003516Y0018662D01*
X0003537Y0018993D01*
X0003565Y0019323D01*
X0003602Y0019653D01*
X0003646Y0019981D01*
X0003699Y0020308D01*
X0003759Y0020634D01*
X0003828Y0020958D01*
X0003905Y0021280D01*
X0003989Y0021601D01*
X0004081Y0021919D01*
X0004181Y0022235D01*
X0004289Y0022548D01*
X0004405Y0022859D01*
X0004528Y0023166D01*
X0004658Y0023471D01*
X0004796Y0023772D01*
X0004941Y0024070D01*
X0005094Y0024364D01*
X0005254Y0024654D01*
X0005421Y0024940D01*
X0005594Y0025222D01*
X0005775Y0025500D01*
X0005963Y0025773D01*
X0006157Y0026042D01*
X0006357Y0026306D01*
X0006564Y0026564D01*
X0006778Y0026818D01*
X0006997Y0027066D01*
X0007223Y0027309D01*
X0007454Y0027546D01*
X0007691Y0027777D01*
X0007934Y0028003D01*
X0008182Y0028222D01*
X0008436Y0028436D01*
X0008694Y0028643D01*
X0008958Y0028843D01*
X0009227Y0029037D01*
X0009500Y0029225D01*
X0009778Y0029406D01*
X0010060Y0029579D01*
X0010346Y0029746D01*
X0010636Y0029906D01*
X0010930Y0030059D01*
X0011228Y0030204D01*
X0011529Y0030342D01*
X0011834Y0030472D01*
X0012141Y0030595D01*
X0012452Y0030711D01*
X0012765Y0030819D01*
X0013081Y0030919D01*
X0013399Y0031011D01*
X0013720Y0031095D01*
X0014042Y0031172D01*
X0014366Y0031241D01*
X0014692Y0031301D01*
X0015019Y0031354D01*
X0015347Y0031398D01*
X0015677Y0031435D01*
X0016007Y0031463D01*
X0016338Y0031484D01*
X0016669Y0031496D01*
X0017000Y0031500D01*
X0017331Y0031496D01*
X0017662Y0031484D01*
X0017993Y0031463D01*
X0018323Y0031435D01*
X0018653Y0031398D01*
X0018981Y0031354D01*
X0019308Y0031301D01*
X0019634Y0031241D01*
X0019958Y0031172D01*
X0020280Y0031095D01*
X0020601Y0031011D01*
X0020919Y0030919D01*
X0021235Y0030819D01*
X0021548Y0030711D01*
X0021859Y0030595D01*
X0022166Y0030472D01*
X0022471Y0030342D01*
X0022772Y0030204D01*
X0023070Y0030059D01*
X0023364Y0029906D01*
X0023654Y0029746D01*
X0023940Y0029579D01*
X0024222Y0029406D01*
X0024500Y0029225D01*
X0024773Y0029037D01*
X0025042Y0028843D01*
X0025306Y0028643D01*
X0025564Y0028436D01*
X0025818Y0028222D01*
X0026066Y0028003D01*
X0026309Y0027777D01*
X0026546Y0027546D01*
X0026777Y0027309D01*
X0027003Y0027066D01*
X0027222Y0026818D01*
X0027436Y0026564D01*
X0027643Y0026306D01*
X0027843Y0026042D01*
X0028037Y0025773D01*
X0028225Y0025500D01*
X0028406Y0025222D01*
X0028579Y0024940D01*
X0028746Y0024654D01*
X0028906Y0024364D01*
X0029059Y0024070D01*
X0029204Y0023772D01*
X0029342Y0023471D01*
X0029472Y0023166D01*
X0029595Y0022859D01*
X0029711Y0022548D01*
X0029819Y0022235D01*
X0029919Y0021919D01*
X0030011Y0021601D01*
X0030095Y0021280D01*
X0030172Y0020958D01*
X0030241Y0020634D01*
X0030301Y0020308D01*
X0030354Y0019981D01*
X0030398Y0019653D01*
X0030435Y0019323D01*
X0030463Y0018993D01*
X0030484Y0018662D01*
X0030496Y0018331D01*
X0030500Y0018000D01*
X0030496Y0017669D01*
X0030484Y0017338D01*
X0030463Y0017007D01*
X0030435Y0016677D01*
X0030398Y0016347D01*
X0030354Y0016019D01*
X0030301Y0015692D01*
X0030241Y0015366D01*
X0030172Y0015042D01*
X0030095Y0014720D01*
X0030011Y0014399D01*
X0029919Y0014081D01*
X0029819Y0013765D01*
X0029711Y0013452D01*
X0029595Y0013141D01*
X0029472Y0012834D01*
X0029342Y0012529D01*
X0029204Y0012228D01*
X0029059Y0011930D01*
X0028906Y0011636D01*
X0028746Y0011346D01*
X0028579Y0011060D01*
X0028406Y0010778D01*
X0028225Y0010500D01*
X0028037Y0010227D01*
X0027843Y0009958D01*
X0027643Y0009694D01*
X0027436Y0009436D01*
X0027222Y0009182D01*
X0027003Y0008934D01*
X0026777Y0008691D01*
X0026546Y0008454D01*
X0026309Y0008223D01*
X0026066Y0007997D01*
X0025818Y0007778D01*
X0025564Y0007564D01*
X0025306Y0007357D01*
X0025042Y0007157D01*
X0024773Y0006963D01*
X0024500Y0006775D01*
X0024222Y0006594D01*
X0023940Y0006421D01*
X0023654Y0006254D01*
X0023364Y0006094D01*
X0023070Y0005941D01*
X0022772Y0005796D01*
X0022471Y0005658D01*
X0022166Y0005528D01*
X0021859Y0005405D01*
X0021548Y0005289D01*
X0021235Y0005181D01*
X0020919Y0005081D01*
X0020601Y0004989D01*
X0020280Y0004905D01*
X0019958Y0004828D01*
X0019634Y0004759D01*
X0019308Y0004699D01*
X0018981Y0004646D01*
X0018653Y0004602D01*
X0018323Y0004565D01*
X0017993Y0004537D01*
X0017662Y0004516D01*
X0017331Y0004504D01*
X0017000Y0004500D01*
X0016669Y0004504D01*
X0016338Y0004516D01*
X0016007Y0004537D01*
X0015677Y0004565D01*
X0015347Y0004602D01*
X0015019Y0004646D01*
X0014692Y0004699D01*
X0014366Y0004759D01*
X0014042Y0004828D01*
X0013720Y0004905D01*
X0013399Y0004989D01*
X0013081Y0005081D01*
X0012765Y0005181D01*
X0012452Y0005289D01*
X0012141Y0005405D01*
X0011834Y0005528D01*
X0011529Y0005658D01*
X0011228Y0005796D01*
X0010930Y0005941D01*
X0010636Y0006094D01*
X0010346Y0006254D01*
X0010060Y0006421D01*
X0009778Y0006594D01*
X0009500Y0006775D01*
X0009227Y0006963D01*
X0008958Y0007157D01*
X0008694Y0007357D01*
X0008436Y0007564D01*
X0008182Y0007778D01*
X0007934Y0007997D01*
X0007691Y0008223D01*
X0007454Y0008454D01*
X0007223Y0008691D01*
X0006997Y0008934D01*
X0006778Y0009182D01*
X0006564Y0009436D01*
X0006357Y0009694D01*
X0006157Y0009958D01*
X0005963Y0010227D01*
X0005775Y0010500D01*
X0005594Y0010778D01*
X0005421Y0011060D01*
X0005254Y0011346D01*
X0005094Y0011636D01*
X0004941Y0011930D01*
X0004796Y0012228D01*
X0004658Y0012529D01*
X0004528Y0012834D01*
X0004405Y0013141D01*
X0004289Y0013452D01*
X0004181Y0013765D01*
X0004081Y0014081D01*
X0003989Y0014399D01*
X0003905Y0014720D01*
X0003828Y0015042D01*
X0003759Y0015366D01*
X0003699Y0015692D01*
X0003646Y0016019D01*
X0003602Y0016347D01*
X0003565Y0016677D01*
X0003537Y0017007D01*
X0003516Y0017338D01*
X0003504Y0017669D01*
X0003500Y0018000D01*
X0103500Y0018000D02*
X0103504Y0018331D01*
X0103516Y0018662D01*
X0103537Y0018993D01*
X0103565Y0019323D01*
X0103602Y0019653D01*
X0103646Y0019981D01*
X0103699Y0020308D01*
X0103759Y0020634D01*
X0103828Y0020958D01*
X0103905Y0021280D01*
X0103989Y0021601D01*
X0104081Y0021919D01*
X0104181Y0022235D01*
X0104289Y0022548D01*
X0104405Y0022859D01*
X0104528Y0023166D01*
X0104658Y0023471D01*
X0104796Y0023772D01*
X0104941Y0024070D01*
X0105094Y0024364D01*
X0105254Y0024654D01*
X0105421Y0024940D01*
X0105594Y0025222D01*
X0105775Y0025500D01*
X0105963Y0025773D01*
X0106157Y0026042D01*
X0106357Y0026306D01*
X0106564Y0026564D01*
X0106778Y0026818D01*
X0106997Y0027066D01*
X0107223Y0027309D01*
X0107454Y0027546D01*
X0107691Y0027777D01*
X0107934Y0028003D01*
X0108182Y0028222D01*
X0108436Y0028436D01*
X0108694Y0028643D01*
X0108958Y0028843D01*
X0109227Y0029037D01*
X0109500Y0029225D01*
X0109778Y0029406D01*
X0110060Y0029579D01*
X0110346Y0029746D01*
X0110636Y0029906D01*
X0110930Y0030059D01*
X0111228Y0030204D01*
X0111529Y0030342D01*
X0111834Y0030472D01*
X0112141Y0030595D01*
X0112452Y0030711D01*
X0112765Y0030819D01*
X0113081Y0030919D01*
X0113399Y0031011D01*
X0113720Y0031095D01*
X0114042Y0031172D01*
X0114366Y0031241D01*
X0114692Y0031301D01*
X0115019Y0031354D01*
X0115347Y0031398D01*
X0115677Y0031435D01*
X0116007Y0031463D01*
X0116338Y0031484D01*
X0116669Y0031496D01*
X0117000Y0031500D01*
X0117331Y0031496D01*
X0117662Y0031484D01*
X0117993Y0031463D01*
X0118323Y0031435D01*
X0118653Y0031398D01*
X0118981Y0031354D01*
X0119308Y0031301D01*
X0119634Y0031241D01*
X0119958Y0031172D01*
X0120280Y0031095D01*
X0120601Y0031011D01*
X0120919Y0030919D01*
X0121235Y0030819D01*
X0121548Y0030711D01*
X0121859Y0030595D01*
X0122166Y0030472D01*
X0122471Y0030342D01*
X0122772Y0030204D01*
X0123070Y0030059D01*
X0123364Y0029906D01*
X0123654Y0029746D01*
X0123940Y0029579D01*
X0124222Y0029406D01*
X0124500Y0029225D01*
X0124773Y0029037D01*
X0125042Y0028843D01*
X0125306Y0028643D01*
X0125564Y0028436D01*
X0125818Y0028222D01*
X0126066Y0028003D01*
X0126309Y0027777D01*
X0126546Y0027546D01*
X0126777Y0027309D01*
X0127003Y0027066D01*
X0127222Y0026818D01*
X0127436Y0026564D01*
X0127643Y0026306D01*
X0127843Y0026042D01*
X0128037Y0025773D01*
X0128225Y0025500D01*
X0128406Y0025222D01*
X0128579Y0024940D01*
X0128746Y0024654D01*
X0128906Y0024364D01*
X0129059Y0024070D01*
X0129204Y0023772D01*
X0129342Y0023471D01*
X0129472Y0023166D01*
X0129595Y0022859D01*
X0129711Y0022548D01*
X0129819Y0022235D01*
X0129919Y0021919D01*
X0130011Y0021601D01*
X0130095Y0021280D01*
X0130172Y0020958D01*
X0130241Y0020634D01*
X0130301Y0020308D01*
X0130354Y0019981D01*
X0130398Y0019653D01*
X0130435Y0019323D01*
X0130463Y0018993D01*
X0130484Y0018662D01*
X0130496Y0018331D01*
X0130500Y0018000D01*
X0130496Y0017669D01*
X0130484Y0017338D01*
X0130463Y0017007D01*
X0130435Y0016677D01*
X0130398Y0016347D01*
X0130354Y0016019D01*
X0130301Y0015692D01*
X0130241Y0015366D01*
X0130172Y0015042D01*
X0130095Y0014720D01*
X0130011Y0014399D01*
X0129919Y0014081D01*
X0129819Y0013765D01*
X0129711Y0013452D01*
X0129595Y0013141D01*
X0129472Y0012834D01*
X0129342Y0012529D01*
X0129204Y0012228D01*
X0129059Y0011930D01*
X0128906Y0011636D01*
X0128746Y0011346D01*
X0128579Y0011060D01*
X0128406Y0010778D01*
X0128225Y0010500D01*
X0128037Y0010227D01*
X0127843Y0009958D01*
X0127643Y0009694D01*
X0127436Y0009436D01*
X0127222Y0009182D01*
X0127003Y0008934D01*
X0126777Y0008691D01*
X0126546Y0008454D01*
X0126309Y0008223D01*
X0126066Y0007997D01*
X0125818Y0007778D01*
X0125564Y0007564D01*
X0125306Y0007357D01*
X0125042Y0007157D01*
X0124773Y0006963D01*
X0124500Y0006775D01*
X0124222Y0006594D01*
X0123940Y0006421D01*
X0123654Y0006254D01*
X0123364Y0006094D01*
X0123070Y0005941D01*
X0122772Y0005796D01*
X0122471Y0005658D01*
X0122166Y0005528D01*
X0121859Y0005405D01*
X0121548Y0005289D01*
X0121235Y0005181D01*
X0120919Y0005081D01*
X0120601Y0004989D01*
X0120280Y0004905D01*
X0119958Y0004828D01*
X0119634Y0004759D01*
X0119308Y0004699D01*
X0118981Y0004646D01*
X0118653Y0004602D01*
X0118323Y0004565D01*
X0117993Y0004537D01*
X0117662Y0004516D01*
X0117331Y0004504D01*
X0117000Y0004500D01*
X0116669Y0004504D01*
X0116338Y0004516D01*
X0116007Y0004537D01*
X0115677Y0004565D01*
X0115347Y0004602D01*
X0115019Y0004646D01*
X0114692Y0004699D01*
X0114366Y0004759D01*
X0114042Y0004828D01*
X0113720Y0004905D01*
X0113399Y0004989D01*
X0113081Y0005081D01*
X0112765Y0005181D01*
X0112452Y0005289D01*
X0112141Y0005405D01*
X0111834Y0005528D01*
X0111529Y0005658D01*
X0111228Y0005796D01*
X0110930Y0005941D01*
X0110636Y0006094D01*
X0110346Y0006254D01*
X0110060Y0006421D01*
X0109778Y0006594D01*
X0109500Y0006775D01*
X0109227Y0006963D01*
X0108958Y0007157D01*
X0108694Y0007357D01*
X0108436Y0007564D01*
X0108182Y0007778D01*
X0107934Y0007997D01*
X0107691Y0008223D01*
X0107454Y0008454D01*
X0107223Y0008691D01*
X0106997Y0008934D01*
X0106778Y0009182D01*
X0106564Y0009436D01*
X0106357Y0009694D01*
X0106157Y0009958D01*
X0105963Y0010227D01*
X0105775Y0010500D01*
X0105594Y0010778D01*
X0105421Y0011060D01*
X0105254Y0011346D01*
X0105094Y0011636D01*
X0104941Y0011930D01*
X0104796Y0012228D01*
X0104658Y0012529D01*
X0104528Y0012834D01*
X0104405Y0013141D01*
X0104289Y0013452D01*
X0104181Y0013765D01*
X0104081Y0014081D01*
X0103989Y0014399D01*
X0103905Y0014720D01*
X0103828Y0015042D01*
X0103759Y0015366D01*
X0103699Y0015692D01*
X0103646Y0016019D01*
X0103602Y0016347D01*
X0103565Y0016677D01*
X0103537Y0017007D01*
X0103516Y0017338D01*
X0103504Y0017669D01*
X0103500Y0018000D01*
D11*
X0110701Y0018000D02*
X0110703Y0018158D01*
X0110709Y0018316D01*
X0110719Y0018474D01*
X0110733Y0018632D01*
X0110751Y0018789D01*
X0110772Y0018946D01*
X0110798Y0019102D01*
X0110828Y0019258D01*
X0110861Y0019413D01*
X0110899Y0019566D01*
X0110940Y0019719D01*
X0110985Y0019871D01*
X0111034Y0020022D01*
X0111087Y0020171D01*
X0111143Y0020319D01*
X0111203Y0020465D01*
X0111267Y0020610D01*
X0111335Y0020753D01*
X0111406Y0020895D01*
X0111480Y0021035D01*
X0111558Y0021172D01*
X0111640Y0021308D01*
X0111724Y0021442D01*
X0111813Y0021573D01*
X0111904Y0021702D01*
X0111999Y0021829D01*
X0112096Y0021954D01*
X0112197Y0022076D01*
X0112301Y0022195D01*
X0112408Y0022312D01*
X0112518Y0022426D01*
X0112631Y0022537D01*
X0112746Y0022646D01*
X0112864Y0022751D01*
X0112985Y0022853D01*
X0113108Y0022953D01*
X0113234Y0023049D01*
X0113362Y0023142D01*
X0113492Y0023232D01*
X0113625Y0023318D01*
X0113760Y0023402D01*
X0113896Y0023481D01*
X0114035Y0023558D01*
X0114176Y0023630D01*
X0114318Y0023700D01*
X0114462Y0023765D01*
X0114608Y0023827D01*
X0114755Y0023885D01*
X0114904Y0023940D01*
X0115054Y0023991D01*
X0115205Y0024038D01*
X0115357Y0024081D01*
X0115510Y0024120D01*
X0115665Y0024156D01*
X0115820Y0024187D01*
X0115976Y0024215D01*
X0116132Y0024239D01*
X0116289Y0024259D01*
X0116447Y0024275D01*
X0116604Y0024287D01*
X0116763Y0024295D01*
X0116921Y0024299D01*
X0117079Y0024299D01*
X0117237Y0024295D01*
X0117396Y0024287D01*
X0117553Y0024275D01*
X0117711Y0024259D01*
X0117868Y0024239D01*
X0118024Y0024215D01*
X0118180Y0024187D01*
X0118335Y0024156D01*
X0118490Y0024120D01*
X0118643Y0024081D01*
X0118795Y0024038D01*
X0118946Y0023991D01*
X0119096Y0023940D01*
X0119245Y0023885D01*
X0119392Y0023827D01*
X0119538Y0023765D01*
X0119682Y0023700D01*
X0119824Y0023630D01*
X0119965Y0023558D01*
X0120104Y0023481D01*
X0120240Y0023402D01*
X0120375Y0023318D01*
X0120508Y0023232D01*
X0120638Y0023142D01*
X0120766Y0023049D01*
X0120892Y0022953D01*
X0121015Y0022853D01*
X0121136Y0022751D01*
X0121254Y0022646D01*
X0121369Y0022537D01*
X0121482Y0022426D01*
X0121592Y0022312D01*
X0121699Y0022195D01*
X0121803Y0022076D01*
X0121904Y0021954D01*
X0122001Y0021829D01*
X0122096Y0021702D01*
X0122187Y0021573D01*
X0122276Y0021442D01*
X0122360Y0021308D01*
X0122442Y0021172D01*
X0122520Y0021035D01*
X0122594Y0020895D01*
X0122665Y0020753D01*
X0122733Y0020610D01*
X0122797Y0020465D01*
X0122857Y0020319D01*
X0122913Y0020171D01*
X0122966Y0020022D01*
X0123015Y0019871D01*
X0123060Y0019719D01*
X0123101Y0019566D01*
X0123139Y0019413D01*
X0123172Y0019258D01*
X0123202Y0019102D01*
X0123228Y0018946D01*
X0123249Y0018789D01*
X0123267Y0018632D01*
X0123281Y0018474D01*
X0123291Y0018316D01*
X0123297Y0018158D01*
X0123299Y0018000D01*
X0123297Y0017842D01*
X0123291Y0017684D01*
X0123281Y0017526D01*
X0123267Y0017368D01*
X0123249Y0017211D01*
X0123228Y0017054D01*
X0123202Y0016898D01*
X0123172Y0016742D01*
X0123139Y0016587D01*
X0123101Y0016434D01*
X0123060Y0016281D01*
X0123015Y0016129D01*
X0122966Y0015978D01*
X0122913Y0015829D01*
X0122857Y0015681D01*
X0122797Y0015535D01*
X0122733Y0015390D01*
X0122665Y0015247D01*
X0122594Y0015105D01*
X0122520Y0014965D01*
X0122442Y0014828D01*
X0122360Y0014692D01*
X0122276Y0014558D01*
X0122187Y0014427D01*
X0122096Y0014298D01*
X0122001Y0014171D01*
X0121904Y0014046D01*
X0121803Y0013924D01*
X0121699Y0013805D01*
X0121592Y0013688D01*
X0121482Y0013574D01*
X0121369Y0013463D01*
X0121254Y0013354D01*
X0121136Y0013249D01*
X0121015Y0013147D01*
X0120892Y0013047D01*
X0120766Y0012951D01*
X0120638Y0012858D01*
X0120508Y0012768D01*
X0120375Y0012682D01*
X0120240Y0012598D01*
X0120104Y0012519D01*
X0119965Y0012442D01*
X0119824Y0012370D01*
X0119682Y0012300D01*
X0119538Y0012235D01*
X0119392Y0012173D01*
X0119245Y0012115D01*
X0119096Y0012060D01*
X0118946Y0012009D01*
X0118795Y0011962D01*
X0118643Y0011919D01*
X0118490Y0011880D01*
X0118335Y0011844D01*
X0118180Y0011813D01*
X0118024Y0011785D01*
X0117868Y0011761D01*
X0117711Y0011741D01*
X0117553Y0011725D01*
X0117396Y0011713D01*
X0117237Y0011705D01*
X0117079Y0011701D01*
X0116921Y0011701D01*
X0116763Y0011705D01*
X0116604Y0011713D01*
X0116447Y0011725D01*
X0116289Y0011741D01*
X0116132Y0011761D01*
X0115976Y0011785D01*
X0115820Y0011813D01*
X0115665Y0011844D01*
X0115510Y0011880D01*
X0115357Y0011919D01*
X0115205Y0011962D01*
X0115054Y0012009D01*
X0114904Y0012060D01*
X0114755Y0012115D01*
X0114608Y0012173D01*
X0114462Y0012235D01*
X0114318Y0012300D01*
X0114176Y0012370D01*
X0114035Y0012442D01*
X0113896Y0012519D01*
X0113760Y0012598D01*
X0113625Y0012682D01*
X0113492Y0012768D01*
X0113362Y0012858D01*
X0113234Y0012951D01*
X0113108Y0013047D01*
X0112985Y0013147D01*
X0112864Y0013249D01*
X0112746Y0013354D01*
X0112631Y0013463D01*
X0112518Y0013574D01*
X0112408Y0013688D01*
X0112301Y0013805D01*
X0112197Y0013924D01*
X0112096Y0014046D01*
X0111999Y0014171D01*
X0111904Y0014298D01*
X0111813Y0014427D01*
X0111724Y0014558D01*
X0111640Y0014692D01*
X0111558Y0014828D01*
X0111480Y0014965D01*
X0111406Y0015105D01*
X0111335Y0015247D01*
X0111267Y0015390D01*
X0111203Y0015535D01*
X0111143Y0015681D01*
X0111087Y0015829D01*
X0111034Y0015978D01*
X0110985Y0016129D01*
X0110940Y0016281D01*
X0110899Y0016434D01*
X0110861Y0016587D01*
X0110828Y0016742D01*
X0110798Y0016898D01*
X0110772Y0017054D01*
X0110751Y0017211D01*
X0110733Y0017368D01*
X0110719Y0017526D01*
X0110709Y0017684D01*
X0110703Y0017842D01*
X0110701Y0018000D01*
X0069000Y0035500D02*
X0065000Y0035500D01*
X0065000Y0046500D01*
X0069000Y0046500D01*
X0069000Y0035500D01*
X0068670Y0042900D02*
X0070071Y0042900D01*
X0070772Y0043601D01*
X0068670Y0042900D02*
X0067969Y0043601D01*
X0067969Y0046403D01*
X0068670Y0047104D01*
X0070071Y0047104D01*
X0070772Y0046403D01*
X0072573Y0045702D02*
X0073974Y0047104D01*
X0073974Y0042900D01*
X0072573Y0042900D02*
X0075376Y0042900D01*
X0066301Y0042900D02*
X0064900Y0042900D01*
X0065601Y0042900D02*
X0065601Y0047104D01*
X0066301Y0047104D02*
X0064900Y0047104D01*
X0010701Y0018000D02*
X0010703Y0018158D01*
X0010709Y0018316D01*
X0010719Y0018474D01*
X0010733Y0018632D01*
X0010751Y0018789D01*
X0010772Y0018946D01*
X0010798Y0019102D01*
X0010828Y0019258D01*
X0010861Y0019413D01*
X0010899Y0019566D01*
X0010940Y0019719D01*
X0010985Y0019871D01*
X0011034Y0020022D01*
X0011087Y0020171D01*
X0011143Y0020319D01*
X0011203Y0020465D01*
X0011267Y0020610D01*
X0011335Y0020753D01*
X0011406Y0020895D01*
X0011480Y0021035D01*
X0011558Y0021172D01*
X0011640Y0021308D01*
X0011724Y0021442D01*
X0011813Y0021573D01*
X0011904Y0021702D01*
X0011999Y0021829D01*
X0012096Y0021954D01*
X0012197Y0022076D01*
X0012301Y0022195D01*
X0012408Y0022312D01*
X0012518Y0022426D01*
X0012631Y0022537D01*
X0012746Y0022646D01*
X0012864Y0022751D01*
X0012985Y0022853D01*
X0013108Y0022953D01*
X0013234Y0023049D01*
X0013362Y0023142D01*
X0013492Y0023232D01*
X0013625Y0023318D01*
X0013760Y0023402D01*
X0013896Y0023481D01*
X0014035Y0023558D01*
X0014176Y0023630D01*
X0014318Y0023700D01*
X0014462Y0023765D01*
X0014608Y0023827D01*
X0014755Y0023885D01*
X0014904Y0023940D01*
X0015054Y0023991D01*
X0015205Y0024038D01*
X0015357Y0024081D01*
X0015510Y0024120D01*
X0015665Y0024156D01*
X0015820Y0024187D01*
X0015976Y0024215D01*
X0016132Y0024239D01*
X0016289Y0024259D01*
X0016447Y0024275D01*
X0016604Y0024287D01*
X0016763Y0024295D01*
X0016921Y0024299D01*
X0017079Y0024299D01*
X0017237Y0024295D01*
X0017396Y0024287D01*
X0017553Y0024275D01*
X0017711Y0024259D01*
X0017868Y0024239D01*
X0018024Y0024215D01*
X0018180Y0024187D01*
X0018335Y0024156D01*
X0018490Y0024120D01*
X0018643Y0024081D01*
X0018795Y0024038D01*
X0018946Y0023991D01*
X0019096Y0023940D01*
X0019245Y0023885D01*
X0019392Y0023827D01*
X0019538Y0023765D01*
X0019682Y0023700D01*
X0019824Y0023630D01*
X0019965Y0023558D01*
X0020104Y0023481D01*
X0020240Y0023402D01*
X0020375Y0023318D01*
X0020508Y0023232D01*
X0020638Y0023142D01*
X0020766Y0023049D01*
X0020892Y0022953D01*
X0021015Y0022853D01*
X0021136Y0022751D01*
X0021254Y0022646D01*
X0021369Y0022537D01*
X0021482Y0022426D01*
X0021592Y0022312D01*
X0021699Y0022195D01*
X0021803Y0022076D01*
X0021904Y0021954D01*
X0022001Y0021829D01*
X0022096Y0021702D01*
X0022187Y0021573D01*
X0022276Y0021442D01*
X0022360Y0021308D01*
X0022442Y0021172D01*
X0022520Y0021035D01*
X0022594Y0020895D01*
X0022665Y0020753D01*
X0022733Y0020610D01*
X0022797Y0020465D01*
X0022857Y0020319D01*
X0022913Y0020171D01*
X0022966Y0020022D01*
X0023015Y0019871D01*
X0023060Y0019719D01*
X0023101Y0019566D01*
X0023139Y0019413D01*
X0023172Y0019258D01*
X0023202Y0019102D01*
X0023228Y0018946D01*
X0023249Y0018789D01*
X0023267Y0018632D01*
X0023281Y0018474D01*
X0023291Y0018316D01*
X0023297Y0018158D01*
X0023299Y0018000D01*
X0023297Y0017842D01*
X0023291Y0017684D01*
X0023281Y0017526D01*
X0023267Y0017368D01*
X0023249Y0017211D01*
X0023228Y0017054D01*
X0023202Y0016898D01*
X0023172Y0016742D01*
X0023139Y0016587D01*
X0023101Y0016434D01*
X0023060Y0016281D01*
X0023015Y0016129D01*
X0022966Y0015978D01*
X0022913Y0015829D01*
X0022857Y0015681D01*
X0022797Y0015535D01*
X0022733Y0015390D01*
X0022665Y0015247D01*
X0022594Y0015105D01*
X0022520Y0014965D01*
X0022442Y0014828D01*
X0022360Y0014692D01*
X0022276Y0014558D01*
X0022187Y0014427D01*
X0022096Y0014298D01*
X0022001Y0014171D01*
X0021904Y0014046D01*
X0021803Y0013924D01*
X0021699Y0013805D01*
X0021592Y0013688D01*
X0021482Y0013574D01*
X0021369Y0013463D01*
X0021254Y0013354D01*
X0021136Y0013249D01*
X0021015Y0013147D01*
X0020892Y0013047D01*
X0020766Y0012951D01*
X0020638Y0012858D01*
X0020508Y0012768D01*
X0020375Y0012682D01*
X0020240Y0012598D01*
X0020104Y0012519D01*
X0019965Y0012442D01*
X0019824Y0012370D01*
X0019682Y0012300D01*
X0019538Y0012235D01*
X0019392Y0012173D01*
X0019245Y0012115D01*
X0019096Y0012060D01*
X0018946Y0012009D01*
X0018795Y0011962D01*
X0018643Y0011919D01*
X0018490Y0011880D01*
X0018335Y0011844D01*
X0018180Y0011813D01*
X0018024Y0011785D01*
X0017868Y0011761D01*
X0017711Y0011741D01*
X0017553Y0011725D01*
X0017396Y0011713D01*
X0017237Y0011705D01*
X0017079Y0011701D01*
X0016921Y0011701D01*
X0016763Y0011705D01*
X0016604Y0011713D01*
X0016447Y0011725D01*
X0016289Y0011741D01*
X0016132Y0011761D01*
X0015976Y0011785D01*
X0015820Y0011813D01*
X0015665Y0011844D01*
X0015510Y0011880D01*
X0015357Y0011919D01*
X0015205Y0011962D01*
X0015054Y0012009D01*
X0014904Y0012060D01*
X0014755Y0012115D01*
X0014608Y0012173D01*
X0014462Y0012235D01*
X0014318Y0012300D01*
X0014176Y0012370D01*
X0014035Y0012442D01*
X0013896Y0012519D01*
X0013760Y0012598D01*
X0013625Y0012682D01*
X0013492Y0012768D01*
X0013362Y0012858D01*
X0013234Y0012951D01*
X0013108Y0013047D01*
X0012985Y0013147D01*
X0012864Y0013249D01*
X0012746Y0013354D01*
X0012631Y0013463D01*
X0012518Y0013574D01*
X0012408Y0013688D01*
X0012301Y0013805D01*
X0012197Y0013924D01*
X0012096Y0014046D01*
X0011999Y0014171D01*
X0011904Y0014298D01*
X0011813Y0014427D01*
X0011724Y0014558D01*
X0011640Y0014692D01*
X0011558Y0014828D01*
X0011480Y0014965D01*
X0011406Y0015105D01*
X0011335Y0015247D01*
X0011267Y0015390D01*
X0011203Y0015535D01*
X0011143Y0015681D01*
X0011087Y0015829D01*
X0011034Y0015978D01*
X0010985Y0016129D01*
X0010940Y0016281D01*
X0010899Y0016434D01*
X0010861Y0016587D01*
X0010828Y0016742D01*
X0010798Y0016898D01*
X0010772Y0017054D01*
X0010751Y0017211D01*
X0010733Y0017368D01*
X0010719Y0017526D01*
X0010709Y0017684D01*
X0010703Y0017842D01*
X0010701Y0018000D01*
D12*
X0032196Y0028200D02*
X0032196Y0030502D01*
X0032963Y0031269D01*
X0034498Y0031269D01*
X0035265Y0030502D01*
X0035265Y0028200D01*
X0036800Y0028200D02*
X0032196Y0028200D01*
X0035265Y0029735D02*
X0036800Y0031269D01*
X0036800Y0032804D02*
X0033731Y0035873D01*
X0032963Y0035873D01*
X0032196Y0035106D01*
X0032196Y0033571D01*
X0032963Y0032804D01*
X0036800Y0032804D02*
X0036800Y0035873D01*
X0024635Y0041766D02*
X0020031Y0041766D01*
X0020031Y0043300D02*
X0020031Y0040231D01*
X0020031Y0044835D02*
X0024635Y0044835D01*
X0024635Y0047904D01*
X0022333Y0046370D02*
X0022333Y0044835D01*
X0020031Y0044835D02*
X0020031Y0047904D01*
X0020031Y0049439D02*
X0021566Y0050974D01*
X0020031Y0052508D01*
X0024635Y0052508D01*
X0024635Y0054043D02*
X0020031Y0054043D01*
X0020031Y0056345D01*
X0020798Y0057112D01*
X0022333Y0057112D01*
X0023100Y0056345D01*
X0023100Y0054043D01*
X0024635Y0049439D02*
X0020031Y0049439D01*
X0037200Y0048735D02*
X0039502Y0048735D01*
X0040269Y0049502D01*
X0040269Y0051037D01*
X0039502Y0051804D01*
X0037200Y0051804D01*
X0037200Y0047200D01*
X0038735Y0048735D02*
X0040269Y0047200D01*
X0041804Y0047200D02*
X0044873Y0047200D01*
X0043339Y0047200D02*
X0043339Y0051804D01*
X0041804Y0050269D01*
X0062200Y0033804D02*
X0064502Y0033804D01*
X0065269Y0033037D01*
X0065269Y0031502D01*
X0064502Y0030735D01*
X0062200Y0030735D01*
X0063735Y0030735D02*
X0065269Y0029200D01*
X0062200Y0029200D02*
X0062200Y0033804D01*
X0066804Y0031502D02*
X0069873Y0031502D01*
X0069106Y0029200D02*
X0069106Y0033804D01*
X0066804Y0031502D01*
X0087200Y0043200D02*
X0087200Y0047804D01*
X0089502Y0047804D01*
X0090269Y0047037D01*
X0090269Y0045502D01*
X0089502Y0044735D01*
X0087200Y0044735D01*
X0088735Y0044735D02*
X0090269Y0043200D01*
X0091804Y0043967D02*
X0092571Y0043200D01*
X0094106Y0043200D01*
X0094873Y0043967D01*
X0094873Y0044735D01*
X0094106Y0045502D01*
X0093339Y0045502D01*
X0094106Y0045502D02*
X0094873Y0046269D01*
X0094873Y0047037D01*
X0094106Y0047804D01*
X0092571Y0047804D01*
X0091804Y0047037D01*
M02*
