G75*
%MOIN*%
%OFA0B0*%
%FSLAX25Y25*%
%IPPOS*%
%LPD*%
%AMOC8*
5,1,8,0,0,1.08239X$1,22.5*
%
%ADD10R,0.07600X0.07600*%
%ADD11C,0.07600*%
%ADD12R,0.03937X0.05512*%
%ADD13R,0.05512X0.03937*%
%ADD14R,0.04000X0.02400*%
%ADD15R,0.06299X0.07874*%
%ADD16R,0.07874X0.06299*%
%ADD17R,0.06299X0.10630*%
%ADD18R,0.03937X0.03937*%
%ADD19C,0.01600*%
%ADD20C,0.00800*%
D10*
X0097000Y0018000D03*
D11*
X0037000Y0018000D03*
X0047000Y0018000D03*
X0057000Y0018000D03*
X0067000Y0018000D03*
X0077000Y0018000D03*
X0087000Y0018000D03*
D12*
X0049740Y0028669D03*
X0042260Y0028669D03*
X0046000Y0037331D03*
D13*
X0072331Y0050260D03*
X0063669Y0054000D03*
X0072331Y0057740D03*
D14*
X0062500Y0044750D03*
X0071500Y0041000D03*
X0062500Y0037250D03*
D15*
X0062488Y0031000D03*
X0073512Y0031000D03*
X0087488Y0045000D03*
X0098512Y0045000D03*
X0048512Y0049000D03*
X0037488Y0049000D03*
D16*
X0035000Y0039512D03*
X0035000Y0028488D03*
D17*
X0087488Y0033000D03*
X0098512Y0033000D03*
D18*
X0028000Y0051000D03*
D19*
X0056000Y0051160D02*
X0059522Y0051160D01*
X0059313Y0051369D02*
X0060251Y0050431D01*
X0061000Y0050431D01*
X0061000Y0047550D01*
X0059837Y0047550D01*
X0058900Y0046613D01*
X0058900Y0045200D01*
X0056000Y0045200D01*
X0056000Y0061200D01*
X0066172Y0061200D01*
X0062540Y0057568D01*
X0060251Y0057568D01*
X0059313Y0056631D01*
X0059313Y0051369D01*
X0059313Y0052758D02*
X0056000Y0052758D01*
X0056000Y0054357D02*
X0059313Y0054357D01*
X0059313Y0055955D02*
X0056000Y0055955D01*
X0056000Y0057554D02*
X0060236Y0057554D01*
X0064124Y0059152D02*
X0056000Y0059152D01*
X0056000Y0060751D02*
X0065722Y0060751D01*
X0067975Y0057346D02*
X0067975Y0056682D01*
X0067642Y0057014D01*
X0067975Y0057346D01*
X0068025Y0055059D02*
X0068912Y0054172D01*
X0075749Y0054172D01*
X0076475Y0054897D01*
X0076572Y0054800D01*
X0079000Y0054800D01*
X0079000Y0051628D01*
X0078228Y0052400D01*
X0076687Y0052400D01*
X0076687Y0052891D01*
X0075749Y0053828D01*
X0068912Y0053828D01*
X0068025Y0052941D01*
X0068025Y0055059D01*
X0068025Y0054357D02*
X0068727Y0054357D01*
X0067975Y0051318D02*
X0067975Y0049403D01*
X0065642Y0047071D01*
X0065163Y0047550D01*
X0065000Y0047550D01*
X0065000Y0050431D01*
X0067088Y0050431D01*
X0067975Y0051318D01*
X0067975Y0051160D02*
X0067816Y0051160D01*
X0067975Y0049561D02*
X0065000Y0049561D01*
X0065000Y0047963D02*
X0066534Y0047963D01*
X0068200Y0043972D02*
X0070920Y0046691D01*
X0075749Y0046691D01*
X0076687Y0047629D01*
X0076687Y0048285D01*
X0079000Y0045972D01*
X0079000Y0031628D01*
X0078600Y0032028D01*
X0078261Y0032367D01*
X0078261Y0035600D01*
X0077324Y0036537D01*
X0069699Y0036537D01*
X0068762Y0035600D01*
X0068762Y0026400D01*
X0069699Y0025463D01*
X0077324Y0025463D01*
X0078261Y0026400D01*
X0078261Y0026710D01*
X0079000Y0025972D01*
X0079000Y0024000D01*
X0056000Y0024000D01*
X0056000Y0037372D01*
X0057000Y0038372D01*
X0058733Y0036638D01*
X0058644Y0036614D01*
X0058233Y0036377D01*
X0057898Y0036042D01*
X0057661Y0035632D01*
X0057539Y0035174D01*
X0057539Y0031775D01*
X0061713Y0031775D01*
X0061713Y0030225D01*
X0057539Y0030225D01*
X0057539Y0026826D01*
X0057661Y0026368D01*
X0057898Y0025958D01*
X0058233Y0025623D01*
X0058644Y0025386D01*
X0059102Y0025263D01*
X0061713Y0025263D01*
X0061713Y0030225D01*
X0063263Y0030225D01*
X0063263Y0025263D01*
X0065875Y0025263D01*
X0066333Y0025386D01*
X0066743Y0025623D01*
X0067078Y0025958D01*
X0067315Y0026368D01*
X0067438Y0026826D01*
X0067438Y0030225D01*
X0063263Y0030225D01*
X0063263Y0031775D01*
X0067438Y0031775D01*
X0067438Y0035174D01*
X0067315Y0035632D01*
X0067078Y0036042D01*
X0066743Y0036377D01*
X0066333Y0036614D01*
X0066100Y0036677D01*
X0066100Y0039113D01*
X0065521Y0039692D01*
X0067028Y0041200D01*
X0067700Y0041871D01*
X0067700Y0041000D01*
X0071499Y0041000D01*
X0071499Y0041000D01*
X0071500Y0041000D02*
X0071500Y0044000D01*
X0071500Y0041000D01*
X0071500Y0041000D01*
X0075300Y0041000D01*
X0075300Y0042437D01*
X0075177Y0042894D01*
X0074940Y0043305D01*
X0074605Y0043640D01*
X0074194Y0043877D01*
X0073737Y0044000D01*
X0071500Y0044000D01*
X0069263Y0044000D01*
X0068805Y0043877D01*
X0068394Y0043640D01*
X0068200Y0043446D01*
X0068200Y0043972D01*
X0068994Y0044766D02*
X0079000Y0044766D01*
X0078607Y0046364D02*
X0070593Y0046364D01*
X0071500Y0043167D02*
X0071500Y0043167D01*
X0071500Y0041569D02*
X0071500Y0041569D01*
X0071500Y0041000D02*
X0071500Y0041000D01*
X0075300Y0041000D01*
X0075300Y0039563D01*
X0075177Y0039105D01*
X0074940Y0038694D01*
X0074605Y0038359D01*
X0074194Y0038122D01*
X0073737Y0038000D01*
X0071500Y0038000D01*
X0071500Y0040999D01*
X0071500Y0040999D01*
X0071500Y0038000D01*
X0069263Y0038000D01*
X0068805Y0038122D01*
X0068394Y0038359D01*
X0068059Y0038694D01*
X0067822Y0039105D01*
X0067700Y0039563D01*
X0067700Y0041000D01*
X0071499Y0041000D01*
X0071500Y0039970D02*
X0071500Y0039970D01*
X0071500Y0038372D02*
X0071500Y0038372D01*
X0074617Y0038372D02*
X0079000Y0038372D01*
X0079000Y0039970D02*
X0075300Y0039970D01*
X0075300Y0041569D02*
X0079000Y0041569D01*
X0079000Y0043167D02*
X0075019Y0043167D01*
X0067700Y0041569D02*
X0067397Y0041569D01*
X0067700Y0039970D02*
X0065799Y0039970D01*
X0066100Y0038372D02*
X0068382Y0038372D01*
X0066100Y0036773D02*
X0079000Y0036773D01*
X0079000Y0035175D02*
X0078261Y0035175D01*
X0078261Y0033576D02*
X0079000Y0033576D01*
X0079000Y0031978D02*
X0078651Y0031978D01*
X0068762Y0031978D02*
X0067438Y0031978D01*
X0067438Y0033576D02*
X0068762Y0033576D01*
X0068762Y0035175D02*
X0067438Y0035175D01*
X0058598Y0036773D02*
X0056000Y0036773D01*
X0056000Y0035175D02*
X0057539Y0035175D01*
X0057539Y0033576D02*
X0056000Y0033576D01*
X0056000Y0031978D02*
X0057539Y0031978D01*
X0056000Y0030379D02*
X0061713Y0030379D01*
X0063263Y0030379D02*
X0068762Y0030379D01*
X0068762Y0028781D02*
X0067438Y0028781D01*
X0067438Y0027182D02*
X0068762Y0027182D01*
X0069579Y0025584D02*
X0066675Y0025584D01*
X0063263Y0025584D02*
X0061713Y0025584D01*
X0061713Y0027182D02*
X0063263Y0027182D01*
X0063263Y0028781D02*
X0061713Y0028781D01*
X0057539Y0028781D02*
X0056000Y0028781D01*
X0056000Y0027182D02*
X0057539Y0027182D01*
X0058301Y0025584D02*
X0056000Y0025584D01*
X0077445Y0025584D02*
X0079000Y0025584D01*
X0058900Y0046364D02*
X0056000Y0046364D01*
X0056000Y0047963D02*
X0061000Y0047963D01*
X0061000Y0049561D02*
X0056000Y0049561D01*
X0075935Y0054357D02*
X0079000Y0054357D01*
X0079000Y0052758D02*
X0076687Y0052758D01*
X0076687Y0047963D02*
X0077009Y0047963D01*
X0079000Y0060428D02*
X0078228Y0061200D01*
X0079000Y0061200D01*
X0079000Y0060428D01*
X0079000Y0060751D02*
X0078678Y0060751D01*
D20*
X0078200Y0058400D02*
X0085400Y0058400D01*
X0098200Y0045600D01*
X0098512Y0045000D01*
X0099000Y0044800D01*
X0099000Y0033600D01*
X0098512Y0033000D01*
X0098200Y0032800D01*
X0097400Y0032000D01*
X0097400Y0018400D01*
X0097000Y0018000D01*
X0087000Y0018000D02*
X0087000Y0018400D01*
X0084600Y0018400D01*
X0079000Y0024000D01*
X0081400Y0026400D02*
X0076600Y0031200D01*
X0074200Y0031200D01*
X0073512Y0031000D01*
X0079000Y0033600D02*
X0087000Y0033600D01*
X0087488Y0033000D01*
X0092600Y0027200D02*
X0091800Y0026400D01*
X0081400Y0026400D01*
X0092600Y0027200D02*
X0092600Y0048800D01*
X0084600Y0056800D01*
X0077400Y0056800D01*
X0076600Y0057600D01*
X0072600Y0057600D01*
X0072331Y0057740D01*
X0075000Y0061600D02*
X0078200Y0058400D01*
X0075000Y0061600D02*
X0069400Y0061600D01*
X0063800Y0056000D01*
X0063800Y0054400D01*
X0063669Y0054000D01*
X0063000Y0053600D01*
X0063000Y0044800D01*
X0062500Y0044750D01*
X0060600Y0041600D02*
X0059000Y0043200D01*
X0056600Y0043200D01*
X0051000Y0037600D01*
X0046200Y0037600D01*
X0046000Y0037331D01*
X0042200Y0034400D02*
X0042200Y0043200D01*
X0047800Y0048800D01*
X0048512Y0049000D01*
X0047800Y0049600D01*
X0043000Y0054400D01*
X0033400Y0054400D01*
X0030200Y0051200D01*
X0028600Y0051200D01*
X0028000Y0051000D01*
X0037400Y0048800D02*
X0037488Y0049000D01*
X0037400Y0048800D02*
X0037400Y0042400D01*
X0035000Y0040000D01*
X0035000Y0039512D01*
X0035000Y0039200D01*
X0042200Y0032000D01*
X0042200Y0028800D01*
X0042260Y0028669D01*
X0045400Y0024000D02*
X0049400Y0028000D01*
X0049740Y0028669D01*
X0050200Y0028800D01*
X0056000Y0028800D01*
X0048600Y0032800D02*
X0043800Y0032800D01*
X0042200Y0034400D01*
X0048600Y0032800D02*
X0056600Y0040800D01*
X0057400Y0040800D01*
X0060600Y0037600D01*
X0062200Y0037600D01*
X0062500Y0037250D01*
X0060600Y0041600D02*
X0064600Y0041600D01*
X0066200Y0043200D01*
X0066200Y0044800D01*
X0071800Y0050400D01*
X0072331Y0050260D01*
X0072600Y0050400D01*
X0077400Y0050400D01*
X0082200Y0045600D01*
X0087000Y0045600D01*
X0087488Y0045000D01*
X0045400Y0024000D02*
X0039000Y0024000D01*
X0035000Y0028000D01*
X0035000Y0028488D01*
M02*
