  0
SECTION
  2
BLOCKS
  0
ENDSEC
  0
SECTION
  2
ENTITIES
  0
LINE
  8
0
 10
10
 20
130.3
 11
15
 21
130.3
  0
LINE
  8
0
 10
15
 20
130.3
 11
15
 21
127.2
  0
LINE
  8
0
 10
15
 20
127.2
 11
20
 21
127.2
  0
LINE
  8
0
 10
20
 20
127.2
 11
20
 21
130.3
  0
LINE
  8
0
 10
20
 20
130.3
 11
25
 21
130.3
  0
LINE
  8
0
 10
25
 20
130.3
 11
25
 21
127.2
  0
LINE
  8
0
 10
25
 20
127.2
 11
30
 21
127.2
  0
LINE
  8
0
 10
30
 20
127.2
 11
30
 21
133.35
  0
LINE
  8
0
 10
30
 20
133.35
 11
33.1
 21
133.35
  0
LINE
  8
0
 10
33.1
 20
133.35
 11
33.1
 21
136.4
  0
LINE
  8
0
 10
33.1
 20
136.4
 11
30
 21
136.4
  0
LINE
  8
0
 10
30
 20
136.4
 11
30
 21
139.45
  0
LINE
  8
0
 10
30
 20
139.45
 11
33.1
 21
139.45
  0
LINE
  8
0
 10
33.1
 20
139.45
 11
33.1
 21
142.5
  0
LINE
  8
0
 10
33.1
 20
142.5
 11
30
 21
142.5
  0
LINE
  8
0
 10
30
 20
142.5
 11
30
 21
145.55
  0
LINE
  8
0
 10
30
 20
145.55
 11
33.1
 21
145.55
  0
LINE
  8
0
 10
33.1
 20
145.55
 11
33.1
 21
148.6
  0
LINE
  8
0
 10
33.1
 20
148.6
 11
25
 21
148.6
  0
LINE
  8
0
 10
25
 20
148.6
 11
25
 21
151.7
  0
LINE
  8
0
 10
25
 20
151.7
 11
20
 21
151.7
  0
LINE
  8
0
 10
20
 20
151.7
 11
20
 21
148.6
  0
LINE
  8
0
 10
20
 20
148.6
 11
15
 21
148.6
  0
LINE
  8
0
 10
15
 20
148.6
 11
15
 21
151.7
  0
LINE
  8
0
 10
15
 20
151.7
 11
10
 21
151.7
  0
LINE
  8
0
 10
10
 20
151.7
 11
10
 21
148.6
  0
LINE
  8
0
 10
10
 20
148.6
 11
5
 21
148.6
  0
LINE
  8
0
 10
5
 20
148.6
 11
5
 21
151.7
  0
LINE
  8
0
 10
5
 20
151.7
 11
0
 21
151.7
  0
LINE
  8
0
 10
0
 20
151.7
 11
0
 21
145.55
  0
LINE
  8
0
 10
0
 20
145.55
 11
-3.09999
 21
145.55
  0
LINE
  8
0
 10
-3.09999
 20
145.55
 11
-3.09999
 21
142.5
  0
LINE
  8
0
 10
-3.09999
 20
142.5
 11
0
 21
142.5
  0
LINE
  8
0
 10
0
 20
142.5
 11
0
 21
139.45
  0
LINE
  8
0
 10
0
 20
139.45
 11
-3.09999
 21
139.45
  0
LINE
  8
0
 10
-3.09999
 20
139.45
 11
-3.09999
 21
136.4
  0
LINE
  8
0
 10
-3.09999
 20
136.4
 11
0
 21
136.4
  0
LINE
  8
0
 10
0
 20
136.4
 11
0
 21
133.35
  0
LINE
  8
0
 10
0
 20
133.35
 11
-3.09999
 21
133.35
  0
LINE
  8
0
 10
-3.09999
 20
133.35
 11
-3.09999
 21
130.3
  0
LINE
  8
0
 10
-3.09999
 20
130.3
 11
5
 21
130.3
  0
LINE
  8
0
 10
5
 20
130.3
 11
5
 21
127.2
  0
LINE
  8
0
 10
5
 20
127.2
 11
10
 21
127.2
  0
LINE
  8
0
 10
10
 20
127.2
 11
10
 21
130.3
  0
LINE
  8
0
 10
10
 20
79.3
 11
15
 21
79.3
  0
LINE
  8
0
 10
15
 20
79.3
 11
15
 21
78.06
  0
LINE
  8
0
 10
15
 20
78.06
 11
14.9676
 21
78.0583
  0
LINE
  8
0
 10
14.9676
 20
78.0583
 11
14.9356
 21
78.0532
  0
LINE
  8
0
 10
14.9356
 20
78.0532
 11
14.9042
 21
78.0448
  0
LINE
  8
0
 10
14.9042
 20
78.0448
 11
14.8739
 21
78.0332
  0
LINE
  8
0
 10
14.8739
 20
78.0332
 11
14.845
 21
78.0185
  0
LINE
  8
0
 10
14.845
 20
78.0185
 11
14.8178
 21
78.0008
  0
LINE
  8
0
 10
14.8178
 20
78.0008
 11
14.7926
 21
77.9804
  0
LINE
  8
0
 10
14.7926
 20
77.9804
 11
14.7696
 21
77.9574
  0
LINE
  8
0
 10
14.7696
 20
77.9574
 11
14.7492
 21
77.9322
  0
LINE
  8
0
 10
14.7492
 20
77.9322
 11
14.7315
 21
77.905
  0
LINE
  8
0
 10
14.7315
 20
77.905
 11
14.7168
 21
77.8761
  0
LINE
  8
0
 10
14.7168
 20
77.8761
 11
14.7052
 21
77.8458
  0
LINE
  8
0
 10
14.7052
 20
77.8458
 11
14.6968
 21
77.8145
  0
LINE
  8
0
 10
14.6968
 20
77.8145
 11
14.6917
 21
77.7824
  0
LINE
  8
0
 10
14.6917
 20
77.7824
 11
14.69
 21
77.75
  0
LINE
  8
0
 10
14.69
 20
77.75
 11
14.6917
 21
77.7176
  0
LINE
  8
0
 10
14.6917
 20
77.7176
 11
14.6968
 21
77.6855
  0
LINE
  8
0
 10
14.6968
 20
77.6855
 11
14.7052
 21
77.6542
  0
LINE
  8
0
 10
14.7052
 20
77.6542
 11
14.7168
 21
77.6239
  0
LINE
  8
0
 10
14.7168
 20
77.6239
 11
14.7315
 21
77.595
  0
LINE
  8
0
 10
14.7315
 20
77.595
 11
14.7492
 21
77.5678
  0
LINE
  8
0
 10
14.7492
 20
77.5678
 11
14.7696
 21
77.5426
  0
LINE
  8
0
 10
14.7696
 20
77.5426
 11
14.7926
 21
77.5196
  0
LINE
  8
0
 10
14.7926
 20
77.5196
 11
14.8178
 21
77.4992
  0
LINE
  8
0
 10
14.8178
 20
77.4992
 11
14.845
 21
77.4815
  0
LINE
  8
0
 10
14.845
 20
77.4815
 11
14.8739
 21
77.4668
  0
LINE
  8
0
 10
14.8739
 20
77.4668
 11
14.9042
 21
77.4552
  0
LINE
  8
0
 10
14.9042
 20
77.4552
 11
14.9356
 21
77.4468
  0
LINE
  8
0
 10
14.9356
 20
77.4468
 11
14.9676
 21
77.4417
  0
LINE
  8
0
 10
14.9676
 20
77.4417
 11
15
 21
77.44
  0
LINE
  8
0
 10
15
 20
77.44
 11
15
 21
76.2
  0
LINE
  8
0
 10
15
 20
76.2
 11
20
 21
76.2
  0
LINE
  8
0
 10
20
 20
76.2
 11
20
 21
79.3
  0
LINE
  8
0
 10
20
 20
79.3
 11
25
 21
79.3
  0
LINE
  8
0
 10
25
 20
79.3
 11
25
 21
78.06
  0
LINE
  8
0
 10
25
 20
78.06
 11
24.9676
 21
78.0583
  0
LINE
  8
0
 10
24.9676
 20
78.0583
 11
24.9356
 21
78.0532
  0
LINE
  8
0
 10
24.9356
 20
78.0532
 11
24.9042
 21
78.0448
  0
LINE
  8
0
 10
24.9042
 20
78.0448
 11
24.8739
 21
78.0332
  0
LINE
  8
0
 10
24.8739
 20
78.0332
 11
24.845
 21
78.0185
  0
LINE
  8
0
 10
24.845
 20
78.0185
 11
24.8178
 21
78.0008
  0
LINE
  8
0
 10
24.8178
 20
78.0008
 11
24.7926
 21
77.9804
  0
LINE
  8
0
 10
24.7926
 20
77.9804
 11
24.7696
 21
77.9574
  0
LINE
  8
0
 10
24.7696
 20
77.9574
 11
24.7492
 21
77.9322
  0
LINE
  8
0
 10
24.7492
 20
77.9322
 11
24.7315
 21
77.905
  0
LINE
  8
0
 10
24.7315
 20
77.905
 11
24.7168
 21
77.8761
  0
LINE
  8
0
 10
24.7168
 20
77.8761
 11
24.7052
 21
77.8458
  0
LINE
  8
0
 10
24.7052
 20
77.8458
 11
24.6968
 21
77.8145
  0
LINE
  8
0
 10
24.6968
 20
77.8145
 11
24.6917
 21
77.7824
  0
LINE
  8
0
 10
24.6917
 20
77.7824
 11
24.69
 21
77.75
  0
LINE
  8
0
 10
24.69
 20
77.75
 11
24.6917
 21
77.7176
  0
LINE
  8
0
 10
24.6917
 20
77.7176
 11
24.6968
 21
77.6855
  0
LINE
  8
0
 10
24.6968
 20
77.6855
 11
24.7052
 21
77.6542
  0
LINE
  8
0
 10
24.7052
 20
77.6542
 11
24.7168
 21
77.6239
  0
LINE
  8
0
 10
24.7168
 20
77.6239
 11
24.7315
 21
77.595
  0
LINE
  8
0
 10
24.7315
 20
77.595
 11
24.7492
 21
77.5678
  0
LINE
  8
0
 10
24.7492
 20
77.5678
 11
24.7696
 21
77.5426
  0
LINE
  8
0
 10
24.7696
 20
77.5426
 11
24.7926
 21
77.5196
  0
LINE
  8
0
 10
24.7926
 20
77.5196
 11
24.8178
 21
77.4992
  0
LINE
  8
0
 10
24.8178
 20
77.4992
 11
24.845
 21
77.4815
  0
LINE
  8
0
 10
24.845
 20
77.4815
 11
24.8739
 21
77.4668
  0
LINE
  8
0
 10
24.8739
 20
77.4668
 11
24.9042
 21
77.4552
  0
LINE
  8
0
 10
24.9042
 20
77.4552
 11
24.9356
 21
77.4468
  0
LINE
  8
0
 10
24.9356
 20
77.4468
 11
24.9676
 21
77.4417
  0
LINE
  8
0
 10
24.9676
 20
77.4417
 11
25
 21
77.44
  0
LINE
  8
0
 10
25
 20
77.44
 11
25
 21
76.2
  0
LINE
  8
0
 10
25
 20
76.2
 11
30
 21
76.2
  0
LINE
  8
0
 10
30
 20
76.2
 11
30
 21
84.425
  0
LINE
  8
0
 10
30
 20
84.425
 11
31.24
 21
84.425
  0
LINE
  8
0
 10
31.24
 20
84.425
 11
31.2417
 21
84.3926
  0
LINE
  8
0
 10
31.2417
 20
84.3926
 11
31.2468
 21
84.3605
  0
LINE
  8
0
 10
31.2468
 20
84.3605
 11
31.2552
 21
84.3292
  0
LINE
  8
0
 10
31.2552
 20
84.3292
 11
31.2668
 21
84.2989
  0
LINE
  8
0
 10
31.2668
 20
84.2989
 11
31.2815
 21
84.27
  0
LINE
  8
0
 10
31.2815
 20
84.27
 11
31.2992
 21
84.2428
  0
LINE
  8
0
 10
31.2992
 20
84.2428
 11
31.3196
 21
84.2176
  0
LINE
  8
0
 10
31.3196
 20
84.2176
 11
31.3426
 21
84.1946
  0
LINE
  8
0
 10
31.3426
 20
84.1946
 11
31.3678
 21
84.1742
  0
LINE
  8
0
 10
31.3678
 20
84.1742
 11
31.395
 21
84.1565
  0
LINE
  8
0
 10
31.395
 20
84.1565
 11
31.4239
 21
84.1418
  0
LINE
  8
0
 10
31.4239
 20
84.1418
 11
31.4542
 21
84.1302
  0
LINE
  8
0
 10
31.4542
 20
84.1302
 11
31.4855
 21
84.1218
  0
LINE
  8
0
 10
31.4855
 20
84.1218
 11
31.5176
 21
84.1167
  0
LINE
  8
0
 10
31.5176
 20
84.1167
 11
31.55
 21
84.115
  0
LINE
  8
0
 10
31.55
 20
84.115
 11
31.5824
 21
84.1167
  0
LINE
  8
0
 10
31.5824
 20
84.1167
 11
31.6144
 21
84.1218
  0
LINE
  8
0
 10
31.6144
 20
84.1218
 11
31.6458
 21
84.1302
  0
LINE
  8
0
 10
31.6458
 20
84.1302
 11
31.6761
 21
84.1418
  0
LINE
  8
0
 10
31.6761
 20
84.1418
 11
31.705
 21
84.1565
  0
LINE
  8
0
 10
31.705
 20
84.1565
 11
31.7322
 21
84.1742
  0
LINE
  8
0
 10
31.7322
 20
84.1742
 11
31.7574
 21
84.1946
  0
LINE
  8
0
 10
31.7574
 20
84.1946
 11
31.7804
 21
84.2176
  0
LINE
  8
0
 10
31.7804
 20
84.2176
 11
31.8008
 21
84.2428
  0
LINE
  8
0
 10
31.8008
 20
84.2428
 11
31.8185
 21
84.27
  0
LINE
  8
0
 10
31.8185
 20
84.27
 11
31.8332
 21
84.2989
  0
LINE
  8
0
 10
31.8332
 20
84.2989
 11
31.8448
 21
84.3292
  0
LINE
  8
0
 10
31.8448
 20
84.3292
 11
31.8532
 21
84.3605
  0
LINE
  8
0
 10
31.8532
 20
84.3605
 11
31.8583
 21
84.3926
  0
LINE
  8
0
 10
31.8583
 20
84.3926
 11
31.86
 21
84.425
  0
LINE
  8
0
 10
31.86
 20
84.425
 11
33.1
 21
84.425
  0
LINE
  8
0
 10
33.1
 20
84.425
 11
33.1
 21
89.55
  0
LINE
  8
0
 10
33.1
 20
89.55
 11
30
 21
89.55
  0
LINE
  8
0
 10
30
 20
89.55
 11
30
 21
94.675
  0
LINE
  8
0
 10
30
 20
94.675
 11
31.24
 21
94.675
  0
LINE
  8
0
 10
31.24
 20
94.675
 11
31.2417
 21
94.6426
  0
LINE
  8
0
 10
31.2417
 20
94.6426
 11
31.2468
 21
94.6105
  0
LINE
  8
0
 10
31.2468
 20
94.6105
 11
31.2552
 21
94.5792
  0
LINE
  8
0
 10
31.2552
 20
94.5792
 11
31.2668
 21
94.5489
  0
LINE
  8
0
 10
31.2668
 20
94.5489
 11
31.2815
 21
94.52
  0
LINE
  8
0
 10
31.2815
 20
94.52
 11
31.2992
 21
94.4928
  0
LINE
  8
0
 10
31.2992
 20
94.4928
 11
31.3196
 21
94.4676
  0
LINE
  8
0
 10
31.3196
 20
94.4676
 11
31.3426
 21
94.4446
  0
LINE
  8
0
 10
31.3426
 20
94.4446
 11
31.3678
 21
94.4242
  0
LINE
  8
0
 10
31.3678
 20
94.4242
 11
31.395
 21
94.4065
  0
LINE
  8
0
 10
31.395
 20
94.4065
 11
31.4239
 21
94.3918
  0
LINE
  8
0
 10
31.4239
 20
94.3918
 11
31.4542
 21
94.3802
  0
LINE
  8
0
 10
31.4542
 20
94.3802
 11
31.4855
 21
94.3718
  0
LINE
  8
0
 10
31.4855
 20
94.3718
 11
31.5176
 21
94.3667
  0
LINE
  8
0
 10
31.5176
 20
94.3667
 11
31.55
 21
94.365
  0
LINE
  8
0
 10
31.55
 20
94.365
 11
31.5824
 21
94.3667
  0
LINE
  8
0
 10
31.5824
 20
94.3667
 11
31.6144
 21
94.3718
  0
LINE
  8
0
 10
31.6144
 20
94.3718
 11
31.6458
 21
94.3802
  0
LINE
  8
0
 10
31.6458
 20
94.3802
 11
31.6761
 21
94.3918
  0
LINE
  8
0
 10
31.6761
 20
94.3918
 11
31.705
 21
94.4065
  0
LINE
  8
0
 10
31.705
 20
94.4065
 11
31.7322
 21
94.4242
  0
LINE
  8
0
 10
31.7322
 20
94.4242
 11
31.7574
 21
94.4446
  0
LINE
  8
0
 10
31.7574
 20
94.4446
 11
31.7804
 21
94.4676
  0
LINE
  8
0
 10
31.7804
 20
94.4676
 11
31.8008
 21
94.4928
  0
LINE
  8
0
 10
31.8008
 20
94.4928
 11
31.8185
 21
94.52
  0
LINE
  8
0
 10
31.8185
 20
94.52
 11
31.8332
 21
94.5489
  0
LINE
  8
0
 10
31.8332
 20
94.5489
 11
31.8448
 21
94.5792
  0
LINE
  8
0
 10
31.8448
 20
94.5792
 11
31.8532
 21
94.6105
  0
LINE
  8
0
 10
31.8532
 20
94.6105
 11
31.8583
 21
94.6426
  0
LINE
  8
0
 10
31.8583
 20
94.6426
 11
31.86
 21
94.675
  0
LINE
  8
0
 10
31.86
 20
94.675
 11
33.1
 21
94.675
  0
LINE
  8
0
 10
33.1
 20
94.675
 11
33.1
 21
99.8
  0
LINE
  8
0
 10
33.1
 20
99.8
 11
30
 21
99.8
  0
LINE
  8
0
 10
30
 20
99.8
 11
30
 21
104.925
  0
LINE
  8
0
 10
30
 20
104.925
 11
31.24
 21
104.925
  0
LINE
  8
0
 10
31.24
 20
104.925
 11
31.2417
 21
104.893
  0
LINE
  8
0
 10
31.2417
 20
104.893
 11
31.2468
 21
104.861
  0
LINE
  8
0
 10
31.2468
 20
104.861
 11
31.2552
 21
104.829
  0
LINE
  8
0
 10
31.2552
 20
104.829
 11
31.2668
 21
104.799
  0
LINE
  8
0
 10
31.2668
 20
104.799
 11
31.2815
 21
104.77
  0
LINE
  8
0
 10
31.2815
 20
104.77
 11
31.2992
 21
104.743
  0
LINE
  8
0
 10
31.2992
 20
104.743
 11
31.3196
 21
104.718
  0
LINE
  8
0
 10
31.3196
 20
104.718
 11
31.3426
 21
104.695
  0
LINE
  8
0
 10
31.3426
 20
104.695
 11
31.3678
 21
104.674
  0
LINE
  8
0
 10
31.3678
 20
104.674
 11
31.395
 21
104.657
  0
LINE
  8
0
 10
31.395
 20
104.657
 11
31.4239
 21
104.642
  0
LINE
  8
0
 10
31.4239
 20
104.642
 11
31.4542
 21
104.63
  0
LINE
  8
0
 10
31.4542
 20
104.63
 11
31.4855
 21
104.622
  0
LINE
  8
0
 10
31.4855
 20
104.622
 11
31.5176
 21
104.617
  0
LINE
  8
0
 10
31.5176
 20
104.617
 11
31.55
 21
104.615
  0
LINE
  8
0
 10
31.55
 20
104.615
 11
31.5824
 21
104.617
  0
LINE
  8
0
 10
31.5824
 20
104.617
 11
31.6144
 21
104.622
  0
LINE
  8
0
 10
31.6144
 20
104.622
 11
31.6458
 21
104.63
  0
LINE
  8
0
 10
31.6458
 20
104.63
 11
31.6761
 21
104.642
  0
LINE
  8
0
 10
31.6761
 20
104.642
 11
31.705
 21
104.657
  0
LINE
  8
0
 10
31.705
 20
104.657
 11
31.7322
 21
104.674
  0
LINE
  8
0
 10
31.7322
 20
104.674
 11
31.7574
 21
104.695
  0
LINE
  8
0
 10
31.7574
 20
104.695
 11
31.7804
 21
104.718
  0
LINE
  8
0
 10
31.7804
 20
104.718
 11
31.8008
 21
104.743
  0
LINE
  8
0
 10
31.8008
 20
104.743
 11
31.8185
 21
104.77
  0
LINE
  8
0
 10
31.8185
 20
104.77
 11
31.8332
 21
104.799
  0
LINE
  8
0
 10
31.8332
 20
104.799
 11
31.8448
 21
104.829
  0
LINE
  8
0
 10
31.8448
 20
104.829
 11
31.8532
 21
104.861
  0
LINE
  8
0
 10
31.8532
 20
104.861
 11
31.8583
 21
104.893
  0
LINE
  8
0
 10
31.8583
 20
104.893
 11
31.86
 21
104.925
  0
LINE
  8
0
 10
31.86
 20
104.925
 11
33.1
 21
104.925
  0
LINE
  8
0
 10
33.1
 20
104.925
 11
33.1
 21
110.05
  0
LINE
  8
0
 10
33.1
 20
110.05
 11
30
 21
110.05
  0
LINE
  8
0
 10
30
 20
110.05
 11
30
 21
115.175
  0
LINE
  8
0
 10
30
 20
115.175
 11
31.24
 21
115.175
  0
LINE
  8
0
 10
31.24
 20
115.175
 11
31.2417
 21
115.143
  0
LINE
  8
0
 10
31.2417
 20
115.143
 11
31.2468
 21
115.111
  0
LINE
  8
0
 10
31.2468
 20
115.111
 11
31.2552
 21
115.079
  0
LINE
  8
0
 10
31.2552
 20
115.079
 11
31.2668
 21
115.049
  0
LINE
  8
0
 10
31.2668
 20
115.049
 11
31.2815
 21
115.02
  0
LINE
  8
0
 10
31.2815
 20
115.02
 11
31.2992
 21
114.993
  0
LINE
  8
0
 10
31.2992
 20
114.993
 11
31.3196
 21
114.968
  0
LINE
  8
0
 10
31.3196
 20
114.968
 11
31.3426
 21
114.945
  0
LINE
  8
0
 10
31.3426
 20
114.945
 11
31.3678
 21
114.924
  0
LINE
  8
0
 10
31.3678
 20
114.924
 11
31.395
 21
114.907
  0
LINE
  8
0
 10
31.395
 20
114.907
 11
31.4239
 21
114.892
  0
LINE
  8
0
 10
31.4239
 20
114.892
 11
31.4542
 21
114.88
  0
LINE
  8
0
 10
31.4542
 20
114.88
 11
31.4855
 21
114.872
  0
LINE
  8
0
 10
31.4855
 20
114.872
 11
31.5176
 21
114.867
  0
LINE
  8
0
 10
31.5176
 20
114.867
 11
31.55
 21
114.865
  0
LINE
  8
0
 10
31.55
 20
114.865
 11
31.5824
 21
114.867
  0
LINE
  8
0
 10
31.5824
 20
114.867
 11
31.6144
 21
114.872
  0
LINE
  8
0
 10
31.6144
 20
114.872
 11
31.6458
 21
114.88
  0
LINE
  8
0
 10
31.6458
 20
114.88
 11
31.6761
 21
114.892
  0
LINE
  8
0
 10
31.6761
 20
114.892
 11
31.705
 21
114.907
  0
LINE
  8
0
 10
31.705
 20
114.907
 11
31.7322
 21
114.924
  0
LINE
  8
0
 10
31.7322
 20
114.924
 11
31.7574
 21
114.945
  0
LINE
  8
0
 10
31.7574
 20
114.945
 11
31.7804
 21
114.968
  0
LINE
  8
0
 10
31.7804
 20
114.968
 11
31.8008
 21
114.993
  0
LINE
  8
0
 10
31.8008
 20
114.993
 11
31.8185
 21
115.02
  0
LINE
  8
0
 10
31.8185
 20
115.02
 11
31.8332
 21
115.049
  0
LINE
  8
0
 10
31.8332
 20
115.049
 11
31.8448
 21
115.079
  0
LINE
  8
0
 10
31.8448
 20
115.079
 11
31.8532
 21
115.111
  0
LINE
  8
0
 10
31.8532
 20
115.111
 11
31.8583
 21
115.143
  0
LINE
  8
0
 10
31.8583
 20
115.143
 11
31.86
 21
115.175
  0
LINE
  8
0
 10
31.86
 20
115.175
 11
33.1
 21
115.175
  0
LINE
  8
0
 10
33.1
 20
115.175
 11
33.1
 21
120.3
  0
LINE
  8
0
 10
33.1
 20
120.3
 11
25
 21
120.3
  0
LINE
  8
0
 10
25
 20
120.3
 11
25
 21
121.54
  0
LINE
  8
0
 10
25
 20
121.54
 11
25.0324
 21
121.542
  0
LINE
  8
0
 10
25.0324
 20
121.542
 11
25.0644
 21
121.547
  0
LINE
  8
0
 10
25.0644
 20
121.547
 11
25.0958
 21
121.555
  0
LINE
  8
0
 10
25.0958
 20
121.555
 11
25.1261
 21
121.567
  0
LINE
  8
0
 10
25.1261
 20
121.567
 11
25.155
 21
121.582
  0
LINE
  8
0
 10
25.155
 20
121.582
 11
25.1822
 21
121.599
  0
LINE
  8
0
 10
25.1822
 20
121.599
 11
25.2074
 21
121.62
  0
LINE
  8
0
 10
25.2074
 20
121.62
 11
25.2304
 21
121.643
  0
LINE
  8
0
 10
25.2304
 20
121.643
 11
25.2508
 21
121.668
  0
LINE
  8
0
 10
25.2508
 20
121.668
 11
25.2685
 21
121.695
  0
LINE
  8
0
 10
25.2685
 20
121.695
 11
25.2832
 21
121.724
  0
LINE
  8
0
 10
25.2832
 20
121.724
 11
25.2948
 21
121.754
  0
LINE
  8
0
 10
25.2948
 20
121.754
 11
25.3032
 21
121.786
  0
LINE
  8
0
 10
25.3032
 20
121.786
 11
25.3083
 21
121.818
  0
LINE
  8
0
 10
25.3083
 20
121.818
 11
25.31
 21
121.85
  0
LINE
  8
0
 10
25.31
 20
121.85
 11
25.3083
 21
121.882
  0
LINE
  8
0
 10
25.3083
 20
121.882
 11
25.3032
 21
121.914
  0
LINE
  8
0
 10
25.3032
 20
121.914
 11
25.2948
 21
121.946
  0
LINE
  8
0
 10
25.2948
 20
121.946
 11
25.2832
 21
121.976
  0
LINE
  8
0
 10
25.2832
 20
121.976
 11
25.2685
 21
122.005
  0
LINE
  8
0
 10
25.2685
 20
122.005
 11
25.2508
 21
122.032
  0
LINE
  8
0
 10
25.2508
 20
122.032
 11
25.2304
 21
122.057
  0
LINE
  8
0
 10
25.2304
 20
122.057
 11
25.2074
 21
122.08
  0
LINE
  8
0
 10
25.2074
 20
122.08
 11
25.1822
 21
122.101
  0
LINE
  8
0
 10
25.1822
 20
122.101
 11
25.155
 21
122.118
  0
LINE
  8
0
 10
25.155
 20
122.118
 11
25.1261
 21
122.133
  0
LINE
  8
0
 10
25.1261
 20
122.133
 11
25.0958
 21
122.145
  0
LINE
  8
0
 10
25.0958
 20
122.145
 11
25.0644
 21
122.153
  0
LINE
  8
0
 10
25.0644
 20
122.153
 11
25.0324
 21
122.158
  0
LINE
  8
0
 10
25.0324
 20
122.158
 11
25
 21
122.16
  0
LINE
  8
0
 10
25
 20
122.16
 11
25
 21
123.4
  0
LINE
  8
0
 10
25
 20
123.4
 11
20
 21
123.4
  0
LINE
  8
0
 10
20
 20
123.4
 11
20
 21
120.3
  0
LINE
  8
0
 10
20
 20
120.3
 11
15
 21
120.3
  0
LINE
  8
0
 10
15
 20
120.3
 11
15
 21
121.54
  0
LINE
  8
0
 10
15
 20
121.54
 11
15.0324
 21
121.542
  0
LINE
  8
0
 10
15.0324
 20
121.542
 11
15.0644
 21
121.547
  0
LINE
  8
0
 10
15.0644
 20
121.547
 11
15.0958
 21
121.555
  0
LINE
  8
0
 10
15.0958
 20
121.555
 11
15.1261
 21
121.567
  0
LINE
  8
0
 10
15.1261
 20
121.567
 11
15.155
 21
121.582
  0
LINE
  8
0
 10
15.155
 20
121.582
 11
15.1822
 21
121.599
  0
LINE
  8
0
 10
15.1822
 20
121.599
 11
15.2074
 21
121.62
  0
LINE
  8
0
 10
15.2074
 20
121.62
 11
15.2304
 21
121.643
  0
LINE
  8
0
 10
15.2304
 20
121.643
 11
15.2508
 21
121.668
  0
LINE
  8
0
 10
15.2508
 20
121.668
 11
15.2685
 21
121.695
  0
LINE
  8
0
 10
15.2685
 20
121.695
 11
15.2832
 21
121.724
  0
LINE
  8
0
 10
15.2832
 20
121.724
 11
15.2948
 21
121.754
  0
LINE
  8
0
 10
15.2948
 20
121.754
 11
15.3032
 21
121.786
  0
LINE
  8
0
 10
15.3032
 20
121.786
 11
15.3083
 21
121.818
  0
LINE
  8
0
 10
15.3083
 20
121.818
 11
15.31
 21
121.85
  0
LINE
  8
0
 10
15.31
 20
121.85
 11
15.3083
 21
121.882
  0
LINE
  8
0
 10
15.3083
 20
121.882
 11
15.3032
 21
121.914
  0
LINE
  8
0
 10
15.3032
 20
121.914
 11
15.2948
 21
121.946
  0
LINE
  8
0
 10
15.2948
 20
121.946
 11
15.2832
 21
121.976
  0
LINE
  8
0
 10
15.2832
 20
121.976
 11
15.2685
 21
122.005
  0
LINE
  8
0
 10
15.2685
 20
122.005
 11
15.2508
 21
122.032
  0
LINE
  8
0
 10
15.2508
 20
122.032
 11
15.2304
 21
122.057
  0
LINE
  8
0
 10
15.2304
 20
122.057
 11
15.2074
 21
122.08
  0
LINE
  8
0
 10
15.2074
 20
122.08
 11
15.1822
 21
122.101
  0
LINE
  8
0
 10
15.1822
 20
122.101
 11
15.155
 21
122.118
  0
LINE
  8
0
 10
15.155
 20
122.118
 11
15.1261
 21
122.133
  0
LINE
  8
0
 10
15.1261
 20
122.133
 11
15.0958
 21
122.145
  0
LINE
  8
0
 10
15.0958
 20
122.145
 11
15.0644
 21
122.153
  0
LINE
  8
0
 10
15.0644
 20
122.153
 11
15.0324
 21
122.158
  0
LINE
  8
0
 10
15.0324
 20
122.158
 11
15
 21
122.16
  0
LINE
  8
0
 10
15
 20
122.16
 11
15
 21
123.4
  0
LINE
  8
0
 10
15
 20
123.4
 11
10
 21
123.4
  0
LINE
  8
0
 10
10
 20
123.4
 11
10
 21
120.3
  0
LINE
  8
0
 10
10
 20
120.3
 11
5
 21
120.3
  0
LINE
  8
0
 10
5
 20
120.3
 11
5
 21
121.54
  0
LINE
  8
0
 10
5
 20
121.54
 11
5.03239
 21
121.542
  0
LINE
  8
0
 10
5.03239
 20
121.542
 11
5.06444
 21
121.547
  0
LINE
  8
0
 10
5.06444
 20
121.547
 11
5.09579
 21
121.555
  0
LINE
  8
0
 10
5.09579
 20
121.555
 11
5.12608
 21
121.567
  0
LINE
  8
0
 10
5.12608
 20
121.567
 11
5.155
 21
121.582
  0
LINE
  8
0
 10
5.155
 20
121.582
 11
5.18221
 21
121.599
  0
LINE
  8
0
 10
5.18221
 20
121.599
 11
5.20743
 21
121.62
  0
LINE
  8
0
 10
5.20743
 20
121.62
 11
5.23036
 21
121.643
  0
LINE
  8
0
 10
5.23036
 20
121.643
 11
5.25079
 21
121.668
  0
LINE
  8
0
 10
5.25079
 20
121.668
 11
5.26846
 21
121.695
  0
LINE
  8
0
 10
5.26846
 20
121.695
 11
5.28319
 21
121.724
  0
LINE
  8
0
 10
5.28319
 20
121.724
 11
5.29482
 21
121.754
  0
LINE
  8
0
 10
5.29482
 20
121.754
 11
5.30322
 21
121.786
  0
LINE
  8
0
 10
5.30322
 20
121.786
 11
5.30829
 21
121.818
  0
LINE
  8
0
 10
5.30829
 20
121.818
 11
5.31
 21
121.85
  0
LINE
  8
0
 10
5.31
 20
121.85
 11
5.30829
 21
121.882
  0
LINE
  8
0
 10
5.30829
 20
121.882
 11
5.30322
 21
121.914
  0
LINE
  8
0
 10
5.30322
 20
121.914
 11
5.29482
 21
121.946
  0
LINE
  8
0
 10
5.29482
 20
121.946
 11
5.28319
 21
121.976
  0
LINE
  8
0
 10
5.28319
 20
121.976
 11
5.26846
 21
122.005
  0
LINE
  8
0
 10
5.26846
 20
122.005
 11
5.25079
 21
122.032
  0
LINE
  8
0
 10
5.25079
 20
122.032
 11
5.23036
 21
122.057
  0
LINE
  8
0
 10
5.23036
 20
122.057
 11
5.20743
 21
122.08
  0
LINE
  8
0
 10
5.20743
 20
122.08
 11
5.18221
 21
122.101
  0
LINE
  8
0
 10
5.18221
 20
122.101
 11
5.155
 21
122.118
  0
LINE
  8
0
 10
5.155
 20
122.118
 11
5.12608
 21
122.133
  0
LINE
  8
0
 10
5.12608
 20
122.133
 11
5.09579
 21
122.145
  0
LINE
  8
0
 10
5.09579
 20
122.145
 11
5.06444
 21
122.153
  0
LINE
  8
0
 10
5.06444
 20
122.153
 11
5.03239
 21
122.158
  0
LINE
  8
0
 10
5.03239
 20
122.158
 11
5
 21
122.16
  0
LINE
  8
0
 10
5
 20
122.16
 11
5
 21
123.4
  0
LINE
  8
0
 10
5
 20
123.4
 11
0
 21
123.4
  0
LINE
  8
0
 10
0
 20
123.4
 11
0
 21
115.175
  0
LINE
  8
0
 10
0
 20
115.175
 11
-1.23999
 21
115.175
  0
LINE
  8
0
 10
-1.23999
 20
115.175
 11
-1.24168
 21
115.207
  0
LINE
  8
0
 10
-1.24168
 20
115.207
 11
-1.24677
 21
115.239
  0
LINE
  8
0
 10
-1.24677
 20
115.239
 11
-1.25516
 21
115.271
  0
LINE
  8
0
 10
-1.25516
 20
115.271
 11
-1.26678
 21
115.301
  0
LINE
  8
0
 10
-1.26678
 20
115.301
 11
-1.28152
 21
115.33
  0
LINE
  8
0
 10
-1.28152
 20
115.33
 11
-1.29919
 21
115.357
  0
LINE
  8
0
 10
-1.29919
 20
115.357
 11
-1.31961
 21
115.382
  0
LINE
  8
0
 10
-1.31961
 20
115.382
 11
-1.34256
 21
115.405
  0
LINE
  8
0
 10
-1.34256
 20
115.405
 11
-1.36777
 21
115.426
  0
LINE
  8
0
 10
-1.36777
 20
115.426
 11
-1.39499
 21
115.443
  0
LINE
  8
0
 10
-1.39499
 20
115.443
 11
-1.4239
 21
115.458
  0
LINE
  8
0
 10
-1.4239
 20
115.458
 11
-1.45419
 21
115.47
  0
LINE
  8
0
 10
-1.45419
 20
115.47
 11
-1.48553
 21
115.478
  0
LINE
  8
0
 10
-1.48553
 20
115.478
 11
-1.51758
 21
115.483
  0
LINE
  8
0
 10
-1.51758
 20
115.483
 11
-1.54999
 21
115.485
  0
LINE
  8
0
 10
-1.54999
 20
115.485
 11
-1.5824
 21
115.483
  0
LINE
  8
0
 10
-1.5824
 20
115.483
 11
-1.61444
 21
115.478
  0
LINE
  8
0
 10
-1.61444
 20
115.478
 11
-1.64578
 21
115.47
  0
LINE
  8
0
 10
-1.64578
 20
115.47
 11
-1.67607
 21
115.458
  0
LINE
  8
0
 10
-1.67607
 20
115.458
 11
-1.70499
 21
115.443
  0
LINE
  8
0
 10
-1.70499
 20
115.443
 11
-1.73219
 21
115.426
  0
LINE
  8
0
 10
-1.73219
 20
115.426
 11
-1.75742
 21
115.405
  0
LINE
  8
0
 10
-1.75742
 20
115.405
 11
-1.78036
 21
115.382
  0
LINE
  8
0
 10
-1.78036
 20
115.382
 11
-1.80078
 21
115.357
  0
LINE
  8
0
 10
-1.80078
 20
115.357
 11
-1.81845
 21
115.33
  0
LINE
  8
0
 10
-1.81845
 20
115.33
 11
-1.83319
 21
115.301
  0
LINE
  8
0
 10
-1.83319
 20
115.301
 11
-1.84482
 21
115.271
  0
LINE
  8
0
 10
-1.84482
 20
115.271
 11
-1.85321
 21
115.239
  0
LINE
  8
0
 10
-1.85321
 20
115.239
 11
-1.85829
 21
115.207
  0
LINE
  8
0
 10
-1.85829
 20
115.207
 11
-1.85999
 21
115.175
  0
LINE
  8
0
 10
-1.85999
 20
115.175
 11
-3.09999
 21
115.175
  0
LINE
  8
0
 10
-3.09999
 20
115.175
 11
-3.09999
 21
110.05
  0
LINE
  8
0
 10
-3.09999
 20
110.05
 11
0
 21
110.05
  0
LINE
  8
0
 10
0
 20
110.05
 11
0
 21
104.925
  0
LINE
  8
0
 10
0
 20
104.925
 11
-1.23999
 21
104.925
  0
LINE
  8
0
 10
-1.23999
 20
104.925
 11
-1.24168
 21
104.957
  0
LINE
  8
0
 10
-1.24168
 20
104.957
 11
-1.24677
 21
104.989
  0
LINE
  8
0
 10
-1.24677
 20
104.989
 11
-1.25516
 21
105.021
  0
LINE
  8
0
 10
-1.25516
 20
105.021
 11
-1.26678
 21
105.051
  0
LINE
  8
0
 10
-1.26678
 20
105.051
 11
-1.28152
 21
105.08
  0
LINE
  8
0
 10
-1.28152
 20
105.08
 11
-1.29919
 21
105.107
  0
LINE
  8
0
 10
-1.29919
 20
105.107
 11
-1.31961
 21
105.132
  0
LINE
  8
0
 10
-1.31961
 20
105.132
 11
-1.34256
 21
105.155
  0
LINE
  8
0
 10
-1.34256
 20
105.155
 11
-1.36777
 21
105.176
  0
LINE
  8
0
 10
-1.36777
 20
105.176
 11
-1.39499
 21
105.193
  0
LINE
  8
0
 10
-1.39499
 20
105.193
 11
-1.4239
 21
105.208
  0
LINE
  8
0
 10
-1.4239
 20
105.208
 11
-1.45419
 21
105.22
  0
LINE
  8
0
 10
-1.45419
 20
105.22
 11
-1.48553
 21
105.228
  0
LINE
  8
0
 10
-1.48553
 20
105.228
 11
-1.51758
 21
105.233
  0
LINE
  8
0
 10
-1.51758
 20
105.233
 11
-1.54999
 21
105.235
  0
LINE
  8
0
 10
-1.54999
 20
105.235
 11
-1.5824
 21
105.233
  0
LINE
  8
0
 10
-1.5824
 20
105.233
 11
-1.61444
 21
105.228
  0
LINE
  8
0
 10
-1.61444
 20
105.228
 11
-1.64578
 21
105.22
  0
LINE
  8
0
 10
-1.64578
 20
105.22
 11
-1.67607
 21
105.208
  0
LINE
  8
0
 10
-1.67607
 20
105.208
 11
-1.70499
 21
105.193
  0
LINE
  8
0
 10
-1.70499
 20
105.193
 11
-1.73219
 21
105.176
  0
LINE
  8
0
 10
-1.73219
 20
105.176
 11
-1.75742
 21
105.155
  0
LINE
  8
0
 10
-1.75742
 20
105.155
 11
-1.78036
 21
105.132
  0
LINE
  8
0
 10
-1.78036
 20
105.132
 11
-1.80078
 21
105.107
  0
LINE
  8
0
 10
-1.80078
 20
105.107
 11
-1.81845
 21
105.08
  0
LINE
  8
0
 10
-1.81845
 20
105.08
 11
-1.83319
 21
105.051
  0
LINE
  8
0
 10
-1.83319
 20
105.051
 11
-1.84482
 21
105.021
  0
LINE
  8
0
 10
-1.84482
 20
105.021
 11
-1.85321
 21
104.989
  0
LINE
  8
0
 10
-1.85321
 20
104.989
 11
-1.85829
 21
104.957
  0
LINE
  8
0
 10
-1.85829
 20
104.957
 11
-1.85999
 21
104.925
  0
LINE
  8
0
 10
-1.85999
 20
104.925
 11
-3.09999
 21
104.925
  0
LINE
  8
0
 10
-3.09999
 20
104.925
 11
-3.09999
 21
99.8
  0
LINE
  8
0
 10
-3.09999
 20
99.8
 11
0
 21
99.8
  0
LINE
  8
0
 10
0
 20
99.8
 11
0
 21
94.675
  0
LINE
  8
0
 10
0
 20
94.675
 11
-1.23999
 21
94.675
  0
LINE
  8
0
 10
-1.23999
 20
94.675
 11
-1.24168
 21
94.7074
  0
LINE
  8
0
 10
-1.24168
 20
94.7074
 11
-1.24677
 21
94.7394
  0
LINE
  8
0
 10
-1.24677
 20
94.7394
 11
-1.25516
 21
94.7708
  0
LINE
  8
0
 10
-1.25516
 20
94.7708
 11
-1.26678
 21
94.8011
  0
LINE
  8
0
 10
-1.26678
 20
94.8011
 11
-1.28152
 21
94.83
  0
LINE
  8
0
 10
-1.28152
 20
94.83
 11
-1.29919
 21
94.8572
  0
LINE
  8
0
 10
-1.29919
 20
94.8572
 11
-1.31961
 21
94.8824
  0
LINE
  8
0
 10
-1.31961
 20
94.8824
 11
-1.34256
 21
94.9053
  0
LINE
  8
0
 10
-1.34256
 20
94.9053
 11
-1.36777
 21
94.9258
  0
LINE
  8
0
 10
-1.36777
 20
94.9258
 11
-1.39499
 21
94.9435
  0
LINE
  8
0
 10
-1.39499
 20
94.9435
 11
-1.4239
 21
94.9582
  0
LINE
  8
0
 10
-1.4239
 20
94.9582
 11
-1.45419
 21
94.9698
  0
LINE
  8
0
 10
-1.45419
 20
94.9698
 11
-1.48553
 21
94.9782
  0
LINE
  8
0
 10
-1.48553
 20
94.9782
 11
-1.51758
 21
94.9833
  0
LINE
  8
0
 10
-1.51758
 20
94.9833
 11
-1.54999
 21
94.985
  0
LINE
  8
0
 10
-1.54999
 20
94.985
 11
-1.5824
 21
94.9833
  0
LINE
  8
0
 10
-1.5824
 20
94.9833
 11
-1.61444
 21
94.9782
  0
LINE
  8
0
 10
-1.61444
 20
94.9782
 11
-1.64578
 21
94.9698
  0
LINE
  8
0
 10
-1.64578
 20
94.9698
 11
-1.67607
 21
94.9582
  0
LINE
  8
0
 10
-1.67607
 20
94.9582
 11
-1.70499
 21
94.9435
  0
LINE
  8
0
 10
-1.70499
 20
94.9435
 11
-1.73219
 21
94.9258
  0
LINE
  8
0
 10
-1.73219
 20
94.9258
 11
-1.75742
 21
94.9053
  0
LINE
  8
0
 10
-1.75742
 20
94.9053
 11
-1.78036
 21
94.8824
  0
LINE
  8
0
 10
-1.78036
 20
94.8824
 11
-1.80078
 21
94.8572
  0
LINE
  8
0
 10
-1.80078
 20
94.8572
 11
-1.81845
 21
94.83
  0
LINE
  8
0
 10
-1.81845
 20
94.83
 11
-1.83319
 21
94.8011
  0
LINE
  8
0
 10
-1.83319
 20
94.8011
 11
-1.84482
 21
94.7708
  0
LINE
  8
0
 10
-1.84482
 20
94.7708
 11
-1.85321
 21
94.7394
  0
LINE
  8
0
 10
-1.85321
 20
94.7394
 11
-1.85829
 21
94.7074
  0
LINE
  8
0
 10
-1.85829
 20
94.7074
 11
-1.85999
 21
94.675
  0
LINE
  8
0
 10
-1.85999
 20
94.675
 11
-3.09999
 21
94.675
  0
LINE
  8
0
 10
-3.09999
 20
94.675
 11
-3.09999
 21
89.55
  0
LINE
  8
0
 10
-3.09999
 20
89.55
 11
0
 21
89.55
  0
LINE
  8
0
 10
0
 20
89.55
 11
0
 21
84.425
  0
LINE
  8
0
 10
0
 20
84.425
 11
-1.23999
 21
84.425
  0
LINE
  8
0
 10
-1.23999
 20
84.425
 11
-1.24168
 21
84.4574
  0
LINE
  8
0
 10
-1.24168
 20
84.4574
 11
-1.24677
 21
84.4894
  0
LINE
  8
0
 10
-1.24677
 20
84.4894
 11
-1.25516
 21
84.5208
  0
LINE
  8
0
 10
-1.25516
 20
84.5208
 11
-1.26678
 21
84.5511
  0
LINE
  8
0
 10
-1.26678
 20
84.5511
 11
-1.28152
 21
84.58
  0
LINE
  8
0
 10
-1.28152
 20
84.58
 11
-1.29919
 21
84.6072
  0
LINE
  8
0
 10
-1.29919
 20
84.6072
 11
-1.31961
 21
84.6324
  0
LINE
  8
0
 10
-1.31961
 20
84.6324
 11
-1.34256
 21
84.6553
  0
LINE
  8
0
 10
-1.34256
 20
84.6553
 11
-1.36777
 21
84.6758
  0
LINE
  8
0
 10
-1.36777
 20
84.6758
 11
-1.39499
 21
84.6935
  0
LINE
  8
0
 10
-1.39499
 20
84.6935
 11
-1.4239
 21
84.7082
  0
LINE
  8
0
 10
-1.4239
 20
84.7082
 11
-1.45419
 21
84.7198
  0
LINE
  8
0
 10
-1.45419
 20
84.7198
 11
-1.48553
 21
84.7282
  0
LINE
  8
0
 10
-1.48553
 20
84.7282
 11
-1.51758
 21
84.7333
  0
LINE
  8
0
 10
-1.51758
 20
84.7333
 11
-1.54999
 21
84.735
  0
LINE
  8
0
 10
-1.54999
 20
84.735
 11
-1.5824
 21
84.7333
  0
LINE
  8
0
 10
-1.5824
 20
84.7333
 11
-1.61444
 21
84.7282
  0
LINE
  8
0
 10
-1.61444
 20
84.7282
 11
-1.64578
 21
84.7198
  0
LINE
  8
0
 10
-1.64578
 20
84.7198
 11
-1.67607
 21
84.7082
  0
LINE
  8
0
 10
-1.67607
 20
84.7082
 11
-1.70499
 21
84.6935
  0
LINE
  8
0
 10
-1.70499
 20
84.6935
 11
-1.73219
 21
84.6758
  0
LINE
  8
0
 10
-1.73219
 20
84.6758
 11
-1.75742
 21
84.6553
  0
LINE
  8
0
 10
-1.75742
 20
84.6553
 11
-1.78036
 21
84.6324
  0
LINE
  8
0
 10
-1.78036
 20
84.6324
 11
-1.80078
 21
84.6072
  0
LINE
  8
0
 10
-1.80078
 20
84.6072
 11
-1.81845
 21
84.58
  0
LINE
  8
0
 10
-1.81845
 20
84.58
 11
-1.83319
 21
84.5511
  0
LINE
  8
0
 10
-1.83319
 20
84.5511
 11
-1.84482
 21
84.5208
  0
LINE
  8
0
 10
-1.84482
 20
84.5208
 11
-1.85321
 21
84.4894
  0
LINE
  8
0
 10
-1.85321
 20
84.4894
 11
-1.85829
 21
84.4574
  0
LINE
  8
0
 10
-1.85829
 20
84.4574
 11
-1.85999
 21
84.425
  0
LINE
  8
0
 10
-1.85999
 20
84.425
 11
-3.09999
 21
84.425
  0
LINE
  8
0
 10
-3.09999
 20
84.425
 11
-3.09999
 21
79.3
  0
LINE
  8
0
 10
-3.09999
 20
79.3
 11
5
 21
79.3
  0
LINE
  8
0
 10
5
 20
79.3
 11
5
 21
78.06
  0
LINE
  8
0
 10
5
 20
78.06
 11
4.96761
 21
78.0583
  0
LINE
  8
0
 10
4.96761
 20
78.0583
 11
4.93556
 21
78.0532
  0
LINE
  8
0
 10
4.93556
 20
78.0532
 11
4.90421
 21
78.0448
  0
LINE
  8
0
 10
4.90421
 20
78.0448
 11
4.87392
 21
78.0332
  0
LINE
  8
0
 10
4.87392
 20
78.0332
 11
4.845
 21
78.0185
  0
LINE
  8
0
 10
4.845
 20
78.0185
 11
4.81779
 21
78.0008
  0
LINE
  8
0
 10
4.81779
 20
78.0008
 11
4.79257
 21
77.9804
  0
LINE
  8
0
 10
4.79257
 20
77.9804
 11
4.76964
 21
77.9574
  0
LINE
  8
0
 10
4.76964
 20
77.9574
 11
4.74921
 21
77.9322
  0
LINE
  8
0
 10
4.74921
 20
77.9322
 11
4.73154
 21
77.905
  0
LINE
  8
0
 10
4.73154
 20
77.905
 11
4.71681
 21
77.8761
  0
LINE
  8
0
 10
4.71681
 20
77.8761
 11
4.70518
 21
77.8458
  0
LINE
  8
0
 10
4.70518
 20
77.8458
 11
4.69678
 21
77.8145
  0
LINE
  8
0
 10
4.69678
 20
77.8145
 11
4.69171
 21
77.7824
  0
LINE
  8
0
 10
4.69171
 20
77.7824
 11
4.69
 21
77.75
  0
LINE
  8
0
 10
4.69
 20
77.75
 11
4.69171
 21
77.7176
  0
LINE
  8
0
 10
4.69171
 20
77.7176
 11
4.69678
 21
77.6855
  0
LINE
  8
0
 10
4.69678
 20
77.6855
 11
4.70518
 21
77.6542
  0
LINE
  8
0
 10
4.70518
 20
77.6542
 11
4.71681
 21
77.6239
  0
LINE
  8
0
 10
4.71681
 20
77.6239
 11
4.73154
 21
77.595
  0
LINE
  8
0
 10
4.73154
 20
77.595
 11
4.74921
 21
77.5678
  0
LINE
  8
0
 10
4.74921
 20
77.5678
 11
4.76964
 21
77.5426
  0
LINE
  8
0
 10
4.76964
 20
77.5426
 11
4.79257
 21
77.5196
  0
LINE
  8
0
 10
4.79257
 20
77.5196
 11
4.81779
 21
77.4992
  0
LINE
  8
0
 10
4.81779
 20
77.4992
 11
4.845
 21
77.4815
  0
LINE
  8
0
 10
4.845
 20
77.4815
 11
4.87392
 21
77.4668
  0
LINE
  8
0
 10
4.87392
 20
77.4668
 11
4.90421
 21
77.4552
  0
LINE
  8
0
 10
4.90421
 20
77.4552
 11
4.93556
 21
77.4468
  0
LINE
  8
0
 10
4.93556
 20
77.4468
 11
4.96761
 21
77.4417
  0
LINE
  8
0
 10
4.96761
 20
77.4417
 11
5
 21
77.44
  0
LINE
  8
0
 10
5
 20
77.44
 11
5
 21
76.2
  0
LINE
  8
0
 10
5
 20
76.2
 11
10
 21
76.2
  0
LINE
  8
0
 10
10
 20
76.2
 11
10
 21
79.3
  0
LINE
  8
0
 10
58
 20
120.3
 11
50
 21
120.3
  0
LINE
  8
0
 10
50
 20
120.3
 11
50
 21
102
  0
LINE
  8
0
 10
50
 20
102
 11
58
 21
102
  0
LINE
  8
0
 10
58
 20
102
 11
58
 21
120.3
  0
LINE
  8
0
 10
48
 20
120.3
 11
40
 21
120.3
  0
LINE
  8
0
 10
40
 20
120.3
 11
40
 21
102
  0
LINE
  8
0
 10
40
 20
102
 11
48
 21
102
  0
LINE
  8
0
 10
48
 20
102
 11
48
 21
120.3
  0
LINE
  8
0
 10
46.1
 20
51
 11
49.15
 21
51
  0
LINE
  8
0
 10
49.15
 20
51
 11
49.15
 21
49.76
  0
LINE
  8
0
 10
49.15
 20
49.76
 11
49.1176
 21
49.7583
  0
LINE
  8
0
 10
49.1176
 20
49.7583
 11
49.0856
 21
49.7532
  0
LINE
  8
0
 10
49.0856
 20
49.7532
 11
49.0542
 21
49.7448
  0
LINE
  8
0
 10
49.0542
 20
49.7448
 11
49.0239
 21
49.7332
  0
LINE
  8
0
 10
49.0239
 20
49.7332
 11
48.995
 21
49.7185
  0
LINE
  8
0
 10
48.995
 20
49.7185
 11
48.9678
 21
49.7008
  0
LINE
  8
0
 10
48.9678
 20
49.7008
 11
48.9426
 21
49.6804
  0
LINE
  8
0
 10
48.9426
 20
49.6804
 11
48.9196
 21
49.6574
  0
LINE
  8
0
 10
48.9196
 20
49.6574
 11
48.8992
 21
49.6322
  0
LINE
  8
0
 10
48.8992
 20
49.6322
 11
48.8815
 21
49.605
  0
LINE
  8
0
 10
48.8815
 20
49.605
 11
48.8668
 21
49.5761
  0
LINE
  8
0
 10
48.8668
 20
49.5761
 11
48.8552
 21
49.5458
  0
LINE
  8
0
 10
48.8552
 20
49.5458
 11
48.8468
 21
49.5145
  0
LINE
  8
0
 10
48.8468
 20
49.5145
 11
48.8417
 21
49.4824
  0
LINE
  8
0
 10
48.8417
 20
49.4824
 11
48.84
 21
49.45
  0
LINE
  8
0
 10
48.84
 20
49.45
 11
48.8417
 21
49.4176
  0
LINE
  8
0
 10
48.8417
 20
49.4176
 11
48.8468
 21
49.3856
  0
LINE
  8
0
 10
48.8468
 20
49.3856
 11
48.8552
 21
49.3542
  0
LINE
  8
0
 10
48.8552
 20
49.3542
 11
48.8668
 21
49.3239
  0
LINE
  8
0
 10
48.8668
 20
49.3239
 11
48.8815
 21
49.295
  0
LINE
  8
0
 10
48.8815
 20
49.295
 11
48.8992
 21
49.2678
  0
LINE
  8
0
 10
48.8992
 20
49.2678
 11
48.9196
 21
49.2426
  0
LINE
  8
0
 10
48.9196
 20
49.2426
 11
48.9426
 21
49.2196
  0
LINE
  8
0
 10
48.9426
 20
49.2196
 11
48.9678
 21
49.1992
  0
LINE
  8
0
 10
48.9678
 20
49.1992
 11
48.995
 21
49.1815
  0
LINE
  8
0
 10
48.995
 20
49.1815
 11
49.0239
 21
49.1668
  0
LINE
  8
0
 10
49.0239
 20
49.1668
 11
49.0542
 21
49.1552
  0
LINE
  8
0
 10
49.0542
 20
49.1552
 11
49.0856
 21
49.1468
  0
LINE
  8
0
 10
49.0856
 20
49.1468
 11
49.1176
 21
49.1417
  0
LINE
  8
0
 10
49.1176
 20
49.1417
 11
49.15
 21
49.14
  0
LINE
  8
0
 10
49.15
 20
49.14
 11
49.15
 21
47.9
  0
LINE
  8
0
 10
49.15
 20
47.9
 11
52.2
 21
47.9
  0
LINE
  8
0
 10
52.2
 20
47.9
 11
52.2
 21
51
  0
LINE
  8
0
 10
52.2
 20
51
 11
55.25
 21
51
  0
LINE
  8
0
 10
55.25
 20
51
 11
55.25
 21
49.76
  0
LINE
  8
0
 10
55.25
 20
49.76
 11
55.2176
 21
49.7583
  0
LINE
  8
0
 10
55.2176
 20
49.7583
 11
55.1855
 21
49.7532
  0
LINE
  8
0
 10
55.1855
 20
49.7532
 11
55.1542
 21
49.7448
  0
LINE
  8
0
 10
55.1542
 20
49.7448
 11
55.1239
 21
49.7332
  0
LINE
  8
0
 10
55.1239
 20
49.7332
 11
55.095
 21
49.7185
  0
LINE
  8
0
 10
55.095
 20
49.7185
 11
55.0678
 21
49.7008
  0
LINE
  8
0
 10
55.0678
 20
49.7008
 11
55.0426
 21
49.6804
  0
LINE
  8
0
 10
55.0426
 20
49.6804
 11
55.0196
 21
49.6574
  0
LINE
  8
0
 10
55.0196
 20
49.6574
 11
54.9992
 21
49.6322
  0
LINE
  8
0
 10
54.9992
 20
49.6322
 11
54.9815
 21
49.605
  0
LINE
  8
0
 10
54.9815
 20
49.605
 11
54.9668
 21
49.5761
  0
LINE
  8
0
 10
54.9668
 20
49.5761
 11
54.9552
 21
49.5458
  0
LINE
  8
0
 10
54.9552
 20
49.5458
 11
54.9468
 21
49.5145
  0
LINE
  8
0
 10
54.9468
 20
49.5145
 11
54.9417
 21
49.4824
  0
LINE
  8
0
 10
54.9417
 20
49.4824
 11
54.94
 21
49.45
  0
LINE
  8
0
 10
54.94
 20
49.45
 11
54.9417
 21
49.4176
  0
LINE
  8
0
 10
54.9417
 20
49.4176
 11
54.9468
 21
49.3856
  0
LINE
  8
0
 10
54.9468
 20
49.3856
 11
54.9552
 21
49.3542
  0
LINE
  8
0
 10
54.9552
 20
49.3542
 11
54.9668
 21
49.3239
  0
LINE
  8
0
 10
54.9668
 20
49.3239
 11
54.9815
 21
49.295
  0
LINE
  8
0
 10
54.9815
 20
49.295
 11
54.9992
 21
49.2678
  0
LINE
  8
0
 10
54.9992
 20
49.2678
 11
55.0196
 21
49.2426
  0
LINE
  8
0
 10
55.0196
 20
49.2426
 11
55.0426
 21
49.2196
  0
LINE
  8
0
 10
55.0426
 20
49.2196
 11
55.0678
 21
49.1992
  0
LINE
  8
0
 10
55.0678
 20
49.1992
 11
55.095
 21
49.1815
  0
LINE
  8
0
 10
55.095
 20
49.1815
 11
55.1239
 21
49.1668
  0
LINE
  8
0
 10
55.1239
 20
49.1668
 11
55.1542
 21
49.1552
  0
LINE
  8
0
 10
55.1542
 20
49.1552
 11
55.1855
 21
49.1468
  0
LINE
  8
0
 10
55.1855
 20
49.1468
 11
55.2176
 21
49.1417
  0
LINE
  8
0
 10
55.2176
 20
49.1417
 11
55.25
 21
49.14
  0
LINE
  8
0
 10
55.25
 20
49.14
 11
55.25
 21
47.9
  0
LINE
  8
0
 10
55.25
 20
47.9
 11
58.3
 21
47.9
  0
LINE
  8
0
 10
58.3
 20
47.9
 11
58.3
 21
56.125
  0
LINE
  8
0
 10
58.3
 20
56.125
 11
59.54
 21
56.125
  0
LINE
  8
0
 10
59.54
 20
56.125
 11
59.5417
 21
56.0926
  0
LINE
  8
0
 10
59.5417
 20
56.0926
 11
59.5468
 21
56.0606
  0
LINE
  8
0
 10
59.5468
 20
56.0606
 11
59.5552
 21
56.0292
  0
LINE
  8
0
 10
59.5552
 20
56.0292
 11
59.5668
 21
55.9989
  0
LINE
  8
0
 10
59.5668
 20
55.9989
 11
59.5815
 21
55.97
  0
LINE
  8
0
 10
59.5815
 20
55.97
 11
59.5992
 21
55.9428
  0
LINE
  8
0
 10
59.5992
 20
55.9428
 11
59.6196
 21
55.9176
  0
LINE
  8
0
 10
59.6196
 20
55.9176
 11
59.6426
 21
55.8946
  0
LINE
  8
0
 10
59.6426
 20
55.8946
 11
59.6678
 21
55.8742
  0
LINE
  8
0
 10
59.6678
 20
55.8742
 11
59.695
 21
55.8565
  0
LINE
  8
0
 10
59.695
 20
55.8565
 11
59.7239
 21
55.8418
  0
LINE
  8
0
 10
59.7239
 20
55.8418
 11
59.7542
 21
55.8302
  0
LINE
  8
0
 10
59.7542
 20
55.8302
 11
59.7855
 21
55.8218
  0
LINE
  8
0
 10
59.7855
 20
55.8218
 11
59.8176
 21
55.8167
  0
LINE
  8
0
 10
59.8176
 20
55.8167
 11
59.85
 21
55.815
  0
LINE
  8
0
 10
59.85
 20
55.815
 11
59.8824
 21
55.8167
  0
LINE
  8
0
 10
59.8824
 20
55.8167
 11
59.9144
 21
55.8218
  0
LINE
  8
0
 10
59.9144
 20
55.8218
 11
59.9458
 21
55.8302
  0
LINE
  8
0
 10
59.9458
 20
55.8302
 11
59.9761
 21
55.8418
  0
LINE
  8
0
 10
59.9761
 20
55.8418
 11
60.005
 21
55.8565
  0
LINE
  8
0
 10
60.005
 20
55.8565
 11
60.0322
 21
55.8742
  0
LINE
  8
0
 10
60.0322
 20
55.8742
 11
60.0574
 21
55.8946
  0
LINE
  8
0
 10
60.0574
 20
55.8946
 11
60.0804
 21
55.9176
  0
LINE
  8
0
 10
60.0804
 20
55.9176
 11
60.1008
 21
55.9428
  0
LINE
  8
0
 10
60.1008
 20
55.9428
 11
60.1185
 21
55.97
  0
LINE
  8
0
 10
60.1185
 20
55.97
 11
60.1332
 21
55.9989
  0
LINE
  8
0
 10
60.1332
 20
55.9989
 11
60.1448
 21
56.0292
  0
LINE
  8
0
 10
60.1448
 20
56.0292
 11
60.1532
 21
56.0606
  0
LINE
  8
0
 10
60.1532
 20
56.0606
 11
60.1583
 21
56.0926
  0
LINE
  8
0
 10
60.1583
 20
56.0926
 11
60.16
 21
56.125
  0
LINE
  8
0
 10
60.16
 20
56.125
 11
61.4
 21
56.125
  0
LINE
  8
0
 10
61.4
 20
56.125
 11
61.4
 21
61.25
  0
LINE
  8
0
 10
61.4
 20
61.25
 11
58.3
 21
61.25
  0
LINE
  8
0
 10
58.3
 20
61.25
 11
58.3
 21
66.375
  0
LINE
  8
0
 10
58.3
 20
66.375
 11
59.54
 21
66.375
  0
LINE
  8
0
 10
59.54
 20
66.375
 11
59.5417
 21
66.3426
  0
LINE
  8
0
 10
59.5417
 20
66.3426
 11
59.5468
 21
66.3106
  0
LINE
  8
0
 10
59.5468
 20
66.3106
 11
59.5552
 21
66.2792
  0
LINE
  8
0
 10
59.5552
 20
66.2792
 11
59.5668
 21
66.2489
  0
LINE
  8
0
 10
59.5668
 20
66.2489
 11
59.5815
 21
66.22
  0
LINE
  8
0
 10
59.5815
 20
66.22
 11
59.5992
 21
66.1928
  0
LINE
  8
0
 10
59.5992
 20
66.1928
 11
59.6196
 21
66.1676
  0
LINE
  8
0
 10
59.6196
 20
66.1676
 11
59.6426
 21
66.1446
  0
LINE
  8
0
 10
59.6426
 20
66.1446
 11
59.6678
 21
66.1242
  0
LINE
  8
0
 10
59.6678
 20
66.1242
 11
59.695
 21
66.1065
  0
LINE
  8
0
 10
59.695
 20
66.1065
 11
59.7239
 21
66.0918
  0
LINE
  8
0
 10
59.7239
 20
66.0918
 11
59.7542
 21
66.0802
  0
LINE
  8
0
 10
59.7542
 20
66.0802
 11
59.7855
 21
66.0718
  0
LINE
  8
0
 10
59.7855
 20
66.0718
 11
59.8176
 21
66.0667
  0
LINE
  8
0
 10
59.8176
 20
66.0667
 11
59.85
 21
66.065
  0
LINE
  8
0
 10
59.85
 20
66.065
 11
59.8824
 21
66.0667
  0
LINE
  8
0
 10
59.8824
 20
66.0667
 11
59.9144
 21
66.0718
  0
LINE
  8
0
 10
59.9144
 20
66.0718
 11
59.9458
 21
66.0802
  0
LINE
  8
0
 10
59.9458
 20
66.0802
 11
59.9761
 21
66.0918
  0
LINE
  8
0
 10
59.9761
 20
66.0918
 11
60.005
 21
66.1065
  0
LINE
  8
0
 10
60.005
 20
66.1065
 11
60.0322
 21
66.1242
  0
LINE
  8
0
 10
60.0322
 20
66.1242
 11
60.0574
 21
66.1446
  0
LINE
  8
0
 10
60.0574
 20
66.1446
 11
60.0804
 21
66.1676
  0
LINE
  8
0
 10
60.0804
 20
66.1676
 11
60.1008
 21
66.1928
  0
LINE
  8
0
 10
60.1008
 20
66.1928
 11
60.1185
 21
66.22
  0
LINE
  8
0
 10
60.1185
 20
66.22
 11
60.1332
 21
66.2489
  0
LINE
  8
0
 10
60.1332
 20
66.2489
 11
60.1448
 21
66.2792
  0
LINE
  8
0
 10
60.1448
 20
66.2792
 11
60.1532
 21
66.3106
  0
LINE
  8
0
 10
60.1532
 20
66.3106
 11
60.1583
 21
66.3426
  0
LINE
  8
0
 10
60.1583
 20
66.3426
 11
60.16
 21
66.375
  0
LINE
  8
0
 10
60.16
 20
66.375
 11
61.4
 21
66.375
  0
LINE
  8
0
 10
61.4
 20
66.375
 11
61.4
 21
71.5
  0
LINE
  8
0
 10
61.4
 20
71.5
 11
58.3
 21
71.5
  0
LINE
  8
0
 10
58.3
 20
71.5
 11
58.3
 21
76.625
  0
LINE
  8
0
 10
58.3
 20
76.625
 11
59.54
 21
76.625
  0
LINE
  8
0
 10
59.54
 20
76.625
 11
59.5417
 21
76.5926
  0
LINE
  8
0
 10
59.5417
 20
76.5926
 11
59.5468
 21
76.5606
  0
LINE
  8
0
 10
59.5468
 20
76.5606
 11
59.5552
 21
76.5292
  0
LINE
  8
0
 10
59.5552
 20
76.5292
 11
59.5668
 21
76.4989
  0
LINE
  8
0
 10
59.5668
 20
76.4989
 11
59.5815
 21
76.47
  0
LINE
  8
0
 10
59.5815
 20
76.47
 11
59.5992
 21
76.4428
  0
LINE
  8
0
 10
59.5992
 20
76.4428
 11
59.6196
 21
76.4176
  0
LINE
  8
0
 10
59.6196
 20
76.4176
 11
59.6426
 21
76.3946
  0
LINE
  8
0
 10
59.6426
 20
76.3946
 11
59.6678
 21
76.3742
  0
LINE
  8
0
 10
59.6678
 20
76.3742
 11
59.695
 21
76.3565
  0
LINE
  8
0
 10
59.695
 20
76.3565
 11
59.7239
 21
76.3418
  0
LINE
  8
0
 10
59.7239
 20
76.3418
 11
59.7542
 21
76.3302
  0
LINE
  8
0
 10
59.7542
 20
76.3302
 11
59.7855
 21
76.3218
  0
LINE
  8
0
 10
59.7855
 20
76.3218
 11
59.8176
 21
76.3167
  0
LINE
  8
0
 10
59.8176
 20
76.3167
 11
59.85
 21
76.315
  0
LINE
  8
0
 10
59.85
 20
76.315
 11
59.8824
 21
76.3167
  0
LINE
  8
0
 10
59.8824
 20
76.3167
 11
59.9144
 21
76.3218
  0
LINE
  8
0
 10
59.9144
 20
76.3218
 11
59.9458
 21
76.3302
  0
LINE
  8
0
 10
59.9458
 20
76.3302
 11
59.9761
 21
76.3418
  0
LINE
  8
0
 10
59.9761
 20
76.3418
 11
60.005
 21
76.3565
  0
LINE
  8
0
 10
60.005
 20
76.3565
 11
60.0322
 21
76.3742
  0
LINE
  8
0
 10
60.0322
 20
76.3742
 11
60.0574
 21
76.3946
  0
LINE
  8
0
 10
60.0574
 20
76.3946
 11
60.0804
 21
76.4176
  0
LINE
  8
0
 10
60.0804
 20
76.4176
 11
60.1008
 21
76.4428
  0
LINE
  8
0
 10
60.1008
 20
76.4428
 11
60.1185
 21
76.47
  0
LINE
  8
0
 10
60.1185
 20
76.47
 11
60.1332
 21
76.4989
  0
LINE
  8
0
 10
60.1332
 20
76.4989
 11
60.1448
 21
76.5292
  0
LINE
  8
0
 10
60.1448
 20
76.5292
 11
60.1532
 21
76.5606
  0
LINE
  8
0
 10
60.1532
 20
76.5606
 11
60.1583
 21
76.5926
  0
LINE
  8
0
 10
60.1583
 20
76.5926
 11
60.16
 21
76.625
  0
LINE
  8
0
 10
60.16
 20
76.625
 11
61.4
 21
76.625
  0
LINE
  8
0
 10
61.4
 20
76.625
 11
61.4
 21
81.75
  0
LINE
  8
0
 10
61.4
 20
81.75
 11
58.3
 21
81.75
  0
LINE
  8
0
 10
58.3
 20
81.75
 11
58.3
 21
86.875
  0
LINE
  8
0
 10
58.3
 20
86.875
 11
59.54
 21
86.875
  0
LINE
  8
0
 10
59.54
 20
86.875
 11
59.5417
 21
86.8426
  0
LINE
  8
0
 10
59.5417
 20
86.8426
 11
59.5468
 21
86.8106
  0
LINE
  8
0
 10
59.5468
 20
86.8106
 11
59.5552
 21
86.7792
  0
LINE
  8
0
 10
59.5552
 20
86.7792
 11
59.5668
 21
86.7489
  0
LINE
  8
0
 10
59.5668
 20
86.7489
 11
59.5815
 21
86.72
  0
LINE
  8
0
 10
59.5815
 20
86.72
 11
59.5992
 21
86.6928
  0
LINE
  8
0
 10
59.5992
 20
86.6928
 11
59.6196
 21
86.6676
  0
LINE
  8
0
 10
59.6196
 20
86.6676
 11
59.6426
 21
86.6446
  0
LINE
  8
0
 10
59.6426
 20
86.6446
 11
59.6678
 21
86.6242
  0
LINE
  8
0
 10
59.6678
 20
86.6242
 11
59.695
 21
86.6065
  0
LINE
  8
0
 10
59.695
 20
86.6065
 11
59.7239
 21
86.5918
  0
LINE
  8
0
 10
59.7239
 20
86.5918
 11
59.7542
 21
86.5802
  0
LINE
  8
0
 10
59.7542
 20
86.5802
 11
59.7855
 21
86.5718
  0
LINE
  8
0
 10
59.7855
 20
86.5718
 11
59.8176
 21
86.5667
  0
LINE
  8
0
 10
59.8176
 20
86.5667
 11
59.85
 21
86.565
  0
LINE
  8
0
 10
59.85
 20
86.565
 11
59.8824
 21
86.5667
  0
LINE
  8
0
 10
59.8824
 20
86.5667
 11
59.9144
 21
86.5718
  0
LINE
  8
0
 10
59.9144
 20
86.5718
 11
59.9458
 21
86.5802
  0
LINE
  8
0
 10
59.9458
 20
86.5802
 11
59.9761
 21
86.5918
  0
LINE
  8
0
 10
59.9761
 20
86.5918
 11
60.005
 21
86.6065
  0
LINE
  8
0
 10
60.005
 20
86.6065
 11
60.0322
 21
86.6242
  0
LINE
  8
0
 10
60.0322
 20
86.6242
 11
60.0574
 21
86.6446
  0
LINE
  8
0
 10
60.0574
 20
86.6446
 11
60.0804
 21
86.6676
  0
LINE
  8
0
 10
60.0804
 20
86.6676
 11
60.1008
 21
86.6928
  0
LINE
  8
0
 10
60.1008
 20
86.6928
 11
60.1185
 21
86.72
  0
LINE
  8
0
 10
60.1185
 20
86.72
 11
60.1332
 21
86.7489
  0
LINE
  8
0
 10
60.1332
 20
86.7489
 11
60.1448
 21
86.7792
  0
LINE
  8
0
 10
60.1448
 20
86.7792
 11
60.1532
 21
86.8106
  0
LINE
  8
0
 10
60.1532
 20
86.8106
 11
60.1583
 21
86.8426
  0
LINE
  8
0
 10
60.1583
 20
86.8426
 11
60.16
 21
86.875
  0
LINE
  8
0
 10
60.16
 20
86.875
 11
61.4
 21
86.875
  0
LINE
  8
0
 10
61.4
 20
86.875
 11
61.4
 21
92
  0
LINE
  8
0
 10
61.4
 20
92
 11
55.25
 21
92
  0
LINE
  8
0
 10
55.25
 20
92
 11
55.25
 21
93.24
  0
LINE
  8
0
 10
55.25
 20
93.24
 11
55.2824
 21
93.2417
  0
LINE
  8
0
 10
55.2824
 20
93.2417
 11
55.3144
 21
93.2468
  0
LINE
  8
0
 10
55.3144
 20
93.2468
 11
55.3458
 21
93.2552
  0
LINE
  8
0
 10
55.3458
 20
93.2552
 11
55.3761
 21
93.2668
  0
LINE
  8
0
 10
55.3761
 20
93.2668
 11
55.405
 21
93.2815
  0
LINE
  8
0
 10
55.405
 20
93.2815
 11
55.4322
 21
93.2992
  0
LINE
  8
0
 10
55.4322
 20
93.2992
 11
55.4574
 21
93.3196
  0
LINE
  8
0
 10
55.4574
 20
93.3196
 11
55.4804
 21
93.3426
  0
LINE
  8
0
 10
55.4804
 20
93.3426
 11
55.5008
 21
93.3678
  0
LINE
  8
0
 10
55.5008
 20
93.3678
 11
55.5185
 21
93.395
  0
LINE
  8
0
 10
55.5185
 20
93.395
 11
55.5332
 21
93.4239
  0
LINE
  8
0
 10
55.5332
 20
93.4239
 11
55.5448
 21
93.4542
  0
LINE
  8
0
 10
55.5448
 20
93.4542
 11
55.5532
 21
93.4855
  0
LINE
  8
0
 10
55.5532
 20
93.4855
 11
55.5583
 21
93.5176
  0
LINE
  8
0
 10
55.5583
 20
93.5176
 11
55.56
 21
93.55
  0
LINE
  8
0
 10
55.56
 20
93.55
 11
55.5583
 21
93.5824
  0
LINE
  8
0
 10
55.5583
 20
93.5824
 11
55.5532
 21
93.6144
  0
LINE
  8
0
 10
55.5532
 20
93.6144
 11
55.5448
 21
93.6458
  0
LINE
  8
0
 10
55.5448
 20
93.6458
 11
55.5332
 21
93.6761
  0
LINE
  8
0
 10
55.5332
 20
93.6761
 11
55.5185
 21
93.705
  0
LINE
  8
0
 10
55.5185
 20
93.705
 11
55.5008
 21
93.7322
  0
LINE
  8
0
 10
55.5008
 20
93.7322
 11
55.4804
 21
93.7574
  0
LINE
  8
0
 10
55.4804
 20
93.7574
 11
55.4574
 21
93.7804
  0
LINE
  8
0
 10
55.4574
 20
93.7804
 11
55.4322
 21
93.8008
  0
LINE
  8
0
 10
55.4322
 20
93.8008
 11
55.405
 21
93.8185
  0
LINE
  8
0
 10
55.405
 20
93.8185
 11
55.3761
 21
93.8332
  0
LINE
  8
0
 10
55.3761
 20
93.8332
 11
55.3458
 21
93.8448
  0
LINE
  8
0
 10
55.3458
 20
93.8448
 11
55.3144
 21
93.8532
  0
LINE
  8
0
 10
55.3144
 20
93.8532
 11
55.2824
 21
93.8583
  0
LINE
  8
0
 10
55.2824
 20
93.8583
 11
55.25
 21
93.86
  0
LINE
  8
0
 10
55.25
 20
93.86
 11
55.25
 21
95.1
  0
LINE
  8
0
 10
55.25
 20
95.1
 11
52.2
 21
95.1
  0
LINE
  8
0
 10
52.2
 20
95.1
 11
52.2
 21
92
  0
LINE
  8
0
 10
52.2
 20
92
 11
49.15
 21
92
  0
LINE
  8
0
 10
49.15
 20
92
 11
49.15
 21
93.24
  0
LINE
  8
0
 10
49.15
 20
93.24
 11
49.1824
 21
93.2417
  0
LINE
  8
0
 10
49.1824
 20
93.2417
 11
49.2144
 21
93.2468
  0
LINE
  8
0
 10
49.2144
 20
93.2468
 11
49.2458
 21
93.2552
  0
LINE
  8
0
 10
49.2458
 20
93.2552
 11
49.2761
 21
93.2668
  0
LINE
  8
0
 10
49.2761
 20
93.2668
 11
49.305
 21
93.2815
  0
LINE
  8
0
 10
49.305
 20
93.2815
 11
49.3322
 21
93.2992
  0
LINE
  8
0
 10
49.3322
 20
93.2992
 11
49.3574
 21
93.3196
  0
LINE
  8
0
 10
49.3574
 20
93.3196
 11
49.3804
 21
93.3426
  0
LINE
  8
0
 10
49.3804
 20
93.3426
 11
49.4008
 21
93.3678
  0
LINE
  8
0
 10
49.4008
 20
93.3678
 11
49.4185
 21
93.395
  0
LINE
  8
0
 10
49.4185
 20
93.395
 11
49.4332
 21
93.4239
  0
LINE
  8
0
 10
49.4332
 20
93.4239
 11
49.4448
 21
93.4542
  0
LINE
  8
0
 10
49.4448
 20
93.4542
 11
49.4532
 21
93.4855
  0
LINE
  8
0
 10
49.4532
 20
93.4855
 11
49.4583
 21
93.5176
  0
LINE
  8
0
 10
49.4583
 20
93.5176
 11
49.46
 21
93.55
  0
LINE
  8
0
 10
49.46
 20
93.55
 11
49.4583
 21
93.5824
  0
LINE
  8
0
 10
49.4583
 20
93.5824
 11
49.4532
 21
93.6144
  0
LINE
  8
0
 10
49.4532
 20
93.6144
 11
49.4448
 21
93.6458
  0
LINE
  8
0
 10
49.4448
 20
93.6458
 11
49.4332
 21
93.6761
  0
LINE
  8
0
 10
49.4332
 20
93.6761
 11
49.4185
 21
93.705
  0
LINE
  8
0
 10
49.4185
 20
93.705
 11
49.4008
 21
93.7322
  0
LINE
  8
0
 10
49.4008
 20
93.7322
 11
49.3804
 21
93.7574
  0
LINE
  8
0
 10
49.3804
 20
93.7574
 11
49.3574
 21
93.7804
  0
LINE
  8
0
 10
49.3574
 20
93.7804
 11
49.3322
 21
93.8008
  0
LINE
  8
0
 10
49.3322
 20
93.8008
 11
49.305
 21
93.8185
  0
LINE
  8
0
 10
49.305
 20
93.8185
 11
49.2761
 21
93.8332
  0
LINE
  8
0
 10
49.2761
 20
93.8332
 11
49.2458
 21
93.8448
  0
LINE
  8
0
 10
49.2458
 20
93.8448
 11
49.2144
 21
93.8532
  0
LINE
  8
0
 10
49.2144
 20
93.8532
 11
49.1824
 21
93.8583
  0
LINE
  8
0
 10
49.1824
 20
93.8583
 11
49.15
 21
93.86
  0
LINE
  8
0
 10
49.15
 20
93.86
 11
49.15
 21
95.1
  0
LINE
  8
0
 10
49.15
 20
95.1
 11
46.1
 21
95.1
  0
LINE
  8
0
 10
46.1
 20
95.1
 11
46.1
 21
92
  0
LINE
  8
0
 10
46.1
 20
92
 11
43.05
 21
92
  0
LINE
  8
0
 10
43.05
 20
92
 11
43.05
 21
93.24
  0
LINE
  8
0
 10
43.05
 20
93.24
 11
43.0824
 21
93.2417
  0
LINE
  8
0
 10
43.0824
 20
93.2417
 11
43.1144
 21
93.2468
  0
LINE
  8
0
 10
43.1144
 20
93.2468
 11
43.1458
 21
93.2552
  0
LINE
  8
0
 10
43.1458
 20
93.2552
 11
43.1761
 21
93.2668
  0
LINE
  8
0
 10
43.1761
 20
93.2668
 11
43.205
 21
93.2815
  0
LINE
  8
0
 10
43.205
 20
93.2815
 11
43.2322
 21
93.2992
  0
LINE
  8
0
 10
43.2322
 20
93.2992
 11
43.2574
 21
93.3196
  0
LINE
  8
0
 10
43.2574
 20
93.3196
 11
43.2804
 21
93.3426
  0
LINE
  8
0
 10
43.2804
 20
93.3426
 11
43.3008
 21
93.3678
  0
LINE
  8
0
 10
43.3008
 20
93.3678
 11
43.3185
 21
93.395
  0
LINE
  8
0
 10
43.3185
 20
93.395
 11
43.3332
 21
93.4239
  0
LINE
  8
0
 10
43.3332
 20
93.4239
 11
43.3448
 21
93.4542
  0
LINE
  8
0
 10
43.3448
 20
93.4542
 11
43.3532
 21
93.4855
  0
LINE
  8
0
 10
43.3532
 20
93.4855
 11
43.3583
 21
93.5176
  0
LINE
  8
0
 10
43.3583
 20
93.5176
 11
43.36
 21
93.55
  0
LINE
  8
0
 10
43.36
 20
93.55
 11
43.3583
 21
93.5824
  0
LINE
  8
0
 10
43.3583
 20
93.5824
 11
43.3532
 21
93.6144
  0
LINE
  8
0
 10
43.3532
 20
93.6144
 11
43.3448
 21
93.6458
  0
LINE
  8
0
 10
43.3448
 20
93.6458
 11
43.3332
 21
93.6761
  0
LINE
  8
0
 10
43.3332
 20
93.6761
 11
43.3185
 21
93.705
  0
LINE
  8
0
 10
43.3185
 20
93.705
 11
43.3008
 21
93.7322
  0
LINE
  8
0
 10
43.3008
 20
93.7322
 11
43.2804
 21
93.7574
  0
LINE
  8
0
 10
43.2804
 20
93.7574
 11
43.2574
 21
93.7804
  0
LINE
  8
0
 10
43.2574
 20
93.7804
 11
43.2322
 21
93.8008
  0
LINE
  8
0
 10
43.2322
 20
93.8008
 11
43.205
 21
93.8185
  0
LINE
  8
0
 10
43.205
 20
93.8185
 11
43.1761
 21
93.8332
  0
LINE
  8
0
 10
43.1761
 20
93.8332
 11
43.1458
 21
93.8448
  0
LINE
  8
0
 10
43.1458
 20
93.8448
 11
43.1144
 21
93.8532
  0
LINE
  8
0
 10
43.1144
 20
93.8532
 11
43.0824
 21
93.8583
  0
LINE
  8
0
 10
43.0824
 20
93.8583
 11
43.05
 21
93.86
  0
LINE
  8
0
 10
43.05
 20
93.86
 11
43.05
 21
95.1
  0
LINE
  8
0
 10
43.05
 20
95.1
 11
40
 21
95.1
  0
LINE
  8
0
 10
40
 20
95.1
 11
40
 21
86.875
  0
LINE
  8
0
 10
40
 20
86.875
 11
38.76
 21
86.875
  0
LINE
  8
0
 10
38.76
 20
86.875
 11
38.7583
 21
86.9074
  0
LINE
  8
0
 10
38.7583
 20
86.9074
 11
38.7532
 21
86.9394
  0
LINE
  8
0
 10
38.7532
 20
86.9394
 11
38.7448
 21
86.9708
  0
LINE
  8
0
 10
38.7448
 20
86.9708
 11
38.7332
 21
87.0011
  0
LINE
  8
0
 10
38.7332
 20
87.0011
 11
38.7185
 21
87.03
  0
LINE
  8
0
 10
38.7185
 20
87.03
 11
38.7008
 21
87.0572
  0
LINE
  8
0
 10
38.7008
 20
87.0572
 11
38.6804
 21
87.0824
  0
LINE
  8
0
 10
38.6804
 20
87.0824
 11
38.6574
 21
87.1054
  0
LINE
  8
0
 10
38.6574
 20
87.1054
 11
38.6322
 21
87.1258
  0
LINE
  8
0
 10
38.6322
 20
87.1258
 11
38.605
 21
87.1435
  0
LINE
  8
0
 10
38.605
 20
87.1435
 11
38.5761
 21
87.1582
  0
LINE
  8
0
 10
38.5761
 20
87.1582
 11
38.5458
 21
87.1698
  0
LINE
  8
0
 10
38.5458
 20
87.1698
 11
38.5145
 21
87.1782
  0
LINE
  8
0
 10
38.5145
 20
87.1782
 11
38.4824
 21
87.1833
  0
LINE
  8
0
 10
38.4824
 20
87.1833
 11
38.45
 21
87.185
  0
LINE
  8
0
 10
38.45
 20
87.185
 11
38.4176
 21
87.1833
  0
LINE
  8
0
 10
38.4176
 20
87.1833
 11
38.3856
 21
87.1782
  0
LINE
  8
0
 10
38.3856
 20
87.1782
 11
38.3542
 21
87.1698
  0
LINE
  8
0
 10
38.3542
 20
87.1698
 11
38.3239
 21
87.1582
  0
LINE
  8
0
 10
38.3239
 20
87.1582
 11
38.295
 21
87.1435
  0
LINE
  8
0
 10
38.295
 20
87.1435
 11
38.2678
 21
87.1258
  0
LINE
  8
0
 10
38.2678
 20
87.1258
 11
38.2426
 21
87.1054
  0
LINE
  8
0
 10
38.2426
 20
87.1054
 11
38.2196
 21
87.0824
  0
LINE
  8
0
 10
38.2196
 20
87.0824
 11
38.1992
 21
87.0572
  0
LINE
  8
0
 10
38.1992
 20
87.0572
 11
38.1815
 21
87.03
  0
LINE
  8
0
 10
38.1815
 20
87.03
 11
38.1668
 21
87.0011
  0
LINE
  8
0
 10
38.1668
 20
87.0011
 11
38.1552
 21
86.9708
  0
LINE
  8
0
 10
38.1552
 20
86.9708
 11
38.1468
 21
86.9394
  0
LINE
  8
0
 10
38.1468
 20
86.9394
 11
38.1417
 21
86.9074
  0
LINE
  8
0
 10
38.1417
 20
86.9074
 11
38.14
 21
86.875
  0
LINE
  8
0
 10
38.14
 20
86.875
 11
36.9
 21
86.875
  0
LINE
  8
0
 10
36.9
 20
86.875
 11
36.9
 21
81.75
  0
LINE
  8
0
 10
36.9
 20
81.75
 11
40
 21
81.75
  0
LINE
  8
0
 10
40
 20
81.75
 11
40
 21
76.625
  0
LINE
  8
0
 10
40
 20
76.625
 11
38.76
 21
76.625
  0
LINE
  8
0
 10
38.76
 20
76.625
 11
38.7583
 21
76.6574
  0
LINE
  8
0
 10
38.7583
 20
76.6574
 11
38.7532
 21
76.6894
  0
LINE
  8
0
 10
38.7532
 20
76.6894
 11
38.7448
 21
76.7208
  0
LINE
  8
0
 10
38.7448
 20
76.7208
 11
38.7332
 21
76.7511
  0
LINE
  8
0
 10
38.7332
 20
76.7511
 11
38.7185
 21
76.78
  0
LINE
  8
0
 10
38.7185
 20
76.78
 11
38.7008
 21
76.8072
  0
LINE
  8
0
 10
38.7008
 20
76.8072
 11
38.6804
 21
76.8324
  0
LINE
  8
0
 10
38.6804
 20
76.8324
 11
38.6574
 21
76.8554
  0
LINE
  8
0
 10
38.6574
 20
76.8554
 11
38.6322
 21
76.8758
  0
LINE
  8
0
 10
38.6322
 20
76.8758
 11
38.605
 21
76.8935
  0
LINE
  8
0
 10
38.605
 20
76.8935
 11
38.5761
 21
76.9082
  0
LINE
  8
0
 10
38.5761
 20
76.9082
 11
38.5458
 21
76.9198
  0
LINE
  8
0
 10
38.5458
 20
76.9198
 11
38.5145
 21
76.9282
  0
LINE
  8
0
 10
38.5145
 20
76.9282
 11
38.4824
 21
76.9333
  0
LINE
  8
0
 10
38.4824
 20
76.9333
 11
38.45
 21
76.935
  0
LINE
  8
0
 10
38.45
 20
76.935
 11
38.4176
 21
76.9333
  0
LINE
  8
0
 10
38.4176
 20
76.9333
 11
38.3856
 21
76.9282
  0
LINE
  8
0
 10
38.3856
 20
76.9282
 11
38.3542
 21
76.9198
  0
LINE
  8
0
 10
38.3542
 20
76.9198
 11
38.3239
 21
76.9082
  0
LINE
  8
0
 10
38.3239
 20
76.9082
 11
38.295
 21
76.8935
  0
LINE
  8
0
 10
38.295
 20
76.8935
 11
38.2678
 21
76.8758
  0
LINE
  8
0
 10
38.2678
 20
76.8758
 11
38.2426
 21
76.8554
  0
LINE
  8
0
 10
38.2426
 20
76.8554
 11
38.2196
 21
76.8324
  0
LINE
  8
0
 10
38.2196
 20
76.8324
 11
38.1992
 21
76.8072
  0
LINE
  8
0
 10
38.1992
 20
76.8072
 11
38.1815
 21
76.78
  0
LINE
  8
0
 10
38.1815
 20
76.78
 11
38.1668
 21
76.7511
  0
LINE
  8
0
 10
38.1668
 20
76.7511
 11
38.1552
 21
76.7208
  0
LINE
  8
0
 10
38.1552
 20
76.7208
 11
38.1468
 21
76.6894
  0
LINE
  8
0
 10
38.1468
 20
76.6894
 11
38.1417
 21
76.6574
  0
LINE
  8
0
 10
38.1417
 20
76.6574
 11
38.14
 21
76.625
  0
LINE
  8
0
 10
38.14
 20
76.625
 11
36.9
 21
76.625
  0
LINE
  8
0
 10
36.9
 20
76.625
 11
36.9
 21
71.5
  0
LINE
  8
0
 10
36.9
 20
71.5
 11
40
 21
71.5
  0
LINE
  8
0
 10
40
 20
71.5
 11
40
 21
66.375
  0
LINE
  8
0
 10
40
 20
66.375
 11
38.76
 21
66.375
  0
LINE
  8
0
 10
38.76
 20
66.375
 11
38.7583
 21
66.4074
  0
LINE
  8
0
 10
38.7583
 20
66.4074
 11
38.7532
 21
66.4394
  0
LINE
  8
0
 10
38.7532
 20
66.4394
 11
38.7448
 21
66.4708
  0
LINE
  8
0
 10
38.7448
 20
66.4708
 11
38.7332
 21
66.5011
  0
LINE
  8
0
 10
38.7332
 20
66.5011
 11
38.7185
 21
66.53
  0
LINE
  8
0
 10
38.7185
 20
66.53
 11
38.7008
 21
66.5572
  0
LINE
  8
0
 10
38.7008
 20
66.5572
 11
38.6804
 21
66.5824
  0
LINE
  8
0
 10
38.6804
 20
66.5824
 11
38.6574
 21
66.6054
  0
LINE
  8
0
 10
38.6574
 20
66.6054
 11
38.6322
 21
66.6258
  0
LINE
  8
0
 10
38.6322
 20
66.6258
 11
38.605
 21
66.6435
  0
LINE
  8
0
 10
38.605
 20
66.6435
 11
38.5761
 21
66.6582
  0
LINE
  8
0
 10
38.5761
 20
66.6582
 11
38.5458
 21
66.6698
  0
LINE
  8
0
 10
38.5458
 20
66.6698
 11
38.5145
 21
66.6782
  0
LINE
  8
0
 10
38.5145
 20
66.6782
 11
38.4824
 21
66.6833
  0
LINE
  8
0
 10
38.4824
 20
66.6833
 11
38.45
 21
66.685
  0
LINE
  8
0
 10
38.45
 20
66.685
 11
38.4176
 21
66.6833
  0
LINE
  8
0
 10
38.4176
 20
66.6833
 11
38.3856
 21
66.6782
  0
LINE
  8
0
 10
38.3856
 20
66.6782
 11
38.3542
 21
66.6698
  0
LINE
  8
0
 10
38.3542
 20
66.6698
 11
38.3239
 21
66.6582
  0
LINE
  8
0
 10
38.3239
 20
66.6582
 11
38.295
 21
66.6435
  0
LINE
  8
0
 10
38.295
 20
66.6435
 11
38.2678
 21
66.6258
  0
LINE
  8
0
 10
38.2678
 20
66.6258
 11
38.2426
 21
66.6054
  0
LINE
  8
0
 10
38.2426
 20
66.6054
 11
38.2196
 21
66.5824
  0
LINE
  8
0
 10
38.2196
 20
66.5824
 11
38.1992
 21
66.5572
  0
LINE
  8
0
 10
38.1992
 20
66.5572
 11
38.1815
 21
66.53
  0
LINE
  8
0
 10
38.1815
 20
66.53
 11
38.1668
 21
66.5011
  0
LINE
  8
0
 10
38.1668
 20
66.5011
 11
38.1552
 21
66.4708
  0
LINE
  8
0
 10
38.1552
 20
66.4708
 11
38.1468
 21
66.4394
  0
LINE
  8
0
 10
38.1468
 20
66.4394
 11
38.1417
 21
66.4074
  0
LINE
  8
0
 10
38.1417
 20
66.4074
 11
38.14
 21
66.375
  0
LINE
  8
0
 10
38.14
 20
66.375
 11
36.9
 21
66.375
  0
LINE
  8
0
 10
36.9
 20
66.375
 11
36.9
 21
61.25
  0
LINE
  8
0
 10
36.9
 20
61.25
 11
40
 21
61.25
  0
LINE
  8
0
 10
40
 20
61.25
 11
40
 21
56.125
  0
LINE
  8
0
 10
40
 20
56.125
 11
38.76
 21
56.125
  0
LINE
  8
0
 10
38.76
 20
56.125
 11
38.7583
 21
56.1574
  0
LINE
  8
0
 10
38.7583
 20
56.1574
 11
38.7532
 21
56.1894
  0
LINE
  8
0
 10
38.7532
 20
56.1894
 11
38.7448
 21
56.2208
  0
LINE
  8
0
 10
38.7448
 20
56.2208
 11
38.7332
 21
56.2511
  0
LINE
  8
0
 10
38.7332
 20
56.2511
 11
38.7185
 21
56.28
  0
LINE
  8
0
 10
38.7185
 20
56.28
 11
38.7008
 21
56.3072
  0
LINE
  8
0
 10
38.7008
 20
56.3072
 11
38.6804
 21
56.3324
  0
LINE
  8
0
 10
38.6804
 20
56.3324
 11
38.6574
 21
56.3554
  0
LINE
  8
0
 10
38.6574
 20
56.3554
 11
38.6322
 21
56.3758
  0
LINE
  8
0
 10
38.6322
 20
56.3758
 11
38.605
 21
56.3935
  0
LINE
  8
0
 10
38.605
 20
56.3935
 11
38.5761
 21
56.4082
  0
LINE
  8
0
 10
38.5761
 20
56.4082
 11
38.5458
 21
56.4198
  0
LINE
  8
0
 10
38.5458
 20
56.4198
 11
38.5145
 21
56.4282
  0
LINE
  8
0
 10
38.5145
 20
56.4282
 11
38.4824
 21
56.4333
  0
LINE
  8
0
 10
38.4824
 20
56.4333
 11
38.45
 21
56.435
  0
LINE
  8
0
 10
38.45
 20
56.435
 11
38.4176
 21
56.4333
  0
LINE
  8
0
 10
38.4176
 20
56.4333
 11
38.3856
 21
56.4282
  0
LINE
  8
0
 10
38.3856
 20
56.4282
 11
38.3542
 21
56.4198
  0
LINE
  8
0
 10
38.3542
 20
56.4198
 11
38.3239
 21
56.4082
  0
LINE
  8
0
 10
38.3239
 20
56.4082
 11
38.295
 21
56.3935
  0
LINE
  8
0
 10
38.295
 20
56.3935
 11
38.2678
 21
56.3758
  0
LINE
  8
0
 10
38.2678
 20
56.3758
 11
38.2426
 21
56.3554
  0
LINE
  8
0
 10
38.2426
 20
56.3554
 11
38.2196
 21
56.3324
  0
LINE
  8
0
 10
38.2196
 20
56.3324
 11
38.1992
 21
56.3072
  0
LINE
  8
0
 10
38.1992
 20
56.3072
 11
38.1815
 21
56.28
  0
LINE
  8
0
 10
38.1815
 20
56.28
 11
38.1668
 21
56.2511
  0
LINE
  8
0
 10
38.1668
 20
56.2511
 11
38.1552
 21
56.2208
  0
LINE
  8
0
 10
38.1552
 20
56.2208
 11
38.1468
 21
56.1894
  0
LINE
  8
0
 10
38.1468
 20
56.1894
 11
38.1417
 21
56.1574
  0
LINE
  8
0
 10
38.1417
 20
56.1574
 11
38.14
 21
56.125
  0
LINE
  8
0
 10
38.14
 20
56.125
 11
36.9
 21
56.125
  0
LINE
  8
0
 10
36.9
 20
56.125
 11
36.9
 21
51
  0
LINE
  8
0
 10
36.9
 20
51
 11
43.05
 21
51
  0
LINE
  8
0
 10
43.05
 20
51
 11
43.05
 21
49.76
  0
LINE
  8
0
 10
43.05
 20
49.76
 11
43.0176
 21
49.7583
  0
LINE
  8
0
 10
43.0176
 20
49.7583
 11
42.9855
 21
49.7532
  0
LINE
  8
0
 10
42.9855
 20
49.7532
 11
42.9542
 21
49.7448
  0
LINE
  8
0
 10
42.9542
 20
49.7448
 11
42.9239
 21
49.7332
  0
LINE
  8
0
 10
42.9239
 20
49.7332
 11
42.895
 21
49.7185
  0
LINE
  8
0
 10
42.895
 20
49.7185
 11
42.8678
 21
49.7008
  0
LINE
  8
0
 10
42.8678
 20
49.7008
 11
42.8426
 21
49.6804
  0
LINE
  8
0
 10
42.8426
 20
49.6804
 11
42.8196
 21
49.6574
  0
LINE
  8
0
 10
42.8196
 20
49.6574
 11
42.7992
 21
49.6322
  0
LINE
  8
0
 10
42.7992
 20
49.6322
 11
42.7815
 21
49.605
  0
LINE
  8
0
 10
42.7815
 20
49.605
 11
42.7668
 21
49.5761
  0
LINE
  8
0
 10
42.7668
 20
49.5761
 11
42.7552
 21
49.5458
  0
LINE
  8
0
 10
42.7552
 20
49.5458
 11
42.7468
 21
49.5145
  0
LINE
  8
0
 10
42.7468
 20
49.5145
 11
42.7417
 21
49.4824
  0
LINE
  8
0
 10
42.7417
 20
49.4824
 11
42.74
 21
49.45
  0
LINE
  8
0
 10
42.74
 20
49.45
 11
42.7417
 21
49.4176
  0
LINE
  8
0
 10
42.7417
 20
49.4176
 11
42.7468
 21
49.3856
  0
LINE
  8
0
 10
42.7468
 20
49.3856
 11
42.7552
 21
49.3542
  0
LINE
  8
0
 10
42.7552
 20
49.3542
 11
42.7668
 21
49.3239
  0
LINE
  8
0
 10
42.7668
 20
49.3239
 11
42.7815
 21
49.295
  0
LINE
  8
0
 10
42.7815
 20
49.295
 11
42.7992
 21
49.2678
  0
LINE
  8
0
 10
42.7992
 20
49.2678
 11
42.8196
 21
49.2426
  0
LINE
  8
0
 10
42.8196
 20
49.2426
 11
42.8426
 21
49.2196
  0
LINE
  8
0
 10
42.8426
 20
49.2196
 11
42.8678
 21
49.1992
  0
LINE
  8
0
 10
42.8678
 20
49.1992
 11
42.895
 21
49.1815
  0
LINE
  8
0
 10
42.895
 20
49.1815
 11
42.9239
 21
49.1668
  0
LINE
  8
0
 10
42.9239
 20
49.1668
 11
42.9542
 21
49.1552
  0
LINE
  8
0
 10
42.9542
 20
49.1552
 11
42.9855
 21
49.1468
  0
LINE
  8
0
 10
42.9855
 20
49.1468
 11
43.0176
 21
49.1417
  0
LINE
  8
0
 10
43.0176
 20
49.1417
 11
43.05
 21
49.14
  0
LINE
  8
0
 10
43.05
 20
49.14
 11
43.05
 21
47.9
  0
LINE
  8
0
 10
43.05
 20
47.9
 11
46.1
 21
47.9
  0
LINE
  8
0
 10
46.1
 20
47.9
 11
46.1
 21
51
  0
LINE
  8
0
 10
10
 20
51
 11
15
 21
51
  0
LINE
  8
0
 10
15
 20
51
 11
15
 21
49.76
  0
LINE
  8
0
 10
15
 20
49.76
 11
14.9676
 21
49.7583
  0
LINE
  8
0
 10
14.9676
 20
49.7583
 11
14.9356
 21
49.7532
  0
LINE
  8
0
 10
14.9356
 20
49.7532
 11
14.9042
 21
49.7448
  0
LINE
  8
0
 10
14.9042
 20
49.7448
 11
14.8739
 21
49.7332
  0
LINE
  8
0
 10
14.8739
 20
49.7332
 11
14.845
 21
49.7185
  0
LINE
  8
0
 10
14.845
 20
49.7185
 11
14.8178
 21
49.7008
  0
LINE
  8
0
 10
14.8178
 20
49.7008
 11
14.7926
 21
49.6804
  0
LINE
  8
0
 10
14.7926
 20
49.6804
 11
14.7696
 21
49.6574
  0
LINE
  8
0
 10
14.7696
 20
49.6574
 11
14.7492
 21
49.6322
  0
LINE
  8
0
 10
14.7492
 20
49.6322
 11
14.7315
 21
49.605
  0
LINE
  8
0
 10
14.7315
 20
49.605
 11
14.7168
 21
49.5761
  0
LINE
  8
0
 10
14.7168
 20
49.5761
 11
14.7052
 21
49.5458
  0
LINE
  8
0
 10
14.7052
 20
49.5458
 11
14.6968
 21
49.5145
  0
LINE
  8
0
 10
14.6968
 20
49.5145
 11
14.6917
 21
49.4824
  0
LINE
  8
0
 10
14.6917
 20
49.4824
 11
14.69
 21
49.45
  0
LINE
  8
0
 10
14.69
 20
49.45
 11
14.6917
 21
49.4176
  0
LINE
  8
0
 10
14.6917
 20
49.4176
 11
14.6968
 21
49.3856
  0
LINE
  8
0
 10
14.6968
 20
49.3856
 11
14.7052
 21
49.3542
  0
LINE
  8
0
 10
14.7052
 20
49.3542
 11
14.7168
 21
49.3239
  0
LINE
  8
0
 10
14.7168
 20
49.3239
 11
14.7315
 21
49.295
  0
LINE
  8
0
 10
14.7315
 20
49.295
 11
14.7492
 21
49.2678
  0
LINE
  8
0
 10
14.7492
 20
49.2678
 11
14.7696
 21
49.2426
  0
LINE
  8
0
 10
14.7696
 20
49.2426
 11
14.7926
 21
49.2196
  0
LINE
  8
0
 10
14.7926
 20
49.2196
 11
14.8178
 21
49.1992
  0
LINE
  8
0
 10
14.8178
 20
49.1992
 11
14.845
 21
49.1815
  0
LINE
  8
0
 10
14.845
 20
49.1815
 11
14.8739
 21
49.1668
  0
LINE
  8
0
 10
14.8739
 20
49.1668
 11
14.9042
 21
49.1552
  0
LINE
  8
0
 10
14.9042
 20
49.1552
 11
14.9356
 21
49.1468
  0
LINE
  8
0
 10
14.9356
 20
49.1468
 11
14.9676
 21
49.1417
  0
LINE
  8
0
 10
14.9676
 20
49.1417
 11
15
 21
49.14
  0
LINE
  8
0
 10
15
 20
49.14
 11
15
 21
47.9
  0
LINE
  8
0
 10
15
 20
47.9
 11
20
 21
47.9
  0
LINE
  8
0
 10
20
 20
47.9
 11
20
 21
51
  0
LINE
  8
0
 10
20
 20
51
 11
25
 21
51
  0
LINE
  8
0
 10
25
 20
51
 11
25
 21
49.76
  0
LINE
  8
0
 10
25
 20
49.76
 11
24.9676
 21
49.7583
  0
LINE
  8
0
 10
24.9676
 20
49.7583
 11
24.9356
 21
49.7532
  0
LINE
  8
0
 10
24.9356
 20
49.7532
 11
24.9042
 21
49.7448
  0
LINE
  8
0
 10
24.9042
 20
49.7448
 11
24.8739
 21
49.7332
  0
LINE
  8
0
 10
24.8739
 20
49.7332
 11
24.845
 21
49.7185
  0
LINE
  8
0
 10
24.845
 20
49.7185
 11
24.8178
 21
49.7008
  0
LINE
  8
0
 10
24.8178
 20
49.7008
 11
24.7926
 21
49.6804
  0
LINE
  8
0
 10
24.7926
 20
49.6804
 11
24.7696
 21
49.6574
  0
LINE
  8
0
 10
24.7696
 20
49.6574
 11
24.7492
 21
49.6322
  0
LINE
  8
0
 10
24.7492
 20
49.6322
 11
24.7315
 21
49.605
  0
LINE
  8
0
 10
24.7315
 20
49.605
 11
24.7168
 21
49.5761
  0
LINE
  8
0
 10
24.7168
 20
49.5761
 11
24.7052
 21
49.5458
  0
LINE
  8
0
 10
24.7052
 20
49.5458
 11
24.6968
 21
49.5145
  0
LINE
  8
0
 10
24.6968
 20
49.5145
 11
24.6917
 21
49.4824
  0
LINE
  8
0
 10
24.6917
 20
49.4824
 11
24.69
 21
49.45
  0
LINE
  8
0
 10
24.69
 20
49.45
 11
24.6917
 21
49.4176
  0
LINE
  8
0
 10
24.6917
 20
49.4176
 11
24.6968
 21
49.3856
  0
LINE
  8
0
 10
24.6968
 20
49.3856
 11
24.7052
 21
49.3542
  0
LINE
  8
0
 10
24.7052
 20
49.3542
 11
24.7168
 21
49.3239
  0
LINE
  8
0
 10
24.7168
 20
49.3239
 11
24.7315
 21
49.295
  0
LINE
  8
0
 10
24.7315
 20
49.295
 11
24.7492
 21
49.2678
  0
LINE
  8
0
 10
24.7492
 20
49.2678
 11
24.7696
 21
49.2426
  0
LINE
  8
0
 10
24.7696
 20
49.2426
 11
24.7926
 21
49.2196
  0
LINE
  8
0
 10
24.7926
 20
49.2196
 11
24.8178
 21
49.1992
  0
LINE
  8
0
 10
24.8178
 20
49.1992
 11
24.845
 21
49.1815
  0
LINE
  8
0
 10
24.845
 20
49.1815
 11
24.8739
 21
49.1668
  0
LINE
  8
0
 10
24.8739
 20
49.1668
 11
24.9042
 21
49.1552
  0
LINE
  8
0
 10
24.9042
 20
49.1552
 11
24.9356
 21
49.1468
  0
LINE
  8
0
 10
24.9356
 20
49.1468
 11
24.9676
 21
49.1417
  0
LINE
  8
0
 10
24.9676
 20
49.1417
 11
25
 21
49.14
  0
LINE
  8
0
 10
25
 20
49.14
 11
25
 21
47.9
  0
LINE
  8
0
 10
25
 20
47.9
 11
30
 21
47.9
  0
LINE
  8
0
 10
30
 20
47.9
 11
30
 21
54.05
  0
LINE
  8
0
 10
30
 20
54.05
 11
31.24
 21
54.05
  0
LINE
  8
0
 10
31.24
 20
54.05
 11
31.2417
 21
54.0176
  0
LINE
  8
0
 10
31.2417
 20
54.0176
 11
31.2468
 21
53.9855
  0
LINE
  8
0
 10
31.2468
 20
53.9855
 11
31.2552
 21
53.9542
  0
LINE
  8
0
 10
31.2552
 20
53.9542
 11
31.2668
 21
53.9239
  0
LINE
  8
0
 10
31.2668
 20
53.9239
 11
31.2815
 21
53.895
  0
LINE
  8
0
 10
31.2815
 20
53.895
 11
31.2992
 21
53.8678
  0
LINE
  8
0
 10
31.2992
 20
53.8678
 11
31.3196
 21
53.8426
  0
LINE
  8
0
 10
31.3196
 20
53.8426
 11
31.3426
 21
53.8196
  0
LINE
  8
0
 10
31.3426
 20
53.8196
 11
31.3678
 21
53.7992
  0
LINE
  8
0
 10
31.3678
 20
53.7992
 11
31.395
 21
53.7815
  0
LINE
  8
0
 10
31.395
 20
53.7815
 11
31.4239
 21
53.7668
  0
LINE
  8
0
 10
31.4239
 20
53.7668
 11
31.4542
 21
53.7552
  0
LINE
  8
0
 10
31.4542
 20
53.7552
 11
31.4855
 21
53.7468
  0
LINE
  8
0
 10
31.4855
 20
53.7468
 11
31.5176
 21
53.7417
  0
LINE
  8
0
 10
31.5176
 20
53.7417
 11
31.55
 21
53.74
  0
LINE
  8
0
 10
31.55
 20
53.74
 11
31.5824
 21
53.7417
  0
LINE
  8
0
 10
31.5824
 20
53.7417
 11
31.6144
 21
53.7468
  0
LINE
  8
0
 10
31.6144
 20
53.7468
 11
31.6458
 21
53.7552
  0
LINE
  8
0
 10
31.6458
 20
53.7552
 11
31.6761
 21
53.7668
  0
LINE
  8
0
 10
31.6761
 20
53.7668
 11
31.705
 21
53.7815
  0
LINE
  8
0
 10
31.705
 20
53.7815
 11
31.7322
 21
53.7992
  0
LINE
  8
0
 10
31.7322
 20
53.7992
 11
31.7574
 21
53.8196
  0
LINE
  8
0
 10
31.7574
 20
53.8196
 11
31.7804
 21
53.8426
  0
LINE
  8
0
 10
31.7804
 20
53.8426
 11
31.8008
 21
53.8678
  0
LINE
  8
0
 10
31.8008
 20
53.8678
 11
31.8185
 21
53.895
  0
LINE
  8
0
 10
31.8185
 20
53.895
 11
31.8332
 21
53.9239
  0
LINE
  8
0
 10
31.8332
 20
53.9239
 11
31.8448
 21
53.9542
  0
LINE
  8
0
 10
31.8448
 20
53.9542
 11
31.8532
 21
53.9855
  0
LINE
  8
0
 10
31.8532
 20
53.9855
 11
31.8583
 21
54.0176
  0
LINE
  8
0
 10
31.8583
 20
54.0176
 11
31.86
 21
54.05
  0
LINE
  8
0
 10
31.86
 20
54.05
 11
33.1
 21
54.05
  0
LINE
  8
0
 10
33.1
 20
54.05
 11
33.1
 21
57.1
  0
LINE
  8
0
 10
33.1
 20
57.1
 11
30
 21
57.1
  0
LINE
  8
0
 10
30
 20
57.1
 11
30
 21
60.15
  0
LINE
  8
0
 10
30
 20
60.15
 11
31.24
 21
60.15
  0
LINE
  8
0
 10
31.24
 20
60.15
 11
31.2417
 21
60.1176
  0
LINE
  8
0
 10
31.2417
 20
60.1176
 11
31.2468
 21
60.0856
  0
LINE
  8
0
 10
31.2468
 20
60.0856
 11
31.2552
 21
60.0542
  0
LINE
  8
0
 10
31.2552
 20
60.0542
 11
31.2668
 21
60.0239
  0
LINE
  8
0
 10
31.2668
 20
60.0239
 11
31.2815
 21
59.995
  0
LINE
  8
0
 10
31.2815
 20
59.995
 11
31.2992
 21
59.9678
  0
LINE
  8
0
 10
31.2992
 20
59.9678
 11
31.3196
 21
59.9426
  0
LINE
  8
0
 10
31.3196
 20
59.9426
 11
31.3426
 21
59.9196
  0
LINE
  8
0
 10
31.3426
 20
59.9196
 11
31.3678
 21
59.8992
  0
LINE
  8
0
 10
31.3678
 20
59.8992
 11
31.395
 21
59.8815
  0
LINE
  8
0
 10
31.395
 20
59.8815
 11
31.4239
 21
59.8668
  0
LINE
  8
0
 10
31.4239
 20
59.8668
 11
31.4542
 21
59.8552
  0
LINE
  8
0
 10
31.4542
 20
59.8552
 11
31.4855
 21
59.8468
  0
LINE
  8
0
 10
31.4855
 20
59.8468
 11
31.5176
 21
59.8417
  0
LINE
  8
0
 10
31.5176
 20
59.8417
 11
31.55
 21
59.84
  0
LINE
  8
0
 10
31.55
 20
59.84
 11
31.5824
 21
59.8417
  0
LINE
  8
0
 10
31.5824
 20
59.8417
 11
31.6144
 21
59.8468
  0
LINE
  8
0
 10
31.6144
 20
59.8468
 11
31.6458
 21
59.8552
  0
LINE
  8
0
 10
31.6458
 20
59.8552
 11
31.6761
 21
59.8668
  0
LINE
  8
0
 10
31.6761
 20
59.8668
 11
31.705
 21
59.8815
  0
LINE
  8
0
 10
31.705
 20
59.8815
 11
31.7322
 21
59.8992
  0
LINE
  8
0
 10
31.7322
 20
59.8992
 11
31.7574
 21
59.9196
  0
LINE
  8
0
 10
31.7574
 20
59.9196
 11
31.7804
 21
59.9426
  0
LINE
  8
0
 10
31.7804
 20
59.9426
 11
31.8008
 21
59.9678
  0
LINE
  8
0
 10
31.8008
 20
59.9678
 11
31.8185
 21
59.995
  0
LINE
  8
0
 10
31.8185
 20
59.995
 11
31.8332
 21
60.0239
  0
LINE
  8
0
 10
31.8332
 20
60.0239
 11
31.8448
 21
60.0542
  0
LINE
  8
0
 10
31.8448
 20
60.0542
 11
31.8532
 21
60.0856
  0
LINE
  8
0
 10
31.8532
 20
60.0856
 11
31.8583
 21
60.1176
  0
LINE
  8
0
 10
31.8583
 20
60.1176
 11
31.86
 21
60.15
  0
LINE
  8
0
 10
31.86
 20
60.15
 11
33.1
 21
60.15
  0
LINE
  8
0
 10
33.1
 20
60.15
 11
33.1
 21
63.2
  0
LINE
  8
0
 10
33.1
 20
63.2
 11
30
 21
63.2
  0
LINE
  8
0
 10
30
 20
63.2
 11
30
 21
66.25
  0
LINE
  8
0
 10
30
 20
66.25
 11
31.24
 21
66.25
  0
LINE
  8
0
 10
31.24
 20
66.25
 11
31.2417
 21
66.2176
  0
LINE
  8
0
 10
31.2417
 20
66.2176
 11
31.2468
 21
66.1855
  0
LINE
  8
0
 10
31.2468
 20
66.1855
 11
31.2552
 21
66.1542
  0
LINE
  8
0
 10
31.2552
 20
66.1542
 11
31.2668
 21
66.1239
  0
LINE
  8
0
 10
31.2668
 20
66.1239
 11
31.2815
 21
66.095
  0
LINE
  8
0
 10
31.2815
 20
66.095
 11
31.2992
 21
66.0678
  0
LINE
  8
0
 10
31.2992
 20
66.0678
 11
31.3196
 21
66.0426
  0
LINE
  8
0
 10
31.3196
 20
66.0426
 11
31.3426
 21
66.0196
  0
LINE
  8
0
 10
31.3426
 20
66.0196
 11
31.3678
 21
65.9992
  0
LINE
  8
0
 10
31.3678
 20
65.9992
 11
31.395
 21
65.9815
  0
LINE
  8
0
 10
31.395
 20
65.9815
 11
31.4239
 21
65.9668
  0
LINE
  8
0
 10
31.4239
 20
65.9668
 11
31.4542
 21
65.9552
  0
LINE
  8
0
 10
31.4542
 20
65.9552
 11
31.4855
 21
65.9468
  0
LINE
  8
0
 10
31.4855
 20
65.9468
 11
31.5176
 21
65.9417
  0
LINE
  8
0
 10
31.5176
 20
65.9417
 11
31.55
 21
65.94
  0
LINE
  8
0
 10
31.55
 20
65.94
 11
31.5824
 21
65.9417
  0
LINE
  8
0
 10
31.5824
 20
65.9417
 11
31.6144
 21
65.9468
  0
LINE
  8
0
 10
31.6144
 20
65.9468
 11
31.6458
 21
65.9552
  0
LINE
  8
0
 10
31.6458
 20
65.9552
 11
31.6761
 21
65.9668
  0
LINE
  8
0
 10
31.6761
 20
65.9668
 11
31.705
 21
65.9815
  0
LINE
  8
0
 10
31.705
 20
65.9815
 11
31.7322
 21
65.9992
  0
LINE
  8
0
 10
31.7322
 20
65.9992
 11
31.7574
 21
66.0196
  0
LINE
  8
0
 10
31.7574
 20
66.0196
 11
31.7804
 21
66.0426
  0
LINE
  8
0
 10
31.7804
 20
66.0426
 11
31.8008
 21
66.0678
  0
LINE
  8
0
 10
31.8008
 20
66.0678
 11
31.8185
 21
66.095
  0
LINE
  8
0
 10
31.8185
 20
66.095
 11
31.8332
 21
66.1239
  0
LINE
  8
0
 10
31.8332
 20
66.1239
 11
31.8448
 21
66.1542
  0
LINE
  8
0
 10
31.8448
 20
66.1542
 11
31.8532
 21
66.1855
  0
LINE
  8
0
 10
31.8532
 20
66.1855
 11
31.8583
 21
66.2176
  0
LINE
  8
0
 10
31.8583
 20
66.2176
 11
31.86
 21
66.25
  0
LINE
  8
0
 10
31.86
 20
66.25
 11
33.1
 21
66.25
  0
LINE
  8
0
 10
33.1
 20
66.25
 11
33.1
 21
69.3
  0
LINE
  8
0
 10
33.1
 20
69.3
 11
25
 21
69.3
  0
LINE
  8
0
 10
25
 20
69.3
 11
25
 21
70.54
  0
LINE
  8
0
 10
25
 20
70.54
 11
25.0324
 21
70.5417
  0
LINE
  8
0
 10
25.0324
 20
70.5417
 11
25.0644
 21
70.5468
  0
LINE
  8
0
 10
25.0644
 20
70.5468
 11
25.0958
 21
70.5552
  0
LINE
  8
0
 10
25.0958
 20
70.5552
 11
25.1261
 21
70.5668
  0
LINE
  8
0
 10
25.1261
 20
70.5668
 11
25.155
 21
70.5815
  0
LINE
  8
0
 10
25.155
 20
70.5815
 11
25.1822
 21
70.5992
  0
LINE
  8
0
 10
25.1822
 20
70.5992
 11
25.2074
 21
70.6196
  0
LINE
  8
0
 10
25.2074
 20
70.6196
 11
25.2304
 21
70.6426
  0
LINE
  8
0
 10
25.2304
 20
70.6426
 11
25.2508
 21
70.6678
  0
LINE
  8
0
 10
25.2508
 20
70.6678
 11
25.2685
 21
70.695
  0
LINE
  8
0
 10
25.2685
 20
70.695
 11
25.2832
 21
70.7239
  0
LINE
  8
0
 10
25.2832
 20
70.7239
 11
25.2948
 21
70.7542
  0
LINE
  8
0
 10
25.2948
 20
70.7542
 11
25.3032
 21
70.7855
  0
LINE
  8
0
 10
25.3032
 20
70.7855
 11
25.3083
 21
70.8176
  0
LINE
  8
0
 10
25.3083
 20
70.8176
 11
25.31
 21
70.85
  0
LINE
  8
0
 10
25.31
 20
70.85
 11
25.3083
 21
70.8824
  0
LINE
  8
0
 10
25.3083
 20
70.8824
 11
25.3032
 21
70.9144
  0
LINE
  8
0
 10
25.3032
 20
70.9144
 11
25.2948
 21
70.9458
  0
LINE
  8
0
 10
25.2948
 20
70.9458
 11
25.2832
 21
70.9761
  0
LINE
  8
0
 10
25.2832
 20
70.9761
 11
25.2685
 21
71.005
  0
LINE
  8
0
 10
25.2685
 20
71.005
 11
25.2508
 21
71.0322
  0
LINE
  8
0
 10
25.2508
 20
71.0322
 11
25.2304
 21
71.0574
  0
LINE
  8
0
 10
25.2304
 20
71.0574
 11
25.2074
 21
71.0804
  0
LINE
  8
0
 10
25.2074
 20
71.0804
 11
25.1822
 21
71.1008
  0
LINE
  8
0
 10
25.1822
 20
71.1008
 11
25.155
 21
71.1185
  0
LINE
  8
0
 10
25.155
 20
71.1185
 11
25.1261
 21
71.1332
  0
LINE
  8
0
 10
25.1261
 20
71.1332
 11
25.0958
 21
71.1448
  0
LINE
  8
0
 10
25.0958
 20
71.1448
 11
25.0644
 21
71.1532
  0
LINE
  8
0
 10
25.0644
 20
71.1532
 11
25.0324
 21
71.1583
  0
LINE
  8
0
 10
25.0324
 20
71.1583
 11
25
 21
71.16
  0
LINE
  8
0
 10
25
 20
71.16
 11
25
 21
72.4
  0
LINE
  8
0
 10
25
 20
72.4
 11
20
 21
72.4
  0
LINE
  8
0
 10
20
 20
72.4
 11
20
 21
69.3
  0
LINE
  8
0
 10
20
 20
69.3
 11
15
 21
69.3
  0
LINE
  8
0
 10
15
 20
69.3
 11
15
 21
70.54
  0
LINE
  8
0
 10
15
 20
70.54
 11
15.0324
 21
70.5417
  0
LINE
  8
0
 10
15.0324
 20
70.5417
 11
15.0644
 21
70.5468
  0
LINE
  8
0
 10
15.0644
 20
70.5468
 11
15.0958
 21
70.5552
  0
LINE
  8
0
 10
15.0958
 20
70.5552
 11
15.1261
 21
70.5668
  0
LINE
  8
0
 10
15.1261
 20
70.5668
 11
15.155
 21
70.5815
  0
LINE
  8
0
 10
15.155
 20
70.5815
 11
15.1822
 21
70.5992
  0
LINE
  8
0
 10
15.1822
 20
70.5992
 11
15.2074
 21
70.6196
  0
LINE
  8
0
 10
15.2074
 20
70.6196
 11
15.2304
 21
70.6426
  0
LINE
  8
0
 10
15.2304
 20
70.6426
 11
15.2508
 21
70.6678
  0
LINE
  8
0
 10
15.2508
 20
70.6678
 11
15.2685
 21
70.695
  0
LINE
  8
0
 10
15.2685
 20
70.695
 11
15.2832
 21
70.7239
  0
LINE
  8
0
 10
15.2832
 20
70.7239
 11
15.2948
 21
70.7542
  0
LINE
  8
0
 10
15.2948
 20
70.7542
 11
15.3032
 21
70.7855
  0
LINE
  8
0
 10
15.3032
 20
70.7855
 11
15.3083
 21
70.8176
  0
LINE
  8
0
 10
15.3083
 20
70.8176
 11
15.31
 21
70.85
  0
LINE
  8
0
 10
15.31
 20
70.85
 11
15.3083
 21
70.8824
  0
LINE
  8
0
 10
15.3083
 20
70.8824
 11
15.3032
 21
70.9144
  0
LINE
  8
0
 10
15.3032
 20
70.9144
 11
15.2948
 21
70.9458
  0
LINE
  8
0
 10
15.2948
 20
70.9458
 11
15.2832
 21
70.9761
  0
LINE
  8
0
 10
15.2832
 20
70.9761
 11
15.2685
 21
71.005
  0
LINE
  8
0
 10
15.2685
 20
71.005
 11
15.2508
 21
71.0322
  0
LINE
  8
0
 10
15.2508
 20
71.0322
 11
15.2304
 21
71.0574
  0
LINE
  8
0
 10
15.2304
 20
71.0574
 11
15.2074
 21
71.0804
  0
LINE
  8
0
 10
15.2074
 20
71.0804
 11
15.1822
 21
71.1008
  0
LINE
  8
0
 10
15.1822
 20
71.1008
 11
15.155
 21
71.1185
  0
LINE
  8
0
 10
15.155
 20
71.1185
 11
15.1261
 21
71.1332
  0
LINE
  8
0
 10
15.1261
 20
71.1332
 11
15.0958
 21
71.1448
  0
LINE
  8
0
 10
15.0958
 20
71.1448
 11
15.0644
 21
71.1532
  0
LINE
  8
0
 10
15.0644
 20
71.1532
 11
15.0324
 21
71.1583
  0
LINE
  8
0
 10
15.0324
 20
71.1583
 11
15
 21
71.16
  0
LINE
  8
0
 10
15
 20
71.16
 11
15
 21
72.4
  0
LINE
  8
0
 10
15
 20
72.4
 11
10
 21
72.4
  0
LINE
  8
0
 10
10
 20
72.4
 11
10
 21
69.3
  0
LINE
  8
0
 10
10
 20
69.3
 11
5
 21
69.3
  0
LINE
  8
0
 10
5
 20
69.3
 11
5
 21
70.54
  0
LINE
  8
0
 10
5
 20
70.54
 11
5.03239
 21
70.5417
  0
LINE
  8
0
 10
5.03239
 20
70.5417
 11
5.06444
 21
70.5468
  0
LINE
  8
0
 10
5.06444
 20
70.5468
 11
5.09579
 21
70.5552
  0
LINE
  8
0
 10
5.09579
 20
70.5552
 11
5.12608
 21
70.5668
  0
LINE
  8
0
 10
5.12608
 20
70.5668
 11
5.155
 21
70.5815
  0
LINE
  8
0
 10
5.155
 20
70.5815
 11
5.18221
 21
70.5992
  0
LINE
  8
0
 10
5.18221
 20
70.5992
 11
5.20743
 21
70.6196
  0
LINE
  8
0
 10
5.20743
 20
70.6196
 11
5.23036
 21
70.6426
  0
LINE
  8
0
 10
5.23036
 20
70.6426
 11
5.25079
 21
70.6678
  0
LINE
  8
0
 10
5.25079
 20
70.6678
 11
5.26846
 21
70.695
  0
LINE
  8
0
 10
5.26846
 20
70.695
 11
5.28319
 21
70.7239
  0
LINE
  8
0
 10
5.28319
 20
70.7239
 11
5.29482
 21
70.7542
  0
LINE
  8
0
 10
5.29482
 20
70.7542
 11
5.30322
 21
70.7855
  0
LINE
  8
0
 10
5.30322
 20
70.7855
 11
5.30829
 21
70.8176
  0
LINE
  8
0
 10
5.30829
 20
70.8176
 11
5.31
 21
70.85
  0
LINE
  8
0
 10
5.31
 20
70.85
 11
5.30829
 21
70.8824
  0
LINE
  8
0
 10
5.30829
 20
70.8824
 11
5.30322
 21
70.9144
  0
LINE
  8
0
 10
5.30322
 20
70.9144
 11
5.29482
 21
70.9458
  0
LINE
  8
0
 10
5.29482
 20
70.9458
 11
5.28319
 21
70.9761
  0
LINE
  8
0
 10
5.28319
 20
70.9761
 11
5.26846
 21
71.005
  0
LINE
  8
0
 10
5.26846
 20
71.005
 11
5.25079
 21
71.0322
  0
LINE
  8
0
 10
5.25079
 20
71.0322
 11
5.23036
 21
71.0574
  0
LINE
  8
0
 10
5.23036
 20
71.0574
 11
5.20743
 21
71.0804
  0
LINE
  8
0
 10
5.20743
 20
71.0804
 11
5.18221
 21
71.1008
  0
LINE
  8
0
 10
5.18221
 20
71.1008
 11
5.155
 21
71.1185
  0
LINE
  8
0
 10
5.155
 20
71.1185
 11
5.12608
 21
71.1332
  0
LINE
  8
0
 10
5.12608
 20
71.1332
 11
5.09579
 21
71.1448
  0
LINE
  8
0
 10
5.09579
 20
71.1448
 11
5.06444
 21
71.1532
  0
LINE
  8
0
 10
5.06444
 20
71.1532
 11
5.03239
 21
71.1583
  0
LINE
  8
0
 10
5.03239
 20
71.1583
 11
5
 21
71.16
  0
LINE
  8
0
 10
5
 20
71.16
 11
5
 21
72.4
  0
LINE
  8
0
 10
5
 20
72.4
 11
0
 21
72.4
  0
LINE
  8
0
 10
0
 20
72.4
 11
0
 21
66.25
  0
LINE
  8
0
 10
0
 20
66.25
 11
-1.23999
 21
66.25
  0
LINE
  8
0
 10
-1.23999
 20
66.25
 11
-1.24168
 21
66.2824
  0
LINE
  8
0
 10
-1.24168
 20
66.2824
 11
-1.24677
 21
66.3144
  0
LINE
  8
0
 10
-1.24677
 20
66.3144
 11
-1.25516
 21
66.3458
  0
LINE
  8
0
 10
-1.25516
 20
66.3458
 11
-1.26678
 21
66.3761
  0
LINE
  8
0
 10
-1.26678
 20
66.3761
 11
-1.28152
 21
66.405
  0
LINE
  8
0
 10
-1.28152
 20
66.405
 11
-1.29919
 21
66.4322
  0
LINE
  8
0
 10
-1.29919
 20
66.4322
 11
-1.31961
 21
66.4574
  0
LINE
  8
0
 10
-1.31961
 20
66.4574
 11
-1.34256
 21
66.4804
  0
LINE
  8
0
 10
-1.34256
 20
66.4804
 11
-1.36777
 21
66.5008
  0
LINE
  8
0
 10
-1.36777
 20
66.5008
 11
-1.39499
 21
66.5185
  0
LINE
  8
0
 10
-1.39499
 20
66.5185
 11
-1.4239
 21
66.5332
  0
LINE
  8
0
 10
-1.4239
 20
66.5332
 11
-1.45419
 21
66.5448
  0
LINE
  8
0
 10
-1.45419
 20
66.5448
 11
-1.48553
 21
66.5532
  0
LINE
  8
0
 10
-1.48553
 20
66.5532
 11
-1.51758
 21
66.5583
  0
LINE
  8
0
 10
-1.51758
 20
66.5583
 11
-1.54999
 21
66.56
  0
LINE
  8
0
 10
-1.54999
 20
66.56
 11
-1.5824
 21
66.5583
  0
LINE
  8
0
 10
-1.5824
 20
66.5583
 11
-1.61444
 21
66.5532
  0
LINE
  8
0
 10
-1.61444
 20
66.5532
 11
-1.64578
 21
66.5448
  0
LINE
  8
0
 10
-1.64578
 20
66.5448
 11
-1.67607
 21
66.5332
  0
LINE
  8
0
 10
-1.67607
 20
66.5332
 11
-1.70499
 21
66.5185
  0
LINE
  8
0
 10
-1.70499
 20
66.5185
 11
-1.73219
 21
66.5008
  0
LINE
  8
0
 10
-1.73219
 20
66.5008
 11
-1.75742
 21
66.4804
  0
LINE
  8
0
 10
-1.75742
 20
66.4804
 11
-1.78036
 21
66.4574
  0
LINE
  8
0
 10
-1.78036
 20
66.4574
 11
-1.80078
 21
66.4322
  0
LINE
  8
0
 10
-1.80078
 20
66.4322
 11
-1.81845
 21
66.405
  0
LINE
  8
0
 10
-1.81845
 20
66.405
 11
-1.83319
 21
66.3761
  0
LINE
  8
0
 10
-1.83319
 20
66.3761
 11
-1.84482
 21
66.3458
  0
LINE
  8
0
 10
-1.84482
 20
66.3458
 11
-1.85321
 21
66.3144
  0
LINE
  8
0
 10
-1.85321
 20
66.3144
 11
-1.85829
 21
66.2824
  0
LINE
  8
0
 10
-1.85829
 20
66.2824
 11
-1.85999
 21
66.25
  0
LINE
  8
0
 10
-1.85999
 20
66.25
 11
-3.09999
 21
66.25
  0
LINE
  8
0
 10
-3.09999
 20
66.25
 11
-3.09999
 21
63.2
  0
LINE
  8
0
 10
-3.09999
 20
63.2
 11
0
 21
63.2
  0
LINE
  8
0
 10
0
 20
63.2
 11
0
 21
60.15
  0
LINE
  8
0
 10
0
 20
60.15
 11
-1.23999
 21
60.15
  0
LINE
  8
0
 10
-1.23999
 20
60.15
 11
-1.24168
 21
60.1824
  0
LINE
  8
0
 10
-1.24168
 20
60.1824
 11
-1.24677
 21
60.2144
  0
LINE
  8
0
 10
-1.24677
 20
60.2144
 11
-1.25516
 21
60.2458
  0
LINE
  8
0
 10
-1.25516
 20
60.2458
 11
-1.26678
 21
60.2761
  0
LINE
  8
0
 10
-1.26678
 20
60.2761
 11
-1.28152
 21
60.305
  0
LINE
  8
0
 10
-1.28152
 20
60.305
 11
-1.29919
 21
60.3322
  0
LINE
  8
0
 10
-1.29919
 20
60.3322
 11
-1.31961
 21
60.3574
  0
LINE
  8
0
 10
-1.31961
 20
60.3574
 11
-1.34256
 21
60.3804
  0
LINE
  8
0
 10
-1.34256
 20
60.3804
 11
-1.36777
 21
60.4008
  0
LINE
  8
0
 10
-1.36777
 20
60.4008
 11
-1.39499
 21
60.4185
  0
LINE
  8
0
 10
-1.39499
 20
60.4185
 11
-1.4239
 21
60.4332
  0
LINE
  8
0
 10
-1.4239
 20
60.4332
 11
-1.45419
 21
60.4448
  0
LINE
  8
0
 10
-1.45419
 20
60.4448
 11
-1.48553
 21
60.4532
  0
LINE
  8
0
 10
-1.48553
 20
60.4532
 11
-1.51758
 21
60.4583
  0
LINE
  8
0
 10
-1.51758
 20
60.4583
 11
-1.54999
 21
60.46
  0
LINE
  8
0
 10
-1.54999
 20
60.46
 11
-1.5824
 21
60.4583
  0
LINE
  8
0
 10
-1.5824
 20
60.4583
 11
-1.61444
 21
60.4532
  0
LINE
  8
0
 10
-1.61444
 20
60.4532
 11
-1.64578
 21
60.4448
  0
LINE
  8
0
 10
-1.64578
 20
60.4448
 11
-1.67607
 21
60.4332
  0
LINE
  8
0
 10
-1.67607
 20
60.4332
 11
-1.70499
 21
60.4185
  0
LINE
  8
0
 10
-1.70499
 20
60.4185
 11
-1.73219
 21
60.4008
  0
LINE
  8
0
 10
-1.73219
 20
60.4008
 11
-1.75742
 21
60.3804
  0
LINE
  8
0
 10
-1.75742
 20
60.3804
 11
-1.78036
 21
60.3574
  0
LINE
  8
0
 10
-1.78036
 20
60.3574
 11
-1.80078
 21
60.3322
  0
LINE
  8
0
 10
-1.80078
 20
60.3322
 11
-1.81845
 21
60.305
  0
LINE
  8
0
 10
-1.81845
 20
60.305
 11
-1.83319
 21
60.2761
  0
LINE
  8
0
 10
-1.83319
 20
60.2761
 11
-1.84482
 21
60.2458
  0
LINE
  8
0
 10
-1.84482
 20
60.2458
 11
-1.85321
 21
60.2144
  0
LINE
  8
0
 10
-1.85321
 20
60.2144
 11
-1.85829
 21
60.1824
  0
LINE
  8
0
 10
-1.85829
 20
60.1824
 11
-1.85999
 21
60.15
  0
LINE
  8
0
 10
-1.85999
 20
60.15
 11
-3.09999
 21
60.15
  0
LINE
  8
0
 10
-3.09999
 20
60.15
 11
-3.09999
 21
57.1
  0
LINE
  8
0
 10
-3.09999
 20
57.1
 11
0
 21
57.1
  0
LINE
  8
0
 10
0
 20
57.1
 11
0
 21
54.05
  0
LINE
  8
0
 10
0
 20
54.05
 11
-1.23999
 21
54.05
  0
LINE
  8
0
 10
-1.23999
 20
54.05
 11
-1.24168
 21
54.0824
  0
LINE
  8
0
 10
-1.24168
 20
54.0824
 11
-1.24677
 21
54.1144
  0
LINE
  8
0
 10
-1.24677
 20
54.1144
 11
-1.25516
 21
54.1458
  0
LINE
  8
0
 10
-1.25516
 20
54.1458
 11
-1.26678
 21
54.1761
  0
LINE
  8
0
 10
-1.26678
 20
54.1761
 11
-1.28152
 21
54.205
  0
LINE
  8
0
 10
-1.28152
 20
54.205
 11
-1.29919
 21
54.2322
  0
LINE
  8
0
 10
-1.29919
 20
54.2322
 11
-1.31961
 21
54.2574
  0
LINE
  8
0
 10
-1.31961
 20
54.2574
 11
-1.34256
 21
54.2804
  0
LINE
  8
0
 10
-1.34256
 20
54.2804
 11
-1.36777
 21
54.3008
  0
LINE
  8
0
 10
-1.36777
 20
54.3008
 11
-1.39499
 21
54.3185
  0
LINE
  8
0
 10
-1.39499
 20
54.3185
 11
-1.4239
 21
54.3332
  0
LINE
  8
0
 10
-1.4239
 20
54.3332
 11
-1.45419
 21
54.3448
  0
LINE
  8
0
 10
-1.45419
 20
54.3448
 11
-1.48553
 21
54.3532
  0
LINE
  8
0
 10
-1.48553
 20
54.3532
 11
-1.51758
 21
54.3583
  0
LINE
  8
0
 10
-1.51758
 20
54.3583
 11
-1.54999
 21
54.36
  0
LINE
  8
0
 10
-1.54999
 20
54.36
 11
-1.5824
 21
54.3583
  0
LINE
  8
0
 10
-1.5824
 20
54.3583
 11
-1.61444
 21
54.3532
  0
LINE
  8
0
 10
-1.61444
 20
54.3532
 11
-1.64578
 21
54.3448
  0
LINE
  8
0
 10
-1.64578
 20
54.3448
 11
-1.67607
 21
54.3332
  0
LINE
  8
0
 10
-1.67607
 20
54.3332
 11
-1.70499
 21
54.3185
  0
LINE
  8
0
 10
-1.70499
 20
54.3185
 11
-1.73219
 21
54.3008
  0
LINE
  8
0
 10
-1.73219
 20
54.3008
 11
-1.75742
 21
54.2804
  0
LINE
  8
0
 10
-1.75742
 20
54.2804
 11
-1.78036
 21
54.2574
  0
LINE
  8
0
 10
-1.78036
 20
54.2574
 11
-1.80078
 21
54.2322
  0
LINE
  8
0
 10
-1.80078
 20
54.2322
 11
-1.81845
 21
54.205
  0
LINE
  8
0
 10
-1.81845
 20
54.205
 11
-1.83319
 21
54.1761
  0
LINE
  8
0
 10
-1.83319
 20
54.1761
 11
-1.84482
 21
54.1458
  0
LINE
  8
0
 10
-1.84482
 20
54.1458
 11
-1.85321
 21
54.1144
  0
LINE
  8
0
 10
-1.85321
 20
54.1144
 11
-1.85829
 21
54.0824
  0
LINE
  8
0
 10
-1.85829
 20
54.0824
 11
-1.85999
 21
54.05
  0
LINE
  8
0
 10
-1.85999
 20
54.05
 11
-3.09999
 21
54.05
  0
LINE
  8
0
 10
-3.09999
 20
54.05
 11
-3.09999
 21
51
  0
LINE
  8
0
 10
-3.09999
 20
51
 11
5
 21
51
  0
LINE
  8
0
 10
5
 20
51
 11
5
 21
49.76
  0
LINE
  8
0
 10
5
 20
49.76
 11
4.96761
 21
49.7583
  0
LINE
  8
0
 10
4.96761
 20
49.7583
 11
4.93556
 21
49.7532
  0
LINE
  8
0
 10
4.93556
 20
49.7532
 11
4.90421
 21
49.7448
  0
LINE
  8
0
 10
4.90421
 20
49.7448
 11
4.87392
 21
49.7332
  0
LINE
  8
0
 10
4.87392
 20
49.7332
 11
4.845
 21
49.7185
  0
LINE
  8
0
 10
4.845
 20
49.7185
 11
4.81779
 21
49.7008
  0
LINE
  8
0
 10
4.81779
 20
49.7008
 11
4.79257
 21
49.6804
  0
LINE
  8
0
 10
4.79257
 20
49.6804
 11
4.76964
 21
49.6574
  0
LINE
  8
0
 10
4.76964
 20
49.6574
 11
4.74921
 21
49.6322
  0
LINE
  8
0
 10
4.74921
 20
49.6322
 11
4.73154
 21
49.605
  0
LINE
  8
0
 10
4.73154
 20
49.605
 11
4.71681
 21
49.5761
  0
LINE
  8
0
 10
4.71681
 20
49.5761
 11
4.70518
 21
49.5458
  0
LINE
  8
0
 10
4.70518
 20
49.5458
 11
4.69678
 21
49.5145
  0
LINE
  8
0
 10
4.69678
 20
49.5145
 11
4.69171
 21
49.4824
  0
LINE
  8
0
 10
4.69171
 20
49.4824
 11
4.69
 21
49.45
  0
LINE
  8
0
 10
4.69
 20
49.45
 11
4.69171
 21
49.4176
  0
LINE
  8
0
 10
4.69171
 20
49.4176
 11
4.69678
 21
49.3856
  0
LINE
  8
0
 10
4.69678
 20
49.3856
 11
4.70518
 21
49.3542
  0
LINE
  8
0
 10
4.70518
 20
49.3542
 11
4.71681
 21
49.3239
  0
LINE
  8
0
 10
4.71681
 20
49.3239
 11
4.73154
 21
49.295
  0
LINE
  8
0
 10
4.73154
 20
49.295
 11
4.74921
 21
49.2678
  0
LINE
  8
0
 10
4.74921
 20
49.2678
 11
4.76964
 21
49.2426
  0
LINE
  8
0
 10
4.76964
 20
49.2426
 11
4.79257
 21
49.2196
  0
LINE
  8
0
 10
4.79257
 20
49.2196
 11
4.81779
 21
49.1992
  0
LINE
  8
0
 10
4.81779
 20
49.1992
 11
4.845
 21
49.1815
  0
LINE
  8
0
 10
4.845
 20
49.1815
 11
4.87392
 21
49.1668
  0
LINE
  8
0
 10
4.87392
 20
49.1668
 11
4.90421
 21
49.1552
  0
LINE
  8
0
 10
4.90421
 20
49.1552
 11
4.93556
 21
49.1468
  0
LINE
  8
0
 10
4.93556
 20
49.1468
 11
4.96761
 21
49.1417
  0
LINE
  8
0
 10
4.96761
 20
49.1417
 11
5
 21
49.14
  0
LINE
  8
0
 10
5
 20
49.14
 11
5
 21
47.9
  0
LINE
  8
0
 10
5
 20
47.9
 11
10
 21
47.9
  0
LINE
  8
0
 10
10
 20
47.9
 11
10
 21
51
  0
LINE
  8
0
 10
46.1
 20
0
 11
49.15
 21
0
  0
LINE
  8
0
 10
49.15
 20
0
 11
49.15
 21
-1.23999
  0
LINE
  8
0
 10
49.15
 20
-1.23999
 11
49.1176
 21
-1.24168
  0
LINE
  8
0
 10
49.1176
 20
-1.24168
 11
49.0856
 21
-1.24677
  0
LINE
  8
0
 10
49.0856
 20
-1.24677
 11
49.0542
 21
-1.25516
  0
LINE
  8
0
 10
49.0542
 20
-1.25516
 11
49.0239
 21
-1.26678
  0
LINE
  8
0
 10
49.0239
 20
-1.26678
 11
48.995
 21
-1.28152
  0
LINE
  8
0
 10
48.995
 20
-1.28152
 11
48.9678
 21
-1.29919
  0
LINE
  8
0
 10
48.9678
 20
-1.29919
 11
48.9426
 21
-1.31961
  0
LINE
  8
0
 10
48.9426
 20
-1.31961
 11
48.9196
 21
-1.34256
  0
LINE
  8
0
 10
48.9196
 20
-1.34256
 11
48.8992
 21
-1.36777
  0
LINE
  8
0
 10
48.8992
 20
-1.36777
 11
48.8815
 21
-1.39499
  0
LINE
  8
0
 10
48.8815
 20
-1.39499
 11
48.8668
 21
-1.4239
  0
LINE
  8
0
 10
48.8668
 20
-1.4239
 11
48.8552
 21
-1.45419
  0
LINE
  8
0
 10
48.8552
 20
-1.45419
 11
48.8468
 21
-1.48553
  0
LINE
  8
0
 10
48.8468
 20
-1.48553
 11
48.8417
 21
-1.51758
  0
LINE
  8
0
 10
48.8417
 20
-1.51758
 11
48.84
 21
-1.54999
  0
LINE
  8
0
 10
48.84
 20
-1.54999
 11
48.8417
 21
-1.5824
  0
LINE
  8
0
 10
48.8417
 20
-1.5824
 11
48.8468
 21
-1.61444
  0
LINE
  8
0
 10
48.8468
 20
-1.61444
 11
48.8552
 21
-1.64578
  0
LINE
  8
0
 10
48.8552
 20
-1.64578
 11
48.8668
 21
-1.67607
  0
LINE
  8
0
 10
48.8668
 20
-1.67607
 11
48.8815
 21
-1.70499
  0
LINE
  8
0
 10
48.8815
 20
-1.70499
 11
48.8992
 21
-1.73219
  0
LINE
  8
0
 10
48.8992
 20
-1.73219
 11
48.9196
 21
-1.75742
  0
LINE
  8
0
 10
48.9196
 20
-1.75742
 11
48.9426
 21
-1.78036
  0
LINE
  8
0
 10
48.9426
 20
-1.78036
 11
48.9678
 21
-1.80078
  0
LINE
  8
0
 10
48.9678
 20
-1.80078
 11
48.995
 21
-1.81845
  0
LINE
  8
0
 10
48.995
 20
-1.81845
 11
49.0239
 21
-1.83319
  0
LINE
  8
0
 10
49.0239
 20
-1.83319
 11
49.0542
 21
-1.84482
  0
LINE
  8
0
 10
49.0542
 20
-1.84482
 11
49.0856
 21
-1.85321
  0
LINE
  8
0
 10
49.0856
 20
-1.85321
 11
49.1176
 21
-1.85829
  0
LINE
  8
0
 10
49.1176
 20
-1.85829
 11
49.15
 21
-1.85999
  0
LINE
  8
0
 10
49.15
 20
-1.85999
 11
49.15
 21
-3.09999
  0
LINE
  8
0
 10
49.15
 20
-3.09999
 11
52.2
 21
-3.09999
  0
LINE
  8
0
 10
52.2
 20
-3.09999
 11
52.2
 21
0
  0
LINE
  8
0
 10
52.2
 20
0
 11
55.25
 21
0
  0
LINE
  8
0
 10
55.25
 20
0
 11
55.25
 21
-1.23999
  0
LINE
  8
0
 10
55.25
 20
-1.23999
 11
55.2176
 21
-1.24168
  0
LINE
  8
0
 10
55.2176
 20
-1.24168
 11
55.1855
 21
-1.24677
  0
LINE
  8
0
 10
55.1855
 20
-1.24677
 11
55.1542
 21
-1.25516
  0
LINE
  8
0
 10
55.1542
 20
-1.25516
 11
55.1239
 21
-1.26678
  0
LINE
  8
0
 10
55.1239
 20
-1.26678
 11
55.095
 21
-1.28152
  0
LINE
  8
0
 10
55.095
 20
-1.28152
 11
55.0678
 21
-1.29919
  0
LINE
  8
0
 10
55.0678
 20
-1.29919
 11
55.0426
 21
-1.31961
  0
LINE
  8
0
 10
55.0426
 20
-1.31961
 11
55.0196
 21
-1.34256
  0
LINE
  8
0
 10
55.0196
 20
-1.34256
 11
54.9992
 21
-1.36777
  0
LINE
  8
0
 10
54.9992
 20
-1.36777
 11
54.9815
 21
-1.39499
  0
LINE
  8
0
 10
54.9815
 20
-1.39499
 11
54.9668
 21
-1.4239
  0
LINE
  8
0
 10
54.9668
 20
-1.4239
 11
54.9552
 21
-1.45419
  0
LINE
  8
0
 10
54.9552
 20
-1.45419
 11
54.9468
 21
-1.48553
  0
LINE
  8
0
 10
54.9468
 20
-1.48553
 11
54.9417
 21
-1.51758
  0
LINE
  8
0
 10
54.9417
 20
-1.51758
 11
54.94
 21
-1.54999
  0
LINE
  8
0
 10
54.94
 20
-1.54999
 11
54.9417
 21
-1.5824
  0
LINE
  8
0
 10
54.9417
 20
-1.5824
 11
54.9468
 21
-1.61444
  0
LINE
  8
0
 10
54.9468
 20
-1.61444
 11
54.9552
 21
-1.64578
  0
LINE
  8
0
 10
54.9552
 20
-1.64578
 11
54.9668
 21
-1.67607
  0
LINE
  8
0
 10
54.9668
 20
-1.67607
 11
54.9815
 21
-1.70499
  0
LINE
  8
0
 10
54.9815
 20
-1.70499
 11
54.9992
 21
-1.73219
  0
LINE
  8
0
 10
54.9992
 20
-1.73219
 11
55.0196
 21
-1.75742
  0
LINE
  8
0
 10
55.0196
 20
-1.75742
 11
55.0426
 21
-1.78036
  0
LINE
  8
0
 10
55.0426
 20
-1.78036
 11
55.0678
 21
-1.80078
  0
LINE
  8
0
 10
55.0678
 20
-1.80078
 11
55.095
 21
-1.81845
  0
LINE
  8
0
 10
55.095
 20
-1.81845
 11
55.1239
 21
-1.83319
  0
LINE
  8
0
 10
55.1239
 20
-1.83319
 11
55.1542
 21
-1.84482
  0
LINE
  8
0
 10
55.1542
 20
-1.84482
 11
55.1855
 21
-1.85321
  0
LINE
  8
0
 10
55.1855
 20
-1.85321
 11
55.2176
 21
-1.85829
  0
LINE
  8
0
 10
55.2176
 20
-1.85829
 11
55.25
 21
-1.85999
  0
LINE
  8
0
 10
55.25
 20
-1.85999
 11
55.25
 21
-3.09999
  0
LINE
  8
0
 10
55.25
 20
-3.09999
 11
58.3
 21
-3.09999
  0
LINE
  8
0
 10
58.3
 20
-3.09999
 11
58.3
 21
5.125
  0
LINE
  8
0
 10
58.3
 20
5.125
 11
59.54
 21
5.125
  0
LINE
  8
0
 10
59.54
 20
5.125
 11
59.5417
 21
5.09261
  0
LINE
  8
0
 10
59.5417
 20
5.09261
 11
59.5468
 21
5.06056
  0
LINE
  8
0
 10
59.5468
 20
5.06056
 11
59.5552
 21
5.02921
  0
LINE
  8
0
 10
59.5552
 20
5.02921
 11
59.5668
 21
4.99892
  0
LINE
  8
0
 10
59.5668
 20
4.99892
 11
59.5815
 21
4.97
  0
LINE
  8
0
 10
59.5815
 20
4.97
 11
59.5992
 21
4.94279
  0
LINE
  8
0
 10
59.5992
 20
4.94279
 11
59.6196
 21
4.91757
  0
LINE
  8
0
 10
59.6196
 20
4.91757
 11
59.6426
 21
4.89464
  0
LINE
  8
0
 10
59.6426
 20
4.89464
 11
59.6678
 21
4.87421
  0
LINE
  8
0
 10
59.6678
 20
4.87421
 11
59.695
 21
4.85654
  0
LINE
  8
0
 10
59.695
 20
4.85654
 11
59.7239
 21
4.84181
  0
LINE
  8
0
 10
59.7239
 20
4.84181
 11
59.7542
 21
4.83018
  0
LINE
  8
0
 10
59.7542
 20
4.83018
 11
59.7855
 21
4.82178
  0
LINE
  8
0
 10
59.7855
 20
4.82178
 11
59.8176
 21
4.81671
  0
LINE
  8
0
 10
59.8176
 20
4.81671
 11
59.85
 21
4.815
  0
LINE
  8
0
 10
59.85
 20
4.815
 11
59.8824
 21
4.81671
  0
LINE
  8
0
 10
59.8824
 20
4.81671
 11
59.9144
 21
4.82178
  0
LINE
  8
0
 10
59.9144
 20
4.82178
 11
59.9458
 21
4.83018
  0
LINE
  8
0
 10
59.9458
 20
4.83018
 11
59.9761
 21
4.84181
  0
LINE
  8
0
 10
59.9761
 20
4.84181
 11
60.005
 21
4.85654
  0
LINE
  8
0
 10
60.005
 20
4.85654
 11
60.0322
 21
4.87421
  0
LINE
  8
0
 10
60.0322
 20
4.87421
 11
60.0574
 21
4.89464
  0
LINE
  8
0
 10
60.0574
 20
4.89464
 11
60.0804
 21
4.91757
  0
LINE
  8
0
 10
60.0804
 20
4.91757
 11
60.1008
 21
4.94279
  0
LINE
  8
0
 10
60.1008
 20
4.94279
 11
60.1185
 21
4.97
  0
LINE
  8
0
 10
60.1185
 20
4.97
 11
60.1332
 21
4.99892
  0
LINE
  8
0
 10
60.1332
 20
4.99892
 11
60.1448
 21
5.02921
  0
LINE
  8
0
 10
60.1448
 20
5.02921
 11
60.1532
 21
5.06056
  0
LINE
  8
0
 10
60.1532
 20
5.06056
 11
60.1583
 21
5.09261
  0
LINE
  8
0
 10
60.1583
 20
5.09261
 11
60.16
 21
5.125
  0
LINE
  8
0
 10
60.16
 20
5.125
 11
61.4
 21
5.125
  0
LINE
  8
0
 10
61.4
 20
5.125
 11
61.4
 21
10.25
  0
LINE
  8
0
 10
61.4
 20
10.25
 11
58.3
 21
10.25
  0
LINE
  8
0
 10
58.3
 20
10.25
 11
58.3
 21
15.375
  0
LINE
  8
0
 10
58.3
 20
15.375
 11
59.54
 21
15.375
  0
LINE
  8
0
 10
59.54
 20
15.375
 11
59.5417
 21
15.3426
  0
LINE
  8
0
 10
59.5417
 20
15.3426
 11
59.5468
 21
15.3106
  0
LINE
  8
0
 10
59.5468
 20
15.3106
 11
59.5552
 21
15.2792
  0
LINE
  8
0
 10
59.5552
 20
15.2792
 11
59.5668
 21
15.2489
  0
LINE
  8
0
 10
59.5668
 20
15.2489
 11
59.5815
 21
15.22
  0
LINE
  8
0
 10
59.5815
 20
15.22
 11
59.5992
 21
15.1928
  0
LINE
  8
0
 10
59.5992
 20
15.1928
 11
59.6196
 21
15.1676
  0
LINE
  8
0
 10
59.6196
 20
15.1676
 11
59.6426
 21
15.1446
  0
LINE
  8
0
 10
59.6426
 20
15.1446
 11
59.6678
 21
15.1242
  0
LINE
  8
0
 10
59.6678
 20
15.1242
 11
59.695
 21
15.1065
  0
LINE
  8
0
 10
59.695
 20
15.1065
 11
59.7239
 21
15.0918
  0
LINE
  8
0
 10
59.7239
 20
15.0918
 11
59.7542
 21
15.0802
  0
LINE
  8
0
 10
59.7542
 20
15.0802
 11
59.7855
 21
15.0718
  0
LINE
  8
0
 10
59.7855
 20
15.0718
 11
59.8176
 21
15.0667
  0
LINE
  8
0
 10
59.8176
 20
15.0667
 11
59.85
 21
15.065
  0
LINE
  8
0
 10
59.85
 20
15.065
 11
59.8824
 21
15.0667
  0
LINE
  8
0
 10
59.8824
 20
15.0667
 11
59.9144
 21
15.0718
  0
LINE
  8
0
 10
59.9144
 20
15.0718
 11
59.9458
 21
15.0802
  0
LINE
  8
0
 10
59.9458
 20
15.0802
 11
59.9761
 21
15.0918
  0
LINE
  8
0
 10
59.9761
 20
15.0918
 11
60.005
 21
15.1065
  0
LINE
  8
0
 10
60.005
 20
15.1065
 11
60.0322
 21
15.1242
  0
LINE
  8
0
 10
60.0322
 20
15.1242
 11
60.0574
 21
15.1446
  0
LINE
  8
0
 10
60.0574
 20
15.1446
 11
60.0804
 21
15.1676
  0
LINE
  8
0
 10
60.0804
 20
15.1676
 11
60.1008
 21
15.1928
  0
LINE
  8
0
 10
60.1008
 20
15.1928
 11
60.1185
 21
15.22
  0
LINE
  8
0
 10
60.1185
 20
15.22
 11
60.1332
 21
15.2489
  0
LINE
  8
0
 10
60.1332
 20
15.2489
 11
60.1448
 21
15.2792
  0
LINE
  8
0
 10
60.1448
 20
15.2792
 11
60.1532
 21
15.3106
  0
LINE
  8
0
 10
60.1532
 20
15.3106
 11
60.1583
 21
15.3426
  0
LINE
  8
0
 10
60.1583
 20
15.3426
 11
60.16
 21
15.375
  0
LINE
  8
0
 10
60.16
 20
15.375
 11
61.4
 21
15.375
  0
LINE
  8
0
 10
61.4
 20
15.375
 11
61.4
 21
20.5
  0
LINE
  8
0
 10
61.4
 20
20.5
 11
58.3
 21
20.5
  0
LINE
  8
0
 10
58.3
 20
20.5
 11
58.3
 21
25.625
  0
LINE
  8
0
 10
58.3
 20
25.625
 11
59.54
 21
25.625
  0
LINE
  8
0
 10
59.54
 20
25.625
 11
59.5417
 21
25.5926
  0
LINE
  8
0
 10
59.5417
 20
25.5926
 11
59.5468
 21
25.5606
  0
LINE
  8
0
 10
59.5468
 20
25.5606
 11
59.5552
 21
25.5292
  0
LINE
  8
0
 10
59.5552
 20
25.5292
 11
59.5668
 21
25.4989
  0
LINE
  8
0
 10
59.5668
 20
25.4989
 11
59.5815
 21
25.47
  0
LINE
  8
0
 10
59.5815
 20
25.47
 11
59.5992
 21
25.4428
  0
LINE
  8
0
 10
59.5992
 20
25.4428
 11
59.6196
 21
25.4176
  0
LINE
  8
0
 10
59.6196
 20
25.4176
 11
59.6426
 21
25.3946
  0
LINE
  8
0
 10
59.6426
 20
25.3946
 11
59.6678
 21
25.3742
  0
LINE
  8
0
 10
59.6678
 20
25.3742
 11
59.695
 21
25.3565
  0
LINE
  8
0
 10
59.695
 20
25.3565
 11
59.7239
 21
25.3418
  0
LINE
  8
0
 10
59.7239
 20
25.3418
 11
59.7542
 21
25.3302
  0
LINE
  8
0
 10
59.7542
 20
25.3302
 11
59.7855
 21
25.3218
  0
LINE
  8
0
 10
59.7855
 20
25.3218
 11
59.8176
 21
25.3167
  0
LINE
  8
0
 10
59.8176
 20
25.3167
 11
59.85
 21
25.315
  0
LINE
  8
0
 10
59.85
 20
25.315
 11
59.8824
 21
25.3167
  0
LINE
  8
0
 10
59.8824
 20
25.3167
 11
59.9144
 21
25.3218
  0
LINE
  8
0
 10
59.9144
 20
25.3218
 11
59.9458
 21
25.3302
  0
LINE
  8
0
 10
59.9458
 20
25.3302
 11
59.9761
 21
25.3418
  0
LINE
  8
0
 10
59.9761
 20
25.3418
 11
60.005
 21
25.3565
  0
LINE
  8
0
 10
60.005
 20
25.3565
 11
60.0322
 21
25.3742
  0
LINE
  8
0
 10
60.0322
 20
25.3742
 11
60.0574
 21
25.3946
  0
LINE
  8
0
 10
60.0574
 20
25.3946
 11
60.0804
 21
25.4176
  0
LINE
  8
0
 10
60.0804
 20
25.4176
 11
60.1008
 21
25.4428
  0
LINE
  8
0
 10
60.1008
 20
25.4428
 11
60.1185
 21
25.47
  0
LINE
  8
0
 10
60.1185
 20
25.47
 11
60.1332
 21
25.4989
  0
LINE
  8
0
 10
60.1332
 20
25.4989
 11
60.1448
 21
25.5292
  0
LINE
  8
0
 10
60.1448
 20
25.5292
 11
60.1532
 21
25.5606
  0
LINE
  8
0
 10
60.1532
 20
25.5606
 11
60.1583
 21
25.5926
  0
LINE
  8
0
 10
60.1583
 20
25.5926
 11
60.16
 21
25.625
  0
LINE
  8
0
 10
60.16
 20
25.625
 11
61.4
 21
25.625
  0
LINE
  8
0
 10
61.4
 20
25.625
 11
61.4
 21
30.75
  0
LINE
  8
0
 10
61.4
 20
30.75
 11
58.3
 21
30.75
  0
LINE
  8
0
 10
58.3
 20
30.75
 11
58.3
 21
35.875
  0
LINE
  8
0
 10
58.3
 20
35.875
 11
59.54
 21
35.875
  0
LINE
  8
0
 10
59.54
 20
35.875
 11
59.5417
 21
35.8426
  0
LINE
  8
0
 10
59.5417
 20
35.8426
 11
59.5468
 21
35.8106
  0
LINE
  8
0
 10
59.5468
 20
35.8106
 11
59.5552
 21
35.7792
  0
LINE
  8
0
 10
59.5552
 20
35.7792
 11
59.5668
 21
35.7489
  0
LINE
  8
0
 10
59.5668
 20
35.7489
 11
59.5815
 21
35.72
  0
LINE
  8
0
 10
59.5815
 20
35.72
 11
59.5992
 21
35.6928
  0
LINE
  8
0
 10
59.5992
 20
35.6928
 11
59.6196
 21
35.6676
  0
LINE
  8
0
 10
59.6196
 20
35.6676
 11
59.6426
 21
35.6446
  0
LINE
  8
0
 10
59.6426
 20
35.6446
 11
59.6678
 21
35.6242
  0
LINE
  8
0
 10
59.6678
 20
35.6242
 11
59.695
 21
35.6065
  0
LINE
  8
0
 10
59.695
 20
35.6065
 11
59.7239
 21
35.5918
  0
LINE
  8
0
 10
59.7239
 20
35.5918
 11
59.7542
 21
35.5802
  0
LINE
  8
0
 10
59.7542
 20
35.5802
 11
59.7855
 21
35.5718
  0
LINE
  8
0
 10
59.7855
 20
35.5718
 11
59.8176
 21
35.5667
  0
LINE
  8
0
 10
59.8176
 20
35.5667
 11
59.85
 21
35.565
  0
LINE
  8
0
 10
59.85
 20
35.565
 11
59.8824
 21
35.5667
  0
LINE
  8
0
 10
59.8824
 20
35.5667
 11
59.9144
 21
35.5718
  0
LINE
  8
0
 10
59.9144
 20
35.5718
 11
59.9458
 21
35.5802
  0
LINE
  8
0
 10
59.9458
 20
35.5802
 11
59.9761
 21
35.5918
  0
LINE
  8
0
 10
59.9761
 20
35.5918
 11
60.005
 21
35.6065
  0
LINE
  8
0
 10
60.005
 20
35.6065
 11
60.0322
 21
35.6242
  0
LINE
  8
0
 10
60.0322
 20
35.6242
 11
60.0574
 21
35.6446
  0
LINE
  8
0
 10
60.0574
 20
35.6446
 11
60.0804
 21
35.6676
  0
LINE
  8
0
 10
60.0804
 20
35.6676
 11
60.1008
 21
35.6928
  0
LINE
  8
0
 10
60.1008
 20
35.6928
 11
60.1185
 21
35.72
  0
LINE
  8
0
 10
60.1185
 20
35.72
 11
60.1332
 21
35.7489
  0
LINE
  8
0
 10
60.1332
 20
35.7489
 11
60.1448
 21
35.7792
  0
LINE
  8
0
 10
60.1448
 20
35.7792
 11
60.1532
 21
35.8106
  0
LINE
  8
0
 10
60.1532
 20
35.8106
 11
60.1583
 21
35.8426
  0
LINE
  8
0
 10
60.1583
 20
35.8426
 11
60.16
 21
35.875
  0
LINE
  8
0
 10
60.16
 20
35.875
 11
61.4
 21
35.875
  0
LINE
  8
0
 10
61.4
 20
35.875
 11
61.4
 21
41
  0
LINE
  8
0
 10
61.4
 20
41
 11
55.25
 21
41
  0
LINE
  8
0
 10
55.25
 20
41
 11
55.25
 21
42.24
  0
LINE
  8
0
 10
55.25
 20
42.24
 11
55.2824
 21
42.2417
  0
LINE
  8
0
 10
55.2824
 20
42.2417
 11
55.3144
 21
42.2468
  0
LINE
  8
0
 10
55.3144
 20
42.2468
 11
55.3458
 21
42.2552
  0
LINE
  8
0
 10
55.3458
 20
42.2552
 11
55.3761
 21
42.2668
  0
LINE
  8
0
 10
55.3761
 20
42.2668
 11
55.405
 21
42.2815
  0
LINE
  8
0
 10
55.405
 20
42.2815
 11
55.4322
 21
42.2992
  0
LINE
  8
0
 10
55.4322
 20
42.2992
 11
55.4574
 21
42.3196
  0
LINE
  8
0
 10
55.4574
 20
42.3196
 11
55.4804
 21
42.3426
  0
LINE
  8
0
 10
55.4804
 20
42.3426
 11
55.5008
 21
42.3678
  0
LINE
  8
0
 10
55.5008
 20
42.3678
 11
55.5185
 21
42.395
  0
LINE
  8
0
 10
55.5185
 20
42.395
 11
55.5332
 21
42.4239
  0
LINE
  8
0
 10
55.5332
 20
42.4239
 11
55.5448
 21
42.4542
  0
LINE
  8
0
 10
55.5448
 20
42.4542
 11
55.5532
 21
42.4855
  0
LINE
  8
0
 10
55.5532
 20
42.4855
 11
55.5583
 21
42.5176
  0
LINE
  8
0
 10
55.5583
 20
42.5176
 11
55.56
 21
42.55
  0
LINE
  8
0
 10
55.56
 20
42.55
 11
55.5583
 21
42.5824
  0
LINE
  8
0
 10
55.5583
 20
42.5824
 11
55.5532
 21
42.6144
  0
LINE
  8
0
 10
55.5532
 20
42.6144
 11
55.5448
 21
42.6458
  0
LINE
  8
0
 10
55.5448
 20
42.6458
 11
55.5332
 21
42.6761
  0
LINE
  8
0
 10
55.5332
 20
42.6761
 11
55.5185
 21
42.705
  0
LINE
  8
0
 10
55.5185
 20
42.705
 11
55.5008
 21
42.7322
  0
LINE
  8
0
 10
55.5008
 20
42.7322
 11
55.4804
 21
42.7574
  0
LINE
  8
0
 10
55.4804
 20
42.7574
 11
55.4574
 21
42.7804
  0
LINE
  8
0
 10
55.4574
 20
42.7804
 11
55.4322
 21
42.8008
  0
LINE
  8
0
 10
55.4322
 20
42.8008
 11
55.405
 21
42.8185
  0
LINE
  8
0
 10
55.405
 20
42.8185
 11
55.3761
 21
42.8332
  0
LINE
  8
0
 10
55.3761
 20
42.8332
 11
55.3458
 21
42.8448
  0
LINE
  8
0
 10
55.3458
 20
42.8448
 11
55.3144
 21
42.8532
  0
LINE
  8
0
 10
55.3144
 20
42.8532
 11
55.2824
 21
42.8583
  0
LINE
  8
0
 10
55.2824
 20
42.8583
 11
55.25
 21
42.86
  0
LINE
  8
0
 10
55.25
 20
42.86
 11
55.25
 21
44.1
  0
LINE
  8
0
 10
55.25
 20
44.1
 11
52.2
 21
44.1
  0
LINE
  8
0
 10
52.2
 20
44.1
 11
52.2
 21
41
  0
LINE
  8
0
 10
52.2
 20
41
 11
49.15
 21
41
  0
LINE
  8
0
 10
49.15
 20
41
 11
49.15
 21
42.24
  0
LINE
  8
0
 10
49.15
 20
42.24
 11
49.1824
 21
42.2417
  0
LINE
  8
0
 10
49.1824
 20
42.2417
 11
49.2144
 21
42.2468
  0
LINE
  8
0
 10
49.2144
 20
42.2468
 11
49.2458
 21
42.2552
  0
LINE
  8
0
 10
49.2458
 20
42.2552
 11
49.2761
 21
42.2668
  0
LINE
  8
0
 10
49.2761
 20
42.2668
 11
49.305
 21
42.2815
  0
LINE
  8
0
 10
49.305
 20
42.2815
 11
49.3322
 21
42.2992
  0
LINE
  8
0
 10
49.3322
 20
42.2992
 11
49.3574
 21
42.3196
  0
LINE
  8
0
 10
49.3574
 20
42.3196
 11
49.3804
 21
42.3426
  0
LINE
  8
0
 10
49.3804
 20
42.3426
 11
49.4008
 21
42.3678
  0
LINE
  8
0
 10
49.4008
 20
42.3678
 11
49.4185
 21
42.395
  0
LINE
  8
0
 10
49.4185
 20
42.395
 11
49.4332
 21
42.4239
  0
LINE
  8
0
 10
49.4332
 20
42.4239
 11
49.4448
 21
42.4542
  0
LINE
  8
0
 10
49.4448
 20
42.4542
 11
49.4532
 21
42.4855
  0
LINE
  8
0
 10
49.4532
 20
42.4855
 11
49.4583
 21
42.5176
  0
LINE
  8
0
 10
49.4583
 20
42.5176
 11
49.46
 21
42.55
  0
LINE
  8
0
 10
49.46
 20
42.55
 11
49.4583
 21
42.5824
  0
LINE
  8
0
 10
49.4583
 20
42.5824
 11
49.4532
 21
42.6144
  0
LINE
  8
0
 10
49.4532
 20
42.6144
 11
49.4448
 21
42.6458
  0
LINE
  8
0
 10
49.4448
 20
42.6458
 11
49.4332
 21
42.6761
  0
LINE
  8
0
 10
49.4332
 20
42.6761
 11
49.4185
 21
42.705
  0
LINE
  8
0
 10
49.4185
 20
42.705
 11
49.4008
 21
42.7322
  0
LINE
  8
0
 10
49.4008
 20
42.7322
 11
49.3804
 21
42.7574
  0
LINE
  8
0
 10
49.3804
 20
42.7574
 11
49.3574
 21
42.7804
  0
LINE
  8
0
 10
49.3574
 20
42.7804
 11
49.3322
 21
42.8008
  0
LINE
  8
0
 10
49.3322
 20
42.8008
 11
49.305
 21
42.8185
  0
LINE
  8
0
 10
49.305
 20
42.8185
 11
49.2761
 21
42.8332
  0
LINE
  8
0
 10
49.2761
 20
42.8332
 11
49.2458
 21
42.8448
  0
LINE
  8
0
 10
49.2458
 20
42.8448
 11
49.2144
 21
42.8532
  0
LINE
  8
0
 10
49.2144
 20
42.8532
 11
49.1824
 21
42.8583
  0
LINE
  8
0
 10
49.1824
 20
42.8583
 11
49.15
 21
42.86
  0
LINE
  8
0
 10
49.15
 20
42.86
 11
49.15
 21
44.1
  0
LINE
  8
0
 10
49.15
 20
44.1
 11
46.1
 21
44.1
  0
LINE
  8
0
 10
46.1
 20
44.1
 11
46.1
 21
41
  0
LINE
  8
0
 10
46.1
 20
41
 11
43.05
 21
41
  0
LINE
  8
0
 10
43.05
 20
41
 11
43.05
 21
42.24
  0
LINE
  8
0
 10
43.05
 20
42.24
 11
43.0824
 21
42.2417
  0
LINE
  8
0
 10
43.0824
 20
42.2417
 11
43.1144
 21
42.2468
  0
LINE
  8
0
 10
43.1144
 20
42.2468
 11
43.1458
 21
42.2552
  0
LINE
  8
0
 10
43.1458
 20
42.2552
 11
43.1761
 21
42.2668
  0
LINE
  8
0
 10
43.1761
 20
42.2668
 11
43.205
 21
42.2815
  0
LINE
  8
0
 10
43.205
 20
42.2815
 11
43.2322
 21
42.2992
  0
LINE
  8
0
 10
43.2322
 20
42.2992
 11
43.2574
 21
42.3196
  0
LINE
  8
0
 10
43.2574
 20
42.3196
 11
43.2804
 21
42.3426
  0
LINE
  8
0
 10
43.2804
 20
42.3426
 11
43.3008
 21
42.3678
  0
LINE
  8
0
 10
43.3008
 20
42.3678
 11
43.3185
 21
42.395
  0
LINE
  8
0
 10
43.3185
 20
42.395
 11
43.3332
 21
42.4239
  0
LINE
  8
0
 10
43.3332
 20
42.4239
 11
43.3448
 21
42.4542
  0
LINE
  8
0
 10
43.3448
 20
42.4542
 11
43.3532
 21
42.4855
  0
LINE
  8
0
 10
43.3532
 20
42.4855
 11
43.3583
 21
42.5176
  0
LINE
  8
0
 10
43.3583
 20
42.5176
 11
43.36
 21
42.55
  0
LINE
  8
0
 10
43.36
 20
42.55
 11
43.3583
 21
42.5824
  0
LINE
  8
0
 10
43.3583
 20
42.5824
 11
43.3532
 21
42.6144
  0
LINE
  8
0
 10
43.3532
 20
42.6144
 11
43.3448
 21
42.6458
  0
LINE
  8
0
 10
43.3448
 20
42.6458
 11
43.3332
 21
42.6761
  0
LINE
  8
0
 10
43.3332
 20
42.6761
 11
43.3185
 21
42.705
  0
LINE
  8
0
 10
43.3185
 20
42.705
 11
43.3008
 21
42.7322
  0
LINE
  8
0
 10
43.3008
 20
42.7322
 11
43.2804
 21
42.7574
  0
LINE
  8
0
 10
43.2804
 20
42.7574
 11
43.2574
 21
42.7804
  0
LINE
  8
0
 10
43.2574
 20
42.7804
 11
43.2322
 21
42.8008
  0
LINE
  8
0
 10
43.2322
 20
42.8008
 11
43.205
 21
42.8185
  0
LINE
  8
0
 10
43.205
 20
42.8185
 11
43.1761
 21
42.8332
  0
LINE
  8
0
 10
43.1761
 20
42.8332
 11
43.1458
 21
42.8448
  0
LINE
  8
0
 10
43.1458
 20
42.8448
 11
43.1144
 21
42.8532
  0
LINE
  8
0
 10
43.1144
 20
42.8532
 11
43.0824
 21
42.8583
  0
LINE
  8
0
 10
43.0824
 20
42.8583
 11
43.05
 21
42.86
  0
LINE
  8
0
 10
43.05
 20
42.86
 11
43.05
 21
44.1
  0
LINE
  8
0
 10
43.05
 20
44.1
 11
40
 21
44.1
  0
LINE
  8
0
 10
40
 20
44.1
 11
40
 21
35.875
  0
LINE
  8
0
 10
40
 20
35.875
 11
38.76
 21
35.875
  0
LINE
  8
0
 10
38.76
 20
35.875
 11
38.7583
 21
35.9074
  0
LINE
  8
0
 10
38.7583
 20
35.9074
 11
38.7532
 21
35.9394
  0
LINE
  8
0
 10
38.7532
 20
35.9394
 11
38.7448
 21
35.9708
  0
LINE
  8
0
 10
38.7448
 20
35.9708
 11
38.7332
 21
36.0011
  0
LINE
  8
0
 10
38.7332
 20
36.0011
 11
38.7185
 21
36.03
  0
LINE
  8
0
 10
38.7185
 20
36.03
 11
38.7008
 21
36.0572
  0
LINE
  8
0
 10
38.7008
 20
36.0572
 11
38.6804
 21
36.0824
  0
LINE
  8
0
 10
38.6804
 20
36.0824
 11
38.6574
 21
36.1054
  0
LINE
  8
0
 10
38.6574
 20
36.1054
 11
38.6322
 21
36.1258
  0
LINE
  8
0
 10
38.6322
 20
36.1258
 11
38.605
 21
36.1435
  0
LINE
  8
0
 10
38.605
 20
36.1435
 11
38.5761
 21
36.1582
  0
LINE
  8
0
 10
38.5761
 20
36.1582
 11
38.5458
 21
36.1698
  0
LINE
  8
0
 10
38.5458
 20
36.1698
 11
38.5145
 21
36.1782
  0
LINE
  8
0
 10
38.5145
 20
36.1782
 11
38.4824
 21
36.1833
  0
LINE
  8
0
 10
38.4824
 20
36.1833
 11
38.45
 21
36.185
  0
LINE
  8
0
 10
38.45
 20
36.185
 11
38.4176
 21
36.1833
  0
LINE
  8
0
 10
38.4176
 20
36.1833
 11
38.3856
 21
36.1782
  0
LINE
  8
0
 10
38.3856
 20
36.1782
 11
38.3542
 21
36.1698
  0
LINE
  8
0
 10
38.3542
 20
36.1698
 11
38.3239
 21
36.1582
  0
LINE
  8
0
 10
38.3239
 20
36.1582
 11
38.295
 21
36.1435
  0
LINE
  8
0
 10
38.295
 20
36.1435
 11
38.2678
 21
36.1258
  0
LINE
  8
0
 10
38.2678
 20
36.1258
 11
38.2426
 21
36.1054
  0
LINE
  8
0
 10
38.2426
 20
36.1054
 11
38.2196
 21
36.0824
  0
LINE
  8
0
 10
38.2196
 20
36.0824
 11
38.1992
 21
36.0572
  0
LINE
  8
0
 10
38.1992
 20
36.0572
 11
38.1815
 21
36.03
  0
LINE
  8
0
 10
38.1815
 20
36.03
 11
38.1668
 21
36.0011
  0
LINE
  8
0
 10
38.1668
 20
36.0011
 11
38.1552
 21
35.9708
  0
LINE
  8
0
 10
38.1552
 20
35.9708
 11
38.1468
 21
35.9394
  0
LINE
  8
0
 10
38.1468
 20
35.9394
 11
38.1417
 21
35.9074
  0
LINE
  8
0
 10
38.1417
 20
35.9074
 11
38.14
 21
35.875
  0
LINE
  8
0
 10
38.14
 20
35.875
 11
36.9
 21
35.875
  0
LINE
  8
0
 10
36.9
 20
35.875
 11
36.9
 21
30.75
  0
LINE
  8
0
 10
36.9
 20
30.75
 11
40
 21
30.75
  0
LINE
  8
0
 10
40
 20
30.75
 11
40
 21
25.625
  0
LINE
  8
0
 10
40
 20
25.625
 11
38.76
 21
25.625
  0
LINE
  8
0
 10
38.76
 20
25.625
 11
38.7583
 21
25.6574
  0
LINE
  8
0
 10
38.7583
 20
25.6574
 11
38.7532
 21
25.6894
  0
LINE
  8
0
 10
38.7532
 20
25.6894
 11
38.7448
 21
25.7208
  0
LINE
  8
0
 10
38.7448
 20
25.7208
 11
38.7332
 21
25.7511
  0
LINE
  8
0
 10
38.7332
 20
25.7511
 11
38.7185
 21
25.78
  0
LINE
  8
0
 10
38.7185
 20
25.78
 11
38.7008
 21
25.8072
  0
LINE
  8
0
 10
38.7008
 20
25.8072
 11
38.6804
 21
25.8324
  0
LINE
  8
0
 10
38.6804
 20
25.8324
 11
38.6574
 21
25.8554
  0
LINE
  8
0
 10
38.6574
 20
25.8554
 11
38.6322
 21
25.8758
  0
LINE
  8
0
 10
38.6322
 20
25.8758
 11
38.605
 21
25.8935
  0
LINE
  8
0
 10
38.605
 20
25.8935
 11
38.5761
 21
25.9082
  0
LINE
  8
0
 10
38.5761
 20
25.9082
 11
38.5458
 21
25.9198
  0
LINE
  8
0
 10
38.5458
 20
25.9198
 11
38.5145
 21
25.9282
  0
LINE
  8
0
 10
38.5145
 20
25.9282
 11
38.4824
 21
25.9333
  0
LINE
  8
0
 10
38.4824
 20
25.9333
 11
38.45
 21
25.935
  0
LINE
  8
0
 10
38.45
 20
25.935
 11
38.4176
 21
25.9333
  0
LINE
  8
0
 10
38.4176
 20
25.9333
 11
38.3856
 21
25.9282
  0
LINE
  8
0
 10
38.3856
 20
25.9282
 11
38.3542
 21
25.9198
  0
LINE
  8
0
 10
38.3542
 20
25.9198
 11
38.3239
 21
25.9082
  0
LINE
  8
0
 10
38.3239
 20
25.9082
 11
38.295
 21
25.8935
  0
LINE
  8
0
 10
38.295
 20
25.8935
 11
38.2678
 21
25.8758
  0
LINE
  8
0
 10
38.2678
 20
25.8758
 11
38.2426
 21
25.8554
  0
LINE
  8
0
 10
38.2426
 20
25.8554
 11
38.2196
 21
25.8324
  0
LINE
  8
0
 10
38.2196
 20
25.8324
 11
38.1992
 21
25.8072
  0
LINE
  8
0
 10
38.1992
 20
25.8072
 11
38.1815
 21
25.78
  0
LINE
  8
0
 10
38.1815
 20
25.78
 11
38.1668
 21
25.7511
  0
LINE
  8
0
 10
38.1668
 20
25.7511
 11
38.1552
 21
25.7208
  0
LINE
  8
0
 10
38.1552
 20
25.7208
 11
38.1468
 21
25.6894
  0
LINE
  8
0
 10
38.1468
 20
25.6894
 11
38.1417
 21
25.6574
  0
LINE
  8
0
 10
38.1417
 20
25.6574
 11
38.14
 21
25.625
  0
LINE
  8
0
 10
38.14
 20
25.625
 11
36.9
 21
25.625
  0
LINE
  8
0
 10
36.9
 20
25.625
 11
36.9
 21
20.5
  0
LINE
  8
0
 10
36.9
 20
20.5
 11
40
 21
20.5
  0
LINE
  8
0
 10
40
 20
20.5
 11
40
 21
15.375
  0
LINE
  8
0
 10
40
 20
15.375
 11
38.76
 21
15.375
  0
LINE
  8
0
 10
38.76
 20
15.375
 11
38.7583
 21
15.4074
  0
LINE
  8
0
 10
38.7583
 20
15.4074
 11
38.7532
 21
15.4394
  0
LINE
  8
0
 10
38.7532
 20
15.4394
 11
38.7448
 21
15.4708
  0
LINE
  8
0
 10
38.7448
 20
15.4708
 11
38.7332
 21
15.5011
  0
LINE
  8
0
 10
38.7332
 20
15.5011
 11
38.7185
 21
15.53
  0
LINE
  8
0
 10
38.7185
 20
15.53
 11
38.7008
 21
15.5572
  0
LINE
  8
0
 10
38.7008
 20
15.5572
 11
38.6804
 21
15.5824
  0
LINE
  8
0
 10
38.6804
 20
15.5824
 11
38.6574
 21
15.6054
  0
LINE
  8
0
 10
38.6574
 20
15.6054
 11
38.6322
 21
15.6258
  0
LINE
  8
0
 10
38.6322
 20
15.6258
 11
38.605
 21
15.6435
  0
LINE
  8
0
 10
38.605
 20
15.6435
 11
38.5761
 21
15.6582
  0
LINE
  8
0
 10
38.5761
 20
15.6582
 11
38.5458
 21
15.6698
  0
LINE
  8
0
 10
38.5458
 20
15.6698
 11
38.5145
 21
15.6782
  0
LINE
  8
0
 10
38.5145
 20
15.6782
 11
38.4824
 21
15.6833
  0
LINE
  8
0
 10
38.4824
 20
15.6833
 11
38.45
 21
15.685
  0
LINE
  8
0
 10
38.45
 20
15.685
 11
38.4176
 21
15.6833
  0
LINE
  8
0
 10
38.4176
 20
15.6833
 11
38.3856
 21
15.6782
  0
LINE
  8
0
 10
38.3856
 20
15.6782
 11
38.3542
 21
15.6698
  0
LINE
  8
0
 10
38.3542
 20
15.6698
 11
38.3239
 21
15.6582
  0
LINE
  8
0
 10
38.3239
 20
15.6582
 11
38.295
 21
15.6435
  0
LINE
  8
0
 10
38.295
 20
15.6435
 11
38.2678
 21
15.6258
  0
LINE
  8
0
 10
38.2678
 20
15.6258
 11
38.2426
 21
15.6054
  0
LINE
  8
0
 10
38.2426
 20
15.6054
 11
38.2196
 21
15.5824
  0
LINE
  8
0
 10
38.2196
 20
15.5824
 11
38.1992
 21
15.5572
  0
LINE
  8
0
 10
38.1992
 20
15.5572
 11
38.1815
 21
15.53
  0
LINE
  8
0
 10
38.1815
 20
15.53
 11
38.1668
 21
15.5011
  0
LINE
  8
0
 10
38.1668
 20
15.5011
 11
38.1552
 21
15.4708
  0
LINE
  8
0
 10
38.1552
 20
15.4708
 11
38.1468
 21
15.4394
  0
LINE
  8
0
 10
38.1468
 20
15.4394
 11
38.1417
 21
15.4074
  0
LINE
  8
0
 10
38.1417
 20
15.4074
 11
38.14
 21
15.375
  0
LINE
  8
0
 10
38.14
 20
15.375
 11
36.9
 21
15.375
  0
LINE
  8
0
 10
36.9
 20
15.375
 11
36.9
 21
10.25
  0
LINE
  8
0
 10
36.9
 20
10.25
 11
40
 21
10.25
  0
LINE
  8
0
 10
40
 20
10.25
 11
40
 21
5.125
  0
LINE
  8
0
 10
40
 20
5.125
 11
38.76
 21
5.125
  0
LINE
  8
0
 10
38.76
 20
5.125
 11
38.7583
 21
5.15739
  0
LINE
  8
0
 10
38.7583
 20
5.15739
 11
38.7532
 21
5.18944
  0
LINE
  8
0
 10
38.7532
 20
5.18944
 11
38.7448
 21
5.22079
  0
LINE
  8
0
 10
38.7448
 20
5.22079
 11
38.7332
 21
5.25108
  0
LINE
  8
0
 10
38.7332
 20
5.25108
 11
38.7185
 21
5.28
  0
LINE
  8
0
 10
38.7185
 20
5.28
 11
38.7008
 21
5.30721
  0
LINE
  8
0
 10
38.7008
 20
5.30721
 11
38.6804
 21
5.33243
  0
LINE
  8
0
 10
38.6804
 20
5.33243
 11
38.6574
 21
5.35536
  0
LINE
  8
0
 10
38.6574
 20
5.35536
 11
38.6322
 21
5.37579
  0
LINE
  8
0
 10
38.6322
 20
5.37579
 11
38.605
 21
5.39346
  0
LINE
  8
0
 10
38.605
 20
5.39346
 11
38.5761
 21
5.40819
  0
LINE
  8
0
 10
38.5761
 20
5.40819
 11
38.5458
 21
5.41982
  0
LINE
  8
0
 10
38.5458
 20
5.41982
 11
38.5145
 21
5.42822
  0
LINE
  8
0
 10
38.5145
 20
5.42822
 11
38.4824
 21
5.43329
  0
LINE
  8
0
 10
38.4824
 20
5.43329
 11
38.45
 21
5.435
  0
LINE
  8
0
 10
38.45
 20
5.435
 11
38.4176
 21
5.43329
  0
LINE
  8
0
 10
38.4176
 20
5.43329
 11
38.3856
 21
5.42822
  0
LINE
  8
0
 10
38.3856
 20
5.42822
 11
38.3542
 21
5.41982
  0
LINE
  8
0
 10
38.3542
 20
5.41982
 11
38.3239
 21
5.40819
  0
LINE
  8
0
 10
38.3239
 20
5.40819
 11
38.295
 21
5.39346
  0
LINE
  8
0
 10
38.295
 20
5.39346
 11
38.2678
 21
5.37579
  0
LINE
  8
0
 10
38.2678
 20
5.37579
 11
38.2426
 21
5.35536
  0
LINE
  8
0
 10
38.2426
 20
5.35536
 11
38.2196
 21
5.33243
  0
LINE
  8
0
 10
38.2196
 20
5.33243
 11
38.1992
 21
5.30721
  0
LINE
  8
0
 10
38.1992
 20
5.30721
 11
38.1815
 21
5.28
  0
LINE
  8
0
 10
38.1815
 20
5.28
 11
38.1668
 21
5.25108
  0
LINE
  8
0
 10
38.1668
 20
5.25108
 11
38.1552
 21
5.22079
  0
LINE
  8
0
 10
38.1552
 20
5.22079
 11
38.1468
 21
5.18944
  0
LINE
  8
0
 10
38.1468
 20
5.18944
 11
38.1417
 21
5.15739
  0
LINE
  8
0
 10
38.1417
 20
5.15739
 11
38.14
 21
5.125
  0
LINE
  8
0
 10
38.14
 20
5.125
 11
36.9
 21
5.125
  0
LINE
  8
0
 10
36.9
 20
5.125
 11
36.9
 21
0
  0
LINE
  8
0
 10
36.9
 20
0
 11
43.05
 21
0
  0
LINE
  8
0
 10
43.05
 20
0
 11
43.05
 21
-1.23999
  0
LINE
  8
0
 10
43.05
 20
-1.23999
 11
43.0176
 21
-1.24168
  0
LINE
  8
0
 10
43.0176
 20
-1.24168
 11
42.9855
 21
-1.24677
  0
LINE
  8
0
 10
42.9855
 20
-1.24677
 11
42.9542
 21
-1.25516
  0
LINE
  8
0
 10
42.9542
 20
-1.25516
 11
42.9239
 21
-1.26678
  0
LINE
  8
0
 10
42.9239
 20
-1.26678
 11
42.895
 21
-1.28152
  0
LINE
  8
0
 10
42.895
 20
-1.28152
 11
42.8678
 21
-1.29919
  0
LINE
  8
0
 10
42.8678
 20
-1.29919
 11
42.8426
 21
-1.31961
  0
LINE
  8
0
 10
42.8426
 20
-1.31961
 11
42.8196
 21
-1.34256
  0
LINE
  8
0
 10
42.8196
 20
-1.34256
 11
42.7992
 21
-1.36777
  0
LINE
  8
0
 10
42.7992
 20
-1.36777
 11
42.7815
 21
-1.39499
  0
LINE
  8
0
 10
42.7815
 20
-1.39499
 11
42.7668
 21
-1.4239
  0
LINE
  8
0
 10
42.7668
 20
-1.4239
 11
42.7552
 21
-1.45419
  0
LINE
  8
0
 10
42.7552
 20
-1.45419
 11
42.7468
 21
-1.48553
  0
LINE
  8
0
 10
42.7468
 20
-1.48553
 11
42.7417
 21
-1.51758
  0
LINE
  8
0
 10
42.7417
 20
-1.51758
 11
42.74
 21
-1.54999
  0
LINE
  8
0
 10
42.74
 20
-1.54999
 11
42.7417
 21
-1.5824
  0
LINE
  8
0
 10
42.7417
 20
-1.5824
 11
42.7468
 21
-1.61444
  0
LINE
  8
0
 10
42.7468
 20
-1.61444
 11
42.7552
 21
-1.64578
  0
LINE
  8
0
 10
42.7552
 20
-1.64578
 11
42.7668
 21
-1.67607
  0
LINE
  8
0
 10
42.7668
 20
-1.67607
 11
42.7815
 21
-1.70499
  0
LINE
  8
0
 10
42.7815
 20
-1.70499
 11
42.7992
 21
-1.73219
  0
LINE
  8
0
 10
42.7992
 20
-1.73219
 11
42.8196
 21
-1.75742
  0
LINE
  8
0
 10
42.8196
 20
-1.75742
 11
42.8426
 21
-1.78036
  0
LINE
  8
0
 10
42.8426
 20
-1.78036
 11
42.8678
 21
-1.80078
  0
LINE
  8
0
 10
42.8678
 20
-1.80078
 11
42.895
 21
-1.81845
  0
LINE
  8
0
 10
42.895
 20
-1.81845
 11
42.9239
 21
-1.83319
  0
LINE
  8
0
 10
42.9239
 20
-1.83319
 11
42.9542
 21
-1.84482
  0
LINE
  8
0
 10
42.9542
 20
-1.84482
 11
42.9855
 21
-1.85321
  0
LINE
  8
0
 10
42.9855
 20
-1.85321
 11
43.0176
 21
-1.85829
  0
LINE
  8
0
 10
43.0176
 20
-1.85829
 11
43.05
 21
-1.85999
  0
LINE
  8
0
 10
43.05
 20
-1.85999
 11
43.05
 21
-3.09999
  0
LINE
  8
0
 10
43.05
 20
-3.09999
 11
46.1
 21
-3.09999
  0
LINE
  8
0
 10
46.1
 20
-3.09999
 11
46.1
 21
0
  0
LINE
  8
0
 10
46.65
 20
2
 11
46.4775
 21
2.00903
  0
LINE
  8
0
 10
46.4775
 20
2.00903
 11
46.3069
 21
2.03604
  0
LINE
  8
0
 10
46.3069
 20
2.03604
 11
46.1401
 21
2.08075
  0
LINE
  8
0
 10
46.1401
 20
2.08075
 11
45.9789
 21
2.14264
  0
LINE
  8
0
 10
45.9789
 20
2.14264
 11
45.825
 21
2.22105
  0
LINE
  8
0
 10
45.825
 20
2.22105
 11
45.6801
 21
2.31511
  0
LINE
  8
0
 10
45.6801
 20
2.31511
 11
45.5459
 21
2.4238
  0
LINE
  8
0
 10
45.5459
 20
2.4238
 11
45.4238
 21
2.54593
  0
LINE
  8
0
 10
45.4238
 20
2.54593
 11
45.3151
 21
2.68015
  0
LINE
  8
0
 10
45.3151
 20
2.68015
 11
45.2211
 21
2.825
  0
LINE
  8
0
 10
45.2211
 20
2.825
 11
45.1426
 21
2.97888
  0
LINE
  8
0
 10
45.1426
 20
2.97888
 11
45.0807
 21
3.14012
  0
LINE
  8
0
 10
45.0807
 20
3.14012
 11
45.036
 21
3.30693
  0
LINE
  8
0
 10
45.036
 20
3.30693
 11
45.009
 21
3.47752
  0
LINE
  8
0
 10
45.009
 20
3.47752
 11
45
 21
3.64999
  0
LINE
  8
0
 10
45
 20
3.64999
 11
45.009
 21
3.82246
  0
LINE
  8
0
 10
45.009
 20
3.82246
 11
45.036
 21
3.99304
  0
LINE
  8
0
 10
45.036
 20
3.99304
 11
45.0807
 21
4.15987
  0
LINE
  8
0
 10
45.0807
 20
4.15987
 11
45.1426
 21
4.32111
  0
LINE
  8
0
 10
45.1426
 20
4.32111
 11
45.2211
 21
4.47499
  0
LINE
  8
0
 10
45.2211
 20
4.47499
 11
45.3151
 21
4.61984
  0
LINE
  8
0
 10
45.3151
 20
4.61984
 11
45.4238
 21
4.75406
  0
LINE
  8
0
 10
45.4238
 20
4.75406
 11
45.5459
 21
4.87617
  0
LINE
  8
0
 10
45.5459
 20
4.87617
 11
45.6801
 21
4.98486
  0
LINE
  8
0
 10
45.6801
 20
4.98486
 11
45.825
 21
5.07893
  0
LINE
  8
0
 10
45.825
 20
5.07893
 11
45.9789
 21
5.15735
  0
LINE
  8
0
 10
45.9789
 20
5.15735
 11
46.1401
 21
5.21924
  0
LINE
  8
0
 10
46.1401
 20
5.21924
 11
46.3069
 21
5.26393
  0
LINE
  8
0
 10
46.3069
 20
5.26393
 11
46.4775
 21
5.29095
  0
LINE
  8
0
 10
46.4775
 20
5.29095
 11
46.65
 21
5.29999
  0
LINE
  8
0
 10
46.65
 20
5.29999
 11
52.35
 21
5.29999
  0
LINE
  8
0
 10
52.35
 20
5.29999
 11
52.5225
 21
5.29095
  0
LINE
  8
0
 10
52.5225
 20
5.29095
 11
52.6931
 21
5.26393
  0
LINE
  8
0
 10
52.6931
 20
5.26393
 11
52.8599
 21
5.21924
  0
LINE
  8
0
 10
52.8599
 20
5.21924
 11
53.0211
 21
5.15735
  0
LINE
  8
0
 10
53.0211
 20
5.15735
 11
53.175
 21
5.07893
  0
LINE
  8
0
 10
53.175
 20
5.07893
 11
53.3198
 21
4.98486
  0
LINE
  8
0
 10
53.3198
 20
4.98486
 11
53.4541
 21
4.87617
  0
LINE
  8
0
 10
53.4541
 20
4.87617
 11
53.5762
 21
4.75406
  0
LINE
  8
0
 10
53.5762
 20
4.75406
 11
53.6849
 21
4.61984
  0
LINE
  8
0
 10
53.6849
 20
4.61984
 11
53.7789
 21
4.47499
  0
LINE
  8
0
 10
53.7789
 20
4.47499
 11
53.8573
 21
4.32111
  0
LINE
  8
0
 10
53.8573
 20
4.32111
 11
53.9192
 21
4.15987
  0
LINE
  8
0
 10
53.9192
 20
4.15987
 11
53.9639
 21
3.99304
  0
LINE
  8
0
 10
53.9639
 20
3.99304
 11
53.991
 21
3.82246
  0
LINE
  8
0
 10
53.991
 20
3.82246
 11
54
 21
3.64999
  0
LINE
  8
0
 10
54
 20
3.64999
 11
53.991
 21
3.47752
  0
LINE
  8
0
 10
53.991
 20
3.47752
 11
53.9639
 21
3.30693
  0
LINE
  8
0
 10
53.9639
 20
3.30693
 11
53.9192
 21
3.14012
  0
LINE
  8
0
 10
53.9192
 20
3.14012
 11
53.8573
 21
2.97888
  0
LINE
  8
0
 10
53.8573
 20
2.97888
 11
53.7789
 21
2.825
  0
LINE
  8
0
 10
53.7789
 20
2.825
 11
53.6849
 21
2.68015
  0
LINE
  8
0
 10
53.6849
 20
2.68015
 11
53.5762
 21
2.54593
  0
LINE
  8
0
 10
53.5762
 20
2.54593
 11
53.4541
 21
2.4238
  0
LINE
  8
0
 10
53.4541
 20
2.4238
 11
53.3198
 21
2.31511
  0
LINE
  8
0
 10
53.3198
 20
2.31511
 11
53.175
 21
2.22105
  0
LINE
  8
0
 10
53.175
 20
2.22105
 11
53.0211
 21
2.14264
  0
LINE
  8
0
 10
53.0211
 20
2.14264
 11
52.8599
 21
2.08075
  0
LINE
  8
0
 10
52.8599
 20
2.08075
 11
52.6931
 21
2.03604
  0
LINE
  8
0
 10
52.6931
 20
2.03604
 11
52.5225
 21
2.00903
  0
LINE
  8
0
 10
52.5225
 20
2.00903
 11
52.35
 21
2
  0
LINE
  8
0
 10
52.35
 20
2
 11
46.65
 21
2
  0
LINE
  8
0
 10
10
 20
0
 11
15
 21
0
  0
LINE
  8
0
 10
15
 20
0
 11
15
 21
-1.23999
  0
LINE
  8
0
 10
15
 20
-1.23999
 11
14.9676
 21
-1.24168
  0
LINE
  8
0
 10
14.9676
 20
-1.24168
 11
14.9356
 21
-1.24677
  0
LINE
  8
0
 10
14.9356
 20
-1.24677
 11
14.9042
 21
-1.25516
  0
LINE
  8
0
 10
14.9042
 20
-1.25516
 11
14.8739
 21
-1.26678
  0
LINE
  8
0
 10
14.8739
 20
-1.26678
 11
14.845
 21
-1.28152
  0
LINE
  8
0
 10
14.845
 20
-1.28152
 11
14.8178
 21
-1.29919
  0
LINE
  8
0
 10
14.8178
 20
-1.29919
 11
14.7926
 21
-1.31961
  0
LINE
  8
0
 10
14.7926
 20
-1.31961
 11
14.7696
 21
-1.34256
  0
LINE
  8
0
 10
14.7696
 20
-1.34256
 11
14.7492
 21
-1.36777
  0
LINE
  8
0
 10
14.7492
 20
-1.36777
 11
14.7315
 21
-1.39499
  0
LINE
  8
0
 10
14.7315
 20
-1.39499
 11
14.7168
 21
-1.4239
  0
LINE
  8
0
 10
14.7168
 20
-1.4239
 11
14.7052
 21
-1.45419
  0
LINE
  8
0
 10
14.7052
 20
-1.45419
 11
14.6968
 21
-1.48553
  0
LINE
  8
0
 10
14.6968
 20
-1.48553
 11
14.6917
 21
-1.51758
  0
LINE
  8
0
 10
14.6917
 20
-1.51758
 11
14.69
 21
-1.54999
  0
LINE
  8
0
 10
14.69
 20
-1.54999
 11
14.6917
 21
-1.5824
  0
LINE
  8
0
 10
14.6917
 20
-1.5824
 11
14.6968
 21
-1.61444
  0
LINE
  8
0
 10
14.6968
 20
-1.61444
 11
14.7052
 21
-1.64578
  0
LINE
  8
0
 10
14.7052
 20
-1.64578
 11
14.7168
 21
-1.67607
  0
LINE
  8
0
 10
14.7168
 20
-1.67607
 11
14.7315
 21
-1.70499
  0
LINE
  8
0
 10
14.7315
 20
-1.70499
 11
14.7492
 21
-1.73219
  0
LINE
  8
0
 10
14.7492
 20
-1.73219
 11
14.7696
 21
-1.75742
  0
LINE
  8
0
 10
14.7696
 20
-1.75742
 11
14.7926
 21
-1.78036
  0
LINE
  8
0
 10
14.7926
 20
-1.78036
 11
14.8178
 21
-1.80078
  0
LINE
  8
0
 10
14.8178
 20
-1.80078
 11
14.845
 21
-1.81845
  0
LINE
  8
0
 10
14.845
 20
-1.81845
 11
14.8739
 21
-1.83319
  0
LINE
  8
0
 10
14.8739
 20
-1.83319
 11
14.9042
 21
-1.84482
  0
LINE
  8
0
 10
14.9042
 20
-1.84482
 11
14.9356
 21
-1.85321
  0
LINE
  8
0
 10
14.9356
 20
-1.85321
 11
14.9676
 21
-1.85829
  0
LINE
  8
0
 10
14.9676
 20
-1.85829
 11
15
 21
-1.85999
  0
LINE
  8
0
 10
15
 20
-1.85999
 11
15
 21
-3.09999
  0
LINE
  8
0
 10
15
 20
-3.09999
 11
20
 21
-3.09999
  0
LINE
  8
0
 10
20
 20
-3.09999
 11
20
 21
0
  0
LINE
  8
0
 10
20
 20
0
 11
25
 21
0
  0
LINE
  8
0
 10
25
 20
0
 11
25
 21
-1.23999
  0
LINE
  8
0
 10
25
 20
-1.23999
 11
24.9676
 21
-1.24168
  0
LINE
  8
0
 10
24.9676
 20
-1.24168
 11
24.9356
 21
-1.24677
  0
LINE
  8
0
 10
24.9356
 20
-1.24677
 11
24.9042
 21
-1.25516
  0
LINE
  8
0
 10
24.9042
 20
-1.25516
 11
24.8739
 21
-1.26678
  0
LINE
  8
0
 10
24.8739
 20
-1.26678
 11
24.845
 21
-1.28152
  0
LINE
  8
0
 10
24.845
 20
-1.28152
 11
24.8178
 21
-1.29919
  0
LINE
  8
0
 10
24.8178
 20
-1.29919
 11
24.7926
 21
-1.31961
  0
LINE
  8
0
 10
24.7926
 20
-1.31961
 11
24.7696
 21
-1.34256
  0
LINE
  8
0
 10
24.7696
 20
-1.34256
 11
24.7492
 21
-1.36777
  0
LINE
  8
0
 10
24.7492
 20
-1.36777
 11
24.7315
 21
-1.39499
  0
LINE
  8
0
 10
24.7315
 20
-1.39499
 11
24.7168
 21
-1.4239
  0
LINE
  8
0
 10
24.7168
 20
-1.4239
 11
24.7052
 21
-1.45419
  0
LINE
  8
0
 10
24.7052
 20
-1.45419
 11
24.6968
 21
-1.48553
  0
LINE
  8
0
 10
24.6968
 20
-1.48553
 11
24.6917
 21
-1.51758
  0
LINE
  8
0
 10
24.6917
 20
-1.51758
 11
24.69
 21
-1.54999
  0
LINE
  8
0
 10
24.69
 20
-1.54999
 11
24.6917
 21
-1.5824
  0
LINE
  8
0
 10
24.6917
 20
-1.5824
 11
24.6968
 21
-1.61444
  0
LINE
  8
0
 10
24.6968
 20
-1.61444
 11
24.7052
 21
-1.64578
  0
LINE
  8
0
 10
24.7052
 20
-1.64578
 11
24.7168
 21
-1.67607
  0
LINE
  8
0
 10
24.7168
 20
-1.67607
 11
24.7315
 21
-1.70499
  0
LINE
  8
0
 10
24.7315
 20
-1.70499
 11
24.7492
 21
-1.73219
  0
LINE
  8
0
 10
24.7492
 20
-1.73219
 11
24.7696
 21
-1.75742
  0
LINE
  8
0
 10
24.7696
 20
-1.75742
 11
24.7926
 21
-1.78036
  0
LINE
  8
0
 10
24.7926
 20
-1.78036
 11
24.8178
 21
-1.80078
  0
LINE
  8
0
 10
24.8178
 20
-1.80078
 11
24.845
 21
-1.81845
  0
LINE
  8
0
 10
24.845
 20
-1.81845
 11
24.8739
 21
-1.83319
  0
LINE
  8
0
 10
24.8739
 20
-1.83319
 11
24.9042
 21
-1.84482
  0
LINE
  8
0
 10
24.9042
 20
-1.84482
 11
24.9356
 21
-1.85321
  0
LINE
  8
0
 10
24.9356
 20
-1.85321
 11
24.9676
 21
-1.85829
  0
LINE
  8
0
 10
24.9676
 20
-1.85829
 11
25
 21
-1.85999
  0
LINE
  8
0
 10
25
 20
-1.85999
 11
25
 21
-3.09999
  0
LINE
  8
0
 10
25
 20
-3.09999
 11
30
 21
-3.09999
  0
LINE
  8
0
 10
30
 20
-3.09999
 11
30
 21
5.125
  0
LINE
  8
0
 10
30
 20
5.125
 11
31.24
 21
5.125
  0
LINE
  8
0
 10
31.24
 20
5.125
 11
31.2417
 21
5.09261
  0
LINE
  8
0
 10
31.2417
 20
5.09261
 11
31.2468
 21
5.06056
  0
LINE
  8
0
 10
31.2468
 20
5.06056
 11
31.2552
 21
5.02921
  0
LINE
  8
0
 10
31.2552
 20
5.02921
 11
31.2668
 21
4.99892
  0
LINE
  8
0
 10
31.2668
 20
4.99892
 11
31.2815
 21
4.97
  0
LINE
  8
0
 10
31.2815
 20
4.97
 11
31.2992
 21
4.94279
  0
LINE
  8
0
 10
31.2992
 20
4.94279
 11
31.3196
 21
4.91757
  0
LINE
  8
0
 10
31.3196
 20
4.91757
 11
31.3426
 21
4.89464
  0
LINE
  8
0
 10
31.3426
 20
4.89464
 11
31.3678
 21
4.87421
  0
LINE
  8
0
 10
31.3678
 20
4.87421
 11
31.395
 21
4.85654
  0
LINE
  8
0
 10
31.395
 20
4.85654
 11
31.4239
 21
4.84181
  0
LINE
  8
0
 10
31.4239
 20
4.84181
 11
31.4542
 21
4.83018
  0
LINE
  8
0
 10
31.4542
 20
4.83018
 11
31.4855
 21
4.82178
  0
LINE
  8
0
 10
31.4855
 20
4.82178
 11
31.5176
 21
4.81671
  0
LINE
  8
0
 10
31.5176
 20
4.81671
 11
31.55
 21
4.815
  0
LINE
  8
0
 10
31.55
 20
4.815
 11
31.5824
 21
4.81671
  0
LINE
  8
0
 10
31.5824
 20
4.81671
 11
31.6144
 21
4.82178
  0
LINE
  8
0
 10
31.6144
 20
4.82178
 11
31.6458
 21
4.83018
  0
LINE
  8
0
 10
31.6458
 20
4.83018
 11
31.6761
 21
4.84181
  0
LINE
  8
0
 10
31.6761
 20
4.84181
 11
31.705
 21
4.85654
  0
LINE
  8
0
 10
31.705
 20
4.85654
 11
31.7322
 21
4.87421
  0
LINE
  8
0
 10
31.7322
 20
4.87421
 11
31.7574
 21
4.89464
  0
LINE
  8
0
 10
31.7574
 20
4.89464
 11
31.7804
 21
4.91757
  0
LINE
  8
0
 10
31.7804
 20
4.91757
 11
31.8008
 21
4.94279
  0
LINE
  8
0
 10
31.8008
 20
4.94279
 11
31.8185
 21
4.97
  0
LINE
  8
0
 10
31.8185
 20
4.97
 11
31.8332
 21
4.99892
  0
LINE
  8
0
 10
31.8332
 20
4.99892
 11
31.8448
 21
5.02921
  0
LINE
  8
0
 10
31.8448
 20
5.02921
 11
31.8532
 21
5.06056
  0
LINE
  8
0
 10
31.8532
 20
5.06056
 11
31.8583
 21
5.09261
  0
LINE
  8
0
 10
31.8583
 20
5.09261
 11
31.86
 21
5.125
  0
LINE
  8
0
 10
31.86
 20
5.125
 11
33.1
 21
5.125
  0
LINE
  8
0
 10
33.1
 20
5.125
 11
33.1
 21
10.25
  0
LINE
  8
0
 10
33.1
 20
10.25
 11
30
 21
10.25
  0
LINE
  8
0
 10
30
 20
10.25
 11
30
 21
15.375
  0
LINE
  8
0
 10
30
 20
15.375
 11
31.24
 21
15.375
  0
LINE
  8
0
 10
31.24
 20
15.375
 11
31.2417
 21
15.3426
  0
LINE
  8
0
 10
31.2417
 20
15.3426
 11
31.2468
 21
15.3106
  0
LINE
  8
0
 10
31.2468
 20
15.3106
 11
31.2552
 21
15.2792
  0
LINE
  8
0
 10
31.2552
 20
15.2792
 11
31.2668
 21
15.2489
  0
LINE
  8
0
 10
31.2668
 20
15.2489
 11
31.2815
 21
15.22
  0
LINE
  8
0
 10
31.2815
 20
15.22
 11
31.2992
 21
15.1928
  0
LINE
  8
0
 10
31.2992
 20
15.1928
 11
31.3196
 21
15.1676
  0
LINE
  8
0
 10
31.3196
 20
15.1676
 11
31.3426
 21
15.1446
  0
LINE
  8
0
 10
31.3426
 20
15.1446
 11
31.3678
 21
15.1242
  0
LINE
  8
0
 10
31.3678
 20
15.1242
 11
31.395
 21
15.1065
  0
LINE
  8
0
 10
31.395
 20
15.1065
 11
31.4239
 21
15.0918
  0
LINE
  8
0
 10
31.4239
 20
15.0918
 11
31.4542
 21
15.0802
  0
LINE
  8
0
 10
31.4542
 20
15.0802
 11
31.4855
 21
15.0718
  0
LINE
  8
0
 10
31.4855
 20
15.0718
 11
31.5176
 21
15.0667
  0
LINE
  8
0
 10
31.5176
 20
15.0667
 11
31.55
 21
15.065
  0
LINE
  8
0
 10
31.55
 20
15.065
 11
31.5824
 21
15.0667
  0
LINE
  8
0
 10
31.5824
 20
15.0667
 11
31.6144
 21
15.0718
  0
LINE
  8
0
 10
31.6144
 20
15.0718
 11
31.6458
 21
15.0802
  0
LINE
  8
0
 10
31.6458
 20
15.0802
 11
31.6761
 21
15.0918
  0
LINE
  8
0
 10
31.6761
 20
15.0918
 11
31.705
 21
15.1065
  0
LINE
  8
0
 10
31.705
 20
15.1065
 11
31.7322
 21
15.1242
  0
LINE
  8
0
 10
31.7322
 20
15.1242
 11
31.7574
 21
15.1446
  0
LINE
  8
0
 10
31.7574
 20
15.1446
 11
31.7804
 21
15.1676
  0
LINE
  8
0
 10
31.7804
 20
15.1676
 11
31.8008
 21
15.1928
  0
LINE
  8
0
 10
31.8008
 20
15.1928
 11
31.8185
 21
15.22
  0
LINE
  8
0
 10
31.8185
 20
15.22
 11
31.8332
 21
15.2489
  0
LINE
  8
0
 10
31.8332
 20
15.2489
 11
31.8448
 21
15.2792
  0
LINE
  8
0
 10
31.8448
 20
15.2792
 11
31.8532
 21
15.3106
  0
LINE
  8
0
 10
31.8532
 20
15.3106
 11
31.8583
 21
15.3426
  0
LINE
  8
0
 10
31.8583
 20
15.3426
 11
31.86
 21
15.375
  0
LINE
  8
0
 10
31.86
 20
15.375
 11
33.1
 21
15.375
  0
LINE
  8
0
 10
33.1
 20
15.375
 11
33.1
 21
20.5
  0
LINE
  8
0
 10
33.1
 20
20.5
 11
30
 21
20.5
  0
LINE
  8
0
 10
30
 20
20.5
 11
30
 21
25.625
  0
LINE
  8
0
 10
30
 20
25.625
 11
31.24
 21
25.625
  0
LINE
  8
0
 10
31.24
 20
25.625
 11
31.2417
 21
25.5926
  0
LINE
  8
0
 10
31.2417
 20
25.5926
 11
31.2468
 21
25.5606
  0
LINE
  8
0
 10
31.2468
 20
25.5606
 11
31.2552
 21
25.5292
  0
LINE
  8
0
 10
31.2552
 20
25.5292
 11
31.2668
 21
25.4989
  0
LINE
  8
0
 10
31.2668
 20
25.4989
 11
31.2815
 21
25.47
  0
LINE
  8
0
 10
31.2815
 20
25.47
 11
31.2992
 21
25.4428
  0
LINE
  8
0
 10
31.2992
 20
25.4428
 11
31.3196
 21
25.4176
  0
LINE
  8
0
 10
31.3196
 20
25.4176
 11
31.3426
 21
25.3946
  0
LINE
  8
0
 10
31.3426
 20
25.3946
 11
31.3678
 21
25.3742
  0
LINE
  8
0
 10
31.3678
 20
25.3742
 11
31.395
 21
25.3565
  0
LINE
  8
0
 10
31.395
 20
25.3565
 11
31.4239
 21
25.3418
  0
LINE
  8
0
 10
31.4239
 20
25.3418
 11
31.4542
 21
25.3302
  0
LINE
  8
0
 10
31.4542
 20
25.3302
 11
31.4855
 21
25.3218
  0
LINE
  8
0
 10
31.4855
 20
25.3218
 11
31.5176
 21
25.3167
  0
LINE
  8
0
 10
31.5176
 20
25.3167
 11
31.55
 21
25.315
  0
LINE
  8
0
 10
31.55
 20
25.315
 11
31.5824
 21
25.3167
  0
LINE
  8
0
 10
31.5824
 20
25.3167
 11
31.6144
 21
25.3218
  0
LINE
  8
0
 10
31.6144
 20
25.3218
 11
31.6458
 21
25.3302
  0
LINE
  8
0
 10
31.6458
 20
25.3302
 11
31.6761
 21
25.3418
  0
LINE
  8
0
 10
31.6761
 20
25.3418
 11
31.705
 21
25.3565
  0
LINE
  8
0
 10
31.705
 20
25.3565
 11
31.7322
 21
25.3742
  0
LINE
  8
0
 10
31.7322
 20
25.3742
 11
31.7574
 21
25.3946
  0
LINE
  8
0
 10
31.7574
 20
25.3946
 11
31.7804
 21
25.4176
  0
LINE
  8
0
 10
31.7804
 20
25.4176
 11
31.8008
 21
25.4428
  0
LINE
  8
0
 10
31.8008
 20
25.4428
 11
31.8185
 21
25.47
  0
LINE
  8
0
 10
31.8185
 20
25.47
 11
31.8332
 21
25.4989
  0
LINE
  8
0
 10
31.8332
 20
25.4989
 11
31.8448
 21
25.5292
  0
LINE
  8
0
 10
31.8448
 20
25.5292
 11
31.8532
 21
25.5606
  0
LINE
  8
0
 10
31.8532
 20
25.5606
 11
31.8583
 21
25.5926
  0
LINE
  8
0
 10
31.8583
 20
25.5926
 11
31.86
 21
25.625
  0
LINE
  8
0
 10
31.86
 20
25.625
 11
33.1
 21
25.625
  0
LINE
  8
0
 10
33.1
 20
25.625
 11
33.1
 21
30.75
  0
LINE
  8
0
 10
33.1
 20
30.75
 11
30
 21
30.75
  0
LINE
  8
0
 10
30
 20
30.75
 11
30
 21
35.875
  0
LINE
  8
0
 10
30
 20
35.875
 11
31.24
 21
35.875
  0
LINE
  8
0
 10
31.24
 20
35.875
 11
31.2417
 21
35.8426
  0
LINE
  8
0
 10
31.2417
 20
35.8426
 11
31.2468
 21
35.8106
  0
LINE
  8
0
 10
31.2468
 20
35.8106
 11
31.2552
 21
35.7792
  0
LINE
  8
0
 10
31.2552
 20
35.7792
 11
31.2668
 21
35.7489
  0
LINE
  8
0
 10
31.2668
 20
35.7489
 11
31.2815
 21
35.72
  0
LINE
  8
0
 10
31.2815
 20
35.72
 11
31.2992
 21
35.6928
  0
LINE
  8
0
 10
31.2992
 20
35.6928
 11
31.3196
 21
35.6676
  0
LINE
  8
0
 10
31.3196
 20
35.6676
 11
31.3426
 21
35.6446
  0
LINE
  8
0
 10
31.3426
 20
35.6446
 11
31.3678
 21
35.6242
  0
LINE
  8
0
 10
31.3678
 20
35.6242
 11
31.395
 21
35.6065
  0
LINE
  8
0
 10
31.395
 20
35.6065
 11
31.4239
 21
35.5918
  0
LINE
  8
0
 10
31.4239
 20
35.5918
 11
31.4542
 21
35.5802
  0
LINE
  8
0
 10
31.4542
 20
35.5802
 11
31.4855
 21
35.5718
  0
LINE
  8
0
 10
31.4855
 20
35.5718
 11
31.5176
 21
35.5667
  0
LINE
  8
0
 10
31.5176
 20
35.5667
 11
31.55
 21
35.565
  0
LINE
  8
0
 10
31.55
 20
35.565
 11
31.5824
 21
35.5667
  0
LINE
  8
0
 10
31.5824
 20
35.5667
 11
31.6144
 21
35.5718
  0
LINE
  8
0
 10
31.6144
 20
35.5718
 11
31.6458
 21
35.5802
  0
LINE
  8
0
 10
31.6458
 20
35.5802
 11
31.6761
 21
35.5918
  0
LINE
  8
0
 10
31.6761
 20
35.5918
 11
31.705
 21
35.6065
  0
LINE
  8
0
 10
31.705
 20
35.6065
 11
31.7322
 21
35.6242
  0
LINE
  8
0
 10
31.7322
 20
35.6242
 11
31.7574
 21
35.6446
  0
LINE
  8
0
 10
31.7574
 20
35.6446
 11
31.7804
 21
35.6676
  0
LINE
  8
0
 10
31.7804
 20
35.6676
 11
31.8008
 21
35.6928
  0
LINE
  8
0
 10
31.8008
 20
35.6928
 11
31.8185
 21
35.72
  0
LINE
  8
0
 10
31.8185
 20
35.72
 11
31.8332
 21
35.7489
  0
LINE
  8
0
 10
31.8332
 20
35.7489
 11
31.8448
 21
35.7792
  0
LINE
  8
0
 10
31.8448
 20
35.7792
 11
31.8532
 21
35.8106
  0
LINE
  8
0
 10
31.8532
 20
35.8106
 11
31.8583
 21
35.8426
  0
LINE
  8
0
 10
31.8583
 20
35.8426
 11
31.86
 21
35.875
  0
LINE
  8
0
 10
31.86
 20
35.875
 11
33.1
 21
35.875
  0
LINE
  8
0
 10
33.1
 20
35.875
 11
33.1
 21
41
  0
LINE
  8
0
 10
33.1
 20
41
 11
25
 21
41
  0
LINE
  8
0
 10
25
 20
41
 11
25
 21
42.24
  0
LINE
  8
0
 10
25
 20
42.24
 11
25.0324
 21
42.2417
  0
LINE
  8
0
 10
25.0324
 20
42.2417
 11
25.0644
 21
42.2468
  0
LINE
  8
0
 10
25.0644
 20
42.2468
 11
25.0958
 21
42.2552
  0
LINE
  8
0
 10
25.0958
 20
42.2552
 11
25.1261
 21
42.2668
  0
LINE
  8
0
 10
25.1261
 20
42.2668
 11
25.155
 21
42.2815
  0
LINE
  8
0
 10
25.155
 20
42.2815
 11
25.1822
 21
42.2992
  0
LINE
  8
0
 10
25.1822
 20
42.2992
 11
25.2074
 21
42.3196
  0
LINE
  8
0
 10
25.2074
 20
42.3196
 11
25.2304
 21
42.3426
  0
LINE
  8
0
 10
25.2304
 20
42.3426
 11
25.2508
 21
42.3678
  0
LINE
  8
0
 10
25.2508
 20
42.3678
 11
25.2685
 21
42.395
  0
LINE
  8
0
 10
25.2685
 20
42.395
 11
25.2832
 21
42.4239
  0
LINE
  8
0
 10
25.2832
 20
42.4239
 11
25.2948
 21
42.4542
  0
LINE
  8
0
 10
25.2948
 20
42.4542
 11
25.3032
 21
42.4855
  0
LINE
  8
0
 10
25.3032
 20
42.4855
 11
25.3083
 21
42.5176
  0
LINE
  8
0
 10
25.3083
 20
42.5176
 11
25.31
 21
42.55
  0
LINE
  8
0
 10
25.31
 20
42.55
 11
25.3083
 21
42.5824
  0
LINE
  8
0
 10
25.3083
 20
42.5824
 11
25.3032
 21
42.6144
  0
LINE
  8
0
 10
25.3032
 20
42.6144
 11
25.2948
 21
42.6458
  0
LINE
  8
0
 10
25.2948
 20
42.6458
 11
25.2832
 21
42.6761
  0
LINE
  8
0
 10
25.2832
 20
42.6761
 11
25.2685
 21
42.705
  0
LINE
  8
0
 10
25.2685
 20
42.705
 11
25.2508
 21
42.7322
  0
LINE
  8
0
 10
25.2508
 20
42.7322
 11
25.2304
 21
42.7574
  0
LINE
  8
0
 10
25.2304
 20
42.7574
 11
25.2074
 21
42.7804
  0
LINE
  8
0
 10
25.2074
 20
42.7804
 11
25.1822
 21
42.8008
  0
LINE
  8
0
 10
25.1822
 20
42.8008
 11
25.155
 21
42.8185
  0
LINE
  8
0
 10
25.155
 20
42.8185
 11
25.1261
 21
42.8332
  0
LINE
  8
0
 10
25.1261
 20
42.8332
 11
25.0958
 21
42.8448
  0
LINE
  8
0
 10
25.0958
 20
42.8448
 11
25.0644
 21
42.8532
  0
LINE
  8
0
 10
25.0644
 20
42.8532
 11
25.0324
 21
42.8583
  0
LINE
  8
0
 10
25.0324
 20
42.8583
 11
25
 21
42.86
  0
LINE
  8
0
 10
25
 20
42.86
 11
25
 21
44.1
  0
LINE
  8
0
 10
25
 20
44.1
 11
20
 21
44.1
  0
LINE
  8
0
 10
20
 20
44.1
 11
20
 21
41
  0
LINE
  8
0
 10
20
 20
41
 11
15
 21
41
  0
LINE
  8
0
 10
15
 20
41
 11
15
 21
42.24
  0
LINE
  8
0
 10
15
 20
42.24
 11
15.0324
 21
42.2417
  0
LINE
  8
0
 10
15.0324
 20
42.2417
 11
15.0644
 21
42.2468
  0
LINE
  8
0
 10
15.0644
 20
42.2468
 11
15.0958
 21
42.2552
  0
LINE
  8
0
 10
15.0958
 20
42.2552
 11
15.1261
 21
42.2668
  0
LINE
  8
0
 10
15.1261
 20
42.2668
 11
15.155
 21
42.2815
  0
LINE
  8
0
 10
15.155
 20
42.2815
 11
15.1822
 21
42.2992
  0
LINE
  8
0
 10
15.1822
 20
42.2992
 11
15.2074
 21
42.3196
  0
LINE
  8
0
 10
15.2074
 20
42.3196
 11
15.2304
 21
42.3426
  0
LINE
  8
0
 10
15.2304
 20
42.3426
 11
15.2508
 21
42.3678
  0
LINE
  8
0
 10
15.2508
 20
42.3678
 11
15.2685
 21
42.395
  0
LINE
  8
0
 10
15.2685
 20
42.395
 11
15.2832
 21
42.4239
  0
LINE
  8
0
 10
15.2832
 20
42.4239
 11
15.2948
 21
42.4542
  0
LINE
  8
0
 10
15.2948
 20
42.4542
 11
15.3032
 21
42.4855
  0
LINE
  8
0
 10
15.3032
 20
42.4855
 11
15.3083
 21
42.5176
  0
LINE
  8
0
 10
15.3083
 20
42.5176
 11
15.31
 21
42.55
  0
LINE
  8
0
 10
15.31
 20
42.55
 11
15.3083
 21
42.5824
  0
LINE
  8
0
 10
15.3083
 20
42.5824
 11
15.3032
 21
42.6144
  0
LINE
  8
0
 10
15.3032
 20
42.6144
 11
15.2948
 21
42.6458
  0
LINE
  8
0
 10
15.2948
 20
42.6458
 11
15.2832
 21
42.6761
  0
LINE
  8
0
 10
15.2832
 20
42.6761
 11
15.2685
 21
42.705
  0
LINE
  8
0
 10
15.2685
 20
42.705
 11
15.2508
 21
42.7322
  0
LINE
  8
0
 10
15.2508
 20
42.7322
 11
15.2304
 21
42.7574
  0
LINE
  8
0
 10
15.2304
 20
42.7574
 11
15.2074
 21
42.7804
  0
LINE
  8
0
 10
15.2074
 20
42.7804
 11
15.1822
 21
42.8008
  0
LINE
  8
0
 10
15.1822
 20
42.8008
 11
15.155
 21
42.8185
  0
LINE
  8
0
 10
15.155
 20
42.8185
 11
15.1261
 21
42.8332
  0
LINE
  8
0
 10
15.1261
 20
42.8332
 11
15.0958
 21
42.8448
  0
LINE
  8
0
 10
15.0958
 20
42.8448
 11
15.0644
 21
42.8532
  0
LINE
  8
0
 10
15.0644
 20
42.8532
 11
15.0324
 21
42.8583
  0
LINE
  8
0
 10
15.0324
 20
42.8583
 11
15
 21
42.86
  0
LINE
  8
0
 10
15
 20
42.86
 11
15
 21
44.1
  0
LINE
  8
0
 10
15
 20
44.1
 11
10
 21
44.1
  0
LINE
  8
0
 10
10
 20
44.1
 11
10
 21
41
  0
LINE
  8
0
 10
10
 20
41
 11
5
 21
41
  0
LINE
  8
0
 10
5
 20
41
 11
5
 21
42.24
  0
LINE
  8
0
 10
5
 20
42.24
 11
5.03239
 21
42.2417
  0
LINE
  8
0
 10
5.03239
 20
42.2417
 11
5.06444
 21
42.2468
  0
LINE
  8
0
 10
5.06444
 20
42.2468
 11
5.09579
 21
42.2552
  0
LINE
  8
0
 10
5.09579
 20
42.2552
 11
5.12608
 21
42.2668
  0
LINE
  8
0
 10
5.12608
 20
42.2668
 11
5.155
 21
42.2815
  0
LINE
  8
0
 10
5.155
 20
42.2815
 11
5.18221
 21
42.2992
  0
LINE
  8
0
 10
5.18221
 20
42.2992
 11
5.20743
 21
42.3196
  0
LINE
  8
0
 10
5.20743
 20
42.3196
 11
5.23036
 21
42.3426
  0
LINE
  8
0
 10
5.23036
 20
42.3426
 11
5.25079
 21
42.3678
  0
LINE
  8
0
 10
5.25079
 20
42.3678
 11
5.26846
 21
42.395
  0
LINE
  8
0
 10
5.26846
 20
42.395
 11
5.28319
 21
42.4239
  0
LINE
  8
0
 10
5.28319
 20
42.4239
 11
5.29482
 21
42.4542
  0
LINE
  8
0
 10
5.29482
 20
42.4542
 11
5.30322
 21
42.4855
  0
LINE
  8
0
 10
5.30322
 20
42.4855
 11
5.30829
 21
42.5176
  0
LINE
  8
0
 10
5.30829
 20
42.5176
 11
5.31
 21
42.55
  0
LINE
  8
0
 10
5.31
 20
42.55
 11
5.30829
 21
42.5824
  0
LINE
  8
0
 10
5.30829
 20
42.5824
 11
5.30322
 21
42.6144
  0
LINE
  8
0
 10
5.30322
 20
42.6144
 11
5.29482
 21
42.6458
  0
LINE
  8
0
 10
5.29482
 20
42.6458
 11
5.28319
 21
42.6761
  0
LINE
  8
0
 10
5.28319
 20
42.6761
 11
5.26846
 21
42.705
  0
LINE
  8
0
 10
5.26846
 20
42.705
 11
5.25079
 21
42.7322
  0
LINE
  8
0
 10
5.25079
 20
42.7322
 11
5.23036
 21
42.7574
  0
LINE
  8
0
 10
5.23036
 20
42.7574
 11
5.20743
 21
42.7804
  0
LINE
  8
0
 10
5.20743
 20
42.7804
 11
5.18221
 21
42.8008
  0
LINE
  8
0
 10
5.18221
 20
42.8008
 11
5.155
 21
42.8185
  0
LINE
  8
0
 10
5.155
 20
42.8185
 11
5.12608
 21
42.8332
  0
LINE
  8
0
 10
5.12608
 20
42.8332
 11
5.09579
 21
42.8448
  0
LINE
  8
0
 10
5.09579
 20
42.8448
 11
5.06444
 21
42.8532
  0
LINE
  8
0
 10
5.06444
 20
42.8532
 11
5.03239
 21
42.8583
  0
LINE
  8
0
 10
5.03239
 20
42.8583
 11
5
 21
42.86
  0
LINE
  8
0
 10
5
 20
42.86
 11
5
 21
44.1
  0
LINE
  8
0
 10
5
 20
44.1
 11
0
 21
44.1
  0
LINE
  8
0
 10
0
 20
44.1
 11
0
 21
35.875
  0
LINE
  8
0
 10
0
 20
35.875
 11
-1.23999
 21
35.875
  0
LINE
  8
0
 10
-1.23999
 20
35.875
 11
-1.24168
 21
35.9074
  0
LINE
  8
0
 10
-1.24168
 20
35.9074
 11
-1.24677
 21
35.9394
  0
LINE
  8
0
 10
-1.24677
 20
35.9394
 11
-1.25516
 21
35.9708
  0
LINE
  8
0
 10
-1.25516
 20
35.9708
 11
-1.26678
 21
36.0011
  0
LINE
  8
0
 10
-1.26678
 20
36.0011
 11
-1.28152
 21
36.03
  0
LINE
  8
0
 10
-1.28152
 20
36.03
 11
-1.29919
 21
36.0572
  0
LINE
  8
0
 10
-1.29919
 20
36.0572
 11
-1.31961
 21
36.0824
  0
LINE
  8
0
 10
-1.31961
 20
36.0824
 11
-1.34256
 21
36.1054
  0
LINE
  8
0
 10
-1.34256
 20
36.1054
 11
-1.36777
 21
36.1258
  0
LINE
  8
0
 10
-1.36777
 20
36.1258
 11
-1.39499
 21
36.1435
  0
LINE
  8
0
 10
-1.39499
 20
36.1435
 11
-1.4239
 21
36.1582
  0
LINE
  8
0
 10
-1.4239
 20
36.1582
 11
-1.45419
 21
36.1698
  0
LINE
  8
0
 10
-1.45419
 20
36.1698
 11
-1.48553
 21
36.1782
  0
LINE
  8
0
 10
-1.48553
 20
36.1782
 11
-1.51758
 21
36.1833
  0
LINE
  8
0
 10
-1.51758
 20
36.1833
 11
-1.54999
 21
36.185
  0
LINE
  8
0
 10
-1.54999
 20
36.185
 11
-1.5824
 21
36.1833
  0
LINE
  8
0
 10
-1.5824
 20
36.1833
 11
-1.61444
 21
36.1782
  0
LINE
  8
0
 10
-1.61444
 20
36.1782
 11
-1.64578
 21
36.1698
  0
LINE
  8
0
 10
-1.64578
 20
36.1698
 11
-1.67607
 21
36.1582
  0
LINE
  8
0
 10
-1.67607
 20
36.1582
 11
-1.70499
 21
36.1435
  0
LINE
  8
0
 10
-1.70499
 20
36.1435
 11
-1.73219
 21
36.1258
  0
LINE
  8
0
 10
-1.73219
 20
36.1258
 11
-1.75742
 21
36.1054
  0
LINE
  8
0
 10
-1.75742
 20
36.1054
 11
-1.78036
 21
36.0824
  0
LINE
  8
0
 10
-1.78036
 20
36.0824
 11
-1.80078
 21
36.0572
  0
LINE
  8
0
 10
-1.80078
 20
36.0572
 11
-1.81845
 21
36.03
  0
LINE
  8
0
 10
-1.81845
 20
36.03
 11
-1.83319
 21
36.0011
  0
LINE
  8
0
 10
-1.83319
 20
36.0011
 11
-1.84482
 21
35.9708
  0
LINE
  8
0
 10
-1.84482
 20
35.9708
 11
-1.85321
 21
35.9394
  0
LINE
  8
0
 10
-1.85321
 20
35.9394
 11
-1.85829
 21
35.9074
  0
LINE
  8
0
 10
-1.85829
 20
35.9074
 11
-1.85999
 21
35.875
  0
LINE
  8
0
 10
-1.85999
 20
35.875
 11
-3.09999
 21
35.875
  0
LINE
  8
0
 10
-3.09999
 20
35.875
 11
-3.09999
 21
30.75
  0
LINE
  8
0
 10
-3.09999
 20
30.75
 11
0
 21
30.75
  0
LINE
  8
0
 10
0
 20
30.75
 11
0
 21
25.625
  0
LINE
  8
0
 10
0
 20
25.625
 11
-1.23999
 21
25.625
  0
LINE
  8
0
 10
-1.23999
 20
25.625
 11
-1.24168
 21
25.6574
  0
LINE
  8
0
 10
-1.24168
 20
25.6574
 11
-1.24677
 21
25.6894
  0
LINE
  8
0
 10
-1.24677
 20
25.6894
 11
-1.25516
 21
25.7208
  0
LINE
  8
0
 10
-1.25516
 20
25.7208
 11
-1.26678
 21
25.7511
  0
LINE
  8
0
 10
-1.26678
 20
25.7511
 11
-1.28152
 21
25.78
  0
LINE
  8
0
 10
-1.28152
 20
25.78
 11
-1.29919
 21
25.8072
  0
LINE
  8
0
 10
-1.29919
 20
25.8072
 11
-1.31961
 21
25.8324
  0
LINE
  8
0
 10
-1.31961
 20
25.8324
 11
-1.34256
 21
25.8554
  0
LINE
  8
0
 10
-1.34256
 20
25.8554
 11
-1.36777
 21
25.8758
  0
LINE
  8
0
 10
-1.36777
 20
25.8758
 11
-1.39499
 21
25.8935
  0
LINE
  8
0
 10
-1.39499
 20
25.8935
 11
-1.4239
 21
25.9082
  0
LINE
  8
0
 10
-1.4239
 20
25.9082
 11
-1.45419
 21
25.9198
  0
LINE
  8
0
 10
-1.45419
 20
25.9198
 11
-1.48553
 21
25.9282
  0
LINE
  8
0
 10
-1.48553
 20
25.9282
 11
-1.51758
 21
25.9333
  0
LINE
  8
0
 10
-1.51758
 20
25.9333
 11
-1.54999
 21
25.935
  0
LINE
  8
0
 10
-1.54999
 20
25.935
 11
-1.5824
 21
25.9333
  0
LINE
  8
0
 10
-1.5824
 20
25.9333
 11
-1.61444
 21
25.9282
  0
LINE
  8
0
 10
-1.61444
 20
25.9282
 11
-1.64578
 21
25.9198
  0
LINE
  8
0
 10
-1.64578
 20
25.9198
 11
-1.67607
 21
25.9082
  0
LINE
  8
0
 10
-1.67607
 20
25.9082
 11
-1.70499
 21
25.8935
  0
LINE
  8
0
 10
-1.70499
 20
25.8935
 11
-1.73219
 21
25.8758
  0
LINE
  8
0
 10
-1.73219
 20
25.8758
 11
-1.75742
 21
25.8554
  0
LINE
  8
0
 10
-1.75742
 20
25.8554
 11
-1.78036
 21
25.8324
  0
LINE
  8
0
 10
-1.78036
 20
25.8324
 11
-1.80078
 21
25.8072
  0
LINE
  8
0
 10
-1.80078
 20
25.8072
 11
-1.81845
 21
25.78
  0
LINE
  8
0
 10
-1.81845
 20
25.78
 11
-1.83319
 21
25.7511
  0
LINE
  8
0
 10
-1.83319
 20
25.7511
 11
-1.84482
 21
25.7208
  0
LINE
  8
0
 10
-1.84482
 20
25.7208
 11
-1.85321
 21
25.6894
  0
LINE
  8
0
 10
-1.85321
 20
25.6894
 11
-1.85829
 21
25.6574
  0
LINE
  8
0
 10
-1.85829
 20
25.6574
 11
-1.85999
 21
25.625
  0
LINE
  8
0
 10
-1.85999
 20
25.625
 11
-3.09999
 21
25.625
  0
LINE
  8
0
 10
-3.09999
 20
25.625
 11
-3.09999
 21
20.5
  0
LINE
  8
0
 10
-3.09999
 20
20.5
 11
0
 21
20.5
  0
LINE
  8
0
 10
0
 20
20.5
 11
0
 21
15.375
  0
LINE
  8
0
 10
0
 20
15.375
 11
-1.23999
 21
15.375
  0
LINE
  8
0
 10
-1.23999
 20
15.375
 11
-1.24168
 21
15.4074
  0
LINE
  8
0
 10
-1.24168
 20
15.4074
 11
-1.24677
 21
15.4394
  0
LINE
  8
0
 10
-1.24677
 20
15.4394
 11
-1.25516
 21
15.4708
  0
LINE
  8
0
 10
-1.25516
 20
15.4708
 11
-1.26678
 21
15.5011
  0
LINE
  8
0
 10
-1.26678
 20
15.5011
 11
-1.28152
 21
15.53
  0
LINE
  8
0
 10
-1.28152
 20
15.53
 11
-1.29919
 21
15.5572
  0
LINE
  8
0
 10
-1.29919
 20
15.5572
 11
-1.31961
 21
15.5824
  0
LINE
  8
0
 10
-1.31961
 20
15.5824
 11
-1.34256
 21
15.6054
  0
LINE
  8
0
 10
-1.34256
 20
15.6054
 11
-1.36777
 21
15.6258
  0
LINE
  8
0
 10
-1.36777
 20
15.6258
 11
-1.39499
 21
15.6435
  0
LINE
  8
0
 10
-1.39499
 20
15.6435
 11
-1.4239
 21
15.6582
  0
LINE
  8
0
 10
-1.4239
 20
15.6582
 11
-1.45419
 21
15.6698
  0
LINE
  8
0
 10
-1.45419
 20
15.6698
 11
-1.48553
 21
15.6782
  0
LINE
  8
0
 10
-1.48553
 20
15.6782
 11
-1.51758
 21
15.6833
  0
LINE
  8
0
 10
-1.51758
 20
15.6833
 11
-1.54999
 21
15.685
  0
LINE
  8
0
 10
-1.54999
 20
15.685
 11
-1.5824
 21
15.6833
  0
LINE
  8
0
 10
-1.5824
 20
15.6833
 11
-1.61444
 21
15.6782
  0
LINE
  8
0
 10
-1.61444
 20
15.6782
 11
-1.64578
 21
15.6698
  0
LINE
  8
0
 10
-1.64578
 20
15.6698
 11
-1.67607
 21
15.6582
  0
LINE
  8
0
 10
-1.67607
 20
15.6582
 11
-1.70499
 21
15.6435
  0
LINE
  8
0
 10
-1.70499
 20
15.6435
 11
-1.73219
 21
15.6258
  0
LINE
  8
0
 10
-1.73219
 20
15.6258
 11
-1.75742
 21
15.6054
  0
LINE
  8
0
 10
-1.75742
 20
15.6054
 11
-1.78036
 21
15.5824
  0
LINE
  8
0
 10
-1.78036
 20
15.5824
 11
-1.80078
 21
15.5572
  0
LINE
  8
0
 10
-1.80078
 20
15.5572
 11
-1.81845
 21
15.53
  0
LINE
  8
0
 10
-1.81845
 20
15.53
 11
-1.83319
 21
15.5011
  0
LINE
  8
0
 10
-1.83319
 20
15.5011
 11
-1.84482
 21
15.4708
  0
LINE
  8
0
 10
-1.84482
 20
15.4708
 11
-1.85321
 21
15.4394
  0
LINE
  8
0
 10
-1.85321
 20
15.4394
 11
-1.85829
 21
15.4074
  0
LINE
  8
0
 10
-1.85829
 20
15.4074
 11
-1.85999
 21
15.375
  0
LINE
  8
0
 10
-1.85999
 20
15.375
 11
-3.09999
 21
15.375
  0
LINE
  8
0
 10
-3.09999
 20
15.375
 11
-3.09999
 21
10.25
  0
LINE
  8
0
 10
-3.09999
 20
10.25
 11
0
 21
10.25
  0
LINE
  8
0
 10
0
 20
10.25
 11
0
 21
5.125
  0
LINE
  8
0
 10
0
 20
5.125
 11
-1.23999
 21
5.125
  0
LINE
  8
0
 10
-1.23999
 20
5.125
 11
-1.24168
 21
5.15739
  0
LINE
  8
0
 10
-1.24168
 20
5.15739
 11
-1.24677
 21
5.18944
  0
LINE
  8
0
 10
-1.24677
 20
5.18944
 11
-1.25516
 21
5.22079
  0
LINE
  8
0
 10
-1.25516
 20
5.22079
 11
-1.26678
 21
5.25108
  0
LINE
  8
0
 10
-1.26678
 20
5.25108
 11
-1.28152
 21
5.28
  0
LINE
  8
0
 10
-1.28152
 20
5.28
 11
-1.29919
 21
5.30721
  0
LINE
  8
0
 10
-1.29919
 20
5.30721
 11
-1.31961
 21
5.33243
  0
LINE
  8
0
 10
-1.31961
 20
5.33243
 11
-1.34256
 21
5.35536
  0
LINE
  8
0
 10
-1.34256
 20
5.35536
 11
-1.36777
 21
5.37579
  0
LINE
  8
0
 10
-1.36777
 20
5.37579
 11
-1.39499
 21
5.39346
  0
LINE
  8
0
 10
-1.39499
 20
5.39346
 11
-1.4239
 21
5.40819
  0
LINE
  8
0
 10
-1.4239
 20
5.40819
 11
-1.45419
 21
5.41982
  0
LINE
  8
0
 10
-1.45419
 20
5.41982
 11
-1.48553
 21
5.42822
  0
LINE
  8
0
 10
-1.48553
 20
5.42822
 11
-1.51758
 21
5.43329
  0
LINE
  8
0
 10
-1.51758
 20
5.43329
 11
-1.54999
 21
5.435
  0
LINE
  8
0
 10
-1.54999
 20
5.435
 11
-1.5824
 21
5.43329
  0
LINE
  8
0
 10
-1.5824
 20
5.43329
 11
-1.61444
 21
5.42822
  0
LINE
  8
0
 10
-1.61444
 20
5.42822
 11
-1.64578
 21
5.41982
  0
LINE
  8
0
 10
-1.64578
 20
5.41982
 11
-1.67607
 21
5.40819
  0
LINE
  8
0
 10
-1.67607
 20
5.40819
 11
-1.70499
 21
5.39346
  0
LINE
  8
0
 10
-1.70499
 20
5.39346
 11
-1.73219
 21
5.37579
  0
LINE
  8
0
 10
-1.73219
 20
5.37579
 11
-1.75742
 21
5.35536
  0
LINE
  8
0
 10
-1.75742
 20
5.35536
 11
-1.78036
 21
5.33243
  0
LINE
  8
0
 10
-1.78036
 20
5.33243
 11
-1.80078
 21
5.30721
  0
LINE
  8
0
 10
-1.80078
 20
5.30721
 11
-1.81845
 21
5.28
  0
LINE
  8
0
 10
-1.81845
 20
5.28
 11
-1.83319
 21
5.25108
  0
LINE
  8
0
 10
-1.83319
 20
5.25108
 11
-1.84482
 21
5.22079
  0
LINE
  8
0
 10
-1.84482
 20
5.22079
 11
-1.85321
 21
5.18944
  0
LINE
  8
0
 10
-1.85321
 20
5.18944
 11
-1.85829
 21
5.15739
  0
LINE
  8
0
 10
-1.85829
 20
5.15739
 11
-1.85999
 21
5.125
  0
LINE
  8
0
 10
-1.85999
 20
5.125
 11
-3.09999
 21
5.125
  0
LINE
  8
0
 10
-3.09999
 20
5.125
 11
-3.09999
 21
0
  0
LINE
  8
0
 10
-3.09999
 20
0
 11
5
 21
0
  0
LINE
  8
0
 10
5
 20
0
 11
5
 21
-1.23999
  0
LINE
  8
0
 10
5
 20
-1.23999
 11
4.96761
 21
-1.24168
  0
LINE
  8
0
 10
4.96761
 20
-1.24168
 11
4.93556
 21
-1.24677
  0
LINE
  8
0
 10
4.93556
 20
-1.24677
 11
4.90421
 21
-1.25516
  0
LINE
  8
0
 10
4.90421
 20
-1.25516
 11
4.87392
 21
-1.26678
  0
LINE
  8
0
 10
4.87392
 20
-1.26678
 11
4.845
 21
-1.28152
  0
LINE
  8
0
 10
4.845
 20
-1.28152
 11
4.81779
 21
-1.29919
  0
LINE
  8
0
 10
4.81779
 20
-1.29919
 11
4.79257
 21
-1.31961
  0
LINE
  8
0
 10
4.79257
 20
-1.31961
 11
4.76964
 21
-1.34256
  0
LINE
  8
0
 10
4.76964
 20
-1.34256
 11
4.74921
 21
-1.36777
  0
LINE
  8
0
 10
4.74921
 20
-1.36777
 11
4.73154
 21
-1.39499
  0
LINE
  8
0
 10
4.73154
 20
-1.39499
 11
4.71681
 21
-1.4239
  0
LINE
  8
0
 10
4.71681
 20
-1.4239
 11
4.70518
 21
-1.45419
  0
LINE
  8
0
 10
4.70518
 20
-1.45419
 11
4.69678
 21
-1.48553
  0
LINE
  8
0
 10
4.69678
 20
-1.48553
 11
4.69171
 21
-1.51758
  0
LINE
  8
0
 10
4.69171
 20
-1.51758
 11
4.69
 21
-1.54999
  0
LINE
  8
0
 10
4.69
 20
-1.54999
 11
4.69171
 21
-1.5824
  0
LINE
  8
0
 10
4.69171
 20
-1.5824
 11
4.69678
 21
-1.61444
  0
LINE
  8
0
 10
4.69678
 20
-1.61444
 11
4.70518
 21
-1.64578
  0
LINE
  8
0
 10
4.70518
 20
-1.64578
 11
4.71681
 21
-1.67607
  0
LINE
  8
0
 10
4.71681
 20
-1.67607
 11
4.73154
 21
-1.70499
  0
LINE
  8
0
 10
4.73154
 20
-1.70499
 11
4.74921
 21
-1.73219
  0
LINE
  8
0
 10
4.74921
 20
-1.73219
 11
4.76964
 21
-1.75742
  0
LINE
  8
0
 10
4.76964
 20
-1.75742
 11
4.79257
 21
-1.78036
  0
LINE
  8
0
 10
4.79257
 20
-1.78036
 11
4.81779
 21
-1.80078
  0
LINE
  8
0
 10
4.81779
 20
-1.80078
 11
4.845
 21
-1.81845
  0
LINE
  8
0
 10
4.845
 20
-1.81845
 11
4.87392
 21
-1.83319
  0
LINE
  8
0
 10
4.87392
 20
-1.83319
 11
4.90421
 21
-1.84482
  0
LINE
  8
0
 10
4.90421
 20
-1.84482
 11
4.93556
 21
-1.85321
  0
LINE
  8
0
 10
4.93556
 20
-1.85321
 11
4.96761
 21
-1.85829
  0
LINE
  8
0
 10
4.96761
 20
-1.85829
 11
5
 21
-1.85999
  0
LINE
  8
0
 10
5
 20
-1.85999
 11
5
 21
-3.09999
  0
LINE
  8
0
 10
5
 20
-3.09999
 11
10
 21
-3.09999
  0
LINE
  8
0
 10
10
 20
-3.09999
 11
10
 21
0
  0
LINE
  8
0
 10
5
 20
16
 11
5
 21
36.1
  0
LINE
  8
0
 10
5
 20
36.1
 11
20.1
 21
36.1
  0
LINE
  8
0
 10
20.1
 20
36.1
 11
20.1
 21
16
  0
LINE
  8
0
 10
20.1
 20
16
 11
5
 21
16
  0
ENDSEC
  0
SECTION
  2
OBJECTS
  0
DICTIONARY
  0
ENDSEC
  0
EOF
