G75*
%MOIN*%
%OFA0B0*%
%FSLAX25Y25*%
%IPPOS*%
%LPD*%
%AMOC8*
5,1,8,0,0,1.08239X$1,22.5*
%
%ADD10R,0.03937X0.05512*%
%ADD11R,0.05512X0.03937*%
%ADD12R,0.04000X0.02400*%
%ADD13R,0.07874X0.06299*%
%ADD14R,0.06299X0.10630*%
%ADD15R,0.06299X0.07874*%
%ADD16C,0.06000*%
%ADD17C,0.01000*%
%ADD18C,0.00600*%
%ADD19C,0.03500*%
D10*
X0027760Y0010919D03*
X0035240Y0010919D03*
X0031500Y0019581D03*
D11*
X0010919Y0030260D03*
X0019581Y0034000D03*
X0010919Y0037740D03*
D12*
X0019750Y0025250D03*
X0010750Y0021500D03*
X0019750Y0017750D03*
D13*
X0031500Y0025988D03*
X0041500Y0020762D03*
X0050250Y0020762D03*
X0050250Y0009738D03*
X0041500Y0009738D03*
X0031500Y0037012D03*
D14*
X0038988Y0032750D03*
X0050012Y0032750D03*
D15*
X0020762Y0011500D03*
X0009738Y0011500D03*
D16*
X0058500Y0012750D02*
X0064500Y0012750D01*
X0064500Y0022750D02*
X0058500Y0022750D01*
X0058500Y0032750D02*
X0064500Y0032750D01*
D17*
X0007500Y0006263D02*
X0007500Y0006250D01*
X0016886Y0006250D01*
X0016691Y0006363D01*
X0016412Y0006642D01*
X0016214Y0006984D01*
X0016112Y0007366D01*
X0016112Y0011000D01*
X0020262Y0011000D01*
X0020262Y0012000D01*
X0016112Y0012000D01*
X0016112Y0015634D01*
X0016214Y0016016D01*
X0016412Y0016358D01*
X0016450Y0016396D01*
X0016450Y0018600D01*
X0015993Y0018600D01*
X0014872Y0019064D01*
X0014162Y0019774D01*
X0014148Y0019721D01*
X0013951Y0019379D01*
X0013671Y0019100D01*
X0013329Y0018903D01*
X0012948Y0018800D01*
X0010850Y0018800D01*
X0010850Y0021400D01*
X0010650Y0021400D01*
X0010650Y0018800D01*
X0009100Y0018800D01*
X0009100Y0016737D01*
X0013426Y0016737D01*
X0014188Y0015975D01*
X0014188Y0007025D01*
X0013426Y0006263D01*
X0007500Y0006263D01*
X0013907Y0006744D02*
X0016353Y0006744D01*
X0016112Y0007743D02*
X0014188Y0007743D01*
X0014188Y0008741D02*
X0016112Y0008741D01*
X0016112Y0009740D02*
X0014188Y0009740D01*
X0014188Y0010738D02*
X0016112Y0010738D01*
X0014188Y0011737D02*
X0020262Y0011737D01*
X0021262Y0011737D02*
X0024491Y0011737D01*
X0024491Y0012000D02*
X0021262Y0012000D01*
X0021262Y0011000D01*
X0024491Y0011000D01*
X0024491Y0012000D01*
X0025250Y0016118D02*
X0025250Y0017425D01*
X0024672Y0017664D01*
X0023814Y0018522D01*
X0023350Y0019643D01*
X0023350Y0020857D01*
X0023403Y0020984D01*
X0021637Y0022750D01*
X0019446Y0022750D01*
X0019650Y0022257D01*
X0019650Y0021043D01*
X0019392Y0020421D01*
X0019563Y0020250D01*
X0022288Y0020250D01*
X0023050Y0019488D01*
X0023050Y0016937D01*
X0024109Y0016937D01*
X0024490Y0016835D01*
X0024832Y0016637D01*
X0025112Y0016358D01*
X0025250Y0016118D01*
X0025250Y0016729D02*
X0024673Y0016729D01*
X0024609Y0017728D02*
X0023050Y0017728D01*
X0023050Y0018726D02*
X0023730Y0018726D01*
X0023350Y0019725D02*
X0022814Y0019725D01*
X0023350Y0020723D02*
X0019517Y0020723D01*
X0019650Y0021722D02*
X0022666Y0021722D01*
X0021667Y0022720D02*
X0019458Y0022720D01*
X0016450Y0024700D02*
X0015993Y0024700D01*
X0014872Y0024236D01*
X0014063Y0023427D01*
X0013951Y0023621D01*
X0013671Y0023901D01*
X0013329Y0024098D01*
X0012948Y0024200D01*
X0010913Y0024200D01*
X0011900Y0025187D01*
X0011900Y0026991D01*
X0014214Y0026991D01*
X0014975Y0027753D01*
X0014975Y0029412D01*
X0016924Y0027463D01*
X0016450Y0026988D01*
X0016450Y0024700D01*
X0016450Y0024717D02*
X0011430Y0024717D01*
X0011900Y0025716D02*
X0016450Y0025716D01*
X0016450Y0026714D02*
X0011900Y0026714D01*
X0014935Y0027713D02*
X0016674Y0027713D01*
X0015676Y0028711D02*
X0014975Y0028711D01*
X0018204Y0030708D02*
X0025250Y0030708D01*
X0025250Y0029710D02*
X0019203Y0029710D01*
X0019363Y0029550D02*
X0018181Y0030731D01*
X0022875Y0030731D01*
X0023637Y0031493D01*
X0023637Y0032650D01*
X0025250Y0032650D01*
X0025250Y0029550D01*
X0019363Y0029550D01*
X0023637Y0031707D02*
X0025250Y0031707D01*
X0025250Y0035850D02*
X0023637Y0035850D01*
X0023637Y0036507D01*
X0022875Y0037268D01*
X0016286Y0037268D01*
X0015525Y0036507D01*
X0015525Y0034788D01*
X0014975Y0035338D01*
X0014975Y0040247D01*
X0014722Y0040500D01*
X0025250Y0040500D01*
X0025250Y0035850D01*
X0025250Y0036699D02*
X0023444Y0036699D01*
X0025250Y0037698D02*
X0014975Y0037698D01*
X0014975Y0038696D02*
X0025250Y0038696D01*
X0025250Y0039695D02*
X0014975Y0039695D01*
X0014975Y0036699D02*
X0015717Y0036699D01*
X0015525Y0035701D02*
X0014975Y0035701D01*
X0012083Y0033704D02*
X0007500Y0033704D01*
X0007625Y0033528D02*
X0012259Y0033528D01*
X0011316Y0034472D01*
X0007625Y0034472D01*
X0007500Y0034597D01*
X0007500Y0033403D01*
X0007625Y0033528D01*
X0007500Y0027116D02*
X0007500Y0025313D01*
X0008700Y0026513D01*
X0008700Y0026991D01*
X0007625Y0026991D01*
X0007500Y0027116D01*
X0007500Y0026714D02*
X0008700Y0026714D01*
X0007903Y0025716D02*
X0007500Y0025716D01*
X0013853Y0023719D02*
X0014355Y0023719D01*
X0010850Y0020723D02*
X0010650Y0020723D01*
X0010650Y0019725D02*
X0010850Y0019725D01*
X0009100Y0018726D02*
X0015689Y0018726D01*
X0014212Y0019725D02*
X0014149Y0019725D01*
X0016450Y0017728D02*
X0009100Y0017728D01*
X0013434Y0016729D02*
X0016450Y0016729D01*
X0016138Y0015731D02*
X0014188Y0015731D01*
X0014188Y0014732D02*
X0016112Y0014732D01*
X0016112Y0013734D02*
X0014188Y0013734D01*
X0014188Y0012735D02*
X0016112Y0012735D01*
X0024637Y0006250D02*
X0024832Y0006363D01*
X0025112Y0006642D01*
X0025244Y0006872D01*
X0025250Y0006866D01*
X0025250Y0006250D01*
X0024637Y0006250D01*
X0025171Y0006744D02*
X0025250Y0006744D01*
X0025250Y0023663D02*
X0023050Y0025863D01*
X0023050Y0026350D01*
X0025250Y0026350D01*
X0025250Y0023663D01*
X0025250Y0023719D02*
X0025194Y0023719D01*
X0025250Y0024717D02*
X0024195Y0024717D01*
X0023197Y0025716D02*
X0025250Y0025716D01*
D18*
X0021500Y0025150D02*
X0026400Y0020250D01*
X0031500Y0019581D02*
X0032000Y0020250D01*
X0032000Y0025850D01*
X0031500Y0025988D01*
X0031300Y0026550D01*
X0029900Y0027950D01*
X0018700Y0027950D01*
X0015200Y0031450D01*
X0015200Y0032850D01*
X0011000Y0037050D01*
X0010919Y0037740D01*
X0019581Y0034000D02*
X0020100Y0034250D01*
X0029200Y0034250D01*
X0031300Y0036350D01*
X0031500Y0037012D01*
X0032000Y0037050D01*
X0034800Y0039850D01*
X0042500Y0039850D01*
X0049500Y0032850D01*
X0050012Y0032750D01*
X0050200Y0032850D01*
X0061400Y0032850D01*
X0061500Y0032750D01*
X0061500Y0022750D02*
X0061400Y0022350D01*
X0060000Y0020950D01*
X0050900Y0020950D01*
X0050250Y0020762D01*
X0053000Y0016050D02*
X0046000Y0016050D01*
X0041800Y0020250D01*
X0041500Y0020762D01*
X0041100Y0020950D01*
X0041100Y0030050D01*
X0039000Y0032150D01*
X0038988Y0032750D01*
X0021500Y0025150D02*
X0020100Y0025150D01*
X0019750Y0025250D01*
X0016600Y0021650D02*
X0016600Y0020950D01*
X0019400Y0018150D01*
X0019750Y0017750D01*
X0022200Y0011850D02*
X0025700Y0015350D01*
X0036200Y0015350D01*
X0035500Y0014650D01*
X0035500Y0011150D01*
X0035240Y0010919D01*
X0032700Y0006950D02*
X0039000Y0006950D01*
X0041100Y0009050D01*
X0041500Y0009738D01*
X0041800Y0009750D01*
X0050200Y0009750D01*
X0050250Y0009738D01*
X0055800Y0013250D02*
X0053000Y0016050D01*
X0055800Y0013250D02*
X0061400Y0013250D01*
X0061500Y0012750D01*
X0041500Y0020762D02*
X0041100Y0020250D01*
X0036200Y0015350D01*
X0029200Y0010450D02*
X0032700Y0006950D01*
X0029200Y0010450D02*
X0027800Y0010450D01*
X0027760Y0010919D01*
X0022200Y0011850D02*
X0020800Y0011850D01*
X0020762Y0011500D01*
X0020100Y0011850D01*
X0011000Y0020950D01*
X0010750Y0021500D01*
X0007500Y0023050D02*
X0007500Y0013950D01*
X0009600Y0011850D01*
X0009738Y0011500D01*
X0007500Y0023050D02*
X0010300Y0025850D01*
X0010300Y0030050D01*
X0010919Y0030260D01*
D19*
X0016600Y0021650D03*
X0026400Y0020250D03*
M02*
