G75*
%MOIN*%
%OFA0B0*%
%FSLAX25Y25*%
%IPPOS*%
%LPD*%
%AMOC8*
5,1,8,0,0,1.08239X$1,22.5*
%
%ADD10C,0.06000*%
%ADD11C,0.01000*%
%ADD12C,0.00600*%
%ADD13C,0.03500*%
D10*
X0058500Y0012750D02*
X0064500Y0012750D01*
X0064500Y0022750D02*
X0058500Y0022750D01*
X0058500Y0032750D02*
X0064500Y0032750D01*
D11*
X0007500Y0040500D02*
X0007500Y0006250D01*
X0025250Y0006250D01*
X0025250Y0017425D01*
X0024672Y0017664D01*
X0023814Y0018522D01*
X0023350Y0019643D01*
X0023350Y0020050D01*
X0019239Y0020050D01*
X0019186Y0019922D01*
X0018328Y0019064D01*
X0017207Y0018600D01*
X0015993Y0018600D01*
X0014872Y0019064D01*
X0014014Y0019922D01*
X0013550Y0021043D01*
X0013550Y0022257D01*
X0014014Y0023378D01*
X0014872Y0024236D01*
X0015993Y0024700D01*
X0017207Y0024700D01*
X0018328Y0024236D01*
X0019186Y0023378D01*
X0019239Y0023250D01*
X0022937Y0023250D01*
X0025250Y0025563D01*
X0025250Y0040500D01*
X0007500Y0040500D01*
X0007500Y0039695D02*
X0025250Y0039695D01*
X0025250Y0038696D02*
X0007500Y0038696D01*
X0007500Y0037698D02*
X0025250Y0037698D01*
X0025250Y0036699D02*
X0007500Y0036699D01*
X0007500Y0035701D02*
X0025250Y0035701D01*
X0025250Y0034702D02*
X0007500Y0034702D01*
X0007500Y0033704D02*
X0025250Y0033704D01*
X0025250Y0032705D02*
X0007500Y0032705D01*
X0007500Y0031707D02*
X0025250Y0031707D01*
X0025250Y0030708D02*
X0007500Y0030708D01*
X0007500Y0029710D02*
X0025250Y0029710D01*
X0025250Y0028711D02*
X0007500Y0028711D01*
X0007500Y0027713D02*
X0025250Y0027713D01*
X0025250Y0026714D02*
X0007500Y0026714D01*
X0007500Y0025716D02*
X0025250Y0025716D01*
X0024405Y0024717D02*
X0007500Y0024717D01*
X0007500Y0023719D02*
X0014355Y0023719D01*
X0013742Y0022720D02*
X0007500Y0022720D01*
X0007500Y0021722D02*
X0013550Y0021722D01*
X0013683Y0020723D02*
X0007500Y0020723D01*
X0007500Y0019725D02*
X0014212Y0019725D01*
X0015689Y0018726D02*
X0007500Y0018726D01*
X0007500Y0017728D02*
X0024609Y0017728D01*
X0025250Y0016729D02*
X0007500Y0016729D01*
X0007500Y0015731D02*
X0025250Y0015731D01*
X0025250Y0014732D02*
X0007500Y0014732D01*
X0007500Y0013734D02*
X0025250Y0013734D01*
X0025250Y0012735D02*
X0007500Y0012735D01*
X0007500Y0011737D02*
X0025250Y0011737D01*
X0025250Y0010738D02*
X0007500Y0010738D01*
X0007500Y0009740D02*
X0025250Y0009740D01*
X0025250Y0008741D02*
X0007500Y0008741D01*
X0007500Y0007743D02*
X0025250Y0007743D01*
X0025250Y0006744D02*
X0007500Y0006744D01*
X0017511Y0018726D02*
X0023730Y0018726D01*
X0023350Y0019725D02*
X0018988Y0019725D01*
X0018845Y0023719D02*
X0023406Y0023719D01*
X0001500Y0046450D02*
X0001500Y0046500D01*
X0001550Y0046500D01*
X0001500Y0046450D01*
D12*
X0023600Y0021650D02*
X0034100Y0032150D01*
X0061400Y0032150D01*
X0061500Y0032750D01*
X0061500Y0022750D02*
X0061400Y0022350D01*
X0059300Y0020250D01*
X0026400Y0020250D01*
X0023600Y0021650D02*
X0016600Y0021650D01*
D13*
X0016600Y0021650D03*
X0026400Y0020250D03*
M02*
